<?xml version="1.0" standalone="no"?>
<!DOCTYPE svg PUBLIC "-//W3C//DTD SVG 20010904//EN"
 "http://www.w3.org/TR/2001/REC-SVG-20010904/DTD/svg10.dtd">
<svg version="1.0" xmlns="http://www.w3.org/2000/svg"
 width="2484.000000pt" height="2484.000000pt" viewBox="0 0 2484.000000 2484.000000"
 preserveAspectRatio="xMidYMid meet">

<g transform="translate(0.000000,2484.000000) scale(0.100000,-0.100000)"
fill="#000000" stroke="none">
<path d="M0 12420 l0 -12420 12420 0 12420 0 0 12420 0 12420 -12420 0 -12420
0 0 -12420z m10710 8144 c818 -45 1705 -314 2394 -724 686 -408 1244 -965
1574 -1573 524 -964 593 -2160 185 -3212 -218 -563 -572 -1078 -1008 -1464
-228 -202 -339 -280 -655 -461 -253 -145 -353 -207 -435 -268 -69 -52 -125
-103 -125 -113 0 -18 193 -164 400 -302 606 -404 884 -644 1775 -1527 620
-614 1155 -1120 1365 -1289 25 -20 106 -88 180 -151 554 -474 1054 -866 1448
-1134 303 -206 922 -581 1287 -779 314 -170 968 -479 1223 -578 46 -18 61 -28
57 -39 -5 -12 -4 -12 6 -3 9 9 20 9 48 -3 20 -8 41 -21 47 -29 5 -7 28 -16 50
-18 41 -5 537 -181 530 -188 -2 -2 7 -5 21 -6 14 0 28 -5 32 -10 3 -4 19 -9
36 -10 16 -1 31 -7 33 -13 2 -5 8 -8 12 -5 9 5 280 -74 290 -85 3 -3 11 -5 18
-6 38 -3 43 -5 37 -13 -3 -5 0 -13 6 -17 8 -5 9 -3 4 6 -8 12 7 11 60 -3 6 -2
43 -11 83 -22 43 -11 72 -24 72 -32 0 -14 8 -16 55 -14 17 1 122 -21 235 -49
113 -28 214 -52 225 -54 119 -21 441 -92 443 -98 2 -5 8 -6 13 -3 4 3 72 -6
151 -20 78 -14 146 -25 151 -25 4 0 6 -4 3 -8 -3 -5 9 -7 27 -5 54 5 -160 -66
-308 -102 -163 -40 -329 -68 -505 -86 -219 -23 -711 -14 -900 16 -14 2 -50 7
-80 10 -112 12 -443 72 -535 98 -51 14 -42 12 -98 21 -26 4 -45 11 -42 17 3 5
-1 6 -9 3 -9 -3 -24 -3 -33 1 -10 5 -29 10 -42 12 -63 11 -534 157 -611 190
-8 3 -17 7 -20 8 -3 1 -12 4 -20 8 -8 3 -39 13 -67 22 -29 9 -53 21 -53 26 0
6 -4 8 -9 5 -4 -3 -75 21 -157 53 -903 352 -1896 895 -2974 1625 -1319 894
-2698 2010 -4520 3656 -600 542 -1168 934 -1710 1178 -556 251 -1088 374
-2010 466 -220 22 -984 85 -1059 87 -22 0 -20 3 14 15 62 23 267 72 398 94
253 43 414 54 807 54 393 0 483 -4 1215 -59 666 -50 827 -58 1180 -58 331 0
508 10 728 43 471 71 805 207 1189 481 573 411 962 949 1154 1598 89 299 128
654 105 953 -48 638 -296 1216 -700 1632 -408 419 -973 688 -1761 836 -330 61
-789 115 -905 105 -38 -3 -239 -19 -445 -35 -206 -17 -381 -32 -387 -35 -8 -3
-13 4 -13 17 0 20 -3 21 -107 14 -130 -9 -447 -41 -598 -62 -1862 -253 -3209
-1026 -4187 -2402 -408 -573 -782 -1305 -1012 -1981 -302 -887 -412 -1831
-321 -2761 195 -1985 1277 -3790 2927 -4883 1400 -927 3094 -1297 4718 -1031
1050 172 2080 610 2923 1243 59 45 110 81 113 81 4 0 99 -78 213 -173 233
-196 559 -458 734 -591 64 -49 117 -92 117 -95 0 -20 -471 -383 -685 -527
-938 -634 -2013 -1057 -3139 -1234 -76 -12 -147 -20 -157 -17 -11 3 -17 2 -14
-2 8 -14 -404 -55 -715 -71 -420 -21 -788 -8 -1327 46 -35 4 -63 10 -63 14 0
4 -12 6 -27 4 -38 -4 -307 37 -311 47 -2 5 -25 9 -50 9 -71 0 -405 69 -418 86
-8 10 -13 11 -16 4 -4 -13 -401 85 -406 100 -2 5 -9 7 -15 5 -18 -7 -199 50
-190 60 4 4 2 5 -5 1 -15 -9 -174 42 -184 59 -5 7 -23 13 -40 13 -28 1 -220
66 -313 106 -16 8 -68 28 -115 46 -47 18 -89 36 -95 40 -5 4 -31 14 -57 24
-27 10 -48 22 -48 26 0 5 -8 8 -17 8 -26 -1 -124 48 -115 57 4 5 2 5 -4 2 -15
-8 -96 31 -89 43 3 5 -3 7 -13 5 -21 -4 -103 30 -113 46 -3 6 -8 9 -10 7 -10
-7 -88 36 -82 45 3 6 1 7 -5 3 -5 -3 -44 12 -86 35 -54 29 -76 46 -76 60 0 15
-7 19 -35 19 -38 0 -99 26 -91 38 2 4 -3 8 -13 8 -28 0 -332 187 -327 201 3 7
-2 10 -14 8 -11 -2 -26 3 -34 11 -8 8 -17 14 -21 14 -8 0 -164 105 -303 203
-82 58 -109 83 -100 90 9 6 8 7 -5 3 -19 -6 -80 31 -72 44 2 4 -2 7 -9 7 -21
0 -197 144 -190 155 5 7 2 8 -5 3 -19 -11 -61 34 -61 67 0 25 -3 28 -34 28
-23 0 -46 9 -68 27 -149 121 -440 402 -431 416 3 6 1 7 -6 3 -6 -4 -24 7 -42
26 -18 18 -65 67 -106 108 -40 42 -71 79 -67 83 4 4 0 7 -9 7 -9 0 -20 6 -24
14 -4 8 -27 35 -51 60 -24 25 -42 46 -40 46 2 0 -25 30 -59 68 -35 37 -61 73
-58 80 3 7 1 10 -4 7 -9 -5 -131 135 -131 150 0 3 -11 17 -25 31 -14 14 -22
30 -19 36 4 6 2 8 -3 5 -6 -4 -32 21 -57 55 -38 51 -46 70 -47 107 -1 25 -1
49 0 53 2 13 -44 9 -58 -4 -7 -7 -11 -8 -9 -3 1 6 -10 23 -25 39 -30 32 -33
42 -14 49 6 2 4 3 -7 1 -11 -2 -20 5 -23 17 -3 10 -9 19 -13 19 -10 0 -43 51
-43 67 0 7 -3 10 -6 8 -3 -1 -26 26 -49 62 -24 36 -38 62 -30 58 7 -5 3 2 -9
13 -21 21 -104 150 -156 244 -14 25 -36 63 -50 85 -41 66 -119 213 -112 213 3
0 -2 9 -12 19 -27 29 -250 491 -256 530 -2 10 -9 26 -16 35 -7 8 -14 26 -15
40 0 13 -4 22 -7 20 -13 -8 -251 639 -262 711 -1 11 -5 25 -9 30 -6 11 -35
110 -41 141 -2 10 -7 26 -10 34 -17 46 -28 91 -23 99 4 5 0 11 -6 13 -10 4
-14 53 -16 192 -4 185 -4 187 -25 186 -46 -4 -58 0 -55 18 1 9 0 22 -4 28 -8
13 -65 319 -83 449 -2 17 -13 93 -24 170 -47 332 -71 686 -71 1066 0 279 17
674 29 674 1 0 3 38 6 85 9 168 58 504 117 803 l31 157 39 0 39 0 -1 138 c-1
75 0 142 1 147 0 6 2 17 3 25 4 41 30 130 38 130 5 0 7 4 4 9 -3 5 1 31 10 57
8 27 22 73 30 103 8 30 20 61 26 68 6 7 8 13 5 13 -7 0 78 251 145 428 28 72
55 132 60 132 5 0 7 4 4 9 -3 5 8 40 26 78 17 37 32 74 34 81 1 7 8 20 16 29
7 9 13 21 14 27 0 6 2 17 2 24 1 7 7 10 14 6 7 -4 8 -3 4 4 -4 7 23 74 60 150
37 75 68 139 68 142 1 3 26 54 56 113 46 91 58 107 75 103 17 -4 17 -3 4 6
-13 9 -11 18 19 74 18 36 38 62 43 59 5 -3 7 0 4 7 -3 7 5 29 17 48 12 19 30
50 39 68 36 69 204 330 210 327 3 -2 6 1 6 8 0 13 118 196 138 212 6 6 14 18
18 28 5 12 17 17 47 17 l40 0 0 53 c0 51 4 59 70 148 39 52 78 100 88 107 9 7
17 17 17 21 0 8 140 183 197 246 14 17 44 50 65 74 178 207 586 617 603 606 6
-4 9 -1 8 7 -2 7 3 12 10 10 8 -1 11 2 8 7 -8 12 95 102 107 94 6 -3 7 -1 4 4
-7 11 25 45 39 42 5 -1 21 -1 36 0 23 1 27 5 26 31 -1 17 1 32 3 33 2 2 32 27
67 56 55 47 64 52 80 40 15 -12 16 -12 4 2 -11 15 -1 26 75 86 195 154 389
293 397 286 3 -4 6 -2 6 4 0 12 139 106 157 106 7 0 10 3 8 7 -5 8 215 146
227 143 4 -2 8 1 8 6 0 5 42 33 92 62 68 39 101 52 124 50 27 -2 33 1 36 20 2
12 12 27 23 33 11 6 37 21 58 34 21 12 43 20 49 16 7 -4 8 -3 4 4 -7 12 5 16
33 13 7 -2 10 2 7 7 -7 12 49 34 60 24 4 -4 4 -2 1 4 -8 14 477 251 543 266 8
2 17 6 20 9 6 7 250 103 345 136 39 13 85 24 103 25 17 1 32 6 32 13 0 18 553
190 678 211 15 2 101 22 192 44 91 22 177 39 193 37 15 -2 27 0 27 3 0 4 35
13 78 19 42 7 110 19 149 28 40 8 82 13 93 10 11 -3 18 -1 15 3 -3 5 3 9 12 8
10 0 114 12 231 26 117 15 228 27 245 27 90 1 214 8 227 13 46 17 595 17 890
0z m7715 -6363 c-4 -42 -11 -80 -15 -85 -5 -5 -6 -14 -3 -21 4 -11 -28 -321
-42 -402 -2 -12 -7 -59 -11 -103 -3 -44 -10 -80 -13 -80 -8 0 -81 125 -81 139
0 5 -4 11 -8 13 -8 3 -100 150 -209 333 l-30 51 48 32 c27 18 53 32 59 32 5 0
10 5 10 11 0 6 7 8 16 5 8 -3 13 -2 10 3 -6 10 110 94 130 94 8 0 12 2 9 5 -7
8 43 43 73 51 58 16 65 6 57 -78z m-10981 -736 c111 -30 224 -64 251 -75 63
-26 42 -23 -180 29 -93 22 -210 47 -260 57 -87 17 -89 18 -60 30 17 7 34 13
39 14 5 0 100 -25 210 -55z m10866 -304 c0 -11 -7 -81 -15 -158 -136 -1236
-467 -2740 -803 -3646 -44 -120 -70 -176 -79 -173 -6 3 -244 204 -527 446
l-514 441 39 117 c57 170 121 397 183 652 60 244 161 738 154 746 -3 2 -47 -2
-99 -10 -874 -139 -1846 135 -2809 791 -152 104 -382 275 -376 280 2 2 44 -7
92 -21 651 -182 1463 -215 2284 -91 603 90 1393 294 2255 580 105 35 196 63
203 64 6 1 12 -8 12 -18z m4919 -6962 c9 0 3 -5 -13 -9 -18 -6 -36 -5 -47 1
-15 7 -17 6 -13 -6 4 -11 0 -15 -16 -15 -23 0 -23 0 -4 21 14 15 26 19 48 15
15 -3 36 -6 45 -7z m-7133 -845 c40 -20 87 -74 99 -111 5 -19 1 -23 -32 -28
-21 -4 -45 -8 -53 -10 -9 -2 -24 10 -35 28 -51 81 -195 65 -238 -26 -11 -22
-17 -60 -17 -103 0 -93 26 -145 86 -175 51 -24 91 -22 152 8 32 15 37 23 40
56 l3 37 -65 0 -66 0 0 45 0 45 120 0 121 0 -3 -112 -3 -113 -66 -33 c-154
-79 -334 -39 -399 87 -28 55 -41 141 -30 205 18 114 83 191 185 217 49 13 159
4 201 -17z m760 11 c61 -18 134 -91 134 -134 0 -8 -101 -36 -104 -29 -20 52
-65 82 -126 82 -54 0 -87 -18 -124 -67 -25 -34 -34 -138 -16 -194 33 -102 143
-140 239 -82 25 15 31 25 31 54 l0 35 -60 0 -60 0 0 45 0 45 115 0 116 0 -3
-112 -3 -113 -67 -34 c-173 -87 -360 -29 -411 128 -22 67 -22 163 0 226 43
128 192 194 339 150z m1113 -1 c106 -31 171 -131 171 -264 0 -117 -48 -207
-134 -253 -59 -31 -193 -31 -253 0 -84 45 -133 138 -133 253 0 207 153 323
349 264z m-3197 -4 c129 -36 128 -242 -2 -281 l-38 -12 36 -31 c31 -27 95
-118 131 -183 12 -23 11 -23 -52 -23 l-64 0 -64 96 c-68 104 -85 119 -141 129
l-38 7 0 -116 0 -116 -55 0 -55 0 0 270 0 270 153 0 c83 0 169 -5 189 -10z
m308 -260 l0 -270 -55 0 -55 0 0 270 0 270 55 0 55 0 0 -270z m311 99 c56 -93
106 -172 111 -175 4 -3 8 74 8 170 l0 176 50 0 50 0 0 -270 0 -271 -57 3 -56
3 -106 172 -106 173 -3 -175 -2 -175 -50 0 -50 0 0 270 0 270 54 0 53 0 104
-171z m2051 161 c129 -36 128 -242 -2 -281 l-38 -12 35 -30 c32 -28 57 -63
122 -169 l23 -38 -65 0 -64 0 -64 96 c-68 104 -85 119 -141 129 l-38 7 0 -116
0 -116 -55 0 -55 0 0 270 0 270 153 0 c83 0 169 -5 189 -10z m890 -184 c3
-178 5 -197 24 -222 26 -36 76 -49 126 -35 59 18 63 32 63 253 l0 198 53 0 52
0 0 -207 c0 -181 -3 -213 -19 -249 -27 -59 -76 -86 -166 -92 -83 -5 -131 7
-177 46 -53 45 -58 70 -58 297 l0 205 49 0 49 0 4 -194z m764 173 c109 -52
111 -235 3 -291 -22 -11 -69 -20 -127 -24 l-92 -7 0 -98 0 -99 -55 0 -55 0 0
270 0 270 142 0 c123 0 147 -3 184 -21z m304 -719 l0 -40 -2595 0 -2595 0 0
40 0 40 2595 0 2595 0 0 -40z m0 -250 l0 -50 -2595 0 -2595 0 0 50 0 50 2595
0 2595 0 0 -50z"/>
<path d="M9756 20538 c3 -5 10 -6 15 -3 13 9 11 12 -6 12 -8 0 -12 -4 -9 -9z"/>
<path d="M11187 20469 c7 -7 15 -10 18 -7 3 3 -2 9 -12 12 -14 6 -15 5 -6 -5z"/>
<path d="M4896 17828 c3 -5 10 -6 15 -3 13 9 11 12 -6 12 -8 0 -12 -4 -9 -9z"/>
<path d="M10000 13291 c0 -6 4 -13 10 -16 6 -3 7 1 4 9 -7 18 -14 21 -14 7z"/>
<path d="M2736 10022 c-3 -5 1 -9 9 -9 8 0 12 4 9 9 -3 4 -7 8 -9 8 -2 0 -6
-4 -9 -8z"/>
<path d="M8190 4980 c-9 -6 -10 -10 -3 -10 6 0 15 5 18 10 8 12 4 12 -15 0z"/>
<path d="M11115 4741 c-3 -5 -2 -12 3 -15 5 -3 9 1 9 9 0 17 -3 19 -12 6z"/>
<path d="M18340 14260 c-9 -6 -10 -10 -3 -10 6 0 15 5 18 10 8 12 4 12 -15 0z"/>
<path d="M17833 5279 c-117 -34 -139 -262 -32 -341 87 -65 207 -2 225 120 16
106 -29 201 -105 222 -41 11 -45 11 -88 -1z"/>
<path d="M14540 5209 l0 -71 91 4 c81 3 93 6 110 27 26 31 24 57 -6 86 -22 23
-32 25 -110 25 l-85 0 0 -71z"/>
<path d="M17210 5209 l0 -71 91 4 c81 3 93 6 110 27 26 31 24 57 -6 86 -22 23
-32 25 -110 25 l-85 0 0 -71z"/>
<path d="M18880 5205 l0 -75 66 0 c95 0 133 28 119 91 -9 40 -49 59 -125 59
l-60 0 0 -75z"/>
</g>
</svg>
