<?xml version="1.0" standalone="no"?>
<!DOCTYPE svg PUBLIC "-//W3C//DTD SVG 20010904//EN"
 "http://www.w3.org/TR/2001/REC-SVG-20010904/DTD/svg10.dtd">
<svg version="1.0" xmlns="http://www.w3.org/2000/svg"
 width="4500.000000pt" height="4500.000000pt" viewBox="0 0 4500.000000 4500.000000"
 preserveAspectRatio="xMidYMid meet">

<g transform="translate(0.000000,4500.000000) scale(0.100000,-0.100000)"
fill="#000000" stroke="none">
<path d="M0 22500 l0 -22500 22500 0 22500 0 0 22500 0 22500 -1435 0 -1435 0
0 -2276 c0 -2163 -1 -2276 -17 -2271 -10 3 -391 181 -846 396 l-828 392 -847
-400 -847 -400 -3 2280 -2 2279 -19370 0 -19370 0 0 -22500z m23964 15525 c19
-39 20 -96 4 -142 -11 -31 -10 -35 19 -65 100 -105 229 -337 277 -498 46 -154
59 -258 53 -435 -7 -193 -28 -295 -100 -485 -4 -10 23 -36 89 -85 105 -78 134
-118 134 -188 0 -52 -12 -70 -224 -354 -64 -85 -89 -110 -124 -125 -72 -32
-112 -20 -230 68 l-100 75 -75 -54 c-157 -113 -370 -201 -557 -232 -123 -19
-321 -19 -441 1 -106 18 -253 63 -347 105 l-63 28 -35 -24 c-49 -33 -97 -41
-143 -23 -41 16 -170 108 -171 121 0 4 419 561 930 1237 l931 1229 79 -61 c45
-35 85 -74 94 -93z m-5872 -482 c130 -45 244 -120 368 -243 133 -132 223 -265
339 -500 150 -304 214 -492 215 -630 0 -70 -2 -80 -38 -140 -22 -36 -40 -66
-41 -68 -2 -2 -238 133 -525 298 -287 166 -523 300 -524 298 -13 -15 -196
-341 -194 -343 2 -2 235 -137 518 -301 283 -163 517 -298 519 -300 9 -8 -67
-124 -134 -203 -154 -183 -362 -312 -558 -347 l-38 -6 84 128 c46 71 94 146
106 166 l22 37 -53 30 c-29 17 -187 108 -351 203 l-299 173 -510 -23 c-280
-13 -512 -21 -515 -18 -5 5 794 1395 865 1506 59 92 190 213 274 254 110 54
167 66 283 63 79 -3 118 -10 187 -34z m-670 -2169 c15 -8 40 -31 55 -51 24
-31 28 -46 28 -103 0 -57 -4 -72 -28 -103 -97 -128 -296 -72 -314 87 -16 136
133 234 259 170z m131 -736 c-10 -18 -811 -1405 -1778 -3082 -968 -1677 -1773
-3062 -1790 -3079 -45 -45 -100 -67 -176 -67 -55 0 -72 4 -112 29 -87 56 -130
159 -104 256 8 33 522 931 1476 2585 805 1394 1567 2715 1694 2935 127 220
233 404 237 408 4 5 45 1 91 -8 127 -26 278 -17 389 22 47 17 87 31 88 32 2 1
-5 -14 -15 -31z m-2991 -2189 c106 -61 197 -115 201 -119 7 -6 -1376 -2418
-1784 -3111 -73 -125 -109 -159 -189 -180 -199 -53 -356 165 -254 353 49 89
1827 3168 1830 3168 2 0 90 -50 196 -111z m8743 -2508 c97 -69 276 -239 358
-341 482 -598 761 -1649 745 -2805 -5 -285 -5 -292 -36 -411 -178 -691 -582
-1448 -1055 -1978 l-44 -49 -74 63 c-104 88 -363 281 -499 372 -386 258 -768
437 -1064 500 -323 67 -690 -18 -1150 -269 -306 -167 -547 -334 -933 -646 -22
-17 -22 -17 -103 75 -461 525 -873 1319 -1026 1978 -37 159 -50 463 -35 845
13 354 48 775 65 792 2 2 53 -3 112 -11 400 -55 915 -46 1344 25 1009 166
2025 675 2705 1354 189 189 359 407 445 573 l32 63 67 -37 c36 -20 102 -61
146 -93z m5445 -86 c227 -77 420 -246 526 -460 69 -139 85 -207 91 -375 6
-165 -6 -248 -56 -375 l-29 -76 240 -277 c133 -152 246 -282 252 -289 8 -9 32
4 101 58 50 39 104 78 120 86 17 9 125 88 240 176 269 206 280 212 370 212 91
-1 140 -27 217 -119 78 -93 98 -137 98 -218 0 -51 -6 -77 -28 -121 l-28 -55
24 9 c13 5 49 9 80 9 86 0 148 -33 217 -117 83 -100 99 -135 100 -218 0 -91
-30 -152 -103 -212 l-53 -43 39 0 c93 0 169 -50 258 -170 48 -64 64 -106 64
-168 0 -74 -20 -121 -78 -184 -53 -57 -54 -58 -27 -58 67 0 109 -23 187 -101
118 -119 146 -192 113 -305 -18 -63 -55 -105 -223 -254 l-74 -65 259 -298 258
-299 63 6 c238 24 486 -91 628 -289 87 -123 126 -245 126 -400 0 -121 -20
-212 -67 -308 -33 -67 -118 -187 -133 -187 -4 0 -27 53 -51 118 -24 64 -82
218 -129 341 l-86 224 -40 18 c-53 24 -104 24 -202 -1 -155 -39 -309 -139
-328 -213 -5 -21 19 -95 105 -320 61 -160 117 -308 124 -328 l13 -37 -61 14
c-34 8 -104 35 -155 60 -132 64 -232 164 -296 296 -25 51 -53 120 -61 153 -19
74 -19 250 -1 329 l14 58 -260 299 c-225 258 -263 298 -276 287 -8 -7 -77 -66
-151 -130 -165 -143 -237 -181 -436 -233 -157 -40 -236 -74 -311 -131 -43 -33
-1150 -1085 -1480 -1406 l-101 -99 -323 338 c-178 186 -409 428 -514 538 -104
110 -245 257 -313 327 l-123 127 107 103 c59 57 164 157 233 223 69 66 170
163 225 216 55 53 299 286 542 518 271 259 455 443 478 476 59 90 82 153 124
351 23 104 50 217 62 251 41 123 123 224 282 343 47 36 86 67 87 70 0 4 -428
501 -463 537 -10 10 -34 8 -112 -8 -139 -29 -321 -23 -448 15 -313 93 -538
318 -634 633 -24 79 -27 104 -27 248 -1 187 12 248 80 394 57 122 170 278 188
260 3 -3 78 -196 167 -429 88 -234 167 -437 175 -452 59 -115 387 -74 613 76
105 70 151 130 151 196 0 21 -162 459 -316 854 -7 17 -4 18 39 12 26 -4 79
-18 117 -31z m-11020 -2228 c30 -14 78 -45 107 -69 61 -51 57 -35 73 -323 31
-561 118 -1159 239 -1642 23 -89 41 -170 41 -181 0 -30 -83 -83 -149 -96 -87
-16 -174 46 -239 172 -63 121 -428 1253 -478 1479 -25 115 -29 276 -10 373 35
173 106 276 214 311 47 15 143 4 202 -24z m7601 -2 c75 -49 125 -137 154 -270
23 -100 16 -302 -14 -420 -64 -257 -404 -1309 -461 -1430 -67 -141 -165 -210
-262 -185 -53 14 -138 70 -138 91 0 8 16 76 35 150 134 520 224 1141 254 1764
l9 180 48 43 c45 41 119 85 174 103 14 5 56 7 94 4 52 -3 78 -10 107 -30z
m-3567 -3270 c281 -44 475 -122 575 -230 180 -196 -83 -406 -606 -481 -160
-23 -493 -24 -658 -1 -267 37 -481 112 -591 209 -78 69 -98 172 -45 244 42 59
87 93 186 140 139 67 304 108 530 134 116 13 492 4 609 -15z m-7716 -1772 l-3
-678 -192 -3 -193 -2 0 680 0 680 195 0 195 0 -2 -677z m5477 477 c373 -337
821 -572 1290 -675 725 -159 1484 -16 2105 398 110 73 314 233 364 286 17 17
33 31 38 31 4 0 9 -140 10 -311 l3 -310 240 -113 c146 -69 243 -121 249 -132
5 -11 83 -271 175 -579 l166 -560 110 -57 c61 -31 171 -85 246 -119 l135 -62
-90 -86 c-49 -47 -97 -93 -106 -101 -9 -8 -59 -56 -111 -105 -107 -102 -385
-364 -504 -475 -44 -41 -120 -113 -170 -161 -49 -47 -126 -119 -170 -159 -79
-73 -126 -117 -335 -316 -58 -55 -127 -121 -155 -147 l-50 -47 198 0 197 0 0
-2865 0 -2865 -4885 0 -4885 0 0 25 c0 13 11 183 25 377 180 2540 392 4474
557 5078 143 525 447 889 916 1095 273 120 628 198 1157 255 484 51 654 79
932 151 362 93 875 291 1297 499 l161 80 170 572 c94 314 175 576 180 583 6 6
119 63 253 126 l242 114 0 300 c0 221 -3 304 -12 313 -7 7 -9 12 -5 12 4 0 32
-23 62 -50z m7485 -36 c0 -8 4 -13 9 -9 5 3 21 -9 35 -27 20 -26 23 -35 13
-48 -11 -13 -10 -13 6 -1 16 12 20 11 38 -8 11 -12 17 -26 14 -31 -4 -6 -3
-10 2 -9 21 4 34 -4 72 -38 40 -35 41 -37 24 -56 -10 -11 -13 -17 -7 -14 7 4
14 0 17 -8 4 -8 15 -12 28 -10 26 5 52 -12 42 -29 -3 -6 -3 -8 1 -4 11 9 57
-33 49 -45 -3 -6 -1 -7 4 -4 6 4 27 -9 47 -28 21 -19 34 -35 29 -35 -5 0 -15
6 -22 13 -11 10 -11 8 0 -10 7 -11 18 -19 25 -16 8 3 35 -16 61 -41 26 -25 51
-46 56 -46 4 0 6 -4 2 -10 -3 -5 -12 -7 -21 -3 -11 4 -14 -1 -12 -20 4 -30 12
-40 34 -43 13 -2 11 2 -5 20 -27 28 -26 34 2 31 37 -4 38 -5 32 -15 -3 -5 -1
-10 6 -10 20 0 168 -152 162 -166 -2 -6 0 -15 6 -19 7 -3 8 0 5 9 -3 9 -2 16
4 16 5 0 12 -11 14 -25 3 -14 1 -25 -5 -25 -5 0 -5 -6 2 -13 6 -8 9 -17 6 -20
-3 -4 -2 -5 2 -2 3 3 12 0 20 -6 9 -8 13 -8 13 -1 0 6 9 9 21 7 21 -4 57 -35
189 -161 41 -40 94 -89 118 -109 38 -34 59 -67 30 -49 -7 4 -8 3 -4 -4 4 -6
14 -8 22 -5 10 3 17 -1 20 -14 3 -11 19 -27 35 -37 16 -10 27 -21 24 -26 -3
-4 9 -13 26 -19 17 -6 28 -15 24 -21 -3 -5 -1 -10 6 -10 17 0 79 -60 79 -77 0
-7 6 -13 14 -13 8 0 18 -4 21 -10 4 -6 -1 -7 -12 -4 -15 5 -16 4 -3 -5 8 -6
21 -11 27 -11 18 0 53 -32 53 -48 0 -7 4 -11 9 -8 13 8 54 -41 46 -55 -5 -7
-4 -10 3 -5 14 9 53 -24 45 -38 -3 -6 -3 -8 2 -4 11 10 37 -11 29 -23 -3 -5 0
-8 8 -7 7 2 12 -3 10 -10 -1 -8 2 -11 8 -7 17 11 60 -39 55 -63 -2 -12 1 -25
7 -28 7 -4 8 -2 4 4 -4 7 -1 12 6 12 10 0 9 3 -2 11 -13 9 -13 10 0 6 8 -2 14
-10 12 -16 -1 -6 4 -11 10 -11 7 0 24 -11 38 -24 14 -14 46 -44 73 -67 26 -23
47 -48 47 -57 0 -8 3 -13 6 -9 9 9 44 -25 37 -36 -3 -6 -2 -7 3 -4 13 7 120
-91 110 -100 -4 -5 -12 -8 -18 -8 -6 0 -12 -8 -14 -18 -2 -17 -1 -17 15 -3 10
9 21 13 26 9 4 -5 5 -2 1 5 -4 6 -4 12 0 12 11 0 78 -74 76 -83 -1 -5 2 -6 7
-3 10 7 97 -81 94 -94 -2 -5 5 -6 14 -3 12 5 15 2 10 -10 -3 -9 -1 -19 5 -23
7 -5 8 -2 3 6 -5 9 -4 11 3 6 15 -9 15 -25 0 -46 -7 -9 -3 -6 8 6 l22 23 21
-23 c12 -13 19 -30 16 -38 -3 -8 1 -21 10 -28 8 -7 15 -17 15 -22 0 -6 -7 -5
-15 2 -26 21 -16 5 12 -21 14 -13 23 -19 20 -13 -4 7 0 15 9 18 8 3 12 2 9 -4
-3 -5 3 -14 14 -20 14 -7 22 -7 26 0 4 6 3 10 -2 9 -20 -3 -34 2 -28 11 3 6
-4 14 -17 19 -13 4 -22 12 -20 17 1 5 -2 9 -7 9 -5 0 -13 3 -17 8 -4 4 0 7 10
7 10 0 39 -21 65 -47 26 -27 65 -64 88 -84 22 -20 44 -43 48 -50 5 -8 -1 -6
-12 4 -17 15 -23 16 -29 5 -4 -7 -3 -10 1 -5 5 4 20 -3 33 -15 14 -13 22 -17
18 -10 -17 29 13 8 68 -48 l58 -60 -38 6 c-22 3 -36 3 -32 -1 3 -4 25 -8 48
-10 40 -3 87 -35 73 -49 -4 -3 -1 -6 5 -6 6 0 26 -13 44 -30 18 -16 28 -30 23
-30 -6 0 1 -6 15 -13 14 -7 24 -20 24 -29 -1 -9 4 -15 10 -13 16 6 70 -41 62
-54 -4 -6 -12 -8 -18 -5 -7 4 -8 2 -4 -5 6 -9 11 -9 22 0 11 9 27 -2 81 -56
38 -36 68 -70 68 -75 0 -5 4 -12 9 -17 5 -5 6 -3 2 4 -5 9 -2 11 8 7 9 -3 14
-11 13 -17 -1 -7 4 -11 11 -9 8 1 11 -2 7 -8 -3 -5 5 -14 19 -20 14 -5 26 -16
26 -25 0 -8 6 -14 13 -12 6 1 11 -6 11 -15 -1 -10 3 -16 10 -15 6 1 10 -4 9
-10 -2 -7 0 -12 5 -11 4 1 19 -5 34 -12 22 -10 25 -16 16 -27 -6 -7 -8 -16 -4
-20 3 -3 6 -1 6 5 0 25 29 10 66 -32 21 -25 39 -53 39 -63 0 -10 7 -19 15 -19
8 -1 21 -2 28 -3 8 -1 11 -8 7 -20 -3 -11 -1 -22 4 -26 7 -4 8 1 4 12 -6 17
-5 17 15 -1 16 -14 19 -22 11 -32 -7 -8 -7 -14 1 -19 6 -4 9 -1 8 6 -2 7 5 15
16 17 10 2 16 0 12 -6 -3 -5 1 -12 9 -16 8 -3 15 -11 15 -17 0 -8 -6 -7 -17 2
-16 13 -17 12 -4 -4 9 -12 17 -14 25 -7 16 12 112 -83 101 -100 -4 -7 0 -10
11 -8 13 2 18 -2 16 -14 -1 -9 2 -19 8 -23 6 -3 7 0 4 9 -3 9 -2 16 4 16 15 0
30 -23 27 -41 -2 -9 3 -16 11 -16 7 0 10 5 7 11 -3 6 10 -5 30 -23 21 -19 36
-40 36 -45 -1 -6 -1 -18 0 -26 1 -13 2 -13 12 0 8 11 12 12 16 3 2 -7 11 -13
19 -13 8 0 14 -6 14 -14 0 -8 5 -18 12 -22 7 -5 8 -3 3 6 -6 9 -4 11 5 5 10
-6 9 -11 -5 -22 -11 -7 -13 -13 -6 -13 7 0 9 -5 5 -12 -4 -7 -3 -8 5 -4 6 4 9
12 6 17 -4 5 -1 9 4 9 6 0 11 -5 11 -11 0 -5 4 -8 8 -5 5 3 24 -10 42 -29 28
-29 31 -35 15 -35 -10 0 -27 8 -37 17 -17 15 -18 15 -13 1 6 -15 -10 -16 -140
-17 -89 -1 -152 3 -160 9 -9 7 -16 6 -25 -5 -7 -8 -17 -12 -23 -8 -6 3 -7 1
-3 -6 4 -6 10 -9 14 -7 4 2 9 -1283 11 -2856 2 -2080 0 -2859 -8 -2854 -6 4
-11 2 -11 -3 0 -8 -533 -10 -1792 -9 l-1793 3 -2 2000 -3 2000 -257 3 c-293 3
-348 -6 -488 -74 -150 -75 -263 -190 -340 -349 -80 -167 -75 -29 -75 -1909 l0
-1676 -510 0 -510 0 0 1638 c0 938 5 1689 10 1759 59 761 589 1392 1322 1576
l93 24 3 226 2 227 250 0 250 0 0 356 0 356 -27 -6 c-16 -3 -210 -37 -433 -76
-223 -39 -415 -74 -427 -77 l-23 -5 0 306 0 307 33 -6 c17 -3 232 -41 477 -84
l445 -78 17 23 c24 30 114 74 152 74 16 0 38 7 48 17 10 9 18 11 18 5 0 -9 6
-9 25 0 13 6 22 15 18 21 -3 5 -9 4 -13 -3 -4 -7 -15 -10 -23 -7 -8 3 -20 0
-26 -6 -8 -8 -11 386 -11 1471 0 978 3 1482 10 1482 6 0 10 -7 10 -16z m249
-237 c8 -10 7 -14 -4 -14 -8 0 -16 6 -19 14 -3 7 -2 13 3 13 5 0 14 -6 20 -13z
m581 -547 c0 -4 -10 -7 -22 -6 -17 1 -23 8 -25 30 l-2 29 25 -23 c13 -13 24
-27 24 -30z m-19997 -822 c4 -95 4 -401 0 -680 l-6 -508 -189 0 -188 0 0 680
0 680 188 0 189 0 6 -172z m22587 -1628 c0 -5 -4 -10 -10 -10 -5 0 -10 5 -10
10 0 6 5 10 10 10 6 0 10 -4 10 -10z m-19431 -2397 c10 -19 9 -22 -4 -17 -8 4
-15 15 -15 27 0 23 2 22 19 -10z m31 -51 c3 -3 -4 -2 -15 2 -14 5 -11 -1 9
-17 20 -16 27 -29 23 -41 -4 -9 -3 -15 2 -12 11 7 35 -49 27 -63 -4 -5 -2 -12
4 -16 6 -4 8 -10 5 -15 -3 -5 -1 -11 4 -14 5 -4 13 -1 16 5 4 6 13 -1 21 -17
12 -22 12 -29 2 -36 -10 -6 -9 -8 3 -8 10 0 27 -21 41 -50 19 -39 21 -47 8
-35 -12 11 -20 13 -25 5 -3 -5 -10 -8 -14 -6 -4 3 -8 -2 -8 -10 0 -13 2 -13
15 0 13 13 18 12 43 -7 27 -19 42 -46 19 -32 -5 3 -10 1 -10 -4 0 -6 6 -11 13
-11 14 0 37 -40 37 -65 0 -8 5 -15 10 -15 6 0 10 -5 10 -10 0 -6 9 -30 20 -52
19 -39 19 -43 3 -60 -18 -20 -5 -25 16 -5 11 10 13 10 7 0 -4 -7 -3 -13 2 -13
15 0 20 -35 9 -56 -10 -17 -9 -18 8 -4 17 14 18 13 13 -8 -4 -12 -3 -20 2 -17
4 3 10 -7 13 -20 4 -22 1 -25 -17 -21 -11 3 -9 0 7 -6 15 -7 27 -16 27 -21 0
-4 -6 -5 -12 -1 -7 4 -5 -2 6 -14 13 -15 16 -29 12 -47 -4 -15 -3 -24 1 -22 5
3 9 -9 10 -26 0 -18 -4 -35 -11 -39 -7 -5 -7 -8 0 -8 6 0 9 -16 8 -37 -5 -59
-13 -85 -26 -77 -7 4 -8 3 -4 -4 4 -6 1 -22 -6 -34 -7 -13 -12 -27 -13 -31 0
-5 -7 -14 -16 -20 -9 -7 -16 -16 -16 -22 -1 -14 -55 -42 -76 -39 -19 3 -23
-12 -4 -19 6 -2 21 3 32 12 19 15 19 15 5 -3 -14 -18 -112 -86 -124 -86 -3 0
-3 6 0 13 5 15 -23 44 -33 33 -3 -3 -1 -6 6 -6 7 0 9 -5 5 -12 -4 -7 -3 -8 4
-4 14 8 15 -3 4 -21 -10 -15 -128 -47 -142 -38 -7 4 -10 228 -10 671 l1 664
22 -11 c12 -7 24 -14 27 -17z m75 -150 c-8 -8 -25 10 -19 20 4 6 9 5 15 -3 4
-7 6 -15 4 -17z m10990 -5166 c351 -61 524 -188 556 -409 5 -34 9 -158 9 -274
l0 -213 -430 0 -430 0 0 290 0 290 -85 0 -85 0 2 -717 3 -718 80 0 80 0 3 228
2 227 -40 0 -40 0 0 150 0 150 470 0 470 0 0 -525 0 -525 -334 0 -334 0 -32
58 c-18 31 -33 58 -34 59 -1 2 -27 -21 -57 -50 -80 -78 -161 -108 -306 -115
-335 -15 -599 87 -724 281 -67 104 -69 122 -69 774 0 331 5 608 10 648 14 93
50 163 114 222 96 88 258 148 466 172 52 6 109 13 125 15 73 10 524 -3 610
-18z m2746 13 c286 -29 466 -105 545 -231 39 -61 54 -139 54 -275 l0 -123
-400 0 -400 0 0 150 0 150 -80 0 -80 0 0 -170 c0 -168 0 -171 23 -179 12 -5
108 -18 214 -30 231 -26 356 -56 479 -116 154 -75 253 -194 290 -351 21 -88
14 -384 -11 -483 -38 -153 -123 -266 -250 -333 -151 -78 -288 -107 -555 -115
-558 -17 -898 92 -1012 325 -33 66 -33 68 -37 234 l-3 168 431 0 431 0 0 -195
0 -195 80 0 80 0 0 209 c0 167 -3 211 -14 220 -8 7 -85 27 -173 46 -250 55
-361 85 -460 125 -175 72 -282 162 -342 290 -25 53 -26 62 -25 225 1 187 14
266 60 358 91 181 256 264 589 296 131 12 447 13 566 0z m8894 1 c353 -34 546
-125 628 -298 l32 -67 3 -272 4 -273 -431 0 -431 0 0 290 0 290 -85 0 -85 0 2
-717 3 -718 83 -3 82 -3 0 291 0 290 430 0 430 0 0 -233 c0 -324 -12 -378
-112 -483 -83 -88 -243 -151 -468 -186 -114 -17 -584 -17 -703 0 -307 45 -484
137 -559 290 l-33 67 0 690 0 690 29 58 c88 172 296 265 676 301 86 8 405 5
505 -4z m3655 -15 c244 -43 376 -119 441 -251 31 -62 32 -71 37 -214 l5 -150
-402 0 -401 0 0 150 0 150 -85 0 -85 0 2 -167 3 -168 25 -12 c14 -6 109 -21
212 -32 269 -29 427 -73 549 -152 115 -74 206 -213 230 -352 16 -100 5 -350
-21 -451 -54 -213 -193 -338 -443 -401 -143 -36 -301 -49 -532 -42 -469 13
-740 117 -842 324 -27 56 -28 64 -31 231 l-4 172 426 0 426 0 2 -192 3 -193
83 -3 82 -3 0 211 0 211 -37 16 c-21 8 -121 33 -223 54 -225 47 -345 85 -470
146 -115 57 -211 146 -256 238 -29 60 -29 61 -29 240 1 192 11 255 59 361 78
170 265 263 591 294 148 14 575 5 685 -15z m-28816 -48 c170 -35 274 -78 346
-143 22 -20 54 -66 72 -102 l33 -67 0 -400 0 -400 -26 -56 c-51 -108 -133
-172 -279 -218 -130 -41 -228 -53 -475 -60 l-240 -6 -3 -272 -2 -273 -425 0
-425 0 0 1011 0 1010 673 -4 c569 -4 684 -7 751 -20z m1456 -832 l0 -855 230
0 230 0 0 -155 0 -155 -655 0 -655 0 0 1010 0 1010 425 0 425 0 0 -855z m1450
-10 l0 -865 80 0 80 0 0 865 0 865 430 0 431 0 -3 -848 -3 -847 -32 -66 c-77
-155 -236 -240 -548 -291 -125 -20 -612 -17 -740 5 -292 51 -443 134 -518 286
l-32 66 -3 847 -3 848 431 0 430 0 0 -865z m2390 538 c81 -504 97 -589 103
-573 3 8 35 206 72 440 37 234 69 433 71 443 5 16 36 17 464 17 l459 0 5 -42
c3 -24 37 -457 76 -963 38 -506 72 -941 75 -967 l6 -48 -376 0 -375 0 0 477
c0 262 -2 474 -4 472 -2 -2 -38 -193 -80 -424 -42 -231 -81 -444 -87 -472
l-10 -53 -302 0 -302 0 -110 476 -110 476 -3 -476 -2 -476 -351 0 -352 0 5 58
c3 31 39 486 79 1010 l74 952 461 0 461 0 53 -327z m2929 311 c259 -38 402
-128 448 -282 12 -41 17 -94 17 -192 0 -116 -3 -143 -22 -191 -44 -112 -133
-182 -273 -218 l-72 -18 68 -13 c82 -15 194 -70 241 -116 42 -43 79 -114 101
-197 24 -87 24 -377 0 -458 -47 -159 -169 -245 -422 -296 -67 -13 -189 -16
-762 -20 l-683 -4 0 1010 0 1011 626 0 c518 0 645 -3 733 -16z m1531 -994 l0
-1010 -425 0 -425 0 0 1010 0 1010 425 0 425 0 0 -1010z m1306 535 l299 -474
3 474 2 475 300 0 300 0 0 -1010 0 -1010 -394 0 -395 0 -283 446 -283 446 -3
-446 -2 -446 -300 0 -300 0 0 1010 0 1010 378 0 378 0 300 -475z m7354 325 l0
-150 -227 -2 -228 -3 -3 -247 -2 -248 215 0 215 0 0 -160 0 -160 -215 0 -215
0 0 -295 0 -295 230 0 230 0 0 -155 0 -155 -660 0 -660 0 0 1010 0 1010 660 0
660 0 0 -150z m1532 135 c271 -36 421 -112 488 -248 40 -83 50 -143 50 -314 0
-172 -17 -262 -63 -330 -35 -51 -111 -99 -186 -119 l-46 -11 56 -16 c119 -35
204 -124 228 -239 7 -29 11 -187 11 -388 l0 -340 -430 0 -430 0 0 410 0 410
-80 0 -80 0 0 -410 0 -410 -430 0 -430 0 0 1010 0 1010 614 0 c487 0 638 -3
728 -15z m1491 -2 c3 -10 49 -276 103 -590 54 -315 101 -573 104 -573 3 0 45
228 94 508 49 279 95 544 104 590 l15 82 429 0 c418 0 429 -1 423 -19 -3 -11
-123 -457 -266 -993 -143 -535 -262 -981 -265 -990 -5 -17 -39 -18 -533 -18
l-528 0 -32 118 c-17 64 -138 519 -269 1010 l-239 892 428 0 c399 0 428 -1
432 -17z m2277 -993 l0 -1010 -430 0 -430 0 0 1010 0 1010 430 0 430 0 0
-1010z m3640 860 l0 -150 -227 -2 -228 -3 -3 -247 -2 -248 215 0 215 0 0 -160
0 -160 -215 0 -215 0 0 -295 0 -295 230 0 230 0 0 -155 0 -155 -660 0 -660 0
0 1010 0 1010 660 0 660 0 0 -150z"/>
<path d="M27364 22658 c-5 -7 -2 -8 6 -3 10 6 12 4 6 -10 -5 -15 -4 -16 9 -5
19 15 19 16 0 23 -8 4 -17 1 -21 -5z"/>
<path d="M27455 22580 c-3 -5 -1 -10 4 -10 6 0 11 5 11 10 0 6 -2 10 -4 10 -3
0 -8 -4 -11 -10z"/>
<path d="M27444 22548 c-3 -5 0 -7 8 -6 7 2 12 -3 10 -10 -2 -10 2 -10 19 -2
11 7 18 14 15 18 -10 9 -46 10 -52 0z"/>
<path d="M27627 22399 c7 -7 15 -10 18 -7 3 3 -2 9 -12 12 -14 6 -15 5 -6 -5z"/>
<path d="M27655 22370 c-3 -6 1 -7 9 -4 18 7 21 14 7 14 -6 0 -13 -4 -16 -10z"/>
<path d="M27690 22360 c0 -5 5 -10 11 -10 5 0 7 5 4 10 -3 6 -8 10 -11 10 -2
0 -4 -4 -4 -10z"/>
<path d="M27695 22307 c-12 -9 -14 -16 -7 -21 6 -3 16 3 22 14 13 24 10 25
-15 7z"/>
<path d="M27851 22156 c-8 -10 -8 -16 3 -25 10 -8 16 -9 21 -1 4 6 2 9 -3 8
-6 -2 -9 2 -8 7 0 6 5 9 9 7 5 -1 6 2 2 8 -8 13 -10 13 -24 -4z"/>
<path d="M27905 22130 c3 -5 8 -10 11 -10 2 0 4 5 4 10 0 6 -5 10 -11 10 -5 0
-7 -4 -4 -10z"/>
<path d="M27956 22106 c3 -9 0 -24 -7 -34 -12 -15 -12 -16 1 -6 8 5 25 9 37 8
12 0 20 2 17 7 -2 4 -12 5 -21 2 -10 -4 -14 -2 -10 4 4 6 0 16 -8 23 -13 11
-14 10 -9 -4z"/>
<path d="M28023 22038 c2 -7 8 -13 13 -13 16 0 35 -16 29 -24 -2 -5 5 -17 18
-27 l22 -19 -19 23 c-11 12 -15 22 -11 22 5 0 -2 11 -15 25 -25 27 -44 33 -37
13z"/>
<path d="M28010 21996 c0 -2 7 -7 16 -10 8 -3 12 -2 9 4 -6 10 -25 14 -25 6z"/>
<path d="M28160 21858 c0 -5 6 -8 13 -5 6 2 17 -3 23 -11 14 -19 37 -12 25 7
-10 16 -61 24 -61 9z"/>
<path d="M28210 21810 c0 -5 5 -10 11 -10 5 0 7 5 4 10 -3 6 -8 10 -11 10 -2
0 -4 -4 -4 -10z"/>
<path d="M28324 21742 c2 -9 10 -16 20 -18 13 -2 14 1 7 10 -6 7 -9 15 -6 18
3 2 -1 5 -9 5 -7 0 -13 -7 -12 -15z"/>
<path d="M28515 21580 c-4 -6 -10 -8 -15 -5 -5 3 -11 1 -14 -4 -4 -5 5 -8 19
-6 30 3 40 11 26 19 -5 4 -12 2 -16 -4z"/>
<path d="M28654 21422 c20 -23 28 -22 32 4 2 11 -1 12 -10 5 -9 -7 -17 -7 -26
2 -8 6 -6 2 4 -11z"/>
<path d="M28755 21334 c-19 -14 -19 -15 2 -11 26 4 38 13 26 20 -4 3 -17 -1
-28 -9z"/>
<path d="M28816 21283 c-6 -14 -5 -15 5 -6 7 7 10 15 7 18 -3 3 -9 -2 -12 -12z"/>
<path d="M28845 21270 c-3 -5 -3 -10 2 -10 4 0 1 -5 -7 -10 -13 -8 -12 -10 3
-10 9 0 17 6 17 13 0 8 4 7 10 -3 5 -8 10 -10 10 -4 0 18 -27 37 -35 24z"/>
<path d="M28905 21170 c3 -5 8 -10 11 -10 2 0 4 5 4 10 0 6 -5 10 -11 10 -5 0
-7 -4 -4 -10z"/>
<path d="M28966 21129 c1 -13 3 -28 3 -34 1 -5 6 -2 12 8 6 9 14 15 20 12 5
-4 6 2 2 11 -4 12 -8 14 -11 5 -3 -8 -8 -7 -16 5 -12 15 -13 14 -10 -7z"/>
<path d="M28990 21090 c0 -6 7 -10 15 -10 8 0 15 2 15 4 0 2 -7 6 -15 10 -8 3
-15 1 -15 -4z"/>
<path d="M29104 21009 c-4 -8 -3 -9 4 -5 8 5 12 0 12 -13 0 -11 4 -22 9 -25 4
-3 6 6 3 19 -5 30 -18 40 -28 24z"/>
<path d="M29163 20947 c0 -20 24 -30 33 -14 4 7 4 9 -1 5 -4 -4 -13 0 -20 8
-11 15 -12 15 -12 1z"/>
<path d="M29226 20878 c5 -7 2 -9 -8 -5 -11 4 -15 0 -14 -10 2 -9 10 -17 19
-19 10 -1 14 3 10 14 -5 11 -3 13 8 7 12 -8 12 -6 0 8 -15 19 -26 23 -15 5z"/>
<path d="M29324 20778 l-19 -23 25 20 c14 11 27 21 29 22 2 2 0 3 -6 3 -5 0
-18 -10 -29 -22z"/>
<path d="M29360 20701 c0 -6 4 -13 10 -16 6 -3 7 1 4 9 -7 18 -14 21 -14 7z"/>
<path d="M29455 20639 c-4 -6 -5 -12 -2 -15 2 -3 7 2 10 11 7 17 1 20 -8 4z"/>
<path d="M29526 20615 c-9 -26 -7 -32 5 -12 6 10 9 21 6 23 -2 3 -7 -2 -11
-11z"/>
<path d="M29621 20504 c0 -11 3 -14 6 -6 3 7 2 16 -1 19 -3 4 -6 -2 -5 -13z"/>
<path d="M29607 20456 c-4 -10 -1 -13 8 -9 8 3 12 9 9 14 -7 12 -11 11 -17 -5z"/>
<path d="M29767 20383 c-10 -9 -9 -23 1 -23 5 0 9 7 9 15 0 17 -1 18 -10 8z"/>
<path d="M28110 20180 c29 -22 42 -21 46 3 1 9 -2 15 -7 11 -5 -3 -7 -10 -4
-15 10 -15 -12 -10 -25 6 -7 8 -18 15 -24 15 -6 0 0 -9 14 -20z"/>
<path d="M28116 20147 c3 -10 9 -15 12 -12 3 3 0 11 -7 18 -10 9 -11 8 -5 -6z"/>
<path d="M30014 20149 c-3 -6 -2 -15 3 -20 5 -5 9 -1 9 11 0 23 -2 24 -12 9z"/>
<path d="M28142 20145 c4 -4 4 -13 -1 -19 -5 -6 -5 -20 0 -31 l9 -20 -2 20
c-2 11 1 25 5 32 4 6 2 15 -5 19 -7 4 -10 4 -6 -1z"/>
<path d="M27080 20110 c0 -5 5 -10 10 -10 6 0 10 5 10 10 0 6 -4 10 -10 10 -5
0 -10 -4 -10 -10z"/>
<path d="M27726 20112 c-3 -5 1 -9 9 -9 8 0 12 4 9 9 -3 4 -7 8 -9 8 -2 0 -6
-4 -9 -8z"/>
<path d="M27820 20110 c-9 -6 -10 -10 -3 -10 6 0 15 5 18 10 8 12 4 12 -15 0z"/>
<path d="M27881 20104 c0 -11 3 -14 6 -6 3 7 2 16 -1 19 -3 4 -6 -2 -5 -13z"/>
<path d="M27607 20083 c3 -7 6 -13 8 -13 2 0 5 6 8 13 3 8 -1 14 -8 14 -7 0
-11 -6 -8 -14z"/>
<path d="M27697 20079 c7 -7 15 -10 18 -7 3 3 -2 9 -12 12 -14 6 -15 5 -6 -5z"/>
<path d="M27635 20070 c3 -5 1 -10 -6 -10 -7 0 -9 -3 -6 -6 4 -4 13 -2 20 4 8
7 18 8 22 4 5 -4 5 -1 1 6 -4 6 -14 12 -22 12 -8 0 -12 -4 -9 -10z"/>
<path d="M27073 20056 c-3 -5 -1 -6 5 -2 5 3 12 1 14 -5 2 -7 8 -7 15 3 10 11
8 14 -8 14 -11 0 -23 -5 -26 -10z"/>
<path d="M30100 20050 c-12 -7 -10 -9 7 -7 12 0 19 5 17 9 -6 10 -6 10 -24 -2z"/>
<path d="M27164 20024 c-18 -14 -18 -15 4 -4 12 6 22 13 22 15 0 8 -5 6 -26
-11z"/>
<path d="M27303 20024 c0 -7 10 -10 25 -8 23 5 24 3 11 -13 -13 -16 -12 -17 3
-5 9 8 14 20 11 28 -6 16 -50 15 -50 -2z"/>
<path d="M27376 20032 c-3 -5 1 -9 9 -9 8 0 12 4 9 9 -3 4 -7 8 -9 8 -2 0 -6
-4 -9 -8z"/>
<path d="M27413 20027 c0 -7 9 -14 19 -14 16 -2 16 0 4 13 -18 17 -23 18 -23
1z"/>
<path d="M27187 20014 c-23 -12 -30 -34 -11 -34 3 0 3 4 0 9 -8 12 20 22 47
17 12 -1 16 -1 8 1 -12 4 -12 6 0 14 25 16 -13 10 -44 -7z"/>
<path d="M30171 20003 c-10 -11 -10 -17 -2 -24 6 -5 9 -6 6 -3 -3 4 0 13 7 21
15 19 6 24 -11 6z"/>
<path d="M27273 19996 c0 -15 22 -15 34 0 4 5 4 6 -1 2 -5 -4 -14 -3 -21 2 -8
7 -12 5 -12 -4z"/>
<path d="M27210 19980 c0 -5 7 -7 15 -4 8 4 15 8 15 10 0 2 -7 4 -15 4 -8 0
-15 -4 -15 -10z"/>
<path d="M30246 19893 c-6 -14 -5 -15 5 -6 7 7 10 15 7 18 -3 3 -9 -2 -12 -12z"/>
<path d="M30330 19861 c0 -6 4 -13 10 -16 6 -3 7 1 4 9 -7 18 -14 21 -14 7z"/>
<path d="M30405 19749 c-3 -3 2 -12 10 -19 8 -7 15 -11 16 -9 6 30 5 36 -8 36
-7 0 -16 -4 -18 -8z"/>
<path d="M27291 19663 c-1 -17 16 -25 25 -12 4 7 3 9 -4 5 -5 -3 -13 0 -15 6
-4 9 -6 10 -6 1z"/>
<path d="M27270 19323 c-3 -183 -2 -329 3 -324 4 4 6 153 5 332 l-3 324 -5
-332z"/>
<path d="M27358 19643 c7 -3 16 -2 19 1 4 3 -2 6 -13 5 -11 0 -14 -3 -6 -6z"/>
<path d="M30560 19640 c0 -6 7 -10 15 -10 8 0 15 2 15 4 0 2 -7 6 -15 10 -8 3
-15 1 -15 -4z"/>
<path d="M27443 19615 c2 -11 9 -19 15 -17 7 1 12 -2 12 -8 0 -5 -6 -11 -12
-11 -7 -1 1 -5 17 -8 31 -8 59 4 49 20 -3 5 -11 9 -17 9 -8 0 -8 -3 2 -9 7 -5
9 -11 4 -14 -5 -3 -15 -2 -23 3 -12 7 -12 11 1 26 12 16 12 17 -1 9 -22 -14
-34 -12 -42 5 -6 11 -7 10 -5 -5z"/>
<path d="M30585 19610 c-3 -6 1 -7 9 -4 18 7 21 14 7 14 -6 0 -13 -4 -16 -10z"/>
<path d="M27547 19601 c10 -11 9 -17 -5 -28 -15 -13 -15 -13 4 -4 12 6 24 8
26 5 3 -2 11 4 19 13 11 15 11 16 -1 6 -11 -10 -18 -9 -34 4 -12 10 -16 11 -9
4z"/>
<path d="M27622 19601 c-11 -7 -11 -9 0 -14 9 -3 15 1 15 9 0 8 -1 14 -1 14
-1 0 -7 -4 -14 -9z"/>
<path d="M27652 19595 c4 -4 3 -13 -2 -20 -7 -8 -5 -12 5 -12 18 0 20 23 3 33
-7 4 -10 4 -6 -1z"/>
<path d="M27691 19573 c6 -7 19 -12 28 -12 13 1 13 2 -2 6 -9 2 -15 8 -13 12
3 4 -1 8 -9 8 -11 0 -12 -4 -4 -14z"/>
<path d="M27790 19570 c0 -5 7 -7 15 -4 8 4 15 8 15 10 0 2 -7 4 -15 4 -8 0
-15 -4 -15 -10z"/>
<path d="M28039 19527 c6 -8 7 -18 3 -22 -4 -5 -2 -5 5 -1 14 8 6 36 -9 36 -7
0 -6 -5 1 -13z"/>
<path d="M28130 19529 c0 -20 16 -43 23 -32 3 4 -1 17 -9 28 -10 13 -14 15
-14 4z"/>
<path d="M27934 19522 c3 -5 0 -13 -6 -15 -9 -4 -10 -6 -1 -6 17 -1 25 16 12
25 -7 4 -9 3 -5 -4z"/>
<path d="M30649 19517 c6 -8 9 -16 6 -19 -3 -2 2 -5 10 -5 13 0 13 3 -2 19
-19 21 -31 25 -14 5z"/>
<path d="M28006 19508 c3 -5 10 -6 15 -3 13 9 11 12 -6 12 -8 0 -12 -4 -9 -9z"/>
<path d="M27964 19499 c-4 -7 -3 -9 4 -5 5 3 12 0 15 -6 2 -7 7 -10 11 -7 4 3
0 12 -8 18 -11 9 -16 9 -22 0z"/>
<path d="M30730 19456 c7 -7 13 -7 20 0 6 6 3 10 -10 10 -13 0 -16 -4 -10 -10z"/>
<path d="M30730 19435 c0 -2 6 -8 13 -14 10 -8 14 -7 14 2 0 8 -6 14 -14 14
-7 0 -13 -1 -13 -2z"/>
<path d="M30774 19429 c-3 -6 -2 -15 3 -20 5 -5 9 -1 9 11 0 23 -2 24 -12 9z"/>
<path d="M30817 19363 c-3 -4 1 -14 9 -21 8 -7 14 -9 14 -5 0 4 5 1 10 -7 5
-8 10 -10 10 -4 0 15 -37 47 -43 37z"/>
<path d="M30930 19306 c0 -2 8 -10 18 -17 15 -13 16 -12 3 4 -13 16 -21 21
-21 13z"/>
<path d="M30570 19276 c7 -7 13 -7 20 0 6 6 3 10 -10 10 -13 0 -16 -4 -10 -10z"/>
<path d="M30680 19283 c109 -7 218 -7 213 0 -2 4 -61 6 -131 5 -70 -1 -107 -3
-82 -5z"/>
<path d="M27739 18993 c0 -7 0 -405 1 -440 0 -7 4 -13 10 -13 5 0 6 8 3 18 -6
15 -5 16 12 2 10 -8 16 -10 12 -3 -8 13 39 13 61 -1 7 -4 12 -4 11 1 -5 28 2
36 15 18 8 -11 12 -24 9 -29 -4 -5 -1 -6 6 -2 6 4 8 12 5 18 -5 7 -2 9 7 6 10
-4 15 1 15 13 0 12 -4 15 -11 9 -7 -6 -16 -5 -24 3 -10 9 -15 8 -27 -7 -12
-17 -18 -15 -16 4 0 4 -16 6 -36 6 l-37 0 -5 178 c-3 98 -1 180 3 183 4 3 3
10 -2 17 -6 7 -8 16 -4 19 3 4 3 7 0 7 -4 0 -7 -3 -8 -7z m35 -412 c-9 -9 -34
-9 -34 -1 0 5 9 8 20 7 10 -1 17 -3 14 -6z"/>
<path d="M27226 18978 c3 -5 10 -6 15 -3 13 9 11 12 -6 12 -8 0 -12 -4 -9 -9z"/>
<path d="M28105 18501 c-3 -5 0 -13 6 -17 7 -4 9 -3 5 4 -3 5 0 13 6 15 9 4
10 6 1 6 -6 1 -14 -3 -18 -8z"/>
<path d="M28146 18501 c-3 -5 7 -16 22 -25 l27 -17 -22 19 c-12 11 -19 22 -16
26 4 3 4 6 0 6 -3 0 -8 -4 -11 -9z"/>
<path d="M28186 18498 c3 -4 9 -8 15 -8 5 0 9 4 9 8 0 5 -7 9 -15 9 -8 0 -12
-4 -9 -9z"/>
<path d="M28296 18428 c3 -5 10 -6 15 -3 13 9 11 12 -6 12 -8 0 -12 -4 -9 -9z"/>
<path d="M28435 18430 c-3 -6 1 -17 9 -26 9 -8 16 -11 16 -5 0 5 -5 13 -10 16
-6 4 -8 11 -5 16 4 5 4 9 1 9 -3 0 -8 -5 -11 -10z"/>
<path d="M28460 18431 c0 -6 4 -12 8 -15 5 -3 9 1 9 9 0 8 -4 15 -9 15 -4 0
-8 -4 -8 -9z"/>
<path d="M30560 18413 c0 -22 2 -25 10 -13 13 20 13 40 0 40 -5 0 -10 -12 -10
-27z"/>
<path d="M28400 18404 c0 -6 6 -19 14 -30 13 -17 14 -17 12 -1 -2 19 -26 47
-26 31z"/>
<path d="M28470 18364 c0 -16 38 -35 46 -23 3 6 3 13 0 16 -3 4 -6 0 -6 -7 0
-9 -6 -8 -20 5 -11 10 -20 14 -20 9z"/>
<path d="M28645 18270 c-2 -3 9 -6 25 -5 15 0 26 3 24 7 -5 8 -44 6 -49 -2z"/>
<path d="M28699 18243 c-13 -16 -12 -17 4 -4 9 7 17 15 17 17 0 8 -8 3 -21
-13z"/>
<path d="M28732 18191 c-11 -7 -11 -9 0 -14 9 -3 15 1 15 9 0 8 -1 14 -1 14
-1 0 -7 -4 -14 -9z"/>
<path d="M28782 18191 c-11 -7 -11 -9 0 -14 9 -3 15 1 15 9 0 8 -1 14 -1 14
-1 0 -7 -4 -14 -9z"/>
<path d="M28760 18145 c0 -2 6 -8 13 -14 10 -8 14 -7 14 2 0 8 -6 14 -14 14
-7 0 -13 -1 -13 -2z"/>
<path d="M28817 18109 c7 -7 15 -10 18 -7 3 3 -2 9 -12 12 -14 6 -15 5 -6 -5z"/>
<path d="M28928 18024 c18 -13 21 -19 11 -30 -7 -9 -8 -14 -1 -14 21 0 24 21
6 41 -9 10 -22 19 -28 19 -6 0 0 -7 12 -16z"/>
<path d="M28991 17923 c0 -11 3 -13 6 -5 2 6 9 12 14 12 6 0 7 -5 3 -12 -4 -7
-3 -8 5 -4 14 9 5 26 -15 26 -8 0 -14 -8 -13 -17z"/>
<path d="M29046 17867 c3 -10 9 -15 12 -12 3 3 0 11 -7 18 -10 9 -11 8 -5 -6z"/>
<path d="M29057 17829 c7 -7 15 -10 18 -7 3 3 -2 9 -12 12 -14 6 -15 5 -6 -5z"/>
<path d="M29150 17797 c0 -10 41 -49 46 -45 2 3 -7 15 -21 28 -14 13 -25 20
-25 17z"/>
<path d="M29166 17708 c5 -8 2 -9 -10 -5 -9 4 -15 3 -11 -2 3 -6 14 -9 25 -8
14 1 16 4 8 14 -13 16 -22 17 -12 1z"/>
<path d="M29185 17670 c-3 -5 -1 -10 4 -10 6 0 11 5 11 10 0 6 -2 10 -4 10 -3
0 -8 -4 -11 -10z"/>
<path d="M29245 17620 c8 -9 15 -22 15 -28 0 -7 4 -12 8 -12 4 0 8 9 8 19 0
11 -5 19 -11 18 -5 -1 -9 3 -8 9 1 6 -5 11 -13 11 -12 0 -12 -3 1 -17z"/>
<path d="M29220 17616 c0 -2 8 -10 18 -17 15 -13 16 -12 3 4 -13 16 -21 21
-21 13z"/>
<path d="M29229 17566 c13 -16 51 -41 51 -33 0 2 -15 14 -32 27 -21 15 -28 17
-19 6z"/>
<path d="M27684 17516 c1 -8 5 -18 8 -22 4 -3 5 1 4 10 -1 8 -5 18 -8 22 -4 3
-5 -1 -4 -10z"/>
<path d="M27717 17499 c7 -7 15 -10 18 -7 3 3 -2 9 -12 12 -14 6 -15 5 -6 -5z"/>
<path d="M27776 17497 c3 -10 9 -15 12 -12 3 3 0 11 -7 18 -10 9 -11 8 -5 -6z"/>
<path d="M27933 17452 c-9 -6 -7 -11 6 -19 15 -10 19 -9 17 2 -3 20 -10 25
-23 17z"/>
<path d="M29270 17455 c0 -3 14 -18 30 -32 17 -13 27 -30 23 -35 -3 -7 -1 -8
6 -4 8 5 8 13 -3 28 -15 22 -56 53 -56 43z"/>
<path d="M27976 17417 c3 -10 9 -15 12 -12 3 3 0 11 -7 18 -10 9 -11 8 -5 -6z"/>
<path d="M28001 17404 c0 -11 3 -14 6 -6 3 7 2 16 -1 19 -3 4 -6 -2 -5 -13z"/>
<path d="M28050 17391 c0 -10 19 -25 25 -20 1 2 -3 10 -11 17 -8 7 -14 8 -14
3z"/>
<path d="M29340 17370 c-6 -11 -8 -20 -6 -20 3 0 10 9 16 20 6 11 8 20 6 20
-3 0 -10 -9 -16 -20z"/>
<path d="M28016 17366 c5 -13 4 -17 -3 -13 -7 4 -10 0 -9 -10 2 -9 10 -17 19
-19 10 -1 15 2 11 7 -7 12 2 11 29 -2 21 -10 21 -10 2 5 -11 8 -28 23 -38 33
-17 17 -18 17 -11 -1z"/>
<path d="M28100 17366 c0 -2 8 -10 18 -17 15 -13 16 -12 3 4 -13 16 -21 21
-21 13z"/>
<path d="M29313 17335 c0 -7 6 -11 14 -8 7 3 13 6 13 8 0 2 -6 5 -13 8 -8 3
-14 -1 -14 -8z"/>
<path d="M29350 17317 c0 -8 -8 -18 -17 -20 -17 -4 -17 -5 0 -6 18 -1 35 25
23 36 -3 4 -6 -1 -6 -10z"/>
<path d="M29338 17246 c4 -6 7 -14 7 -18 0 -3 3 -10 8 -14 4 -4 6 4 5 18 -1
13 -8 25 -15 25 -6 0 -9 -5 -5 -11z"/>
<path d="M28180 17185 c13 -14 25 -23 28 -21 4 5 -35 46 -45 46 -3 0 4 -11 17
-25z"/>
<path d="M28257 17127 c-3 -8 0 -14 7 -14 7 0 13 6 13 14 0 7 -4 13 -8 13 -4
0 -9 -6 -12 -13z"/>
<path d="M29397 17111 c3 -12 13 -21 22 -21 12 0 13 2 3 9 -8 4 -13 12 -12 17
1 5 -3 10 -8 12 -6 2 -8 -6 -5 -17z"/>
<path d="M28246 17088 c3 -5 10 -6 15 -3 13 9 11 12 -6 12 -8 0 -12 -4 -9 -9z"/>
<path d="M28280 17090 c0 -5 5 -10 11 -10 5 0 7 5 4 10 -3 6 -8 10 -11 10 -2
0 -4 -4 -4 -10z"/>
<path d="M29408 17057 c12 -13 19 -27 15 -32 -5 -4 -2 -5 5 -1 11 6 8 13 -9
32 -12 13 -25 24 -27 24 -3 0 4 -10 16 -23z"/>
<path d="M28320 17026 c0 -2 8 -10 18 -17 15 -13 16 -12 3 4 -13 16 -21 21
-21 13z"/>
<path d="M29387 16997 c3 -4 8 -6 11 -3 3 3 11 1 19 -6 11 -8 12 -7 7 5 -3 9
-14 15 -24 14 -10 -1 -16 -5 -13 -10z"/>
<path d="M28333 16972 c0 -12 5 -22 9 -22 11 0 10 12 -2 30 -7 12 -9 10 -7 -8z"/>
<path d="M29400 16950 c-6 -11 -8 -20 -6 -20 3 0 10 9 16 20 6 11 8 20 6 20
-3 0 -10 -9 -16 -20z"/>
<path d="M28344 16934 c-18 -14 -18 -15 4 -4 12 6 22 13 22 15 0 8 -5 6 -26
-11z"/>
<path d="M29425 16910 c-4 -6 -11 -8 -16 -5 -5 4 -9 1 -9 -4 0 -16 16 -13 30
4 7 8 10 15 7 15 -3 0 -9 -5 -12 -10z"/>
<path d="M28350 16868 c0 -4 4 -8 9 -8 6 0 12 4 15 8 3 5 -1 9 -9 9 -8 0 -15
-4 -15 -9z"/>
<path d="M29425 16861 c-3 -5 -2 -12 3 -15 5 -3 9 1 9 9 0 17 -3 19 -12 6z"/>
<path d="M28356 16798 c3 -5 10 -6 15 -3 13 9 11 12 -6 12 -8 0 -12 -4 -9 -9z"/>
<path d="M29711 16724 c0 -11 3 -14 6 -6 3 7 2 16 -1 19 -3 4 -6 -2 -5 -13z"/>
<path d="M29731 16712 c-13 -25 -15 -432 -1 -432 6 0 10 67 10 196 0 123 4
203 11 216 9 16 8 19 -2 13 -9 -6 -11 -3 -6 8 8 23 0 22 -12 -1z"/>
<path d="M29733 16255 c0 -6 6 -12 12 -12 6 0 12 6 12 12 0 6 -6 12 -12 12 -6
0 -12 -6 -12 -12z"/>
<path d="M29700 16210 c0 -6 7 -10 15 -10 8 0 15 2 15 4 0 2 -7 6 -15 10 -8 3
-15 1 -15 -4z"/>
<path d="M28800 15869 c0 -5 5 -7 10 -4 6 3 10 8 10 11 0 2 -4 4 -10 4 -5 0
-10 -5 -10 -11z"/>
<path d="M28886 15872 c-2 -4 4 -8 14 -8 10 0 16 4 14 8 -3 4 -9 8 -14 8 -5 0
-11 -4 -14 -8z"/>
<path d="M28912 15825 c14 -26 23 -34 15 -14 -3 9 -1 21 4 26 5 5 1 9 -10 9
-16 0 -18 -4 -9 -21z"/>
<path d="M28860 15815 c-11 -13 -15 -13 -21 -3 -7 10 -9 8 -9 -5 0 -11 -4 -15
-12 -11 -7 4 -8 3 -4 -4 5 -8 13 -9 25 -3 18 10 47 41 38 41 -2 0 -10 -7 -17
-15z"/>
<path d="M28753 15699 c-2 -23 3 -25 10 -4 4 8 3 16 -1 19 -4 3 -9 -4 -9 -15z"/>
<path d="M28989 15696 c6 -7 7 -17 3 -21 -4 -5 -1 -4 7 0 11 6 13 4 8 -9 -4
-10 -3 -15 3 -11 15 10 5 48 -14 51 -13 2 -14 -1 -7 -10z"/>
<path d="M28775 15689 c-4 -6 -5 -12 -2 -15 2 -3 7 2 10 11 7 17 1 20 -8 4z"/>
<path d="M28730 15682 c0 -5 7 -15 15 -22 8 -7 15 -9 15 -6 0 4 -7 14 -15 22
-8 9 -15 11 -15 6z"/>
<path d="M28780 15660 c-9 -6 -10 -10 -3 -10 6 0 15 5 18 10 8 12 4 12 -15 0z"/>
<path d="M28724 15646 c1 -8 5 -18 8 -22 4 -3 5 1 4 10 -1 8 -5 18 -8 22 -4 3
-5 -1 -4 -10z"/>
<path d="M29025 15640 c3 -5 8 -10 11 -10 2 0 4 5 4 10 0 6 -5 10 -11 10 -5 0
-7 -4 -4 -10z"/>
<path d="M28756 15628 c3 -5 10 -6 15 -3 13 9 11 12 -6 12 -8 0 -12 -4 -9 -9z"/>
<path d="M28678 15548 c5 -5 16 -8 23 -6 8 3 3 7 -10 11 -17 4 -21 3 -13 -5z"/>
<path d="M29095 15540 c-4 -6 -11 -7 -17 -4 -6 4 -9 1 -6 -6 7 -21 34 -20 34
1 0 22 -2 23 -11 9z"/>
<path d="M28648 15518 c-9 -5 -6 -7 9 -5 12 2 25 6 28 8 8 9 -23 6 -37 -3z"/>
<path d="M28673 15479 c-1 -10 2 -19 8 -19 11 0 12 27 1 34 -4 2 -9 -4 -9 -15z"/>
<path d="M29107 15475 c-4 -8 -3 -16 1 -19 4 -3 9 4 9 15 2 23 -3 25 -10 4z"/>
<path d="M28596 15383 c-6 -14 -5 -15 5 -6 7 7 10 15 7 18 -3 3 -9 -2 -12 -12z"/>
<path d="M29130 15390 c0 -5 5 -10 11 -10 5 0 7 5 4 10 -3 6 -8 10 -11 10 -2
0 -4 -4 -4 -10z"/>
<path d="M29185 15390 c3 -5 8 -10 11 -10 2 0 4 5 4 10 0 6 -5 10 -11 10 -5 0
-7 -4 -4 -10z"/>
<path d="M28630 15369 c-7 -11 -10 -23 -7 -25 2 -2 9 7 15 21 14 30 7 33 -8 4z"/>
<path d="M29150 15370 c-9 -6 -10 -10 -3 -10 6 0 15 5 18 10 8 12 4 12 -15 0z"/>
<path d="M28569 15351 c0 -3 -2 -14 -4 -24 -2 -9 1 -15 6 -11 5 3 6 10 3 16
-5 7 -2 9 8 6 8 -4 15 -1 15 6 0 12 -26 19 -28 7z"/>
<path d="M29173 15340 c-8 -12 -9 -21 -3 -25 6 -4 9 -1 8 7 -2 7 2 12 9 11 7
-2 10 4 7 12 -8 19 -7 19 -21 -5z"/>
<path d="M28575 15287 c-19 -24 -17 -39 4 -27 12 6 18 16 15 25 -7 18 -6 18
-19 2z"/>
<path d="M28503 15225 c0 -7 6 -12 14 -11 19 3 21 19 2 21 -9 2 -16 -3 -16
-10z"/>
<path d="M28539 15203 c-13 -16 -12 -17 4 -4 9 7 17 15 17 17 0 8 -8 3 -21
-13z"/>
<path d="M29235 15180 c3 -5 8 -10 11 -10 2 0 4 5 4 10 0 6 -5 10 -11 10 -5 0
-7 -4 -4 -10z"/>
<path d="M28486 15172 c-3 -5 1 -9 9 -9 8 0 12 4 9 9 -3 4 -7 8 -9 8 -2 0 -6
-4 -9 -8z"/>
<path d="M29265 15151 c-3 -5 -2 -12 3 -15 5 -3 9 1 9 9 0 17 -3 19 -12 6z"/>
<path d="M28489 15113 c-12 -16 -12 -17 2 -6 9 7 20 9 24 5 5 -4 5 -1 1 6 -9
16 -11 15 -27 -5z"/>
<path d="M28400 15069 c0 -5 5 -7 10 -4 6 3 10 8 10 11 0 2 -4 4 -10 4 -5 0
-10 -5 -10 -11z"/>
<path d="M29314 15055 c0 -13 4 -21 8 -19 4 3 8 11 8 19 0 8 -4 16 -8 19 -4 2
-8 -6 -8 -19z"/>
<path d="M28476 15055 c-13 -10 -15 -15 -6 -15 9 0 8 -6 -6 -22 l-19 -23 23
19 c12 11 20 21 17 24 -3 3 0 11 6 19 15 17 9 16 -15 -2z"/>
<path d="M29340 15051 c0 -6 4 -13 10 -16 6 -3 7 1 4 9 -7 18 -14 21 -14 7z"/>
<path d="M28432 15000 c2 -19 -1 -25 -14 -24 -10 1 -18 -5 -18 -12 0 -11 5
-12 19 -5 10 6 21 8 24 4 3 -3 4 7 1 23 -7 36 -17 48 -12 14z"/>
<path d="M29316 14988 c3 -5 10 -6 15 -3 13 9 11 12 -6 12 -8 0 -12 -4 -9 -9z"/>
<path d="M28410 14935 c-7 -8 -8 -15 -3 -15 6 0 9 -12 7 -26 -1 -14 0 -23 4
-20 5 5 11 76 6 76 -1 0 -7 -7 -14 -15z"/>
<path d="M28405 14849 c-4 -6 -5 -12 -2 -15 2 -3 7 2 10 11 7 17 1 20 -8 4z"/>
<path d="M29380 14820 c-7 -14 -7 -20 0 -20 5 0 10 7 10 16 0 9 5 12 12 8 7
-4 8 -3 4 4 -10 16 -14 15 -26 -8z"/>
<path d="M29391 14768 c-13 -22 -13 -23 6 -5 11 9 23 17 27 17 5 0 5 -8 1 -17
-5 -14 -3 -15 6 -6 13 13 4 33 -14 33 -7 0 -18 -10 -26 -22z"/>
<path d="M28334 14723 c4 -8 2 -13 -5 -13 -10 0 -10 -3 -1 -12 8 -8 15 -9 22
-2 8 8 6 15 -6 25 -12 9 -15 10 -10 2z"/>
<path d="M29412 14691 c4 -13 18 -16 19 -4 0 4 -5 9 -11 12 -7 2 -11 -2 -8 -8z"/>
<path d="M29390 14681 c0 -6 4 -13 10 -16 6 -3 7 1 4 9 -7 18 -14 21 -14 7z"/>
<path d="M28331 14677 c2 -1 11 -8 20 -15 13 -9 16 -9 16 3 0 8 -9 15 -20 15
-11 0 -18 -1 -16 -3z"/>
<path d="M28325 14651 c-6 -11 9 -23 19 -14 9 9 7 23 -3 23 -6 0 -12 -4 -16
-9z"/>
<path d="M28372 14629 c-7 -11 -18 -17 -24 -13 -7 5 -8 3 -4 -5 6 -9 13 -8 29
6 12 10 23 19 25 19 2 1 -1 4 -5 7 -5 3 -15 -3 -21 -14z"/>
<path d="M29395 14640 c-3 -5 -1 -10 4 -10 6 0 11 5 11 10 0 6 -2 10 -4 10 -3
0 -8 -4 -11 -10z"/>
<path d="M29425 14625 c0 -13 3 -21 8 -18 4 2 7 10 7 18 0 8 -3 16 -7 18 -5 3
-8 -5 -8 -18z"/>
<path d="M29401 14604 c0 -11 3 -14 6 -6 3 7 2 16 -1 19 -3 4 -6 -2 -5 -13z"/>
<path d="M29369 14543 c-13 -16 -12 -17 4 -4 9 7 17 15 17 17 0 8 -8 3 -21
-13z"/>
<path d="M28401 14504 c0 -11 3 -14 6 -6 3 7 2 16 -1 19 -3 4 -6 -2 -5 -13z"/>
<path d="M28406 14472 c-8 -13 3 -42 16 -42 5 0 6 -5 2 -12 -4 -6 -3 -8 4 -4
6 3 12 1 15 -6 2 -7 2 1 -1 17 -5 34 -26 62 -36 47z m24 -23 c0 -6 -4 -7 -10
-4 -5 3 -10 11 -10 16 0 6 5 7 10 4 6 -3 10 -11 10 -16z"/>
<path d="M29345 14431 c6 -11 3 -13 -15 -8 -17 4 -20 3 -12 -5 17 -17 40 -18
38 -2 -1 7 -6 17 -11 21 -4 4 -5 2 0 -6z"/>
<path d="M29308 14386 c5 -11 17 -21 26 -22 9 -1 13 2 10 8 -3 5 -8 7 -12 4
-3 -3 -11 2 -19 12 -13 16 -14 16 -5 -2z"/>
<path d="M28503 14355 c0 -8 4 -12 9 -9 5 3 6 10 3 15 -9 13 -12 11 -12 -6z"/>
<path d="M29260 14350 c0 -5 5 -10 11 -10 5 0 7 5 4 10 -3 6 -8 10 -11 10 -2
0 -4 -4 -4 -10z"/>
<path d="M28544 14308 c-4 -7 -4 -10 1 -6 4 4 16 -2 27 -14 10 -12 20 -19 23
-16 3 2 -6 15 -19 27 -19 18 -26 20 -32 9z"/>
<path d="M29250 14316 c0 -2 8 -10 18 -17 15 -13 16 -12 3 4 -13 16 -21 21
-21 13z"/>
<path d="M28480 14306 c0 -2 8 -10 18 -17 15 -13 16 -12 3 4 -13 16 -21 21
-21 13z"/>
<path d="M29236 14297 c3 -10 9 -15 12 -12 3 3 0 11 -7 18 -10 9 -11 8 -5 -6z"/>
<path d="M29131 14250 c-14 -12 -18 -20 -10 -20 8 0 20 9 27 20 15 25 13 25
-17 0z"/>
<path d="M29176 14242 c-3 -5 1 -9 9 -9 8 0 15 4 15 9 0 4 -4 8 -9 8 -6 0 -12
-4 -15 -8z"/>
<path d="M28585 14230 c-4 -6 -10 -8 -14 -6 -4 3 -8 -1 -8 -9 0 -10 5 -11 19
-4 10 5 18 14 18 19 0 13 -7 13 -15 0z"/>
<path d="M28607 14219 c-4 -16 -3 -18 9 -8 7 6 11 15 8 20 -8 13 -11 11 -17
-12z"/>
<path d="M29150 14231 c0 -6 4 -13 10 -16 6 -3 7 1 4 9 -7 18 -14 21 -14 7z"/>
<path d="M28665 14220 c-7 -11 -8 -11 23 -14 27 -3 28 0 3 14 -13 7 -22 7 -26
0z"/>
<path d="M29077 14213 c3 -7 6 -13 8 -13 2 0 5 6 8 13 3 8 -1 14 -8 14 -7 0
-11 -6 -8 -14z"/>
<path d="M11040 17250 c0 -5 5 -10 11 -10 5 0 7 5 4 10 -3 6 -8 10 -11 10 -2
0 -4 -4 -4 -10z"/>
<path d="M11210 16930 c-11 -7 -11 -10 -2 -10 8 0 10 -5 6 -12 -4 -7 -3 -9 1
-5 7 6 17 37 12 37 -1 0 -9 -5 -17 -10z"/>
<path d="M11211 16864 c0 -11 3 -14 6 -6 3 7 2 16 -1 19 -3 4 -6 -2 -5 -13z"/>
<path d="M11293 16715 c0 -8 4 -12 9 -9 5 3 6 10 3 15 -9 13 -12 11 -12 -6z"/>
<path d="M11286 16653 c-6 -14 -5 -15 5 -6 7 7 10 15 7 18 -3 3 -9 -2 -12 -12z"/>
<path d="M11365 16369 c-4 -6 -5 -12 -2 -15 2 -3 7 2 10 11 7 17 1 20 -8 4z"/>
<path d="M11295 16259 c-17 -8 -17 -9 5 -5 l25 5 -25 -19 c-24 -19 -24 -19 -2
-13 12 3 25 10 28 15 10 16 -10 26 -31 17z"/>
<path d="M11040 16090 c0 -5 7 -7 15 -4 8 4 15 8 15 10 0 2 -7 4 -15 4 -8 0
-15 -4 -15 -10z"/>
<path d="M8002 11268 l3 -443 83 -3 82 -3 0 446 0 445 -85 0 -85 0 2 -442z"/>
<path d="M16302 11468 l3 -243 80 0 80 0 3 243 2 242 -85 0 -85 0 2 -242z"/>
<path d="M16302 10603 l3 -328 80 0 80 0 3 328 2 327 -85 0 -85 0 2 -327z"/>
<path d="M28040 11405 l0 -305 80 0 80 0 0 305 0 305 -80 0 -80 0 0 -305z"/>
</g>
</svg>
