<?xml version="1.0" standalone="no"?>
<!DOCTYPE svg PUBLIC "-//W3C//DTD SVG 20010904//EN"
 "http://www.w3.org/TR/2001/REC-SVG-20010904/DTD/svg10.dtd">
<svg version="1.0" xmlns="http://www.w3.org/2000/svg"
 width="2000.000000pt" height="2000.000000pt" viewBox="0 0 2000.000000 2000.000000"
 preserveAspectRatio="xMidYMid meet">

<g transform="translate(0.000000,2000.000000) scale(0.100000,-0.100000)"
fill="#000000" stroke="none">
<path d="M8626 15041 c-3 -4 6 -6 21 -3 19 4 24 2 18 -8 -5 -8 -4 -11 2 -7 6
4 13 0 17 -8 3 -8 1 -17 -5 -20 -11 -7 -3 -25 12 -25 14 0 11 33 -7 58 -15 22
-48 30 -58 13z"/>
<path d="M8592 15010 c-7 -11 -12 -28 -12 -37 0 -10 -13 -55 -28 -101 -16 -45
-25 -79 -20 -74 12 12 58 152 58 177 0 11 5 26 12 33 6 6 10 14 7 16 -3 3 -10
-4 -17 -14z"/>
<path d="M8703 14915 c0 -27 2 -38 4 -22 2 15 2 37 0 50 -2 12 -4 0 -4 -28z"/>
<path d="M8712 14820 c-1 -19 -5 -46 -7 -60 l-6 -25 11 25 c6 13 9 40 7 60
l-4 35 -1 -35z"/>
<path d="M8490 14740 c-6 -11 -8 -20 -6 -20 3 0 10 9 16 20 6 11 8 20 6 20 -3
0 -10 -9 -16 -20z"/>
<path d="M8698 14675 c-2 -25 0 -53 4 -63 3 -9 7 11 7 46 1 72 -5 82 -11 17z"/>
<path d="M8431 14660 c-36 -43 -110 -105 -187 -158 -11 -7 -4 -4 15 5 71 37
81 44 81 55 0 6 2 9 5 6 7 -7 61 46 103 100 46 58 34 53 -17 -8z"/>
<path d="M8689 14452 c-2 -79 0 -146 4 -149 5 -3 7 -19 6 -37 -1 -17 1 -38 4
-46 3 -8 11 -46 17 -83 7 -37 14 -66 17 -64 2 3 -3 42 -12 88 -10 46 -20 163
-24 259 l-7 175 -5 -143z"/>
<path d="M8175 14468 c-22 -12 -85 -38 -140 -59 -55 -21 -93 -39 -84 -39 9 0
49 14 90 30 40 17 79 28 87 25 7 -2 11 -1 8 4 -3 5 6 14 22 19 25 9 74 42 62
41 -3 0 -23 -9 -45 -21z"/>
<path d="M5695 14325 c79 -74 219 -168 289 -194 68 -25 251 -63 280 -58 12 2
-7 7 -42 12 -40 5 -66 13 -72 24 -5 9 -10 11 -10 5 0 -13 -30 -15 -30 -2 0 5
-4 6 -10 3 -23 -14 -206 57 -194 76 3 5 -1 6 -9 3 -17 -6 -158 97 -150 110 4
5 1 6 -4 3 -6 -4 -19 3 -29 15 -18 20 -18 21 -1 15 11 -4 31 -9 45 -12 15 -3
2 4 -28 15 -30 11 -64 24 -75 30 -11 6 7 -14 40 -45z"/>
<path d="M7857 14353 c-32 -9 -56 -17 -54 -20 6 -5 116 23 125 31 8 8 -4 6
-71 -11z"/>
<path d="M7768 14323 c7 -3 16 -2 19 1 4 3 -2 6 -13 5 -11 0 -14 -3 -6 -6z"/>
<path d="M5800 14310 c8 -5 24 -10 34 -10 26 0 18 6 -19 14 -22 5 -26 4 -15
-4z"/>
<path d="M7665 14305 c-27 -7 -41 -13 -30 -14 11 0 43 6 70 13 63 18 28 18
-40 1z"/>
<path d="M5861 14295 c8 -7 148 -35 172 -34 12 0 -18 9 -68 19 -99 21 -111 22
-104 15z"/>
<path d="M7573 14283 c9 -2 23 -2 30 0 6 3 -1 5 -18 5 -16 0 -22 -2 -12 -5z"/>
<path d="M7513 14273 c9 -2 23 -2 30 0 6 3 -1 5 -18 5 -16 0 -22 -2 -12 -5z"/>
<path d="M7430 14260 c0 -6 11 -8 28 -4 39 10 40 14 4 14 -18 0 -32 -5 -32
-10z"/>
<path d="M6095 14250 c22 -5 78 -11 125 -14 l85 -5 -105 14 c-114 15 -169 17
-105 5z"/>
<path d="M7368 14253 c12 -2 30 -2 40 0 9 3 -1 5 -23 4 -22 0 -30 -2 -17 -4z"/>
<path d="M7190 14243 c-30 -2 -58 -7 -62 -12 -7 -6 115 2 192 12 32 5 -59 4
-130 0z"/>
<path d="M6311 14226 c2 -2 40 -6 83 -9 47 -3 73 -1 65 4 -13 8 -157 13 -148
5z"/>
<path d="M7003 14223 c20 -2 54 -2 75 0 20 2 3 4 -38 4 -41 0 -58 -2 -37 -4z"/>
<path d="M6593 14213 c65 -2 168 -2 230 0 62 1 9 3 -118 3 -126 0 -177 -2
-112 -3z"/>
<path d="M8430 14169 c-23 -18 -62 -38 -145 -74 -16 -8 -43 -15 -60 -17 -16
-2 -32 -6 -35 -9 -10 -12 -236 -49 -362 -59 -69 -6 -190 -13 -268 -15 -78 -3
-152 -8 -166 -11 -49 -12 -701 25 -744 43 -26 11 -40 11 -40 2 0 -5 9 -9 20
-9 19 0 20 -7 20 -169 l0 -168 48 -64 48 -64 -4 -125 -4 -125 287 0 287 0 -4
125 -3 126 48 64 47 64 0 146 0 147 178 7 c97 4 200 9 227 12 328 33 521 83
623 160 18 14 35 24 38 21 3 -2 18 -44 33 -93 16 -49 29 -80 29 -69 1 28 -51
168 -63 172 -5 1 -21 -7 -35 -18z"/>
<path d="M6291 14066 c7 -6 287 -38 300 -34 7 2 -52 12 -131 21 -149 18 -176
20 -169 13z"/>
<path d="M8741 14044 c0 -11 3 -14 6 -6 3 7 2 16 -1 19 -3 4 -6 -2 -5 -13z"/>
<path d="M8749 14010 c-3 -8 0 -26 8 -40 13 -26 16 -12 4 30 -5 18 -8 21 -12
10z"/>
<path d="M8530 13990 c-1 -28 159 -460 171 -460 4 0 1 13 -7 28 -7 16 -15 38
-17 49 -1 12 -8 27 -14 35 -6 7 -34 83 -63 168 -48 141 -69 194 -70 180z"/>
<path d="M8781 13895 c0 -11 4 -27 9 -35 9 -13 10 -13 9 0 0 8 -4 24 -9 35
l-9 20 0 -20z"/>
<path d="M8821 13770 c0 -8 4 -22 9 -30 12 -18 12 -2 0 25 -6 13 -9 15 -9 5z"/>
<path d="M8842 13695 c6 -14 13 -24 14 -22 6 6 -9 47 -17 47 -5 0 -3 -11 3
-25z"/>
<path d="M8860 13655 c0 -5 5 -17 10 -25 5 -8 10 -10 10 -5 0 6 -5 17 -10 25
-5 8 -10 11 -10 5z"/>
<path d="M8880 13603 c0 -11 14 -46 43 -110 6 -13 12 -21 14 -19 2 1 -10 34
-26 72 -17 38 -30 64 -31 57z"/>
<path d="M8700 13514 c0 -13 18 -39 24 -34 2 3 -2 14 -10 24 -8 11 -14 16 -14
10z"/>
<path d="M8743 13505 c0 -7 6 -11 14 -8 7 3 13 6 13 8 0 2 -6 5 -13 8 -8 3
-14 -1 -14 -8z"/>
<path d="M8722 13460 c19 -53 72 -170 75 -166 3 2 -7 31 -22 64 -14 32 -27 66
-29 76 -1 9 -8 22 -16 29 -10 10 -12 9 -8 -3z"/>
<path d="M8946 13440 c3 -14 10 -29 15 -34 14 -16 10 6 -7 34 l-15 25 7 -25z"/>
<path d="M8775 13431 c-3 -5 -2 -12 3 -15 5 -3 9 1 9 9 0 17 -3 19 -12 6z"/>
<path d="M8970 13378 c0 -9 5 -20 11 -23 6 -4 8 -14 5 -22 -3 -8 -1 -11 4 -8
6 3 10 1 10 -6 0 -7 3 -10 6 -7 3 4 -4 23 -15 45 -11 21 -20 30 -21 21z"/>
<path d="M9011 13295 c0 -5 8 -26 19 -45 11 -19 19 -30 19 -25 0 6 -8 26 -19
45 -11 19 -19 31 -19 25z"/>
<path d="M8800 13273 c1 -5 12 -28 26 -53 14 -25 23 -38 21 -30 -2 8 0 23 4
32 6 11 5 19 -3 24 -6 4 -8 3 -4 -4 3 -6 2 -13 -3 -16 -9 -6 -27 31 -23 47 1
4 -2 7 -8 7 -5 0 -10 -3 -10 -7z"/>
<path d="M9046 13195 c-3 -9 -2 -14 2 -11 8 5 90 -154 84 -162 -2 -3 1 -8 6
-11 16 -10 52 -88 44 -96 -4 -5 -1 -5 5 -1 9 5 -7 47 -58 149 -39 78 -72 143
-74 145 -1 2 -5 -4 -9 -13z"/>
<path d="M8859 13146 c27 -69 247 -486 257 -486 2 0 -4 17 -15 39 -11 21 -17
41 -14 45 4 3 2 6 -4 6 -6 0 -25 27 -42 60 -18 33 -30 60 -27 60 3 0 -3 9 -15
21 -16 16 -18 23 -8 35 10 12 9 13 -5 8 -12 -5 -15 -2 -9 12 4 11 3 15 -4 11
-13 -8 -26 20 -16 35 3 6 1 8 -4 5 -6 -4 -28 32 -51 83 -23 50 -44 90 -47 90
-2 0 0 -11 4 -24z"/>
<path d="M9196 12901 c-4 -6 -3 -11 1 -11 5 0 26 -31 47 -70 39 -72 61 -99 27
-32 -45 87 -69 123 -75 113z"/>
<path d="M6765 12734 c-16 -2 -73 -9 -125 -15 -52 -6 -151 -22 -220 -36 -1370
-275 -2386 -1458 -2453 -2858 -2 -48 -3 -45 -31 65 -82 329 -316 947 -359 947
-8 0 -13 -6 -10 -13 2 -6 -7 -50 -22 -97 -14 -47 -40 -149 -58 -226 -19 -78
-35 -139 -38 -137 -2 2 -4 -17 -5 -42 0 -26 -4 -60 -8 -75 l-7 -28 -40 51
c-22 27 -42 50 -44 50 -3 0 13 -23 36 -52 84 -106 167 -305 214 -513 22 -97
28 -153 32 -290 5 -182 -7 -292 -49 -448 -23 -86 -96 -210 -141 -240 -15 -10
-27 -23 -27 -30 0 -7 3 -8 8 -2 4 6 25 26 46 45 34 31 38 32 33 13 -3 -13 -1
-23 5 -23 6 0 8 -11 5 -25 -2 -14 -2 -23 1 -20 3 3 23 -52 45 -122 88 -289
217 -571 389 -852 l21 -33 -21 11 c-12 7 -22 16 -22 21 0 6 -5 10 -10 10 -19
0 -110 66 -102 74 4 4 3 6 -3 5 -5 -2 -26 5 -45 15 -50 26 -29 9 85 -69 258
-176 620 -477 784 -652 111 -117 169 -203 226 -329 23 -51 45 -91 47 -88 6 6
199 -123 210 -140 4 -6 8 -8 8 -4 0 4 39 -16 87 -44 189 -112 424 -218 656
-297 59 -21 104 -41 100 -45 -4 -4 0 -4 8 -1 9 3 57 -5 106 -19 50 -14 159
-40 244 -57 l154 -31 180 16 c308 28 458 36 840 42 l370 6 125 34 c69 18 158
44 197 58 119 41 333 128 333 136 0 16 -102 73 -163 92 -116 36 -193 35 -362
-5 -325 -77 -441 -91 -755 -92 l-255 0 -85 44 c-113 58 -215 129 -270 186
l-45 48 55 -7 c503 -57 975 -4 1428 160 143 52 322 133 322 145 0 5 -13 45
-30 91 -16 45 -30 85 -30 89 0 4 35 26 78 49 42 23 133 79 202 125 727 485
1193 1274 1265 2140 l7 81 96 -13 c52 -7 98 -11 101 -7 10 10 4 385 -9 489
-39 343 -113 621 -242 915 -420 961 -1305 1639 -2348 1801 -107 17 -192 22
-410 24 -151 2 -288 1 -305 -1z m163 -411 l3 -111 -78 -6 c-43 -4 -127 -13
-188 -22 -60 -8 -126 -17 -145 -20 -19 -3 -46 -9 -60 -14 -14 -5 -69 -21 -123
-34 -126 -32 -283 -93 -421 -162 -60 -30 -110 -53 -111 -52 -12 18 -105 185
-105 190 0 10 81 53 213 111 130 58 327 126 437 151 36 8 94 22 130 30 90 21
361 55 415 52 l30 -1 3 -112z m362 102 c229 -24 387 -57 596 -125 151 -48 395
-153 443 -190 l24 -18 -54 -96 c-30 -53 -56 -95 -59 -93 -171 91 -377 175
-525 212 -55 14 -111 30 -125 35 -14 5 -41 11 -60 14 -19 3 -84 12 -145 20
-60 9 -145 18 -187 22 l-78 6 0 107 c0 99 3 121 19 121 3 0 71 -7 151 -15z
m-360 -304 c0 -17 10 -42 24 -58 20 -23 32 -28 71 -28 39 0 51 5 71 28 14 16
24 41 24 58 0 35 6 36 194 14 264 -31 527 -107 764 -220 72 -35 132 -66 132
-69 0 -2 -4 -16 -9 -29 -21 -56 58 -94 91 -45 l15 23 85 -57 c262 -174 512
-423 683 -681 l58 -87 -23 -25 c-42 -44 1 -111 56 -86 21 9 26 7 41 -22 44
-81 101 -212 95 -218 -6 -5 -534 -211 -647 -252 -22 -8 -363 -141 -759 -295
l-718 -281 -40 32 c-33 26 -49 32 -101 34 -51 3 -69 0 -102 -19 -47 -28 -85
-89 -85 -139 l0 -35 -342 -134 c-743 -288 -911 -351 -922 -340 -15 15 -89 12
-113 -5 -12 -8 -27 -31 -33 -50 -23 -71 41 -144 115 -131 36 7 75 47 75 76 0
13 138 70 621 258 l621 242 34 -30 c104 -91 262 -40 295 95 6 28 13 55 14 60
2 6 326 135 721 288 396 154 782 304 859 334 295 116 526 203 539 203 15 0 76
-187 106 -325 26 -120 50 -310 50 -393 0 -66 -1 -68 -30 -79 -35 -13 -45 -33
-36 -68 5 -18 15 -27 38 -32 l31 -6 -6 -116 c-15 -290 -97 -601 -237 -898
l-53 -113 -40 7 c-32 5 -43 2 -54 -12 -19 -26 -16 -52 7 -72 11 -10 20 -21 20
-26 0 -4 -22 -40 -49 -80 -183 -271 -417 -505 -688 -688 -40 -27 -76 -49 -80
-49 -5 0 -16 9 -26 20 -43 51 -106 2 -84 -66 7 -19 -5 -27 -110 -76 -282 -133
-593 -217 -863 -233 -52 -3 -107 -8 -122 -10 -24 -4 -28 -1 -28 20 0 29 -24
55 -52 55 -29 0 -58 -28 -58 -57 0 -19 -4 -23 -22 -19 -13 3 -70 8 -128 11
-211 13 -506 82 -719 169 -91 38 -247 110 -259 121 -2 2 2 13 8 25 29 55 -40
103 -85 60 l-24 -23 -45 27 c-136 79 -361 270 -498 422 -86 95 -214 261 -255
332 l-26 43 22 15 c24 17 27 51 7 79 -10 14 -21 17 -49 12 -35 -5 -38 -3 -61
36 -74 125 -186 438 -225 623 -27 130 -51 319 -51 397 0 62 0 63 32 72 35 10
44 30 34 70 -4 16 -16 26 -37 30 l-32 7 7 113 c16 293 97 601 232 883 62 131
63 132 88 121 20 -10 30 -9 51 5 31 21 33 58 3 85 l-21 21 55 83 c172 258 435
520 697 693 l74 49 15 -23 c32 -49 121 -5 93 47 -6 11 -11 22 -11 25 0 10 173
94 282 137 233 93 543 161 766 168 40 1 42 0 42 -28z m-1271 -177 c29 -52 50
-99 45 -103 -5 -4 -49 -34 -99 -66 -49 -32 -92 -61 -95 -64 -3 -3 -41 -35 -85
-70 -115 -92 -255 -231 -343 -341 -42 -52 -79 -97 -83 -100 -3 -3 -34 -48 -68
-100 -35 -52 -66 -96 -70 -98 -7 -2 -176 90 -190 104 -6 5 55 98 145 219 157
213 348 405 554 559 97 72 221 156 230 156 3 0 29 -43 59 -96z m2872 46 c194
-130 284 -205 439 -360 119 -119 208 -221 278 -320 82 -115 132 -190 132 -197
0 -9 -173 -113 -187 -113 -4 0 -30 35 -57 78 -117 182 -332 420 -501 555 -49
40 -98 79 -108 89 -11 9 -57 40 -103 69 -46 28 -84 54 -84 56 0 10 105 193
111 193 4 0 40 -22 80 -50z m-3838 -1021 c40 -23 82 -48 94 -55 l22 -14 -49
-92 c-137 -262 -235 -628 -256 -960 l-7 -108 -113 0 -114 0 0 38 c0 98 36 368
70 525 26 120 99 345 147 452 19 44 44 100 55 125 24 55 67 130 74 130 3 0 38
-19 77 -41z m4801 -61 c27 -57 57 -120 68 -141 l20 -37 -54 -24 c-74 -33 -156
-61 -161 -56 -12 17 -120 251 -116 254 12 12 176 105 185 106 6 0 32 -46 58
-102z m156 -388 c67 -205 130 -563 130 -737 l0 -43 -115 0 -115 0 -2 73 c-2
95 -2 102 -22 247 -17 117 -94 428 -117 472 -6 11 -8 22 -5 25 10 10 190 81
200 79 5 -1 25 -53 46 -116z m-2584 -778 c21 -14 34 -52 28 -77 -13 -53 -79
-69 -118 -29 -21 20 -20 73 1 96 16 18 68 24 89 10z m-2562 -224 c19 -324 112
-672 256 -957 l48 -97 -46 -27 c-26 -14 -71 -40 -99 -57 l-53 -30 -36 71
c-125 250 -209 501 -264 794 -12 63 -40 327 -40 378 l0 37 113 0 114 0 7 -112z
m5276 61 c0 -59 -16 -207 -35 -334 -43 -275 -109 -487 -236 -752 l-68 -143
-88 51 c-48 28 -92 55 -97 60 -6 5 14 59 51 136 34 71 72 157 84 193 13 36 29
76 36 90 7 14 13 30 13 37 0 7 15 70 34 140 44 164 72 350 75 501 l1 72 115 0
115 0 0 -51z m-4856 -1302 c158 -245 458 -544 699 -697 48 -30 87 -59 87 -63
0 -14 -104 -187 -113 -187 -17 0 -184 117 -307 215 -141 113 -436 422 -478
502 -7 12 -18 27 -25 35 -20 19 -117 166 -117 175 0 7 177 112 190 113 3 0 32
-42 64 -93z m4362 41 c51 -29 94 -57 94 -61 0 -13 -68 -116 -159 -237 -112
-150 -380 -418 -531 -531 -118 -89 -223 -159 -237 -159 -8 0 -105 164 -110
185 -2 6 34 33 80 62 240 151 558 468 709 708 29 46 55 85 56 85 2 0 46 -24
98 -52z m-3373 -904 c111 -57 295 -128 397 -155 41 -11 98 -27 125 -35 45 -13
257 -49 345 -59 19 -2 70 -4 113 -4 l77 -1 0 -115 0 -115 -61 0 c-225 0 -610
80 -879 183 -98 37 -330 149 -330 159 0 15 102 188 111 188 5 0 51 -21 102
-46z m2386 -43 c28 -48 51 -93 51 -98 0 -20 -286 -148 -464 -207 -222 -74
-562 -136 -745 -136 l-61 0 0 115 0 115 78 1 c42 1 93 3 112 4 95 10 305 48
390 71 52 14 109 29 125 33 56 14 269 102 355 146 47 25 90 44 97 45 6 0 34
-40 62 -89z"/>
<path d="M6990 11290 l0 -120 40 0 40 0 0 120 0 120 -40 0 -40 0 0 -120z"/>
<path d="M9300 12720 c6 -11 8 -25 5 -30 -4 -6 1 -13 10 -16 9 -4 14 -13 11
-21 -3 -8 -1 -11 4 -8 6 3 10 1 10 -4 0 -6 13 -30 30 -53 20 -27 28 -49 25
-65 -3 -21 -2 -23 11 -12 12 10 11 17 -10 53 -13 22 -40 71 -61 109 -20 37
-39 67 -41 67 -3 0 0 -9 6 -20z"/>
<path d="M9200 12600 c0 -5 10 -15 23 -21 22 -12 22 -12 3 10 -21 23 -26 26
-26 11z"/>
<path d="M9251 12557 c2 -1 13 -9 24 -17 19 -14 19 -14 6 3 -7 9 -18 17 -24
17 -6 0 -8 -1 -6 -3z"/>
<path d="M9300 12526 c0 -2 8 -10 18 -17 15 -13 16 -12 3 4 -13 16 -21 21 -21
13z"/>
<path d="M9424 12486 c0 -13 4 -22 9 -19 4 2 7 -1 7 -6 0 -6 5 -11 10 -11 6 0
4 13 -5 30 -19 36 -23 38 -21 6z"/>
<path d="M9445 12430 c-3 -5 0 -7 8 -4 14 5 41 -41 33 -55 -3 -4 11 -23 31
-42 27 -26 33 -28 24 -11 -6 12 -16 22 -22 22 -6 0 -7 5 -3 12 4 6 3 8 -4 4
-6 -3 -13 -2 -17 4 -3 5 -2 10 4 10 6 0 1 16 -10 35 -21 36 -33 43 -44 25z"/>
<path d="M4109 11927 c-43 -23 -88 -50 -100 -60 l-24 -19 25 15 c14 8 61 33
105 57 87 46 93 50 79 50 -5 0 -43 -19 -85 -43z"/>
<path d="M3873 11762 c-37 -37 -79 -82 -92 -101 -22 -31 -22 -32 -4 -23 11 6
23 9 27 7 3 -3 2 0 -4 7 -7 8 -3 19 12 35 21 23 45 32 33 13 -4 -6 1 -7 11 -3
11 4 13 8 6 11 -18 6 -14 32 6 39 9 4 23 15 30 25 12 16 16 17 30 6 15 -12 16
-11 3 4 -12 16 -10 19 10 26 13 5 18 12 12 15 -6 4 -42 -24 -80 -61z"/>
<path d="M4050 11789 c0 -5 5 -7 10 -4 6 3 10 8 10 11 0 2 -4 4 -10 4 -5 0
-10 -5 -10 -11z"/>
<path d="M4015 11739 c-4 -6 -5 -12 -2 -15 2 -3 7 2 10 11 7 17 1 20 -8 4z"/>
<path d="M3980 11690 c-9 -6 -10 -10 -3 -10 6 0 15 5 18 10 8 12 4 12 -15 0z"/>
<path d="M3940 11625 c0 -8 2 -15 4 -15 2 0 6 7 10 15 3 8 1 15 -4 15 -6 0
-10 -7 -10 -15z"/>
<path d="M3734 11588 c-14 -27 -14 -31 -2 -21 8 7 17 11 19 9 2 -2 4 7 4 20 0
13 -1 24 -2 24 -1 0 -10 -15 -19 -32z"/>
<path d="M3671 11471 c-23 -45 -38 -81 -34 -80 9 0 84 152 78 157 -2 2 -22
-32 -44 -77z"/>
<path d="M17645 11443 c-44 -2 -83 -7 -87 -11 -5 -6 -12 -82 -33 -362 -3 -36
-9 -144 -15 -240 -5 -96 -14 -251 -20 -345 -51 -886 -108 -2414 -152 -4075
-17 -663 -17 -2577 0 -2890 14 -245 35 -457 53 -522 l10 -38 1299 0 1300 0 0
4129 c0 3924 -1 4130 -17 4135 -61 18 -913 132 -1243 166 -427 44 -864 65
-1095 53z"/>
<path d="M3567 11263 c-32 -63 -56 -117 -55 -119 2 -2 30 49 62 112 32 64 56
117 54 119 -2 2 -30 -48 -61 -112z"/>
<path d="M3486 11094 c-9 -20 -15 -38 -13 -41 2 -2 10 10 17 27 7 16 16 27 21
24 5 -3 6 2 3 10 -8 21 -8 21 -28 -20z"/>
<path d="M3641 11047 c-13 -21 -12 -21 5 -5 10 10 16 20 13 22 -3 3 -11 -5
-18 -17z"/>
<path d="M3421 10939 c-23 -56 -40 -103 -38 -105 2 -2 22 42 45 98 23 56 40
103 39 105 -2 2 -23 -42 -46 -98z"/>
<path d="M2651 10916 c2 -1 31 -20 64 -40 l60 -37 -40 36 -40 36 33 -4 c17 -2
32 0 32 5 0 4 -25 8 -57 8 -31 0 -54 -2 -52 -4z"/>
<path d="M2781 10906 c2 -2 40 -6 84 -9 60 -4 69 -3 35 3 -46 9 -127 13 -119
6z"/>
<path d="M2970 10880 c14 -4 36 -8 50 -8 l25 0 -25 8 c-14 4 -36 8 -50 8 l-25
0 25 -8z"/>
<path d="M3070 10860 c34 -11 60 -11 35 0 -11 5 -29 8 -40 8 -16 0 -15 -2 5
-8z"/>
<path d="M2783 10834 c1 -1 49 -39 107 -85 57 -45 124 -100 147 -122 24 -22
43 -35 43 -29 0 6 -13 21 -30 33 -16 12 -26 27 -23 32 3 6 1 7 -5 4 -14 -9
-134 92 -125 105 3 6 2 8 -4 5 -11 -7 -79 40 -76 52 1 3 -7 7 -17 7 -11 0 -18
-1 -17 -2z"/>
<path d="M3210 10811 c30 -15 55 -32 55 -38 0 -6 4 -15 9 -20 5 -5 6 -3 2 5
-4 6 -3 12 2 12 14 0 35 -28 29 -37 -9 -14 31 -13 41 0 12 16 33 79 28 84 -2
3 -9 -13 -16 -34 -18 -55 -26 -59 -54 -26 -22 26 -122 84 -143 83 -4 -1 17
-13 47 -29z"/>
<path d="M3105 10630 c-4 -6 -11 -7 -17 -4 -7 4 -8 2 -4 -5 6 -9 11 -9 22 0
14 11 18 19 10 19 -3 0 -8 -5 -11 -10z"/>
<path d="M3097 10593 c-3 -5 52 -66 121 -138 71 -74 104 -104 77 -70 -26 33
-52 62 -57 63 -4 2 -5 9 -2 14 4 6 2 8 -3 5 -10 -6 -48 27 -48 42 0 3 -4 5 -9
3 -5 -2 -6 4 -2 13 3 10 2 14 -5 9 -13 -7 -71 45 -63 58 3 4 3 8 0 8 -3 0 -7
-3 -9 -7z"/>
<path d="M3395 10301 c-3 -5 -2 -12 3 -15 5 -3 9 1 9 9 0 17 -3 19 -12 6z"/>
<path d="M2487 8852 c-3 -9 -32 -87 -65 -172 -33 -85 -63 -166 -67 -180 -11
-40 9 -10 24 35 8 22 18 51 24 65 6 14 11 27 12 30 10 43 39 110 46 110 6 0 8
4 5 9 -4 5 3 30 14 55 14 33 23 44 35 40 8 -3 12 -11 8 -18 -3 -6 -3 -8 2 -4
4 4 16 3 26 -3 33 -17 21 -3 -20 24 -35 23 -40 24 -44 9z"/>
<path d="M2600 8790 c14 -11 33 -22 43 -26 9 -3 14 -10 11 -16 -4 -7 -2 -8 4
-4 12 7 72 -19 83 -36 4 -6 9 -6 12 -2 3 5 -36 30 -86 57 -51 26 -81 38 -67
27z"/>
<path d="M2576 8763 c-6 -14 -5 -15 5 -6 7 7 10 15 7 18 -3 3 -9 -2 -12 -12z"/>
<path d="M3355 8724 c-29 -17 -35 -24 -20 -24 17 0 18 -2 5 -11 -13 -9 -13
-10 0 -6 8 2 15 8 15 14 0 6 11 20 25 32 32 26 25 25 -25 -5z"/>
<path d="M2790 8695 c14 -8 32 -14 40 -14 8 0 0 6 -19 14 -42 19 -54 19 -21 0z"/>
<path d="M3281 8691 c-7 -5 -9 -11 -5 -14 5 -3 15 1 22 9 14 16 5 18 -17 5z"/>
<path d="M3241 8677 c2 -1 13 -9 24 -17 19 -14 19 -14 6 3 -7 9 -18 17 -24 17
-6 0 -8 -1 -6 -3z"/>
<path d="M2900 8663 c8 -3 17 -8 20 -12 3 -3 21 -4 40 0 29 5 30 7 9 8 -15 0
-39 3 -55 5 -16 2 -22 1 -14 -1z"/>
<path d="M3155 8660 l-40 -7 35 -1 c19 0 46 4 60 8 32 10 2 10 -55 0z"/>
<path d="M3033 8643 c15 -2 39 -2 55 0 15 2 2 4 -28 4 -30 0 -43 -2 -27 -4z"/>
<path d="M2310 8368 c-35 -111 -73 -259 -84 -323 l-7 -40 26 51 c26 53 78 114
130 153 17 12 20 18 9 12 -12 -6 -25 -7 -29 -3 -5 4 -5 2 -2 -4 4 -7 -4 -19
-18 -28 -14 -9 -39 -35 -55 -58 -40 -55 -39 -33 6 122 20 69 39 135 41 148 3
12 8 22 12 22 3 0 7 11 7 25 1 14 0 25 -1 25 -2 0 -18 -46 -35 -102z"/>
<path d="M2403 8295 c0 -8 4 -12 9 -9 5 3 6 10 3 15 -9 13 -12 11 -12 -6z"/>
<path d="M2720 8290 c69 -4 141 -11 160 -15 19 -4 32 -4 27 0 -11 12 -35 15
-182 19 l-130 4 125 -8z"/>
<path d="M2496 8274 c-44 -16 -65 -31 -26 -18 14 4 45 13 70 20 29 8 36 13 20
13 -14 0 -43 -7 -64 -15z"/>
<path d="M2940 8260 c34 -11 60 -11 35 0 -11 5 -29 8 -40 8 -16 0 -15 -2 5 -8z"/>
<path d="M3000 8251 c0 -5 11 -12 24 -15 13 -3 32 -8 43 -12 10 -3 0 4 -21 15
-45 24 -46 24 -46 12z"/>
<path d="M3125 8200 c53 -24 70 -24 25 0 -19 11 -42 19 -50 19 -8 0 3 -9 25
-19z"/>
<path d="M3271 8136 c46 -23 99 -50 116 -59 27 -14 32 -15 27 -2 -3 8 -9 14
-12 13 -19 -2 -25 3 -14 11 11 7 10 9 -3 14 -9 4 -13 3 -10 -3 9 -14 -21 -12
-37 3 -7 6 -30 20 -50 29 -21 10 -38 22 -38 26 0 5 -14 9 -32 10 -27 1 -19 -6
53 -42z"/>
<path d="M3440 8049 c26 -17 70 -40 70 -35 0 5 -69 46 -78 46 -4 0 0 -5 8 -11z"/>
<path d="M3520 8010 c0 -5 10 -15 23 -21 22 -12 22 -12 3 10 -21 23 -26 26
-26 11z"/>
<path d="M3780 8004 c0 -6 7 -19 16 -30 14 -18 14 -18 3 6 -14 31 -19 36 -19
24z"/>
<path d="M3570 7975 c0 -2 10 -10 23 -16 20 -11 21 -11 8 4 -13 16 -31 23 -31
12z"/>
<path d="M3635 7934 c11 -9 29 -20 40 -26 19 -11 20 -10 2 10 -10 11 -28 22
-40 26 -22 5 -22 5 -2 -10z"/>
<path d="M3705 7890 c3 -5 8 -10 11 -10 2 0 4 5 4 10 0 6 -5 10 -11 10 -5 0
-7 -4 -4 -10z"/>
<path d="M4905 6683 c22 -88 37 -180 45 -278 l9 -110 -4 115 c-3 104 -37 300
-52 300 -3 0 -2 -12 2 -27z"/>
<path d="M4947 6269 c-3 -13 -12 -64 -21 -114 -29 -158 -122 -307 -232 -371
-24 -14 -44 -30 -44 -35 0 -5 17 1 38 14 20 13 40 25 45 26 4 0 7 4 7 9 1 11
63 72 73 72 5 0 7 -6 4 -13 -3 -8 1 -14 8 -14 10 0 11 5 4 19 -11 21 2 52 26
62 9 3 14 10 11 15 -3 5 4 20 15 35 11 14 17 26 14 26 -4 0 -3 6 3 13 5 6 15
38 22 70 7 31 17 57 22 57 5 0 7 4 4 9 -3 5 -2 38 3 73 8 60 7 96 -2 47z"/>
<path d="M6283 6075 c-83 -13 -122 -23 -93 -24 8 0 69 8 135 19 66 10 102 18
80 18 -22 0 -77 -6 -122 -13z"/>
<path d="M6073 6037 c-5 -8 87 1 97 10 2 2 -17 3 -44 1 -26 -2 -50 -7 -53 -11z"/>
<path d="M5961 6014 c-36 -8 -67 -17 -70 -20 -7 -7 47 3 123 21 70 17 26 16
-53 -1z"/>
<path d="M5798 5973 c-31 -17 -13 -16 42 2 41 13 42 14 13 12 -18 -1 -43 -7
-55 -14z"/>
<path d="M5710 5948 c0 -5 -8 -8 -17 -9 -10 0 -13 -3 -7 -5 5 -2 28 2 50 10
l39 14 -32 -1 c-18 -1 -33 -5 -33 -9z"/>
<path d="M5611 5915 c-18 -8 -38 -12 -45 -8 -8 4 -8 3 -1 -5 8 -9 24 -7 60 8
28 10 43 19 35 19 -8 0 -30 -6 -49 -14z"/>
<path d="M5520 5878 c0 -11 12 -10 30 2 12 7 10 9 -8 7 -12 0 -22 -5 -22 -9z"/>
<path d="M3721 5868 c2 -44 27 -168 29 -148 1 14 1 30 0 35 -2 6 -6 33 -10 62
-5 42 -3 50 7 41 8 -7 13 -7 13 0 0 5 -7 13 -16 16 -22 8 -24 8 -23 -6z"/>
<path d="M5485 5864 c-11 -8 -25 -12 -33 -9 -7 2 -11 1 -8 -4 3 -4 -18 -19
-46 -32 -29 -13 -76 -41 -106 -62 -42 -29 -57 -35 -68 -27 -10 9 -12 8 -9 -8
3 -18 -30 -62 -41 -54 -2 1 -4 0 -4 -3 0 -3 0 -8 0 -11 0 -4 17 9 38 28 56 51
117 90 212 138 92 46 95 48 89 54 -2 2 -13 -2 -24 -10z"/>
<path d="M3812 5837 c25 -14 59 -28 74 -31 15 -4 34 -15 42 -24 7 -9 11 -11 7
-4 -8 16 -14 17 105 -23 57 -19 111 -35 119 -35 9 0 -68 29 -169 64 -102 34
-194 66 -205 70 -11 4 1 -4 27 -17z"/>
<path d="M5336 5818 c3 -5 10 -6 15 -3 13 9 11 12 -6 12 -8 0 -12 -4 -9 -9z"/>
<path d="M4565 5721 c-31 -12 -75 -16 -193 -16 -83 0 -152 -3 -152 -6 0 -3 60
-7 134 -8 130 -2 212 10 256 39 22 14 1 10 -45 -9z"/>
<path d="M4188 5713 c7 -3 16 -2 19 1 4 3 -2 6 -13 5 -11 0 -14 -3 -6 -6z"/>
<path d="M3756 5645 c8 -83 51 -231 91 -313 62 -128 197 -248 535 -475 232
-156 678 -414 678 -393 0 3 -18 15 -40 26 -22 11 -40 25 -40 31 0 6 -4 8 -9 4
-11 -6 -61 15 -61 27 0 4 -6 8 -14 8 -8 0 -21 7 -30 15 -8 9 -19 16 -23 17
-21 2 -32 11 -26 21 3 6 1 7 -6 3 -19 -12 -365 200 -354 217 3 6 1 7 -5 3 -14
-9 -99 46 -96 62 1 7 0 8 -2 3 -4 -7 -15 -4 -30 5 -13 9 -21 21 -17 27 3 6 1
7 -6 3 -19 -12 -336 229 -324 247 3 5 1 7 -4 4 -15 -10 -75 67 -116 150 -25
50 -33 74 -25 79 8 5 7 10 -4 18 -19 14 -42 82 -34 102 3 9 1 12 -4 9 -6 -3
-10 3 -10 14 0 10 5 22 10 24 6 3 5 4 -2 3 -8 -2 -17 18 -25 53 l-12 56 5 -50z"/>
<path d="M5125 5610 c-16 -21 -34 -35 -39 -32 -5 3 -6 0 -2 -6 4 -7 8 -12 10
-12 6 0 68 81 65 84 -2 2 -17 -13 -34 -34z"/>
<path d="M5065 5524 c-29 -45 -65 -152 -70 -211 l-5 -58 14 70 c15 74 45 159
72 200 9 14 14 25 11 25 -2 0 -12 -12 -22 -26z"/>
<path d="M4978 5196 c-2 -19 -1 -43 3 -53 3 -10 7 5 7 35 2 59 -4 69 -10 18z"/>
<path d="M4993 5075 c0 -22 2 -30 4 -17 2 12 2 30 0 40 -3 9 -5 -1 -4 -23z"/>
<path d="M5002 5005 c0 -16 2 -22 5 -12 2 9 2 23 0 30 -3 6 -5 -1 -5 -18z"/>
<path d="M5013 4938 c1 -21 5 -38 10 -38 9 0 8 17 -3 50 -7 21 -8 20 -7 -12z"/>
<path d="M5030 4884 c0 -6 7 -31 16 -55 9 -24 17 -48 18 -54 3 -12 35 -72 35
-65 1 3 -15 46 -34 95 -19 50 -34 85 -35 79z"/>
<path d="M4580 4781 c0 -6 4 -13 10 -16 6 -3 7 1 4 9 -7 18 -14 21 -14 7z"/>
<path d="M5097 4693 c-4 -3 0 -13 8 -22 9 -9 23 -25 31 -36 8 -11 6 -1 -6 23
-22 44 -23 46 -33 35z"/>
<path d="M5165 4584 c9 -14 14 -33 10 -42 -3 -9 -3 -13 1 -9 4 4 16 0 26 -9
13 -12 15 -21 8 -29 -8 -10 -6 -13 7 -11 11 0 17 -5 17 -16 -1 -10 2 -16 6
-13 4 3 28 -14 52 -38 47 -47 148 -122 148 -109 0 4 -19 19 -43 34 -57 36
-166 150 -206 216 -18 28 -35 52 -38 52 -3 0 2 -12 12 -26z"/>
<path d="M5070 4456 c0 -3 25 -16 56 -30 31 -14 54 -29 52 -33 -85 -167 -102
-234 -95 -393 4 -112 23 -238 33 -228 2 3 -3 42 -11 89 -8 46 -15 124 -15 173
0 86 22 210 41 231 5 5 9 17 9 26 0 10 7 25 16 33 8 9 12 16 9 16 -4 0 4 17
16 37 13 20 17 33 9 28 -9 -6 -12 -4 -8 6 4 9 -2 14 -16 15 -11 0 -38 8 -58
18 -21 9 -38 14 -38 12z"/>
<path d="M5475 4295 c17 -8 44 -14 60 -13 29 0 29 0 -5 7 -19 4 -46 11 -60 14
-20 6 -19 4 5 -8z"/>
<path d="M5920 4286 c0 -8 60 -12 72 -4 8 4 -4 8 -29 8 -24 0 -43 -2 -43 -4z"/>
<path d="M5572 4275 c7 -7 329 -7 336 0 3 3 -73 5 -168 5 -95 0 -171 -2 -168
-5z"/>
<path d="M5940 4260 c-9 -6 -10 -10 -3 -10 6 0 15 5 18 10 8 12 4 12 -15 0z"/>
<path d="M5866 4173 c-6 -14 -5 -15 5 -6 7 7 10 15 7 18 -3 3 -9 -2 -12 -12z"/>
<path d="M5813 4065 c-3 -9 -3 -18 -1 -21 3 -3 8 4 11 16 6 23 -1 27 -10 5z"/>
<path d="M5788 3968 c-8 -34 -12 -75 -9 -92 4 -25 7 -19 12 29 3 33 9 75 13
93 4 17 5 32 2 32 -2 0 -11 -28 -18 -62z"/>
<path d="M5766 4008 c3 -5 10 -6 15 -3 13 9 11 12 -6 12 -8 0 -12 -4 -9 -9z"/>
<path d="M5773 3800 c0 -25 2 -35 4 -22 2 12 2 32 0 45 -2 12 -4 2 -4 -23z"/>
<path d="M5126 3740 c21 -81 93 -181 182 -252 94 -75 192 -144 192 -135 0 2
-18 17 -40 32 -22 15 -37 31 -35 36 3 4 0 11 -6 15 -8 4 -9 3 -5 -4 11 -18 -2
-14 -34 10 -16 11 -27 25 -24 30 3 5 1 7 -4 6 -14 -4 -102 64 -102 79 0 7 -5
13 -11 13 -5 0 -7 5 -3 12 4 7 3 8 -4 4 -14 -9 -65 70 -56 87 4 7 3 8 -2 4 -5
-5 -19 12 -32 40 -12 26 -19 37 -16 23z"/>
<path d="M5780 3692 l5 -57 3 49 c2 27 0 52 -5 57 -4 4 -6 -18 -3 -49z"/>
<path d="M5787 3611 c-2 -10 -1 -25 4 -32 6 -10 9 -4 9 19 0 36 -5 42 -13 13z"/>
<path d="M5801 3546 c-1 -21 38 -160 44 -154 2 1 -7 41 -20 88 -13 47 -24 76
-24 66z"/>
<path d="M5850 3374 c0 -12 38 -74 46 -74 3 0 -5 17 -17 38 -28 46 -29 47 -29
36z"/>
<path d="M5530 3331 c28 -23 296 -161 314 -161 15 0 -65 46 -109 61 -19 7 -35
20 -35 29 0 11 -2 12 -8 2 -7 -10 -17 -7 -45 12 -20 14 -37 22 -37 19 0 -4
-11 4 -25 17 -14 13 -25 20 -25 17 0 -4 -12 0 -27 9 l-28 16 25 -21z"/>
<path d="M5900 3283 c0 -5 20 -28 44 -50 25 -23 42 -44 38 -48 -4 -4 -2 -5 3
-3 16 5 58 -29 51 -41 -5 -7 -1 -8 9 -5 8 4 23 0 32 -7 9 -8 28 -20 42 -26 25
-12 25 -13 -9 -7 -64 10 -139 37 -133 47 4 6 1 7 -6 2 -7 -4 -33 1 -57 10 -25
9 -47 15 -50 12 -12 -12 318 -108 369 -107 7 0 -13 11 -45 24 -91 37 -148 75
-220 144 -38 36 -68 61 -68 55z"/>
</g>
</svg>
