<?xml version="1.0" standalone="no"?>
<!DOCTYPE svg PUBLIC "-//W3C//DTD SVG 20010904//EN"
 "http://www.w3.org/TR/2001/REC-SVG-20010904/DTD/svg10.dtd">
<svg version="1.0" xmlns="http://www.w3.org/2000/svg"
 width="4500.000000pt" height="4500.000000pt" viewBox="0 0 4500.000000 4500.000000"
 preserveAspectRatio="xMidYMid meet">

<g transform="translate(0.000000,4500.000000) scale(0.100000,-0.100000)"
fill="#000000" stroke="none">
<path d="M18870 36745 l0 -595 965 0 965 0 0 595 0 595 -965 0 -965 0 0 -595z"/>
<path d="M13100 36083 c-319 -30 -619 -114 -830 -230 -421 -233 -712 -631
-845 -1158 -64 -251 -94 -552 -75 -747 52 -540 399 -1060 1001 -1500 188 -137
181 -134 351 -141 l146 -6 6 82 c3 45 11 186 17 312 l11 230 -61 118 c-103
202 -123 314 -81 448 51 160 172 236 365 227 83 -3 101 -8 171 -42 90 -45 208
-154 268 -248 20 -32 40 -58 44 -58 13 0 125 21 146 27 15 4 17 12 12 43 -7
45 8 222 30 340 94 520 324 974 579 1140 l62 40 66 -30 c162 -73 354 -107 551
-97 67 4 141 11 166 17 25 6 56 13 69 16 22 5 23 8 17 53 -30 228 -235 519
-512 727 -328 246 -707 392 -1128 433 -99 10 -460 13 -546 4z"/>
<path d="M18680 35365 l0 -435 1155 0 1155 0 0 435 0 435 -1155 0 -1155 0 0
-435z"/>
<path d="M25857 35280 c-381 -97 -617 -481 -531 -863 91 -403 503 -647 904
-536 245 68 446 276 506 524 23 93 23 259 1 345 -9 36 -37 107 -62 157 -82
166 -240 301 -422 360 -110 36 -285 41 -396 13z"/>
<path d="M23360 32005 l0 -375 2791 0 c2111 0 2801 -3 2831 -12 51 -15 126
-82 149 -133 18 -38 19 -96 19 -1192 l0 -1153 -65 0 -65 0 0 -239 0 -239 -72
-37 c-283 -145 -497 -384 -612 -681 -56 -145 -79 -274 -79 -449 -1 -82 5 -179
11 -215 78 -406 308 -724 659 -915 l93 -50 0 -222 0 -223 65 0 65 0 0 -660 0
-660 -1767 0 c-1119 0 -1781 -4 -1803 -10 -61 -17 -143 -73 -182 -125 -76
-100 -73 -65 -73 -860 l0 -710 4253 -3 4252 -2 0 693 c0 770 0 765 -66 865
-38 57 -98 105 -172 137 -46 20 -71 20 -1869 23 l-1823 2 0 655 0 655 65 0 65
0 0 223 0 223 68 33 c114 56 230 140 326 235 109 108 173 196 242 331 l51 100
1074 0 1074 0 3 -132 3 -133 179 0 180 0 -2 638 -3 637 -177 3 -178 2 0 -135
0 -135 -1047 2 -1047 3 -21 75 c-95 338 -353 647 -663 794 l-62 30 0 238 0
238 -65 0 -65 0 0 223 0 223 64 42 c84 55 148 127 191 216 32 65 44 109 61
219 6 45 -32 25 449 235 176 77 419 184 540 237 121 53 321 141 445 195 124
54 293 128 375 164 83 37 203 90 268 118 l118 52 52 -27 c191 -96 424 -40 536
129 17 26 30 48 28 50 -1 1 -93 -4 -205 -11 -112 -8 -209 -12 -217 -9 -55 21
-91 183 -64 289 20 80 26 82 264 96 116 7 212 13 214 15 8 7 -44 77 -86 114
-160 141 -399 138 -554 -6 -63 -59 -97 -117 -121 -203 -22 -79 -23 -151 -3
-217 8 -27 11 -51 7 -55 -4 -4 -371 -167 -817 -364 -445 -197 -911 -402 -1033
-456 -123 -55 -227 -99 -231 -99 -4 0 -15 17 -25 38 -34 70 -90 132 -172 188
l-83 57 -3 481 c-4 464 -5 484 -27 561 -47 168 -129 311 -250 438 -156 163
-354 264 -586 297 -45 6 -1060 10 -2872 10 l-2803 0 0 -375z m6287 -3375 c18
0 45 -7 60 -17 15 -10 24 -12 20 -5 -6 8 -1 12 13 12 12 0 19 -3 17 -7 -3 -5
14 -9 36 -10 27 -2 48 -10 58 -22 10 -12 21 -16 30 -11 8 4 36 -1 66 -12 39
-15 55 -27 65 -52 7 -17 12 -34 11 -38 -1 -3 4 -9 12 -12 8 -3 14 0 12 7 -1 7
5 12 13 12 8 0 20 4 26 7 8 6 58 -20 93 -48 1 -1 4 -14 5 -28 0 -13 3 -22 5
-20 2 2 11 -2 19 -9 10 -8 9 -2 -4 18 l-19 29 34 -24 c19 -14 53 -43 75 -65
23 -21 42 -38 44 -37 1 1 3 -1 4 -5 1 -5 12 -16 25 -26 23 -19 33 -44 11 -31
-7 4 -8 3 -4 -5 4 -6 11 -9 16 -6 13 8 51 -37 45 -53 -3 -8 0 -10 7 -6 8 5 9
0 5 -15 -4 -17 -3 -20 8 -11 10 8 18 3 33 -22 21 -32 20 -54 0 -42 -7 4 -8 2
-4 -5 4 -6 13 -9 19 -5 7 3 5 0 -3 -8 -18 -16 -25 -43 -9 -32 9 5 10 2 6 -10
-4 -10 -3 -15 4 -11 5 4 7 15 4 25 -4 11 1 20 12 24 10 4 14 4 11 0 -4 -3 0
-13 8 -21 8 -8 12 -19 9 -24 -4 -5 -1 -9 5 -9 6 0 8 -4 5 -10 -3 -5 0 -10 7
-10 9 0 9 -3 -2 -10 -13 -8 -13 -10 1 -10 9 0 20 -7 23 -16 4 -10 2 -13 -7 -9
-6 4 -5 1 3 -7 23 -19 51 -111 37 -120 -6 -4 -17 -2 -24 4 -9 7 -13 7 -13 -1
0 -6 5 -11 10 -11 6 0 10 -9 10 -19 0 -13 8 -21 23 -23 14 -2 22 -10 22 -23 1
-11 4 -25 8 -32 4 -6 10 -51 13 -100 2 -48 7 -98 10 -110 2 -13 1 -23 -3 -23
-5 0 -8 -24 -7 -52 2 -69 -6 -119 -17 -112 -6 3 -7 -12 -3 -37 5 -30 4 -40 -4
-35 -8 5 -10 2 -6 -9 9 -22 -16 -80 -27 -63 -6 9 -9 9 -9 1 0 -6 5 -15 10 -18
6 -3 10 -11 10 -17 0 -7 -4 -7 -12 -1 -25 19 -47 23 -41 8 3 -8 10 -12 15 -9
13 8 29 -17 20 -31 -4 -5 -7 -14 -7 -20 0 -5 -9 -9 -20 -7 -11 2 -16 -1 -10
-5 14 -11 15 -43 2 -43 -6 0 -7 -3 -4 -7 4 -3 0 -15 -10 -25 -9 -10 -12 -18
-8 -18 5 0 0 -7 -11 -16 -10 -8 -13 -13 -7 -9 8 4 11 1 7 -9 -3 -8 -13 -13
-23 -11 -10 2 -18 -3 -18 -10 0 -8 4 -12 9 -9 4 3 5 -2 2 -10 -3 -9 -10 -13
-15 -10 -5 3 -6 -2 -3 -10 3 -9 -5 -26 -19 -40 -14 -14 -22 -28 -18 -32 3 -4
-4 -4 -16 -1 -13 3 -26 1 -29 -4 -3 -5 -2 -8 3 -7 4 2 8 -1 8 -7 0 -5 -4 -9
-9 -7 -5 2 -6 -4 -3 -12 4 -11 1 -13 -11 -9 -9 3 -14 3 -10 -2 8 -9 -21 -70
-29 -61 -3 2 -17 -9 -30 -25 -14 -17 -32 -28 -39 -25 -8 3 -11 0 -8 -8 3 -7
-3 -20 -13 -28 -23 -21 -73 -31 -74 -15 0 9 -2 8 -6 -1 -2 -6 -10 -9 -16 -5
-8 5 -8 2 0 -9 7 -8 9 -19 5 -24 -4 -5 3 0 16 10 12 11 22 15 22 9 0 -5 -12
-16 -27 -23 -16 -8 -40 -22 -55 -32 -14 -10 -34 -15 -45 -12 -13 4 -14 3 -5
-4 11 -7 10 -11 -5 -16 -10 -4 -20 -7 -22 -6 -2 1 -7 -3 -10 -8 -11 -17 -71
-43 -83 -36 -6 4 -16 0 -23 -9 -7 -9 -21 -18 -31 -20 -10 -2 -26 -7 -34 -10
-35 -13 -46 -14 -64 -5 -13 7 -16 7 -12 -1 11 -16 -39 -32 -117 -36 -38 -2
-72 -6 -75 -9 -18 -19 -22 15 -24 207 l-3 212 -2 -213 c-3 -189 -5 -213 -19
-208 -9 3 -18 6 -20 6 -2 0 -4 92 -4 205 0 186 -2 205 -17 205 -33 0 -103 42
-123 74 -13 22 -20 50 -20 85 0 85 41 140 118 160 46 13 45 11 42 108 -3 102
-45 93 416 93 263 0 404 -3 404 -10 0 -5 -4 -10 -10 -10 -5 0 -10 -5 -10 -10
0 -6 8 -5 19 2 11 7 18 15 15 19 -2 4 3 9 11 12 10 4 12 1 8 -11 -5 -14 -3
-15 7 -5 10 10 11 15 1 27 -9 10 -11 97 -9 338 l3 323 -402 -3 -403 -2 -2 327
c0 181 -1 334 -1 341 1 7 -4 11 -11 9 -8 -3 -12 -96 -14 -333 -2 -199 -7 -333
-13 -339 -6 -6 -9 107 -9 332 1 187 4 344 8 348 4 3 23 4 42 1 19 -4 50 -6 67
-6z m-77 -355 c0 -179 -3 -325 -7 -325 -5 0 -7 146 -5 325 1 179 5 325 7 325
3 0 5 -146 5 -325z m470 233 c0 -5 4 -7 9 -4 5 3 13 0 19 -7 8 -9 4 -12 -13
-13 -15 -1 -26 6 -33 22 -9 19 -8 22 3 17 8 -3 15 -9 15 -15z"/>
<path d="M29600 28610 c0 -5 5 -10 11 -10 5 0 7 5 4 10 -3 6 -8 10 -11 10 -2
0 -4 -4 -4 -10z"/>
<path d="M29640 28610 c-9 -6 -10 -10 -3 -10 6 0 15 5 18 10 8 12 4 12 -15 0z"/>
<path d="M29876 28541 c-4 -5 9 -8 29 -7 19 2 35 -1 35 -6 0 -5 5 -6 11 -3 6
4 8 9 6 12 -10 9 -76 13 -81 4z"/>
<path d="M30070 28450 c-9 -6 -10 -10 -3 -10 6 0 15 5 18 10 8 12 4 12 -15 0z"/>
<path d="M30100 28450 c0 -5 5 -10 11 -10 5 0 7 5 4 10 -3 6 -8 10 -11 10 -2
0 -4 -4 -4 -10z"/>
<path d="M30230 28371 c0 -6 4 -13 10 -16 6 -3 7 1 4 9 -7 18 -14 21 -14 7z"/>
<path d="M30260 28339 c0 -5 -4 -8 -8 -5 -4 2 -8 -3 -9 -13 -1 -10 4 -18 10
-18 7 0 13 11 13 24 1 13 0 23 -2 23 -2 0 -4 -5 -4 -11z"/>
<path d="M30294 28300 c0 -10 2 -17 5 -15 2 3 10 0 18 -6 19 -17 16 -1 -5 21
-17 19 -18 19 -18 0z"/>
<path d="M30347 28259 c7 -7 15 -10 18 -7 3 3 -2 9 -12 12 -14 6 -15 5 -6 -5z"/>
<path d="M30378 28203 c6 -2 18 -2 25 0 6 3 1 5 -13 5 -14 0 -19 -2 -12 -5z"/>
<path d="M30404 28139 c-4 -7 -3 -9 4 -5 5 3 13 0 15 -6 4 -9 6 -10 6 -1 1 17
-16 25 -25 12z"/>
<path d="M30517 27993 c-4 -3 -7 -11 -7 -17 0 -6 5 -5 12 2 6 6 9 14 7 17 -3
3 -9 2 -12 -2z"/>
<path d="M30582 27850 c7 -10 14 -18 15 -16 6 6 -9 36 -18 36 -5 0 -4 -9 3
-20z"/>
<path d="M30560 27740 c0 -13 7 -20 20 -20 13 0 20 7 20 20 0 13 -7 20 -20 20
-13 0 -20 -7 -20 -20z"/>
<path d="M30651 27554 c0 -11 3 -14 6 -6 3 7 2 16 -1 19 -3 4 -6 -2 -5 -13z"/>
<path d="M30641 27494 c0 -11 3 -14 6 -6 3 7 2 16 -1 19 -3 4 -6 -2 -5 -13z"/>
<path d="M29574 27236 c-3 -8 -4 -29 -2 -48 3 -29 4 -27 8 15 5 48 3 58 -6 33z"/>
<path d="M30378 27243 c7 -3 16 -2 19 1 4 3 -2 6 -13 5 -11 0 -14 -3 -6 -6z"/>
<path d="M29553 27200 c0 -25 2 -35 4 -22 2 12 2 32 0 45 -2 12 -4 2 -4 -23z"/>
<path d="M29546 27105 c-3 -10 0 -12 11 -8 12 5 14 3 8 -7 -5 -9 -4 -11 3 -6
16 10 15 23 -2 29 -8 3 -17 0 -20 -8z"/>
<path d="M29613 27074 c3 -3 11 -6 19 -8 7 -1 18 -5 25 -9 6 -4 14 -3 18 3 7
12 9 11 -33 15 -19 2 -32 1 -29 -1z"/>
<path d="M29677 27000 c6 -8 13 -24 15 -35 3 -17 5 -18 10 -3 4 10 -1 23 -15
35 -12 10 -17 11 -10 3z"/>
<path d="M29720 26953 c0 -7 5 -15 10 -18 6 -3 10 -11 10 -16 0 -6 -4 -8 -8
-5 -4 2 -8 -7 -9 -22 0 -15 1 -19 4 -9 2 9 8 15 12 13 13 -8 9 28 -5 49 -8 11
-14 14 -14 8z"/>
<path d="M29693 26925 c0 -8 4 -12 9 -9 5 3 6 10 3 15 -9 13 -12 11 -12 -6z"/>
<path d="M29695 26880 c3 -5 8 -10 11 -10 2 0 4 5 4 10 0 6 -5 10 -11 10 -5 0
-7 -4 -4 -10z"/>
<path d="M29643 26799 c3 -9 0 -22 -6 -28 -8 -8 -7 -11 5 -11 12 0 16 7 13 21
-3 12 -7 24 -11 28 -4 3 -5 -1 -1 -10z"/>
<path d="M29554 26560 c0 -113 2 -159 3 -102 2 56 2 148 0 205 -1 56 -3 10 -3
-103z"/>
<path d="M30355 26750 c-3 -5 -1 -10 4 -10 6 0 11 5 11 10 0 6 -2 10 -4 10 -3
0 -8 -4 -11 -10z"/>
<path d="M30264 26668 c-4 -7 -4 -10 1 -6 4 4 14 3 21 -3 13 -10 32 6 20 18
-3 4 -6 1 -6 -7 0 -10 -3 -10 -14 -1 -11 9 -16 9 -22 -1z"/>
<path d="M30243 26642 c2 -12 6 -24 10 -28 3 -4 4 4 2 16 -6 30 -16 40 -12 12z"/>
<path d="M30121 26583 c-1 -14 -9 -23 -23 -26 l-23 -4 23 -2 c24 -1 38 19 29
41 -3 7 -6 3 -6 -9z"/>
<path d="M29861 26437 c2 -1 13 -9 24 -17 19 -14 19 -14 6 3 -7 9 -18 17 -24
17 -6 0 -8 -1 -6 -3z"/>
<path d="M12650 31284 c-360 -46 -661 -205 -936 -497 -70 -75 -96 -112 -140
-199 -125 -248 -250 -588 -294 -793 -21 -103 -44 -459 -38 -598 l3 -68 336
648 c184 356 348 680 363 719 110 291 395 484 710 484 217 -1 387 -68 543
-214 160 -150 233 -314 258 -576 8 -79 -10 -597 -30 -885 -29 -401 -72 -763
-130 -1090 -161 -903 -423 -1388 -764 -1413 -267 -19 -474 127 -514 362 l-12
76 -118 -224 -117 -223 595 -1573 c327 -864 595 -1574 595 -1576 0 -2 -18 -11
-40 -20 -22 -9 -40 -17 -40 -19 0 -1 21 -33 46 -71 95 -143 172 -336 216 -537
30 -138 33 -477 5 -601 -124 -559 -519 -789 -935 -545 -76 45 -237 206 -299
299 -163 243 -248 516 -260 828 -5 145 -8 162 -23 157 -13 -4 -52 86 -223 522
l-206 528 -1 -493 0 -493 -60 -497 c-33 -273 -71 -596 -85 -717 -14 -121 -28
-230 -31 -243 l-5 -23 -479 3 c-468 3 -480 3 -498 -17 -11 -11 -88 -179 -172
-372 l-153 -353 -98 0 c-141 0 -139 2 -139 -190 0 -147 1 -152 25 -175 21 -22
33 -25 99 -25 l74 0 21 -87 c11 -49 144 -635 296 -1303 151 -668 280 -1225
286 -1236 15 -29 51 -44 105 -44 l46 0 -7 -32 c-4 -18 -11 -50 -16 -70 l-10
-38 -244 0 -245 0 0 -845 0 -845 35 0 c19 0 35 -5 35 -11 0 -11 -119 -502
-250 -1029 -38 -157 -72 -295 -75 -307 -5 -21 -8 -21 -277 -26 -310 -5 -335
-9 -488 -83 -82 -40 -108 -60 -191 -143 -78 -79 -103 -112 -137 -181 -111
-226 -111 -464 0 -690 34 -69 59 -103 138 -181 82 -83 108 -103 190 -142 52
-26 124 -54 160 -64 61 -17 278 -18 3920 -23 3587 -5 3859 -6 3910 -22 30 -10
93 -36 140 -60 69 -34 103 -61 181 -138 82 -82 102 -108 141 -190 63 -129 82
-220 76 -368 -9 -203 -70 -344 -213 -488 -91 -91 -182 -149 -300 -191 l-80
-28 -2340 -5 c-2638 -6 -2371 3 -2555 -87 -80 -39 -109 -60 -186 -137 -100
-100 -146 -173 -191 -301 -25 -74 -27 -92 -28 -230 0 -142 2 -154 31 -237 68
-191 207 -350 378 -433 179 -87 -2 -80 2048 -80 999 0 1816 -1 1815 -2 -1 -1
-34 -9 -72 -17 -39 -9 -113 -38 -165 -63 -80 -40 -109 -61 -185 -138 -102
-102 -144 -167 -188 -292 -30 -84 -32 -95 -32 -238 1 -138 3 -156 28 -230 42
-120 99 -209 196 -305 71 -71 103 -94 181 -133 179 -88 76 -82 1445 -82 l1210
0 79 23 c253 73 442 249 521 484 92 278 25 569 -180 773 -100 101 -203 160
-350 200 -43 12 163 14 1450 14 1277 0 1493 -2 1450 -14 -222 -60 -389 -195
-492 -399 -51 -101 -74 -202 -75 -326 -1 -130 19 -214 77 -335 93 -193 267
-336 482 -398 l78 -22 4370 -3 c3084 -2 4394 0 4453 8 98 13 217 53 299 101
92 54 221 189 270 284 70 135 88 209 88 360 0 150 -18 224 -88 360 -61 119
-191 246 -314 307 -50 26 -118 52 -150 60 -49 11 191 14 1637 18 1614 5 1698
6 1760 24 269 77 459 262 542 526 19 63 23 97 23 205 0 108 -4 142 -23 205
-43 136 -97 226 -197 325 -100 101 -191 155 -325 197 l-75 23 -1350 5 c-1508
6 -1380 0 -1540 79 -193 96 -336 272 -392 481 -27 101 -24 293 6 390 76 246
246 423 486 507 l80 28 2335 5 c2633 6 2376 -2 2560 87 82 39 108 59 190 142
79 78 104 112 138 181 111 226 111 464 0 690 -34 69 -59 102 -137 181 -83 83
-109 103 -191 143 -52 25 -122 54 -155 63 -57 17 -555 18 -9920 23 -8236 5
-9878 8 -9967 19 l-108 14 -3 1891 c-3 1723 -4 1898 -20 1966 -9 41 -85 332
-168 647 l-152 571 82 364 c45 199 84 371 87 381 5 14 17 17 79 17 57 0 78 4
96 19 23 18 24 26 27 168 3 139 2 150 -18 176 -21 26 -25 27 -119 27 l-98 0
-143 328 c-174 399 -172 395 -205 410 -16 7 -77 12 -160 12 -119 0 -134 2
-139 18 -3 9 -37 139 -76 287 -39 149 -119 448 -177 665 l-105 395 6 2955 7
2955 -81 385 c-44 212 -92 427 -106 478 -138 509 -431 923 -855 1207 -107 72
-306 171 -384 190 -62 16 -224 26 -285 19z m-1180 -10499 l0 -345 -465 0 -465
0 0 345 0 345 465 0 465 0 0 -345z m3060 0 l0 -345 -463 0 -464 0 -6 113 c-9
144 -9 335 0 470 l6 107 464 0 463 0 0 -345z m-934 -3767 c-3 -497 -9 -1217
-12 -1600 l-7 -698 -861 0 -861 -1 -97 23 c-54 13 -98 28 -98 33 0 6 90 382
202 838 l202 827 582 0 582 0 -50 77 c-87 131 -170 322 -273 626 l-98 287
-248 0 c-137 0 -249 2 -249 4 0 7 110 460 115 474 3 9 131 12 591 12 l587 0
-7 -902z m13329 -5340 c115 -39 198 -92 291 -183 144 -142 213 -294 222 -490
6 -149 -13 -239 -79 -375 -45 -90 -65 -117 -138 -191 -74 -73 -101 -93 -191
-137 -177 -88 -54 -82 -1750 -82 -1696 0 -1573 -6 -1750 82 -90 44 -117 63
-190 137 -103 103 -168 218 -201 357 -30 124 -23 284 15 399 83 246 278 429
527 495 72 19 118 19 1619 17 l1545 -2 80 -27z"/>
<path d="M18546 29725 l-539 -1325 -845 0 -844 0 3 -118 c4 -109 6 -122 36
-183 39 -79 102 -140 181 -177 l57 -27 933 -3 932 -2 0 -155 0 -154 93 -3 92
-3 3 -2072 2 -2073 -65 0 -65 0 0 -150 0 -150 65 0 65 0 0 -480 0 -480 370 0
370 0 0 480 0 480 70 0 71 0 -3 148 -3 147 -68 3 -67 3 2 2072 3 2072 98 3 97
3 0 156 0 156 188 -6 c103 -4 244 -7 315 -7 l127 0 0 -150 0 -149 98 -3 97 -3
3 -2072 2 -2072 -67 -3 -68 -3 -3 -147 -3 -148 71 0 70 0 0 -480 0 -480 370 0
370 0 0 480 0 480 65 0 65 0 0 150 0 150 -65 0 -65 0 2 2073 3 2072 93 3 92 3
0 149 0 150 813 0 c479 0 836 4 871 10 80 13 156 51 211 107 83 83 119 189
113 333 l-3 75 -846 3 -847 2 -31 78 c-17 42 -259 636 -538 1320 l-506 1242
-751 0 -751 0 -539 -1325z m1844 505 l0 -220 -550 0 -550 0 0 220 0 220 550 0
550 0 0 -220z"/>
<path d="M29380 20730 c-244 -34 -508 -141 -700 -284 -176 -131 -353 -343
-452 -540 -50 -100 -110 -281 -134 -406 -27 -142 -25 -390 4 -537 122 -614
571 -1066 1192 -1200 66 -14 129 -18 285 -18 173 0 214 3 304 23 307 69 533
193 752 411 128 129 217 248 284 380 39 80 101 242 110 294 l7 37 -106 0 -106
0 0 345 0 345 105 0 c124 0 120 -7 74 132 -76 228 -187 406 -364 584 -218 219
-457 349 -764 415 -109 23 -383 34 -491 19z"/>
<path d="M32670 18664 c-256 -356 -535 -745 -621 -864 l-156 -216 109 -78 108
-78 41 37 c91 82 238 118 324 79 22 -10 43 -18 47 -18 6 -1 60 72 246 328 31
44 68 96 82 115 38 54 112 155 121 165 4 4 38 -13 75 -40 l67 -48 19 24 c14
17 392 541 402 556 1 1 35 -7 76 -18 123 -32 237 -13 350 60 71 45 187 158
258 251 l57 74 -25 18 c-14 10 -99 72 -190 137 l-165 119 -310 17 c-170 9
-341 19 -380 21 l-70 6 -465 -647z m1167 351 c32 -32 35 -40 30 -77 -7 -53
-42 -88 -95 -95 -37 -5 -45 -2 -77 30 -29 29 -35 42 -35 77 0 59 41 100 100
100 35 0 48 -6 77 -35z"/>
<path d="M22880 16789 c-159 -31 -303 -171 -339 -330 -7 -27 -11 -279 -11
-651 l0 -608 23 -1 c12 0 0 -6 -28 -13 -113 -28 -198 -99 -249 -206 -25 -54
-31 -80 -34 -157 l-4 -93 727 0 727 0 -4 103 c-5 114 -27 172 -94 247 -41 45
-161 109 -208 111 -23 1 -25 3 -9 6 l22 4 3 577 c2 317 0 606 -4 642 -28 243
-272 417 -518 369z"/>
</g>
</svg>
