<?xml version="1.0" standalone="no"?>
<!DOCTYPE svg PUBLIC "-//W3C//DTD SVG 20010904//EN"
 "http://www.w3.org/TR/2001/REC-SVG-20010904/DTD/svg10.dtd">
<svg version="1.0" xmlns="http://www.w3.org/2000/svg"
 width="5118.000000pt" height="5000.000000pt" viewBox="0 0 5118.000000 5000.000000"
 preserveAspectRatio="xMidYMid meet">

<g transform="translate(0.000000,5000.000000) scale(0.100000,-0.100000)"
fill="#000000" stroke="none">
<path d="M27470 44807 l0 -644 255 -314 c140 -173 255 -317 255 -321 0 -5 -27
-8 -60 -8 l-60 0 0 -30 0 -30 93 -1 92 0 608 -750 609 -750 -13 -72 c-12 -71
-7 -436 8 -614 l6 -73 69 0 68 0 0 -937 0 -938 70 -3 70 -3 0 -2124 0 -2125
-40 0 -40 0 0 -650 0 -650 305 0 305 0 0 650 0 650 -40 0 -40 0 2 2128 3 2127
53 3 52 3 0 925 c0 508 0 927 0 932 0 4 30 9 67 12 l68 5 3 307 c2 232 -1 324
-12 375 l-14 67 48 56 c26 30 224 273 440 540 217 267 472 581 567 698 l174
212 73 0 73 0 -1 30 c-1 28 -3 30 -43 30 -24 0 -43 3 -43 8 0 4 115 148 255
320 l255 314 0 644 0 644 -85 0 -85 0 0 -612 0 -613 -287 -352 -286 -353 -180
0 c-163 0 -179 2 -173 17 4 9 93 170 199 357 l192 341 5 608 5 607 -87 0 -88
0 0 -577 0 -578 -208 -385 -208 -385 -148 -3 c-130 -2 -148 -1 -142 13 3 8 69
208 146 443 l140 428 0 522 0 522 -85 0 -85 0 0 -506 0 -505 -130 -437 c-72
-240 -135 -447 -140 -459 -9 -22 -15 -23 -120 -23 -98 0 -110 2 -110 18 0 9
27 213 60 452 l60 434 0 513 0 513 -85 0 -85 0 0 -507 0 -508 -30 -220 c-17
-121 -45 -326 -63 -455 l-32 -235 -135 0 -135 0 -62 450 -62 450 0 513 -1 512
-85 0 -85 0 0 -513 c0 -465 2 -524 19 -623 40 -223 131 -765 131 -780 0 -12
-18 -14 -111 -12 l-112 3 -153 455 -153 455 0 508 -1 507 -85 0 -85 0 0 -523
0 -523 145 -428 c80 -235 145 -434 145 -442 0 -12 -24 -14 -146 -12 l-145 3
-209 385 -209 385 -1 578 0 577 -85 0 -85 0 0 -601 0 -602 198 -355 c108 -195
199 -359 200 -364 2 -4 -77 -8 -175 -8 l-179 0 -287 353 -287 352 0 613 0 612
-85 0 -85 0 0 -643z m1496 -1994 c198 -355 360 -651 362 -657 2 -6 -6 0 -17
14 -10 14 -249 308 -530 653 -281 345 -511 630 -511 633 0 2 76 4 169 4 l168
0 359 -647z m137 575 c15 -40 94 -275 177 -523 83 -247 165 -487 181 -533 32
-93 35 -112 16 -112 -10 0 -677 1215 -677 1234 0 3 62 6 139 6 l138 0 26 -72z
m399 -88 c87 -503 168 -989 168 -1005 0 -12 -3 -15 -9 -10 -5 6 -92 258 -194
560 -102 303 -190 563 -196 578 -6 16 -11 30 -11 33 0 3 48 3 107 2 l108 -3
27 -155z m303 -285 c-33 -245 -63 -445 -67 -445 -5 0 -8 11 -8 24 0 13 -25
203 -55 422 -30 220 -55 409 -55 422 0 22 2 22 123 22 l123 0 -61 -445z m272
-155 c-99 -330 -184 -600 -189 -600 -13 0 -10 38 22 263 16 117 50 365 75 552
25 187 48 350 50 363 5 21 10 22 114 22 l108 0 -180 -600z m588 558 c-12 -24
-163 -304 -335 -623 -172 -319 -314 -582 -316 -584 -18 -20 -6 30 41 170 29
90 119 364 200 609 80 245 148 451 150 458 3 9 41 12 144 12 l140 0 -24 -42z
m545 37 c0 -10 -1082 -1336 -1087 -1332 -3 4 686 1239 733 1315 14 21 19 22
184 22 94 0 170 -2 170 -5z m-1272 -4142 c-26 -2 -71 -2 -100 0 -29 2 -8 3 47
3 55 0 79 -1 53 -3z m-115 -4230 c-7 -2 -19 -2 -25 0 -7 3 -2 5 12 5 14 0 19
-2 13 -5z m90 0 c-13 -2 -35 -2 -50 0 -16 2 -5 4 22 4 28 0 40 -2 28 -4z"/>
<path d="M12537 44908 c-12 -49 -37 -239 -48 -366 -15 -178 -7 -646 15 -812
122 -927 535 -1659 1108 -1960 l95 -50 7 -222 c4 -123 9 -240 13 -260 l6 -38
63 0 64 0 0 -940 0 -939 73 -3 72 -3 3 -2122 2 -2123 -40 0 -40 0 -2 -452 c-2
-249 -3 -541 -3 -648 l0 -195 308 -3 307 -2 -2 647 -3 648 -37 3 -38 3 0 2125
0 2124 55 0 55 0 0 940 0 940 65 0 65 0 0 285 0 285 83 53 c377 244 672 664
860 1228 172 512 222 1155 137 1737 -11 74 -20 136 -20 138 0 2 -724 4 -1609
4 l-1609 0 -5 -22z m491 -148 c-12 -148 -4 -822 12 -990 79 -843 291 -1489
611 -1861 43 -50 59 -75 54 -87 -12 -31 -177 158 -274 315 -313 505 -495 1393
-453 2214 10 204 37 494 48 528 11 33 12 -2 2 -119z m851 -1030 c19 -580 44
-1026 77 -1345 15 -143 15 -150 -3 -162 -17 -13 -19 -7 -35 104 -85 592 -116
1331 -88 2093 18 501 24 514 31 65 4 -225 12 -565 18 -755z m585 350 c4 -636
1 -772 -24 -1155 -17 -254 -60 -648 -72 -660 -3 -3 -13 -3 -22 1 -12 5 -16 14
-12 33 24 118 68 842 81 1326 3 116 7 251 10 300 2 50 8 288 12 530 11 601 21
454 27 -375z m830 624 c65 -597 27 -1219 -111 -1769 -73 -293 -197 -604 -323
-811 -50 -81 -150 -214 -160 -214 -26 0 -8 47 51 135 210 313 369 780 468
1380 53 317 76 752 61 1139 -6 138 -13 267 -16 286 -3 24 -2 30 4 20 5 -8 17
-83 26 -166z m-1812 -71 c-4 -264 11 -747 33 -1068 43 -616 119 -1097 227
-1423 43 -132 22 -140 -26 -10 -124 336 -204 748 -258 1333 -27 289 -10 1405
21 1405 3 0 5 -107 3 -237z m1362 -16 c18 -260 21 -751 6 -992 -34 -542 -118
-1044 -230 -1382 -38 -115 -39 -117 -56 -102 -8 6 -12 19 -9 28 15 38 65 236
89 346 37 178 83 477 106 680 49 451 64 746 65 1227 0 245 3 441 7 435 3 -7
13 -115 22 -240z"/>
<path d="M7104 44753 c8 -168 23 -340 32 -354 7 -11 1861 -12 1868 -1 8 13 26
255 29 385 l2 117 -969 0 -968 0 6 -147z"/>
<path d="M18532 44338 c4 -112 11 -230 15 -263 l8 -60 937 -3 936 -2 6 47 c8
59 26 359 26 431 l0 52 -967 0 -968 0 7 -202z"/>
<path d="M42150 43371 c-76 -23 -141 -82 -164 -148 -28 -79 -39 -238 -34 -483
6 -254 5 -253 -42 45 -38 250 -55 315 -91 365 -28 38 -74 70 -101 70 -7 0 6
-10 30 -21 57 -29 89 -85 112 -201 24 -119 104 -670 129 -896 21 -184 36 -245
26 -102 -11 164 -25 617 -25 815 1 309 17 396 85 461 93 90 239 75 305 -31 43
-69 56 -210 91 -985 19 -440 26 -550 30 -554 3 -3 13 75 23 172 58 569 142
1131 192 1287 29 88 86 131 162 122 70 -8 129 -64 152 -146 22 -80 8 -391 -41
-876 -26 -269 -68 -633 -75 -670 -8 -40 8 -23 22 23 34 109 256 748 283 815
65 163 130 227 230 227 62 0 97 -16 139 -64 52 -60 66 -158 38 -281 -7 -33
-58 -262 -114 -510 l-101 -450 -5 -710 c-13 -1568 -14 -1787 -6 -1655 4 74 10
281 14 460 3 179 13 679 21 1112 l16 786 116 489 c109 457 117 495 117 593 1
116 -9 146 -68 208 -49 53 -102 76 -171 76 -107 0 -180 -58 -248 -197 -35 -73
-125 -315 -147 -396 -20 -76 -22 -37 -6 121 32 312 46 498 52 678 5 166 4 191
-14 246 -10 34 -31 78 -46 97 -35 45 -117 87 -170 87 -53 0 -137 -40 -164 -77
-55 -77 -114 -373 -167 -827 -8 -71 -16 -131 -18 -133 -2 -2 -7 103 -11 233
-12 434 -31 608 -76 700 -52 107 -168 159 -280 125z"/>
<path d="M7766 42932 c-3 -5 -3 -298 1 -651 l6 -641 34 0 33 0 0 -2130 0
-2130 -55 0 -55 0 0 -940 0 -940 -682 2 -681 3 7 -750 c8 -947 15 -1443 22
-1615 9 -238 67 -459 180 -685 239 -481 684 -816 1224 -920 116 -23 373 -31
496 -16 591 72 1099 435 1349 964 110 234 153 413 166 697 8 189 31 2311 25
2318 -2 1 -317 2 -700 2 l-696 0 0 940 0 940 -70 0 -70 0 0 2130 0 2130 38 0
37 0 0 648 0 647 -302 3 c-166 1 -304 -2 -307 -6z m237 -1309 c-29 -2 -77 -2
-105 0 -29 2 -6 3 52 3 58 0 81 -1 53 -3z m-25 -4230 c-21 -2 -57 -2 -80 0
-24 2 -7 4 37 4 44 0 63 -2 43 -4z"/>
<path d="M34140 42684 c-30 -2 -138 -8 -240 -14 -366 -22 -715 -67 -897 -115
-103 -27 -191 -67 -200 -92 -3 -8 10 -70 30 -137 533 -1791 895 -2970 974
-3171 82 -209 46 -444 -118 -785 -116 -239 -285 -472 -378 -520 -61 -31 -166
-59 -288 -77 -151 -22 -661 -24 -1109 -4 -366 16 -391 13 -459 -53 -67 -65
-89 -133 -89 -286 -1 -112 2 -134 27 -206 75 -219 234 -374 462 -452 319 -109
643 -162 1116 -182 488 -20 1100 29 1384 111 114 33 216 52 395 73 164 20 493
44 700 51 249 9 225 -2 246 112 20 111 15 247 -11 309 -8 21 -13 44 -10 51 2
8 1 12 -4 8 -5 -3 -23 39 -41 92 -17 54 -35 106 -41 115 -5 10 -9 23 -9 31 0
7 -22 82 -50 167 -27 85 -55 173 -61 195 -6 22 -15 47 -19 56 -5 9 -14 36 -20
60 -10 40 -67 224 -120 389 -11 36 -30 98 -40 138 -11 40 -27 92 -34 115 -7
23 -28 89 -45 147 -18 58 -41 132 -52 165 -11 33 -21 67 -23 75 -19 75 -59
209 -68 228 -6 12 -12 37 -12 56 -1 19 -4 32 -7 30 -4 -2 -12 18 -19 44 -13
47 -24 84 -100 332 -22 74 -45 151 -50 170 -17 63 -42 145 -50 165 -8 21 -37
117 -51 170 -18 70 -29 105 -57 197 -27 89 -28 97 -11 87 11 -5 16 -15 13 -21
-4 -7 -3 -8 5 -4 6 4 46 -4 89 -17 42 -14 109 -32 147 -40 187 -42 642 -90
969 -103 94 -3 182 -8 196 -9 14 -2 170 -3 348 -4 320 -1 322 -1 322 -22 0
-11 27 -163 59 -337 33 -175 67 -355 75 -402 8 -47 31 -175 51 -285 81 -451
176 -1049 235 -1469 36 -264 61 -564 59 -721 -1 -122 2 -166 19 -235 90 -367
156 -848 157 -1145 0 -289 -38 -470 -141 -670 l-31 -60 -134 -7 c-74 -3 -179
-11 -234 -16 -55 -6 -131 -13 -170 -17 -38 -3 -71 -8 -73 -10 -2 -2 -14 0 -27
5 -13 5 -26 5 -32 -1 -13 -13 -103 -20 -103 -8 0 6 -5 7 -10 4 -6 -4 -8 -10
-6 -14 7 -10 -46 -8 -63 3 -11 7 -13 5 -8 -7 3 -9 3 -16 -1 -15 -4 1 -29 -3
-57 -10 -27 -7 -64 -13 -82 -14 -17 -1 -29 -6 -27 -10 3 -4 -1 -9 -8 -10 -7 0
-26 -3 -43 -5 -16 -2 -50 -6 -75 -7 -63 -5 -68 -6 -45 -17 15 -7 10 -8 -18 -3
-30 4 -37 2 -31 -7 5 -9 2 -10 -11 -6 -9 4 -23 3 -30 -3 -10 -8 -85 -16 -230
-24 -11 -1 -25 -4 -30 -8 -44 -28 -859 -45 -1035 -21 -25 3 -72 5 -105 5 -37
-1 -69 5 -82 14 -27 17 -37 18 -27 2 5 -8 -2 -9 -26 -4 -19 3 -37 11 -41 17
-5 8 -8 8 -13 0 -4 -6 -14 -11 -22 -11 -8 0 -13 3 -11 8 3 4 -18 7 -46 8 -60
0 -177 24 -177 36 0 4 -5 8 -11 8 -5 0 -7 -6 -3 -12 5 -9 3 -9 -9 1 -9 7 -26
11 -37 8 -11 -3 -23 -1 -26 4 -3 5 -17 9 -32 9 l-27 1 30 14 c37 17 22 18 -24
1 -29 -10 -45 -9 -99 6 -72 20 -82 25 -63 37 10 6 9 10 -4 14 -9 4 -13 3 -10
-2 3 -5 0 -13 -6 -17 -19 -12 -31 20 -12 34 15 10 15 12 1 12 -8 0 -21 -6 -27
-14 -8 -10 -21 -12 -44 -6 -54 13 -97 31 -97 41 0 5 -11 9 -24 9 -14 0 -28 5
-31 11 -4 6 0 9 8 7 9 -2 16 2 15 7 0 11 -2 11 -32 -1 -14 -5 -17 -4 -12 5 4
6 4 11 -1 10 -20 -3 -34 2 -28 11 3 6 -1 7 -10 4 -9 -4 -15 -3 -14 2 4 22 -2
44 -12 44 -6 0 -8 -7 -5 -16 5 -14 4 -15 -9 -4 -20 16 -20 17 13 35 15 9 19
14 8 10 -10 -3 -26 0 -34 7 -10 8 -13 9 -9 2 4 -7 1 -14 -7 -17 -17 -7 -30 20
-13 27 7 2 3 5 -8 5 -14 1 -20 8 -21 25 -1 16 3 23 10 20 7 -3 13 1 13 8 0 7
-12 14 -25 15 -18 1 -21 -1 -11 -8 8 -5 12 -9 9 -10 -3 0 -13 -2 -23 -4 -10
-2 -16 2 -15 10 2 8 0 13 -4 12 -11 -3 -39 40 -36 55 2 7 -4 12 -12 10 -12 -3
-13 -1 -2 9 16 18 15 39 -3 39 -17 0 -39 36 -30 50 3 6 1 10 -5 10 -7 0 -10 7
-7 15 4 8 0 27 -8 42 -8 15 -12 36 -9 46 3 9 1 17 -5 17 -6 0 -9 36 -6 98 4
105 11 136 29 125 6 -4 5 1 -3 10 -8 11 -9 17 -3 17 7 0 9 7 5 17 -5 14 -1 15
33 10 21 -3 34 -3 27 0 -7 2 -10 10 -7 18 6 14 -13 31 -24 20 -3 -3 0 -10 8
-15 12 -8 10 -10 -8 -10 -25 0 -24 4 16 58 13 17 20 32 14 32 -22 0 -72 -94
-88 -168 -45 -201 21 -430 168 -587 105 -113 208 -169 438 -238 310 -94 657
-136 1155 -142 525 -6 941 33 1235 115 165 46 351 73 705 100 171 13 766 37
1148 46 155 4 285 10 289 13 17 16 30 236 25 431 -6 215 -27 383 -82 635 -41
192 -121 500 -175 674 l-50 161 45 377 c138 1175 237 2084 309 2838 20 204 38
390 41 415 9 76 -31 109 -176 150 -280 77 -730 123 -1417 142 l-423 12 6 41
c14 104 112 1079 151 1506 6 64 5 66 -25 91 -92 78 -449 142 -1056 189 -129
10 -1280 21 -1405 13z m-740 -7536 c0 -6 -6 -5 -15 2 -8 7 -15 14 -15 16 0 2
7 1 15 -2 8 -4 15 -11 15 -16z m65 -58 c-3 -5 -12 -10 -18 -10 -7 0 -6 4 3 10
19 12 23 12 15 0z"/>
<path d="M19186 42481 c-3 -4 -3 -310 1 -680 l6 -671 39 0 38 0 -2 -2222 -3
-2223 -52 -3 -53 -3 0 -980 0 -979 -70 0 -70 0 0 -322 -1 -323 -77 -540 -78
-540 -937 -5 -938 -5 0 -159 0 -158 93 -2 93 -1 5 -497 c5 -484 6 -497 26
-525 11 -15 36 -39 55 -51 28 -20 44 -23 92 -20 69 5 103 27 135 88 22 44 22
46 22 527 l0 483 200 0 199 0 3 -498 3 -499 29 -37 c69 -91 200 -87 270 8 20
27 21 42 26 524 l5 497 197 3 197 2 3 -492 c3 -446 5 -496 20 -525 27 -49 74
-76 137 -81 62 -4 105 17 145 71 20 28 21 41 26 525 l5 497 200 0 200 0 5
-500 c6 -559 2 -530 79 -573 77 -43 171 -21 219 51 l27 41 3 493 3 493 197 -2
197 -3 5 -497 c5 -484 6 -497 26 -525 11 -15 36 -39 55 -51 28 -20 44 -23 92
-20 69 5 103 27 135 88 22 44 22 46 22 527 l0 483 198 -2 197 -3 5 -497 c5
-482 6 -497 26 -524 36 -49 70 -67 131 -72 48 -3 64 0 92 20 19 12 44 36 55
51 20 28 21 41 26 525 l5 497 197 3 197 2 3 -492 c3 -446 5 -496 20 -525 27
-49 74 -76 137 -81 62 -4 105 17 145 71 20 28 21 41 26 525 l5 497 73 0 72 0
0 163 0 162 -938 0 -939 0 -76 548 c-75 539 -77 552 -87 855 -5 170 -12 312
-15 318 -4 5 -35 9 -71 9 l-64 0 0 980 0 980 -70 0 -70 0 0 2225 0 2225 33 0
34 0 6 671 c4 370 4 676 1 680 -3 5 -140 9 -304 9 -164 0 -301 -4 -304 -9z
m242 -5788 c-26 -2 -71 -2 -100 0 -29 2 -8 3 47 3 55 0 79 -1 53 -3z"/>
<path d="M42837 41353 c-3 -5 32 -8 77 -8 107 -1 151 -21 179 -83 48 -110 -17
-278 -260 -672 -141 -229 -187 -312 -201 -360 -6 -19 -13 -89 -16 -155 -27
-526 -220 -875 -483 -875 -77 0 -155 28 -214 77 l-44 37 44 -47 c62 -65 126
-91 226 -91 66 0 90 4 138 26 216 101 360 420 387 856 10 170 12 174 200 491
211 355 263 475 264 611 1 104 -18 144 -84 178 -35 17 -61 22 -127 22 -45 0
-84 -3 -86 -7z"/>
<path d="M34865 40420 c-3 -5 -1 -10 4 -10 6 0 11 5 11 10 0 6 -2 10 -4 10 -3
0 -8 -4 -11 -10z"/>
<path d="M34965 40420 c3 -5 10 -10 16 -10 5 0 9 5 9 10 0 6 -7 10 -16 10 -8
0 -12 -4 -9 -10z"/>
<path d="M35279 40378 c-7 -25 -4 -34 15 -35 20 -2 20 -1 3 12 -14 10 -15 14
-5 18 10 4 10 6 1 6 -7 1 -13 0 -14 -1z"/>
<path d="M35328 40363 c7 -3 16 -2 19 1 4 3 -2 6 -13 5 -11 0 -14 -3 -6 -6z"/>
<path d="M35373 40353 c9 -2 23 -2 30 0 6 3 -1 5 -18 5 -16 0 -22 -2 -12 -5z"/>
<path d="M35608 40343 c6 -2 18 -2 25 0 6 3 1 5 -13 5 -14 0 -19 -2 -12 -5z"/>
<path d="M35437 40329 c7 -7 15 -10 18 -7 3 3 -2 9 -12 12 -14 6 -15 5 -6 -5z"/>
<path d="M34766 40303 c-6 -14 -5 -15 5 -6 7 7 10 15 7 18 -3 3 -9 -2 -12 -12z"/>
<path d="M36731 40284 c0 -11 3 -14 6 -6 3 7 2 16 -1 19 -3 4 -6 -2 -5 -13z"/>
<path d="M34850 39990 c0 -5 5 -10 11 -10 5 0 7 5 4 10 -3 6 -8 10 -11 10 -2
0 -4 -4 -4 -10z"/>
<path d="M36801 39944 c0 -11 3 -14 6 -6 3 7 2 16 -1 19 -3 4 -6 -2 -5 -13z"/>
<path d="M39900 39006 c-112 -581 -180 -950 -174 -955 5 -5 50 -14 99 -20 202
-24 521 -34 1107 -35 544 -1 617 -3 613 -16 -2 -8 -25 -100 -50 -205 -42 -174
-206 -850 -260 -1073 -12 -51 -19 -94 -15 -97 16 -10 146 -25 315 -37 249 -18
1631 -18 1885 0 171 12 304 27 320 37 4 2 -8 82 -26 177 -18 95 -96 515 -174
933 -77 418 -143 767 -146 776 -4 14 -11 14 -67 3 -115 -24 -290 -35 -637 -41
-451 -7 -877 13 -987 48 -31 10 -33 13 -33 57 0 26 -3 88 -5 137 -3 50 -10
342 -16 650 -6 308 -13 562 -14 565 -2 3 -32 2 -67 -2 -126 -15 -826 -21
-1003 -9 -159 11 -364 33 -445 47 l-35 6 -185 -946z"/>
<path d="M36837 39820 c-3 -11 -1 -20 4 -20 5 0 9 9 9 20 0 11 -2 20 -4 20 -2
0 -6 -9 -9 -20z"/>
<path d="M35005 39509 c-4 -6 -5 -12 -2 -15 2 -3 7 2 10 11 7 17 1 20 -8 4z"/>
<path d="M36902 39490 c0 -14 2 -19 5 -12 2 6 2 18 0 25 -3 6 -5 1 -5 -13z"/>
<path d="M26005 39449 c-55 -3 -89 -6 -75 -8 14 -1 45 -10 70 -19 43 -17 45
-20 46 -57 0 -22 2 -226 3 -452 l3 -413 24 0 c14 0 27 6 29 13 3 6 4 221 3
477 l-3 465 -100 -6z"/>
<path d="M36921 39384 c0 -11 3 -14 6 -6 3 7 2 16 -1 19 -3 4 -6 -2 -5 -13z"/>
<path d="M35095 39199 c-4 -6 -5 -12 -2 -15 2 -3 7 2 10 11 7 17 1 20 -8 4z"/>
<path d="M35111 39134 c0 -11 3 -14 6 -6 3 7 2 16 -1 19 -3 4 -6 -2 -5 -13z"/>
<path d="M36961 39084 c0 -11 3 -14 6 -6 3 7 2 16 -1 19 -3 4 -6 -2 -5 -13z"/>
<path d="M36991 39004 c0 -11 3 -14 6 -6 3 7 2 16 -1 19 -3 4 -6 -2 -5 -13z"/>
<path d="M36981 38914 c0 -11 3 -14 6 -6 3 7 2 16 -1 19 -3 4 -6 -2 -5 -13z"/>
<path d="M43392 38815 c0 -16 2 -22 5 -12 2 9 2 23 0 30 -3 6 -5 -1 -5 -18z"/>
<path d="M35231 38735 c1 -19 18 -51 18 -35 0 8 -4 22 -9 30 -5 8 -9 11 -9 5z"/>
<path d="M37045 38670 c-3 -5 -1 -10 4 -10 6 0 11 5 11 10 0 6 -2 10 -4 10 -3
0 -8 -4 -11 -10z"/>
<path d="M37062 38569 c1 -17 4 -25 8 -18 7 10 2 49 -5 49 -2 0 -3 -14 -3 -31z"/>
<path d="M37061 38414 c0 -11 3 -14 6 -6 3 7 2 16 -1 19 -3 4 -6 -2 -5 -13z"/>
<path d="M37091 38414 c0 -11 3 -14 6 -6 3 7 2 16 -1 19 -3 4 -6 -2 -5 -13z"/>
<path d="M35411 38214 c0 -11 3 -14 6 -6 3 7 2 16 -1 19 -3 4 -6 -2 -5 -13z"/>
<path d="M37141 38094 c0 -11 3 -14 6 -6 3 7 2 16 -1 19 -3 4 -6 -2 -5 -13z"/>
<path d="M37122 38055 c0 -16 2 -22 5 -12 2 9 2 23 0 30 -3 6 -5 -1 -5 -18z"/>
<path d="M37141 37934 c0 -11 3 -14 6 -6 3 7 2 16 -1 19 -3 4 -6 -2 -5 -13z"/>
<path d="M37172 37860 c0 -14 2 -19 5 -12 2 6 2 18 0 25 -3 6 -5 1 -5 -13z"/>
<path d="M35507 37853 c-4 -3 -7 -11 -7 -17 0 -6 5 -5 12 2 6 6 9 14 7 17 -3
3 -9 2 -12 -2z"/>
<path d="M26065 37643 c3 -27 7 -310 10 -630 l5 -583 -26 -16 c-43 -29 -103
-24 -162 13 -39 24 -52 28 -52 17 0 -8 -11 -26 -25 -40 l-25 -25 45 -28 c60
-38 123 -54 189 -49 l54 4 7 -340 c4 -188 10 -746 14 -1241 l8 -900 1 1252 2
1252 26 26 c30 30 29 66 -3 80 l-23 10 0 579 c0 567 0 581 -21 623 -11 24 -22
43 -24 43 -2 0 -2 -21 0 -47z"/>
<path d="M37212 37520 c0 -14 2 -19 5 -12 2 6 2 18 0 25 -3 6 -5 1 -5 -13z"/>
<path d="M35610 37500 c0 -11 5 -20 10 -20 6 0 10 9 10 20 0 11 -4 20 -10 20
-5 0 -10 -9 -10 -20z"/>
<path d="M37222 37445 c0 -16 2 -22 5 -12 2 9 2 23 0 30 -3 6 -5 -1 -5 -18z"/>
<path d="M35657 37381 c-4 -17 -3 -21 5 -13 5 5 8 16 6 23 -3 8 -7 3 -11 -10z"/>
<path d="M37233 37285 c0 -22 2 -30 4 -17 2 12 2 30 0 40 -3 9 -5 -1 -4 -23z"/>
<path d="M35701 37255 c1 -19 18 -51 18 -35 0 8 -4 22 -9 30 -5 8 -9 11 -9 5z"/>
<path d="M37202 37225 c0 -16 2 -22 5 -12 2 9 2 23 0 30 -3 6 -5 -1 -5 -18z"/>
<path d="M35741 37224 c0 -11 3 -14 6 -6 3 7 2 16 -1 19 -3 4 -6 -2 -5 -13z"/>
<path d="M35735 37190 c3 -5 8 -10 11 -10 2 0 4 5 4 10 0 6 -5 10 -11 10 -5 0
-7 -4 -4 -10z"/>
<path d="M35721 37164 c0 -11 3 -14 6 -6 3 7 2 16 -1 19 -3 4 -6 -2 -5 -13z"/>
<path d="M37215 37039 c-4 -6 -4 -13 -1 -16 3 -4 6 -1 6 6 0 7 5 9 12 5 7 -4
8 -3 4 4 -9 15 -13 15 -21 1z"/>
<path d="M37210 36946 c0 -8 4 -17 9 -20 5 -4 7 3 4 14 -6 23 -13 26 -13 6z"/>
<path d="M37242 36900 c0 -14 2 -19 5 -12 2 6 2 18 0 25 -3 6 -5 1 -5 -13z"/>
<path d="M25005 36852 c-122 -42 -257 -158 -309 -266 -72 -150 -28 -303 97
-335 134 -33 367 2 657 99 96 32 176 57 177 56 2 -1 -23 -21 -55 -43 -160
-114 -300 -259 -348 -362 -78 -165 30 -315 174 -242 113 58 266 292 321 491
26 94 26 117 1 125 -29 9 -60 54 -60 87 0 18 10 39 25 54 l26 26 -47 41 c-142
127 -321 240 -433 274 -61 18 -166 16 -226 -5z m296 -124 c85 -42 188 -113
279 -191 40 -34 38 -35 -70 -72 -266 -92 -456 -137 -590 -139 -105 -1 -131 8
-155 54 -58 112 73 309 254 382 33 13 66 17 117 15 62 -2 84 -8 165 -49z m323
-484 c-54 -163 -191 -366 -275 -410 -24 -12 -30 -12 -43 2 -69 68 31 226 259
407 38 31 71 54 73 53 1 -2 -5 -25 -14 -52z"/>
<path d="M35665 36803 c-15 -61 -99 -263 -146 -353 -75 -140 -193 -314 -263
-385 -87 -89 -169 -121 -385 -151 -154 -22 -625 -26 -981 -8 -352 18 -481 15
-528 -9 -18 -10 -30 -22 -27 -27 3 -5 1 -11 -5 -15 -15 -9 -12 -22 5 -22 8 0
12 5 8 10 -3 5 4 6 18 2 23 -7 24 -7 4 9 -17 13 -18 17 -5 26 21 14 30 12 24
-4 -3 -8 -1 -17 5 -21 6 -3 9 0 5 8 -15 41 74 57 227 40 49 -5 58 -8 39 -14
-21 -6 -20 -7 13 -8 23 -1 36 3 32 9 -3 6 -2 10 4 10 5 0 12 -6 14 -12 4 -10
6 -10 6 0 1 7 16 12 41 12 25 0 40 -5 40 -12 0 -10 2 -10 8 -1 4 6 25 9 52 7
92 -9 217 -14 294 -13 59 0 76 -3 70 -12 -5 -8 -3 -10 7 -4 15 10 240 14 234
5 -2 -3 30 -2 71 3 65 8 77 7 87 -7 12 -16 74 -29 82 -17 2 4 -12 7 -31 8 -19
0 -38 3 -41 7 -13 13 9 19 74 22 38 2 91 5 120 8 29 3 55 1 58 -4 3 -6 16 -10
28 -9 21 0 21 1 2 9 -19 7 -19 8 -1 15 11 5 21 3 27 -6 7 -11 9 -11 9 4 0 12
9 17 28 19 40 2 46 3 57 10 6 4 17 3 25 -2 8 -5 21 -5 29 -1 9 5 26 7 38 6 19
-1 21 1 10 14 -10 12 -9 14 5 8 11 -4 15 -2 12 7 -5 12 42 42 60 37 13 -3 36
20 36 36 0 17 37 58 53 58 7 1 16 -4 20 -10 4 -5 5 2 1 18 -4 17 -2 27 6 27 6
0 8 4 5 10 -7 11 51 75 68 75 6 0 12 13 13 29 1 21 13 40 45 67 24 20 41 41
36 45 -4 4 -7 1 -7 -6 0 -11 -3 -11 -12 -2 -10 10 -7 17 16 36 16 12 26 28 22
34 -3 6 2 25 13 43 16 27 20 29 24 13 2 -11 3 -3 1 16 -2 19 -1 29 2 23 3 -7
10 -13 16 -13 6 0 6 6 -2 15 -10 11 -9 18 4 30 8 9 13 22 9 31 -4 10 1 17 14
20 15 4 19 12 15 31 -4 19 -2 24 8 18 9 -5 10 -2 5 15 -5 17 -4 21 6 15 9 -6
11 -3 6 8 -3 10 -2 17 3 17 5 0 6 7 3 17 -5 12 -3 14 7 8 10 -6 12 -4 7 8 -3
8 -1 32 4 52 6 20 8 39 6 41 -3 3 -8 -8 -12 -23z m-420 -783 c-3 -5 -12 -10
-18 -10 -7 0 -6 4 3 10 19 12 23 12 15 0z m-135 -74 c0 -2 -7 -7 -16 -10 -8
-3 -12 -2 -9 4 6 10 25 14 25 6z"/>
<path d="M37287 36705 c-4 -8 -2 -17 3 -20 6 -4 10 3 10 14 0 25 -6 27 -13 6z"/>
<path d="M37311 36604 c0 -11 3 -14 6 -6 3 7 2 16 -1 19 -3 4 -6 -2 -5 -13z"/>
<path d="M37302 36520 c0 -14 2 -19 5 -12 2 6 2 18 0 25 -3 6 -5 1 -5 -13z"/>
<path d="M37332 36500 c0 -14 2 -19 5 -12 2 6 2 18 0 25 -3 6 -5 1 -5 -13z"/>
<path d="M35585 36449 c-4 -6 -5 -12 -2 -15 2 -3 7 2 10 11 7 17 1 20 -8 4z"/>
<path d="M35541 36424 c0 -11 3 -14 6 -6 3 7 2 16 -1 19 -3 4 -6 -2 -5 -13z"/>
<path d="M35560 36421 c0 -6 4 -13 10 -16 6 -3 7 1 4 9 -7 18 -14 21 -14 7z"/>
<path d="M37371 36224 c0 -11 3 -14 6 -6 3 7 2 16 -1 19 -3 4 -6 -2 -5 -13z"/>
<path d="M35271 36034 c0 -11 3 -14 6 -6 3 7 2 16 -1 19 -3 4 -6 -2 -5 -13z"/>
<path d="M37372 35995 c0 -16 2 -22 5 -12 2 9 2 23 0 30 -3 6 -5 -1 -5 -18z"/>
<path d="M35185 35960 c3 -5 8 -10 11 -10 2 0 4 5 4 10 0 6 -5 10 -11 10 -5 0
-7 -4 -4 -10z"/>
<path d="M33424 35889 c-8 -14 23 -15 91 -4 l70 12 -78 -1 c-43 -1 -80 -4 -83
-7z"/>
<path d="M33758 35883 c6 -2 18 -2 25 0 6 3 1 5 -13 5 -14 0 -19 -2 -12 -5z"/>
<path d="M33855 35880 c3 -5 8 -10 11 -10 2 0 4 5 4 10 0 6 -5 10 -11 10 -5 0
-7 -4 -4 -10z"/>
<path d="M33728 35863 c6 -2 18 -2 25 0 6 3 1 5 -13 5 -14 0 -19 -2 -12 -5z"/>
<path d="M33960 35865 c0 -7 30 -13 34 -7 3 4 -4 9 -15 9 -10 1 -19 0 -19 -2z"/>
<path d="M34155 35860 c3 -5 8 -10 11 -10 2 0 4 5 4 10 0 6 -5 10 -11 10 -5 0
-7 -4 -4 -10z"/>
<path d="M33415 35850 c-3 -6 1 -7 9 -4 18 7 21 14 7 14 -6 0 -13 -4 -16 -10z"/>
<path d="M33883 35853 c9 -2 23 -2 30 0 6 3 -1 5 -18 5 -16 0 -22 -2 -12 -5z"/>
<path d="M34078 35853 c6 -2 18 -2 25 0 6 3 1 5 -13 5 -14 0 -19 -2 -12 -5z"/>
<path d="M33340 35795 c-7 -9 -8 -15 -2 -15 5 0 12 7 16 15 3 8 4 15 2 15 -2
0 -9 -7 -16 -15z"/>
<path d="M33256 35647 c3 -10 9 -15 12 -12 3 3 0 11 -7 18 -10 9 -11 8 -5 -6z"/>
<path d="M33246 35535 c-3 -8 -1 -15 4 -15 6 0 10 7 10 15 0 8 -2 15 -4 15 -2
0 -6 -7 -10 -15z"/>
<path d="M33261 35464 c0 -11 3 -14 6 -6 3 7 2 16 -1 19 -3 4 -6 -2 -5 -13z"/>
<path d="M37391 35404 c0 -11 3 -14 6 -6 3 7 2 16 -1 19 -3 4 -6 -2 -5 -13z"/>
<path d="M37366 35363 c6 -4 14 -15 17 -23 5 -11 6 -9 4 4 -1 11 -9 21 -17 23
-10 3 -11 2 -4 -4z"/>
<path d="M37361 35330 c0 -8 4 -24 9 -35 5 -13 9 -14 9 -5 0 8 -4 24 -9 35 -5
13 -9 14 -9 5z"/>
<path d="M37311 35193 c0 -4 4 -17 9 -28 8 -19 9 -19 9 2 1 12 -3 25 -9 28 -5
3 -10 3 -9 -2z"/>
<path d="M37282 35160 c0 -14 2 -19 5 -12 2 6 2 18 0 25 -3 6 -5 1 -5 -13z"/>
<path d="M37210 35031 c0 -6 4 -13 10 -16 6 -3 7 1 4 9 -7 18 -14 21 -14 7z"/>
<path d="M37252 35024 c-7 -8 -8 -14 -3 -14 10 0 25 19 20 25 -2 1 -10 -3 -17
-11z"/>
<path d="M37180 35006 c0 -2 7 -7 16 -10 8 -3 12 -2 9 4 -6 10 -25 14 -25 6z"/>
<path d="M36348 34953 c7 -3 16 -2 19 1 4 3 -2 6 -13 5 -11 0 -14 -3 -6 -6z"/>
<path d="M36418 34943 c6 -2 18 -2 25 0 6 3 1 5 -13 5 -14 0 -19 -2 -12 -5z"/>
<path d="M36368 34923 c7 -3 16 -2 19 1 4 3 -2 6 -13 5 -11 0 -14 -3 -6 -6z"/>
<path d="M34148 34873 c6 -2 9 -10 6 -15 -4 -7 -2 -8 5 -4 13 9 5 26 -12 25
-9 0 -8 -2 1 -6z"/>
<path d="M34060 34866 c0 -2 7 -7 16 -10 8 -3 12 -2 9 4 -6 10 -25 14 -25 6z"/>
<path d="M36128 34863 c7 -3 16 -2 19 1 4 3 -2 6 -13 5 -11 0 -14 -3 -6 -6z"/>
<path d="M35039 34787 c5 -5 26 -7 47 -5 l39 3 -47 5 c-26 3 -43 1 -39 -3z"/>
<path d="M35688 34793 c7 -3 16 -2 19 1 4 3 -2 6 -13 5 -11 0 -14 -3 -6 -6z"/>
<path d="M35238 34783 c7 -3 16 -2 19 1 4 3 -2 6 -13 5 -11 0 -14 -3 -6 -6z"/>
<path d="M34968 34763 c7 -3 16 -2 19 1 4 3 -2 6 -13 5 -11 0 -14 -3 -6 -6z"/>
<path d="M24860 34094 c-80 -17 -198 -58 -265 -92 -137 -69 -316 -221 -394
-335 -30 -45 -36 -48 -65 -43 -156 29 -340 33 -494 10 -320 -47 -553 -198
-685 -443 l-38 -71 2325 0 c1279 0 2326 3 2326 8 -1 10 -191 151 -286 210
-190 119 -328 172 -463 180 -93 5 -94 5 -155 51 -73 56 -217 131 -306 160 -97
31 -265 61 -349 61 -40 0 -113 -7 -161 -16 l-87 -16 -90 88 c-135 134 -289
219 -449 250 -94 18 -278 17 -364 -2z"/>
<path d="M42244 32434 c-247 -332 -449 -609 -449 -614 0 -10 287 -390 296
-390 3 0 25 27 50 60 24 32 48 59 52 60 6 0 158 -107 289 -203 26 -19 34 -19
348 -7 307 11 322 11 343 -7 109 -93 447 -419 443 -428 -2 -6 -30 -97 -61
-203 l-58 -191 25 -53 c129 -272 254 -686 308 -1022 69 -422 29 -1025 -121
-1818 -39 -207 -116 -568 -123 -575 -3 -3 -207 23 -830 107 -137 19 -223 35
-228 42 -6 10 -8 9 -8 -3 0 -16 65 -32 250 -60 41 -7 79 -15 83 -19 10 -9 -15
-289 -44 -485 -143 -987 -524 -1840 -1126 -2525 -126 -143 -291 -305 -443
-434 -145 -124 -149 -127 -118 -86 372 486 615 953 776 1490 321 1065 232
2223 -247 3225 -223 466 -507 863 -890 1245 -684 682 -1557 1121 -2505 1260
-236 34 -387 44 -661 44 -612 -1 -1177 -92 -1765 -286 -1837 -604 -3251 -2062
-3751 -3867 -225 -811 -255 -1632 -94 -2499 56 -296 55 -296 90 -304 28 -7 27
-7 -5 -3 -34 3 -352 -14 -358 -20 -2 -1 4 -92 12 -201 9 -110 16 -204 16 -209
0 -12 -1 -12 255 10 99 8 286 22 415 30 129 9 318 22 420 30 102 8 206 15 232
15 26 0 49 3 51 8 4 6 -22 413 -27 419 -1 1 -98 -5 -215 -14 -123 -9 -216 -12
-220 -7 -12 13 -66 237 -96 399 -151 819 -95 1667 162 2460 148 458 379 922
656 1322 100 143 257 347 263 341 1 -2 -21 -51 -51 -108 -259 -507 -436 -1171
-460 -1730 -3 -74 -8 -175 -10 -224 -6 -117 11 -456 30 -610 97 -793 384
-1506 860 -2141 709 -946 1761 -1577 2925 -1755 265 -40 354 -45 815 -45 471
1 556 6 900 56 1033 149 1981 576 2810 1265 165 137 549 521 685 683 693 835
1115 1780 1264 2831 13 96 28 208 31 248 6 65 9 72 29 72 11 0 112 -15 224
-33 111 -19 202 -30 202 -26 0 4 20 182 45 396 80 702 195 1809 246 2378 12
138 24 252 25 254 6 8 175 -143 256 -228 46 -48 107 -121 136 -164 187 -270
208 -492 102 -1042 -78 -399 -79 -550 -8 -631 44 -50 78 -64 151 -64 53 0 76
6 133 35 251 125 517 516 565 829 32 205 -98 511 -413 976 -65 96 -132 194
-150 217 l-31 42 34 28 c89 73 335 302 430 399 166 170 239 270 239 327 0 35
-52 107 -130 181 -100 94 -177 128 -231 103 -25 -11 -118 -112 -239 -257 -76
-92 -132 -150 -140 -145 -4 2 -7 -2 -7 -9 0 -21 -175 -226 -186 -219 -6 3 -7
1 -3 -5 4 -6 -8 -26 -25 -44 -17 -18 -26 -25 -19 -15 7 9 8 17 4 17 -5 0 -15
-9 -22 -21 -8 -12 -9 -18 -3 -14 20 12 11 -11 -12 -33 -13 -12 -27 -19 -32
-15 -4 5 -5 2 -1 -5 5 -8 -9 -32 -34 -63 -35 -41 -45 -48 -57 -37 -10 8 -11
14 -4 16 6 2 11 8 11 14 0 6 -6 6 -15 -2 -12 -10 -18 -10 -30 0 -8 7 -13 16
-10 20 3 5 0 12 -6 16 -8 5 -9 3 -3 -7 8 -15 1 -8 -132 104 l-80 68 7 70 c4
38 9 95 11 128 2 46 6 57 17 53 9 -4 12 -1 7 7 -4 6 -16 9 -25 6 -10 -3 -34 5
-55 20 -20 14 -50 32 -67 40 -16 9 -27 20 -24 25 3 5 0 12 -6 16 -8 4 -9 3 -5
-4 11 -19 -3 -14 -60 18 -40 23 -52 35 -49 50 2 11 -1 20 -7 20 -5 0 -8 -7 -4
-15 3 -8 3 -15 0 -15 -3 0 -48 26 -100 58 -53 31 -116 69 -142 84 -26 15 -46
32 -44 38 1 6 -2 9 -8 5 -6 -4 -22 1 -36 10 -24 16 -26 16 -31 -5 l-6 -21 -22
21 c-23 22 -26 35 -11 58 6 10 11 10 22 1 12 -10 13 -9 8 5 -8 20 -18 20 -34
1 -7 -8 -17 -15 -22 -15 -7 0 -6 5 1 13 8 10 7 14 -4 14 -8 0 -15 -6 -15 -14
0 -9 -5 -9 -19 4 -16 13 -18 21 -10 36 6 10 8 21 6 24 -3 2 -8 -5 -12 -17 -5
-17 -10 -19 -21 -9 -7 6 -11 16 -7 22 4 6 1 7 -7 2 -10 -6 -12 -4 -7 8 3 9 1
19 -5 23 -7 4 -8 3 -4 -4 4 -7 3 -12 -3 -12 -6 0 -15 9 -21 20 -6 11 -15 18
-19 16 -5 -3 -17 4 -27 16 -15 17 -16 20 -3 16 9 -4 16 -1 16 8 0 17 -9 18
-23 4 -7 -7 -16 -4 -29 10 -20 22 -8 28 15 8 12 -11 12 -10 0 5 -7 10 -19 16
-26 13 -7 -3 -14 -2 -16 2 -2 4 -24 25 -51 46 -26 21 -45 41 -42 44 2 3 13 -1
22 -9 16 -13 17 -12 4 4 -8 10 -20 16 -27 13 -7 -3 -16 -1 -19 4 -3 4 1 11 7
13 10 4 10 6 0 6 -7 1 -10 6 -7 11 8 12 -588 7 -619 -6 -14 -5 -17 -4 -11 5 6
10 3 11 -14 2 -12 -7 -27 -8 -34 -4 -6 4 -16 8 -22 9 -5 0 -16 2 -23 2 -7 1
-10 7 -7 12 4 6 3 10 -2 9 -4 -1 -16 1 -26 6 -15 6 -16 10 -5 16 10 7 10 9 1
9 -7 0 -13 5 -13 11 0 5 5 7 12 3 7 -4 8 -3 4 4 -5 8 -13 9 -24 3 -24 -12 -42
-3 -35 17 6 15 4 15 -9 4 -11 -9 -18 -10 -23 -2 -3 5 -1 10 4 10 6 0 10 3 10
8 -3 20 3 23 19 11 15 -12 16 -12 5 2 -10 12 -10 18 0 29 6 8 3 7 -8 -2 -15
-12 -25 -14 -38 -7 -13 8 -19 6 -23 -5 -3 -9 -10 -13 -16 -10 -5 3 -7 12 -4
20 6 16 -10 29 -19 14 -4 -6 -11 -8 -16 -4 -5 3 -7 10 -4 15 4 5 -3 9 -13 9
-11 0 -24 6 -30 13 -17 21 12 56 43 53 13 -2 22 1 19 6 -3 5 -13 7 -21 4 -19
-8 -13 2 64 102 37 47 69 79 75 76 7 -4 8 -2 4 4 -4 7 -2 17 3 24 59 72 60 74
56 51 -2 -13 0 -25 4 -28 5 -2 7 10 6 28 -3 33 11 61 26 51 5 -3 6 1 4 9 -3 7
4 22 16 33 13 10 20 14 16 8 -3 -6 -1 -11 6 -11 7 0 13 8 13 18 0 10 -5 15
-11 12 -5 -4 -3 2 6 13 8 10 39 49 69 86 29 37 57 65 63 61 6 -3 7 -1 3 5 -4
7 54 90 136 194 78 101 146 188 150 193 36 47 56 68 55 55 -2 -8 -7 -22 -12
-30 -7 -13 -6 -13 7 -2 9 7 15 23 13 34 -6 32 11 46 50 41 19 -2 35 1 35 6 0
14 -23 19 -42 9 -22 -11 -24 4 -4 21 14 12 46 5 46 -10 0 -5 7 -9 15 -9 8 0
15 -4 15 -8 0 -5 11 -14 24 -22 13 -7 26 -21 29 -31 3 -12 11 -16 25 -12 11 2
23 0 26 -6 4 -6 1 -9 -7 -5 -8 3 -18 1 -21 -4 -3 -5 7 -8 21 -6 17 2 33 -5 44
-17 9 -11 23 -18 30 -17 8 2 13 -3 12 -9 -2 -7 6 -13 16 -13 11 0 22 -4 25 -9
4 -5 -2 -7 -13 -4 -10 3 -22 0 -25 -6 -5 -7 -1 -8 9 -5 8 4 23 0 32 -7 14 -12
16 -12 9 0 -6 9 -5 12 5 9 8 -3 13 -12 11 -21 -2 -11 2 -15 12 -11 21 8 29
-12 28 -75 0 -31 4 -61 10 -68 6 -7 7 -21 3 -30 -4 -10 -9 -31 -11 -48 -3 -23
-1 -27 7 -15 9 12 10 11 6 -7 -3 -13 -1 -23 4 -23 6 0 9 -6 8 -12 -1 -7 0 -24
4 -38 12 -50 14 -139 3 -133 -6 4 -6 0 1 -8 17 -21 29 -164 14 -173 -18 -11
-13 -37 15 -73 14 -18 22 -38 18 -45 -4 -7 -3 -8 4 -4 7 4 12 1 12 -8 0 -8 4
-18 10 -21 6 -4 7 1 3 12 -4 13 4 9 28 -12 54 -48 61 -58 46 -67 -9 -6 -9 -8
0 -8 6 0 15 5 18 11 11 16 46 -21 40 -42 -3 -9 0 -21 6 -25 8 -4 9 -3 5 4 -4
7 -1 12 9 12 9 0 13 -5 9 -11 -4 -7 2 -9 17 -7 14 2 23 -2 22 -8 -1 -7 6 -19
16 -28 16 -15 19 -15 24 -2 4 11 -35 47 -128 122 -74 59 -137 114 -139 123 -2
9 -19 173 -37 364 l-34 348 -180 121 c-99 67 -182 122 -184 124 -2 1 18 28 43
60 26 31 43 60 39 65 -4 4 -111 51 -238 104 -126 54 -233 99 -236 101 -3 1
-208 -269 -455 -602z m1213 -106 c-3 -8 -6 -5 -6 6 -1 11 2 17 5 13 3 -3 4
-12 1 -19z m40 -540 c-3 -7 -5 -2 -5 12 0 14 2 19 5 13 2 -7 2 -19 0 -25z
m-1151 -313 c1 -8 -4 -11 -11 -8 -8 2 -11 11 -8 19 6 16 16 11 19 -11z m1219
-483 c-3 -3 -11 0 -18 7 -9 10 -8 11 6 5 10 -3 15 -9 12 -12z m-5732 -1011
c282 -73 521 -272 643 -537 65 -140 78 -208 78 -399 0 -156 -2 -177 -27 -258
-103 -334 -343 -570 -678 -668 -106 -30 -316 -38 -430 -14 -193 39 -349 123
-490 264 -202 202 -299 448 -286 721 17 363 229 675 564 832 171 80 442 106
626 59z m1200 -409 c130 -97 321 -288 417 -416 285 -382 429 -812 430 -1286 0
-258 -29 -447 -106 -680 -289 -873 -1117 -1471 -2036 -1470 -721 1 -1383 359
-1791 967 -108 162 -219 403 -271 589 -170 608 -71 1245 274 1769 63 95 194
259 237 298 20 17 20 17 5 -55 -21 -107 -20 -368 2 -488 131 -709 749 -1205
1466 -1177 365 14 689 156 950 417 202 201 330 438 392 723 29 136 32 417 5
550 -20 98 -66 245 -97 308 -11 24 -20 44 -20 46 0 8 47 -23 143 -95z m-4144
-309 c-143 -180 -312 -459 -417 -689 -149 -326 -243 -642 -292 -986 -31 -221
-39 -345 -35 -578 4 -240 22 -413 65 -635 283 -1447 1437 -2581 2894 -2845
304 -55 723 -70 1021 -36 686 78 1310 335 1854 765 446 351 835 857 1058 1376
284 660 367 1368 242 2075 -22 121 -77 345 -103 419 -29 81 -8 54 44 -56 282
-593 413 -1196 397 -1831 -12 -502 -113 -972 -306 -1431 -489 -1161 -1496
-2031 -2716 -2346 -147 -38 -434 -82 -760 -116 -121 -13 -472 -7 -640 11
-1277 134 -2418 871 -3067 1980 -573 978 -701 2156 -351 3245 167 521 453
1010 841 1438 95 105 314 317 327 317 3 0 -22 -35 -56 -77z m652 15 c-88 -135
-198 -358 -262 -531 -41 -111 -103 -357 -125 -497 -23 -145 -27 -594 -6 -735
60 -398 193 -754 399 -1070 432 -660 1104 -1078 1893 -1177 133 -16 463 -16
600 0 404 50 808 199 1140 420 604 403 1014 1031 1134 1737 42 244 46 578 11
815 -21 144 -82 386 -130 516 -44 120 -178 395 -234 482 -23 34 -41 66 -41 69
0 11 49 -39 150 -152 402 -454 655 -980 755 -1571 83 -485 44 -1009 -110
-1478 -166 -509 -486 -1004 -873 -1349 -465 -415 -992 -671 -1588 -772 -991
-168 -2008 158 -2724 875 -488 487 -788 1087 -892 1783 -30 197 -32 628 -5
822 96 680 366 1250 823 1743 53 56 98 102 101 102 3 0 -5 -15 -16 -32z
m-3313 -5385 c-10 -2 -28 -2 -40 0 -13 2 -5 4 17 4 22 1 32 -1 23 -4z m49
-155 c-3 -7 -5 -2 -5 12 0 14 2 19 5 13 2 -7 2 -19 0 -25z m-310 -250 c-3 -8
-6 -5 -6 6 -1 11 2 17 5 13 3 -3 4 -12 1 -19z"/>
<path d="M42995 32541 c3 -6 10 -9 15 -6 4 3 11 0 13 -5 3 -6 4 -5 3 2 -1 7
-11 15 -21 16 -11 3 -15 0 -10 -7z"/>
<path d="M43290 32510 c-9 -6 -10 -10 -3 -10 6 0 15 5 18 10 8 12 4 12 -15 0z"/>
<path d="M42934 32475 c-3 -12 -4 -25 -3 -31 4 -22 -2 -33 -16 -28 -13 5 -13
9 -3 23 7 9 0 5 -15 -8 -15 -14 -27 -29 -27 -35 0 -6 5 -3 11 7 8 13 14 15 29
7 14 -8 21 -4 35 16 12 18 14 29 6 37 -7 7 -6 14 6 22 14 11 14 12 -1 12 -9 0
-19 -10 -22 -22z"/>
<path d="M43288 32483 c7 -3 16 -2 19 1 4 3 -2 6 -13 5 -11 0 -14 -3 -6 -6z"/>
<path d="M43370 32440 c0 -5 5 -10 11 -10 5 0 7 5 4 10 -3 6 -8 10 -11 10 -2
0 -4 -4 -4 -10z"/>
<path d="M42820 32330 c-9 -6 -10 -10 -3 -10 6 0 15 5 18 10 8 12 4 12 -15 0z"/>
<path d="M13295 32298 c-8 -24 -25 -295 -25 -396 l0 -102 963 2 962 3 3 65 c4
67 -15 378 -25 418 l-5 22 -934 0 c-739 0 -936 -3 -939 -12z"/>
<path d="M28826 32288 c-8 -38 -15 -145 -22 -315 l-7 -163 969 0 969 0 -6 157
c-4 87 -10 200 -14 251 l-8 92 -938 0 -939 0 -4 -22z"/>
<path d="M42744 32235 c-4 -11 -17 -28 -29 -37 -15 -13 -17 -19 -8 -28 6 -7
17 -9 23 -5 9 6 9 9 -1 16 -10 6 -7 12 10 27 13 10 21 25 19 33 -4 11 -8 9
-14 -6z"/>
<path d="M42775 32239 c-4 -6 -4 -13 -1 -16 3 -4 6 -1 6 6 0 7 5 9 12 5 7 -4
8 -3 4 4 -9 15 -13 15 -21 1z"/>
<path d="M42757 32203 c-4 -3 -7 -11 -7 -17 0 -6 5 -5 12 2 6 6 9 14 7 17 -3
3 -9 2 -12 -2z"/>
<path d="M42666 32135 c-2 -7 1 -16 9 -19 7 -2 16 1 19 9 2 7 -1 16 -9 19 -7
2 -16 -1 -19 -9z"/>
<path d="M42706 32123 c-6 -14 -5 -15 5 -6 7 7 10 15 7 18 -3 3 -9 -2 -12 -12z"/>
<path d="M43456 32094 c-4 -9 -4 -19 -1 -22 2 -3 7 3 11 12 4 9 4 19 1 22 -2
3 -7 -3 -11 -12z"/>
<path d="M42606 32061 c-16 -17 -16 -19 0 -25 11 -4 15 -2 11 8 -3 7 0 19 6
25 6 6 9 11 6 11 -3 0 -14 -8 -23 -19z"/>
<path d="M42632 32040 c0 -14 2 -19 5 -12 2 6 2 18 0 25 -3 6 -5 1 -5 -13z"/>
<path d="M42575 32010 c-3 -6 1 -7 9 -4 18 7 21 14 7 14 -6 0 -13 -4 -16 -10z"/>
<path d="M42522 31938 c2 -5 8 -9 13 -9 5 0 11 4 13 9 1 5 -4 9 -13 9 -9 0
-14 -4 -13 -9z"/>
<path d="M43456 31937 c3 -10 9 -15 12 -12 3 3 0 11 -7 18 -10 9 -11 8 -5 -6z"/>
<path d="M43482 31865 c0 -16 2 -22 5 -12 2 9 2 23 0 30 -3 6 -5 -1 -5 -18z"/>
<path d="M42428 31818 c-4 -10 -3 -20 3 -23 5 -4 7 -11 4 -16 -4 -5 1 -9 11
-9 12 0 14 3 6 13 -5 6 -12 21 -14 32 -3 18 -4 18 -10 3z"/>
<path d="M42456 31817 c3 -10 9 -15 12 -12 3 3 0 11 -7 18 -10 9 -11 8 -5 -6z"/>
<path d="M42377 31759 c-3 -10 -1 -17 3 -14 5 3 11 -1 14 -7 3 -7 4 -4 3 7 -1
13 3 19 13 17 8 -2 11 0 7 4 -15 15 -35 12 -40 -7z"/>
<path d="M42333 31710 c-13 -20 -5 -34 13 -22 11 7 15 42 5 42 -4 0 -12 -9
-18 -20z"/>
<path d="M42287 31653 c-4 -3 -7 -11 -7 -17 0 -6 5 -5 12 2 6 6 9 14 7 17 -3
3 -9 2 -12 -2z"/>
<path d="M42230 31560 c0 -5 4 -10 9 -10 6 0 13 5 16 10 3 6 -1 10 -9 10 -9 0
-16 -4 -16 -10z"/>
<path d="M43800 31501 c0 -5 6 -12 13 -14 7 -3 6 -6 -5 -6 -9 -1 -19 -5 -22
-10 -4 -5 3 -7 14 -4 12 3 20 0 20 -6 0 -7 -4 -10 -9 -6 -5 3 -12 1 -15 -4 -4
-5 1 -8 11 -7 9 2 19 10 23 20 5 16 7 16 21 -1 9 -10 19 -26 22 -35 4 -11 13
-16 24 -12 16 5 16 4 2 -5 -9 -6 -26 -9 -38 -6 -12 2 -19 0 -16 -6 4 -5 13 -9
21 -9 9 0 13 -5 9 -12 -4 -7 0 -5 9 6 8 10 20 15 26 11 8 -5 5 -12 -7 -22 -17
-13 -17 -13 3 -4 12 6 24 8 27 5 3 -3 13 -7 24 -8 10 -2 17 -10 17 -18 -1 -11
5 -14 19 -10 14 3 18 1 13 -7 -4 -6 -4 -11 1 -10 14 4 63 -24 57 -32 -3 -5 1
-9 8 -9 8 0 20 -9 28 -19 7 -11 18 -17 23 -14 6 4 7 1 3 -6 -5 -7 -15 -10 -23
-7 -8 4 -11 1 -7 -5 3 -6 17 -8 31 -4 16 4 22 2 18 -5 -4 -6 -1 -9 7 -8 7 2
12 -5 12 -15 -2 -13 1 -15 11 -7 10 8 18 4 34 -16 12 -15 21 -23 21 -19 0 4 7
2 15 -5 8 -7 12 -16 9 -21 -3 -5 3 -6 12 -2 13 5 15 3 9 -7 -5 -8 -4 -11 3 -6
6 3 13 2 17 -4 3 -5 1 -10 -5 -10 -6 0 -8 -5 -4 -11 5 -8 9 -8 14 1 5 8 10 9
14 2 4 -6 -2 -15 -11 -21 -10 -6 -12 -11 -5 -11 18 0 27 4 25 13 -4 9 11 9 20
0 4 -3 2 -12 -4 -19 -8 -10 -5 -12 15 -8 18 3 26 0 26 -10 0 -7 7 -19 15 -26
8 -7 13 -16 10 -20 -3 -4 2 -10 10 -13 9 -4 12 -1 8 9 -7 20 10 17 29 -5 9
-10 43 -38 77 -62 46 -32 58 -46 50 -55 -8 -10 -6 -12 8 -9 11 2 26 -1 34 -6
12 -7 12 -12 1 -30 -12 -19 -12 -21 1 -16 9 3 18 1 21 -6 4 -7 4 -2 2 11 -3
15 0 22 7 19 7 -2 12 -10 12 -18 0 -8 5 -14 12 -14 15 0 26 -12 29 -31 2 -10
-3 -14 -12 -10 -9 3 -12 2 -9 -5 4 -6 13 -8 21 -5 7 3 18 -3 23 -12 6 -9 11
-12 11 -6 0 5 -5 15 -12 22 -8 8 -8 12 -1 12 15 0 34 -25 25 -35 -4 -5 -1 -5
6 -1 7 4 23 -1 37 -12 19 -15 21 -22 12 -32 -9 -10 -9 -11 1 -6 6 4 12 3 12
-3 0 -5 -5 -11 -12 -13 -7 -3 -5 -7 6 -11 10 -4 15 -3 11 3 -3 6 -1 10 6 10 8
0 7 5 -2 17 -13 15 -12 15 8 2 16 -9 19 -16 10 -21 -11 -7 -3 -12 15 -9 4 0
17 -7 28 -16 19 -16 19 -18 3 -25 -14 -6 -13 -7 5 -5 12 1 23 6 24 12 2 14
-955 775 -969 770 -7 -2 -15 1 -19 7 -5 7 -2 8 7 4 8 -4 1 4 -14 18 -16 15
-33 23 -39 20 -6 -4 -8 -3 -5 3 4 6 -11 24 -33 42 -41 33 -50 37 -50 22z"/>
<path d="M43314 31268 c-4 -7 -3 -10 1 -5 5 4 18 -1 29 -10 21 -18 21 -18 2 5
-22 26 -23 26 -32 10z"/>
<path d="M43424 31169 c-3 -6 -1 -16 4 -21 8 -8 11 -5 9 11 -1 24 -3 25 -13
10z"/>
<path d="M44164 31158 c3 -21 16 -38 29 -38 7 0 4 5 -6 11 -9 6 -15 14 -12 19
3 5 1 11 -4 14 -5 4 -8 0 -7 -6z"/>
<path d="M44217 31129 c7 -7 15 -10 18 -7 3 3 -2 9 -12 12 -14 6 -15 5 -6 -5z"/>
<path d="M44246 31077 c3 -10 9 -15 12 -12 3 3 0 11 -7 18 -10 9 -11 8 -5 -6z"/>
<path d="M43636 31002 c-3 -4 4 -13 14 -20 11 -6 21 -8 24 -4 3 4 -4 13 -14
20 -11 6 -21 8 -24 4z"/>
<path d="M43595 30980 c3 -5 10 -10 16 -10 5 0 9 5 9 10 0 6 -7 10 -16 10 -8
0 -12 -4 -9 -10z"/>
<path d="M43733 30944 c0 -13 54 -17 62 -4 3 4 -5 6 -17 2 -12 -3 -19 -1 -15
4 3 5 -2 10 -12 10 -10 0 -18 -5 -18 -12z"/>
<path d="M43810 30890 c18 -16 36 -27 39 -24 7 7 -49 54 -63 54 -5 0 5 -13 24
-30z"/>
<path d="M44506 30905 c10 -8 23 -15 28 -15 6 0 1 7 -10 15 -10 8 -23 15 -28
15 -6 0 -1 -7 10 -15z"/>
<path d="M43885 30840 c3 -5 13 -10 21 -10 8 0 12 5 9 10 -3 6 -13 10 -21 10
-8 0 -12 -4 -9 -10z"/>
<path d="M44564 30819 c0 -13 3 -15 13 -7 7 6 13 12 13 13 0 2 -6 5 -13 8 -7
3 -13 -3 -13 -14z"/>
<path d="M44648 30773 c7 -3 16 -2 19 1 4 3 -2 6 -13 5 -11 0 -14 -3 -6 -6z"/>
<path d="M44040 30751 c0 -5 7 -11 15 -15 8 -3 15 -1 15 3 0 5 -7 11 -15 15
-8 3 -15 1 -15 -3z"/>
<path d="M44655 30750 c3 -5 8 -10 11 -10 2 0 4 5 4 10 0 6 -5 10 -11 10 -5 0
-7 -4 -4 -10z"/>
<path d="M44172 30704 c-7 -8 -10 -19 -7 -24 9 -14 25 -12 23 3 -2 6 3 11 11
9 12 -3 12 0 1 12 -15 19 -12 19 -28 0z"/>
<path d="M44200 30662 c0 -4 9 -13 20 -19 16 -11 18 -10 14 1 -6 15 -34 30
-34 18z"/>
<path d="M44274 30558 c-4 -5 -3 -12 0 -15 3 -4 6 0 6 8 0 11 2 12 9 1 7 -11
9 -11 14 0 6 16 -20 21 -29 6z"/>
<path d="M44865 30550 c-17 -19 -19 -19 -37 -4 -11 10 -18 12 -18 6 0 -7 4
-12 10 -12 5 0 7 -6 4 -14 -11 -29 13 -23 39 10 30 37 31 46 2 14z"/>
<path d="M44279 30503 c0 -10 -2 -25 -4 -33 -1 -8 5 -22 13 -30 14 -13 15 -12
8 5 -5 11 -8 32 -7 48 1 15 -1 27 -4 27 -3 0 -5 -8 -6 -17z"/>
<path d="M44800 30492 c0 -5 -11 -27 -25 -48 l-26 -39 26 30 c45 53 45 54 35
60 -6 3 -10 2 -10 -3z"/>
<path d="M44745 30470 c-4 -6 -11 -8 -16 -5 -5 4 -9 4 -9 1 0 -3 9 -10 19 -16
14 -7 22 -7 27 2 5 7 3 8 -6 3 -10 -6 -12 -4 -7 8 7 19 2 23 -8 7z"/>
<path d="M44269 30408 c-1 -7 -3 -23 -4 -35 -1 -13 4 -28 11 -34 11 -9 14 -7
14 7 0 16 2 16 9 4 6 -8 8 -17 5 -21 -2 -4 0 -10 5 -14 12 -7 5 33 -8 49 -7 9
-7 17 2 26 6 8 2 6 -11 -5 l-23 -19 6 27 c4 15 4 27 1 27 -3 0 -7 -6 -7 -12z"/>
<path d="M44670 30340 c0 -11 4 -20 9 -20 5 0 7 9 4 20 -3 11 -7 20 -9 20 -2
0 -4 -9 -4 -20z"/>
<path d="M44330 30312 c0 -19 48 -64 61 -57 7 5 5 13 -5 24 -9 10 -13 21 -9
26 5 4 -1 5 -11 1 -12 -4 -23 -2 -28 6 -6 11 -8 11 -8 0z m51 -39 c13 -15 12
-15 -8 -4 -24 12 -29 21 -14 21 5 0 15 -7 22 -17z"/>
<path d="M44460 30225 c0 -9 -6 -12 -15 -9 -8 4 -15 4 -15 1 0 -16 31 -13 40
3 7 14 7 20 0 20 -5 0 -10 -7 -10 -15z"/>
<path d="M44572 30231 c-10 -6 -10 -10 2 -20 12 -10 15 -9 13 8 -1 12 -1 21
-2 21 0 0 -6 -4 -13 -9z"/>
<path d="M44535 30149 c-4 -6 -5 -12 -2 -15 2 -3 7 2 10 11 7 17 1 20 -8 4z"/>
<path d="M43261 29694 c0 -11 3 -14 6 -6 3 7 2 16 -1 19 -3 4 -6 -2 -5 -13z"/>
<path d="M43231 29594 c0 -11 3 -14 6 -6 3 7 2 16 -1 19 -3 4 -6 -2 -5 -13z"/>
<path d="M23809 29296 c-103 -28 -190 -103 -238 -205 l-26 -56 0 -290 0 -290
31 -65 c17 -36 47 -83 67 -106 142 -163 450 -290 820 -339 l47 -6 0 -375 0
-374 250 0 250 0 2 377 3 377 105 17 c214 34 388 92 535 178 103 60 213 167
251 246 l29 60 0 300 c0 288 -1 302 -22 348 -33 70 -113 149 -186 183 l-62 29
-905 2 c-696 1 -916 -1 -951 -11z m1995 -793 c-47 -193 -345 -358 -751 -417
l-43 -6 0 40 0 40 -250 0 -250 0 0 -41 0 -42 -62 7 c-231 26 -486 116 -625
220 -70 53 -131 136 -140 189 l-6 37 1067 0 1066 0 -6 -27z"/>
<path d="M42891 28444 c0 -11 3 -14 6 -6 3 7 2 16 -1 19 -3 4 -6 -2 -5 -13z"/>
<path d="M42861 28344 c0 -11 3 -14 6 -6 3 7 2 16 -1 19 -3 4 -6 -2 -5 -13z"/>
<path d="M42731 27904 c0 -11 3 -14 6 -6 3 7 2 16 -1 19 -3 4 -6 -2 -5 -13z"/>
<path d="M42701 27804 c0 -11 3 -14 6 -6 3 7 2 16 -1 19 -3 4 -6 -2 -5 -13z"/>
<path d="M22135 27423 c-22 -2 -355 -35 -740 -73 -1189 -119 -1417 -136 -3370
-257 l-280 -17 -1325 -865 c-729 -475 -1341 -873 -1360 -885 -22 -12 1 14 60
70 205 194 1455 1371 1596 1504 56 52 102 97 103 100 1 3 -16 7 -36 8 -30 2
-2507 234 -2612 245 -22 2 -25 -3 -43 -91 -89 -440 -475 -831 -1167 -1181
-486 -246 -1097 -457 -1896 -656 l-270 -67 -130 6 c-71 4 -179 9 -240 11 -60
3 -155 8 -210 10 -163 8 -540 24 -680 29 -71 3 -207 8 -301 12 -125 5 -173 4
-178 -5 -5 -7 -54 37 -133 119 -144 149 -238 229 -404 339 -368 245 -792 371
-1249 371 -361 0 -691 -75 -1005 -229 -702 -345 -1181 -1022 -1266 -1791 -7
-58 -13 -106 -14 -108 -2 -2 -374 18 -585 32 -259 18 -385 18 -421 3 -90 -38
-131 -170 -81 -264 18 -33 70 -72 110 -82 20 -5 120 -12 222 -16 466 -17 749
-31 755 -37 3 -3 12 -50 20 -104 91 -650 447 -1216 998 -1588 131 -88 389
-214 542 -265 242 -80 456 -112 735 -112 806 2 1530 414 1950 1111 200 331
304 693 317 1096 11 351 -47 665 -183 979 -41 96 -122 253 -144 279 -5 7 -8
15 -6 17 3 2 94 -1 203 -7 109 -6 257 -14 328 -18 72 -3 164 -9 205 -13 l75
-6 229 -251 c126 -138 862 -941 1635 -1783 l1405 -1533 528 0 528 0 -5 38 c-3
20 -30 321 -60 667 -31 347 -62 704 -70 795 -8 91 -46 525 -85 965 -38 440
-72 820 -76 844 l-6 43 79 -6 c43 -3 123 -8 178 -11 55 -3 176 -10 268 -15
l168 -10 207 119 c114 65 824 472 1579 904 l1371 787 304 20 c986 65 1633 102
2083 120 281 11 575 22 655 25 80 3 192 8 250 10 58 3 287 12 510 20 634 23
637 23 731 70 60 31 133 113 153 172 51 148 -12 306 -149 375 -64 33 -166 43
-300 31z m-15035 -2124 c111 -86 211 -180 204 -191 -4 -6 -2 -8 3 -5 6 4 36
-20 68 -54 50 -53 55 -62 43 -77 -11 -15 -11 -16 3 -5 13 11 19 10 33 -6 10
-11 15 -25 11 -31 -3 -6 -1 -9 6 -8 17 4 117 -144 173 -256 51 -103 80 -180
101 -268 l13 -58 -64 -51 c-57 -45 -67 -49 -82 -38 -15 12 -16 12 -4 -2 10
-14 7 -20 -22 -43 -38 -28 -52 -33 -40 -14 20 31 11 46 -23 43 -19 -2 -38 -6
-41 -10 -4 -4 7 -4 24 -1 23 5 33 3 37 -8 4 -9 2 -18 -4 -21 -5 -4 -7 -10 -4
-15 3 -5 -5 -16 -17 -24 -21 -14 -29 -12 -97 22 -68 34 -82 37 -155 37 -81 -1
-156 -23 -196 -60 -9 -8 -29 -12 -47 -10 -22 3 -36 -2 -49 -17 -11 -12 -13
-18 -5 -13 11 6 13 4 8 -8 -4 -11 -2 -14 8 -11 7 3 12 14 10 24 -3 13 2 17 20
16 22 -1 22 -1 -8 -36 -17 -19 -39 -34 -49 -34 -10 1 -18 -5 -18 -14 0 -12 3
-12 15 -2 20 16 19 7 -4 -38 -10 -20 -21 -49 -25 -64 -4 -17 -13 -28 -24 -28
-9 0 -249 14 -532 30 -283 16 -535 30 -559 30 l-44 0 7 63 c10 85 32 186 62
285 21 70 27 82 40 72 7 -7 14 -20 15 -29 0 -9 3 -11 5 -4 3 6 -2 23 -11 36
-15 23 -14 28 18 98 34 75 140 254 157 264 10 6 8 -14 -3 -32 -9 -14 1 -43 15
-43 6 0 5 6 -2 15 -8 10 -9 19 -2 28 5 6 8 22 6 33 -4 25 141 188 158 177 6
-3 8 -1 4 5 -6 10 99 112 117 112 4 0 6 -4 3 -8 -3 -5 1 -9 9 -9 11 0 12 4 4
13 -8 9 -3 17 18 30 15 10 41 28 56 41 38 31 51 29 31 -4 l-16 -28 20 25 c11
13 18 28 16 32 -3 4 9 14 27 23 23 12 29 13 24 3 -3 -7 0 -6 7 3 40 48 360
166 458 168 15 0 50 -19 90 -50z m3849 -319 c300 -16 582 -32 626 -35 44 -3
375 -21 735 -41 1187 -64 1480 -81 1484 -85 4 -4 38 -376 131 -1434 19 -214
41 -466 50 -560 73 -824 95 -1082 95 -1097 0 -17 -21 -18 -332 -18 l-333 1
-1505 1641 c-828 903 -1506 1645 -1508 1650 -4 10 -76 13 557 -22z m-3204
-1099 c-60 -153 -213 -292 -420 -380 -296 -125 -798 -201 -1332 -201 -105 0
-123 2 -123 16 0 9 5 12 12 8 7 -4 8 -3 4 5 -4 6 -11 9 -16 6 -10 -6 -50 116
-74 224 l-15 64 152 -6 c1198 -50 1137 -47 1214 -73 39 -13 94 -24 121 -24
148 0 292 109 334 253 12 40 25 57 87 107 40 33 74 60 76 60 2 0 -7 -27 -20
-59z"/>
<path d="M7015 25321 c1 -8 7 -17 13 -19 7 -2 10 -7 8 -11 -3 -4 2 -8 11 -8
12 0 11 5 -7 19 -12 10 -17 18 -11 18 6 0 11 4 11 8 0 5 -6 9 -14 9 -7 0 -13
-7 -11 -16z"/>
<path d="M6945 25320 c-3 -5 -16 -11 -28 -11 -18 -1 -18 -2 -4 -6 10 -3 24 1
32 7 10 8 15 9 15 2 0 -6 -8 -15 -17 -21 -16 -9 -16 -10 4 -8 12 0 19 5 17 9
-3 4 2 8 11 8 15 0 15 2 1 15 -17 18 -23 19 -31 5z"/>
<path d="M6868 25293 c7 -3 16 -2 19 1 4 3 -2 6 -13 5 -11 0 -14 -3 -6 -6z"/>
<path d="M6746 25264 c-10 -7 -24 -11 -30 -7 -8 4 -8 3 0 -6 8 -9 17 -8 38 3
15 7 24 16 19 19 -4 3 -17 -1 -27 -9z"/>
<path d="M7123 25249 c-2 -23 3 -25 10 -4 4 8 3 16 -1 19 -4 3 -9 -4 -9 -15z"/>
<path d="M6660 25225 c-11 -13 -10 -14 4 -9 9 3 16 10 16 15 0 13 -6 11 -20
-6z"/>
<path d="M7134 25217 c-18 -21 -18 -22 0 -5 17 15 21 15 42 1 13 -8 24 -21 24
-28 0 -15 35 -47 43 -39 7 7 -37 57 -69 79 -20 13 -24 12 -40 -8z"/>
<path d="M6705 25220 c4 -6 11 -8 16 -5 14 9 11 15 -7 15 -8 0 -12 -5 -9 -10z"/>
<path d="M6755 25210 c-3 -5 -2 -10 4 -10 5 0 13 5 16 10 3 6 2 10 -4 10 -5 0
-13 -4 -16 -10z"/>
<path d="M7268 25135 c5 -11 12 -27 15 -35 5 -13 6 -13 6 1 1 8 -6 24 -15 35
-15 19 -15 19 -6 -1z"/>
<path d="M7301 25081 c-7 -5 -10 -14 -6 -20 5 -9 10 -9 21 0 26 22 14 38 -15
20z"/>
<path d="M6386 25072 c-2 -4 4 -8 15 -8 10 0 19 4 19 8 0 4 -6 8 -14 8 -8 0
-17 -4 -20 -8z"/>
<path d="M6460 25059 c0 -5 5 -7 10 -4 6 3 10 8 10 11 0 2 -4 4 -10 4 -5 0
-10 -5 -10 -11z"/>
<path d="M7337 25055 c-5 -11 0 -15 16 -15 12 0 18 4 12 8 -5 4 -13 11 -16 15
-4 4 -9 1 -12 -8z"/>
<path d="M7369 24998 c-8 -27 -6 -38 5 -29 7 6 17 7 22 3 4 -4 2 1 -5 11 -12
16 -20 21 -22 15z"/>
<path d="M6274 24978 c-4 -7 -4 -10 1 -6 4 4 13 3 20 -2 8 -7 12 -5 12 5 0 18
-23 20 -33 3z"/>
<path d="M7441 24944 c0 -11 3 -14 6 -6 3 7 2 16 -1 19 -3 4 -6 -2 -5 -13z"/>
<path d="M6220 24920 c8 -5 10 -10 4 -10 -6 0 -11 -7 -11 -16 0 -15 2 -14 13
1 14 19 10 35 -9 35 -7 0 -6 -4 3 -10z"/>
<path d="M7440 24911 c0 -6 4 -13 10 -16 6 -3 7 1 4 9 -7 18 -14 21 -14 7z"/>
<path d="M6185 24901 c-3 -5 -2 -12 3 -15 5 -3 9 1 9 9 0 17 -3 19 -12 6z"/>
<path d="M6145 24848 c-4 -16 -11 -26 -15 -23 -4 3 -10 -2 -14 -10 -3 -8 -1
-15 4 -15 14 0 43 47 37 62 -2 7 -8 1 -12 -14z"/>
<path d="M7524 24818 c-4 -6 -3 -8 3 -5 12 8 24 -16 19 -35 -1 -7 -1 -9 2 -5
2 5 11 -1 19 -12 8 -12 11 -26 8 -31 -3 -6 -1 -10 4 -10 17 0 13 13 -15 64
-28 50 -29 51 -40 34z"/>
<path d="M6026 24702 c-2 -4 4 -14 15 -20 19 -12 19 -11 9 8 -12 22 -16 24
-24 12z"/>
<path d="M7600 24685 c0 -8 2 -15 4 -15 2 0 6 7 10 15 3 8 1 15 -4 15 -6 0
-10 -7 -10 -15z"/>
<path d="M6006 24658 c3 -4 9 -8 15 -8 5 0 9 4 9 8 0 5 -7 9 -15 9 -8 0 -12
-4 -9 -9z"/>
<path d="M6056 24652 c-3 -5 1 -9 9 -9 8 0 12 4 9 9 -3 4 -7 8 -9 8 -2 0 -6
-4 -9 -8z"/>
<path d="M7621 24643 c9 -10 19 -25 22 -33 4 -11 6 -9 6 5 1 24 -9 39 -29 43
-12 3 -12 0 1 -15z"/>
<path d="M5969 24603 c-1 -5 -1 -12 0 -17 1 -5 -4 -16 -12 -25 -8 -9 -17 -23
-21 -31 -4 -8 1 -5 12 7 11 12 22 19 26 16 4 -4 6 7 4 25 -2 30 -7 41 -9 25z"/>
<path d="M7660 24581 c0 -6 4 -13 10 -16 6 -3 7 1 4 9 -7 18 -14 21 -14 7z"/>
<path d="M7681 24535 c1 -19 18 -51 18 -35 0 8 -4 22 -9 30 -5 8 -9 11 -9 5z"/>
<path d="M5912 24440 c0 -14 2 -19 5 -12 2 6 2 18 0 25 -3 6 -5 1 -5 -13z"/>
<path d="M7710 24431 c0 -6 4 -13 10 -16 6 -3 7 1 4 9 -7 18 -14 21 -14 7z"/>
<path d="M7715 24371 c-3 -11 -11 -21 -16 -21 -5 0 -9 -4 -9 -10 0 -5 7 -6 17
-3 12 5 14 3 8 -8 -8 -12 -6 -12 9 0 12 10 14 16 5 21 -8 5 -8 9 0 11 6 3 7 9
2 18 -7 11 -10 9 -16 -8z"/>
<path d="M5860 24369 c0 -5 5 -7 10 -4 6 3 10 8 10 11 0 2 -4 4 -10 4 -5 0
-10 -5 -10 -11z"/>
<path d="M5855 24339 c-9 -14 -2 -20 14 -10 8 6 9 11 3 15 -6 3 -14 1 -17 -5z"/>
<path d="M7623 24285 c0 -14 3 -25 6 -25 4 0 7 11 7 25 0 14 -3 25 -7 25 -3 0
-6 -11 -6 -25z"/>
<path d="M7656 24288 c3 -5 10 -6 15 -3 13 9 11 12 -6 12 -8 0 -12 -4 -9 -9z"/>
<path d="M5827 24261 c-2 -10 -1 -24 3 -30 4 -7 7 1 8 18 1 35 -3 40 -11 12z"/>
<path d="M7580 24229 c0 -5 5 -7 10 -4 6 3 10 8 10 11 0 2 -4 4 -10 4 -5 0
-10 -5 -10 -11z"/>
<path d="M7104 24215 c13 -10 15 -15 6 -15 -7 0 -11 -2 -8 -5 3 -3 13 -3 22 1
15 6 15 7 -1 20 -10 7 -22 13 -28 13 -5 0 -1 -6 9 -14z"/>
<path d="M7071 24213 c-1 -6 -8 -19 -17 -27 -16 -17 -10 -19 17 -8 12 5 14 13
8 27 -4 11 -8 15 -8 8z"/>
<path d="M5820 24210 c-7 -18 -5 -49 3 -41 5 5 7 17 4 27 -3 11 -6 17 -7 14z"/>
<path d="M7410 24203 c0 -2 62 -33 67 -33 2 0 1 5 -3 11 -3 6 -2 14 4 18 6 3
-7 6 -29 6 -21 0 -39 0 -39 -2z"/>
<path d="M5822 24095 c0 -16 2 -22 5 -12 2 9 2 23 0 30 -3 6 -5 -1 -5 -18z"/>
<path d="M6882 24055 c0 -11 3 -29 8 -40 11 -25 11 1 0 35 -6 20 -8 21 -8 5z"/>
<path d="M6900 24052 c0 -4 9 -15 20 -25 11 -9 20 -13 20 -9 0 4 -9 15 -20 25
-11 9 -20 13 -20 9z"/>
<path d="M6145 23980 c4 -6 11 -8 16 -5 14 9 11 15 -7 15 -8 0 -12 -5 -9 -10z"/>
<path d="M6200 23980 c-13 -9 -13 -10 0 -9 8 0 24 4 35 9 l20 9 -20 0 c-11 0
-27 -4 -35 -9z"/>
<path d="M6310 23970 c0 -5 12 -10 26 -10 14 0 23 4 19 10 -3 6 -15 10 -26 10
-10 0 -19 -4 -19 -10z"/>
<path d="M6407 23969 c8 -8 16 -8 30 0 16 9 14 10 -11 11 -22 0 -27 -3 -19
-11z"/>
<path d="M6488 23963 c6 -2 18 -2 25 0 6 3 1 5 -13 5 -14 0 -19 -2 -12 -5z"/>
<path d="M6888 23963 c7 -3 16 -2 19 1 4 3 -2 6 -13 5 -11 0 -14 -3 -6 -6z"/>
<path d="M7724 23886 c-3 -9 -10 -13 -15 -10 -5 3 -12 -2 -15 -10 -3 -9 -12
-16 -19 -16 -6 0 -20 -10 -31 -22 -10 -12 -13 -18 -5 -13 11 6 13 4 8 -8 -3
-9 -2 -19 4 -23 6 -4 6 -12 -2 -22 -10 -13 -9 -13 7 1 16 15 17 19 4 27 -13 9
-13 10 0 11 8 1 21 1 28 0 15 -2 16 15 1 25 -6 3 -15 1 -19 -6 -5 -9 -9 -9
-14 -1 -8 13 18 26 34 16 5 -3 10 2 10 11 0 10 3 14 7 11 3 -4 13 2 21 14 8
11 11 23 8 26 -3 3 -8 -2 -12 -11z"/>
<path d="M7615 23770 c-3 -6 1 -7 9 -4 18 7 21 14 7 14 -6 0 -13 -4 -16 -10z"/>
<path d="M7620 23740 c0 -13 18 -22 24 -11 3 5 -1 11 -9 15 -8 3 -15 1 -15 -4z"/>
<path d="M7604 23728 c3 -10 2 -18 -2 -18 -4 0 -13 -9 -20 -20 -12 -19 -11
-20 8 -8 25 16 31 31 18 49 -8 11 -9 10 -4 -3z"/>
<path d="M5908 23603 c7 -3 16 -2 19 1 4 3 -2 6 -13 5 -11 0 -14 -3 -6 -6z"/>
<path d="M6274 23569 c22 -5 43 -6 47 -2 4 5 -13 9 -39 10 l-47 1 39 -9z"/>
<path d="M6517 23568 c2 -5 13 -8 23 -8 10 0 21 3 23 8 3 4 -8 7 -23 7 -15 0
-26 -3 -23 -7z"/>
<path d="M6623 23563 c9 -2 25 -2 35 0 9 3 1 5 -18 5 -19 0 -27 -2 -17 -5z"/>
<path d="M6753 23563 c9 -2 23 -2 30 0 6 3 -1 5 -18 5 -16 0 -22 -2 -12 -5z"/>
<path d="M7076 23552 c-3 -6 1 -13 10 -16 23 -9 28 -2 10 13 -8 7 -17 8 -20 3z"/>
<path d="M5825 23540 c-3 -5 -1 -10 4 -10 6 0 11 5 11 10 0 6 -2 10 -4 10 -3
0 -8 -4 -11 -10z"/>
<path d="M6305 23530 c-13 -6 -15 -9 -5 -9 8 0 22 4 30 9 18 12 2 12 -25 0z"/>
<path d="M6850 23535 c0 -8 29 -12 39 -5 9 5 4 8 -13 8 -14 0 -26 -2 -26 -3z"/>
<path d="M7123 23525 c0 -9 10 -15 23 -15 12 0 31 -3 41 -6 10 -3 0 4 -21 15
-47 25 -43 24 -43 6z"/>
<path d="M7211 23493 c-18 -8 -31 -16 -28 -19 3 -3 19 2 36 11 18 9 36 13 40
10 5 -3 20 -1 33 4 20 8 19 9 -12 8 -19 0 -50 -6 -69 -14z"/>
<path d="M7140 23460 c-12 -8 -11 -10 8 -10 12 0 22 5 22 10 0 13 -11 13 -30
0z"/>
<path d="M5891 23424 c0 -11 3 -14 6 -6 3 7 2 16 -1 19 -3 4 -6 -2 -5 -13z"/>
<path d="M7058 23433 c6 -2 18 -2 25 0 6 3 1 5 -13 5 -14 0 -19 -2 -12 -5z"/>
<path d="M5866 23394 c-4 -15 -3 -31 3 -37 7 -7 8 -2 4 13 -5 19 -3 22 12 16
16 -6 16 -4 4 11 -7 10 -14 19 -15 21 -1 2 -5 -9 -8 -24z"/>
<path d="M6867 23399 c7 -7 15 -10 18 -7 3 3 -2 9 -12 12 -14 6 -15 5 -6 -5z"/>
<path d="M6918 23403 c6 -2 18 -2 25 0 6 3 1 5 -13 5 -14 0 -19 -2 -12 -5z"/>
<path d="M24300 26025 c0 -386 -3 -505 -12 -505 -7 0 29 -24 80 -54 282 -167
421 -353 475 -634 14 -74 -3 -67 197 -82 134 -11 362 -44 382 -56 11 -7 10
624 -2 666 -20 73 -127 160 -197 160 l-23 0 0 505 0 505 -450 0 -450 0 0 -505z"/>
<path d="M26732 23585 c0 -16 2 -22 5 -12 2 9 2 23 0 30 -3 6 -5 -1 -5 -18z"/>
<path d="M26734 23535 c2 -11 7 -96 10 -190 4 -93 9 -224 11 -290 16 -375 45
-1304 61 -1955 10 -369 10 -1745 0 -2100 -25 -996 -55 -1666 -106 -2428 -11
-161 -23 -337 -26 -392 l-7 -100 -51 -15 c-179 -54 -579 -143 -831 -184 -587
-97 -1272 -122 -1845 -66 -85 8 -186 18 -223 21 -37 4 -70 10 -72 14 -3 4 21
11 53 15 132 16 410 102 474 147 14 10 36 39 48 64 55 113 -25 244 -149 244
-23 0 -101 -20 -174 -45 -210 -71 -329 -89 -597 -89 -189 0 -247 4 -359 23
-794 135 -1371 595 -1371 1090 0 47 5 113 10 146 16 90 13 317 -4 416 -41 229
-153 443 -326 623 -190 198 -437 352 -724 452 -119 41 -484 134 -641 163 -424
78 -722 102 -1265 102 -221 0 -457 6 -575 14 -349 25 -858 54 -1215 70 -190 8
-394 17 -455 20 -648 30 -2337 40 -2955 17 -1503 -56 -2591 -178 -3454 -386
-81 -20 -152 -36 -157 -36 -4 0 -11 16 -15 35 -3 19 -8 35 -10 35 -19 0 -164
-83 -164 -94 0 -7 7 -32 15 -55 13 -38 13 -42 -3 -48 -9 -4 -53 -21 -97 -38
l-80 -31 -34 23 c-26 18 -46 23 -90 22 l-56 -2 50 -6 c58 -8 80 -19 115 -56
22 -23 25 -36 25 -97 0 -113 34 -96 -765 -390 -728 -268 -741 -274 -767 -335
-24 -59 -6 -99 75 -168 109 -94 188 -169 168 -162 -30 12 -95 -12 -137 -50
-50 -45 -69 -80 -70 -130 l-1 -38 -10 32 c-15 47 -1 99 39 143 29 32 46 42 94
52 43 9 55 14 44 21 -27 15 -109 -11 -145 -46 -36 -35 -60 -83 -60 -120 0 -33
20 -87 32 -87 5 0 21 -9 35 -20 35 -27 77 -25 132 6 87 50 121 95 121 159 0
54 -19 82 -127 180 -163 148 -181 183 -121 229 44 32 100 55 448 181 332 120
674 252 860 331 138 58 164 81 190 161 15 47 16 48 99 80 46 18 87 31 91 28 3
-2 15 -32 25 -65 16 -53 21 -61 39 -56 12 3 51 10 88 16 l66 12 -10 29 c-6 17
-8 32 -5 35 15 15 435 109 704 158 775 142 1720 237 2823 286 567 25 1131 32
2015 27 506 -4 1033 -11 1170 -16 138 -5 348 -13 468 -17 119 -4 217 -10 217
-13 0 -4 -42 -19 -92 -35 -549 -166 -889 -429 -931 -719 -54 -373 372 -711
1128 -897 401 -99 802 -141 1320 -141 1093 1 2046 248 2437 632 38 37 70 64
72 60 28 -49 32 -336 6 -544 -21 -169 14 -369 95 -545 111 -240 354 -489 641
-658 266 -156 589 -271 917 -324 151 -25 413 -44 493 -36 44 5 108 -2 235 -24
936 -159 1840 -116 2944 141 94 22 177 42 186 45 13 4 18 25 23 107 16 249 27
386 36 442 5 33 12 112 14 175 3 63 14 246 25 405 77 1116 95 2170 60 3465
-18 699 -51 1342 -109 2170 -10 151 -22 318 -25 370 -12 215 -28 396 -37 410
-7 12 -8 11 -4 -5z m-7923 -4515 c212 -21 427 -76 553 -143 82 -43 163 -123
171 -171 12 -59 -2 -101 -50 -154 -83 -92 -271 -169 -523 -214 -110 -19 -161
-22 -382 -22 -221 0 -272 3 -382 22 -733 131 -777 500 -76 647 198 42 476 56
689 35z m1190 -149 c421 -119 727 -303 824 -496 43 -86 48 -191 12 -269 -91
-199 -389 -347 -887 -440 -369 -70 -641 -90 -1220 -90 -496 -1 -626 5 -945 44
-808 98 -1247 330 -1211 638 9 80 50 156 127 237 98 103 238 192 433 275 44
18 48 19 41 3 -56 -137 -4 -260 166 -397 383 -306 1084 -450 1689 -346 527 90
956 365 978 625 5 67 -20 127 -84 195 -26 27 -42 50 -37 50 5 0 56 -13 114
-29z"/>
<path d="M6648 20786 c-21 -7 -49 -21 -62 -30 -14 -9 -244 -289 -513 -623
-268 -335 -687 -857 -931 -1162 l-445 -553 -18 -162 c-26 -224 -56 -567 -69
-781 -6 -99 -13 -202 -15 -230 -13 -143 -17 -940 -6 -1160 41 -825 158 -1365
328 -1515 123 -108 222 -36 329 240 150 390 308 1316 421 2473 15 158 31 287
35 287 7 0 302 -246 1303 -1085 132 -111 834 -698 1560 -1306 726 -608 2011
-1683 2855 -2390 844 -707 1951 -1633 2460 -2059 911 -762 1153 -966 1196
-1005 12 -11 161 -137 332 -280 171 -143 309 -261 308 -262 -2 -2 -369 153
-597 251 l-86 37 -34 72 c-19 40 -51 103 -72 140 -21 37 -35 72 -32 78 4 5 1
8 -5 7 -7 -2 -43 40 -81 92 -342 471 -857 754 -1450 796 l-97 7 -478 351
c-462 340 -2051 1507 -4389 3226 -615 452 -1136 834 -1156 847 -46 30 -139 41
-194 23 -50 -16 -114 -75 -136 -125 -36 -79 -19 -187 39 -248 15 -16 132 -105
260 -199 127 -93 234 -173 236 -176 2 -4 -2 -59 -9 -122 -21 -174 -43 -477
-56 -740 -12 -267 -6 -1303 10 -1605 31 -573 86 -1248 116 -1403 25 -129 69
-255 140 -397 165 -331 443 -619 870 -901 439 -289 1015 -544 1732 -765 248
-76 809 -226 1008 -269 83 -18 157 -36 165 -40 8 -5 26 -37 39 -72 13 -34 48
-110 76 -168 399 -799 1297 -1215 2170 -1005 175 41 377 123 519 209 l58 36
3045 0 3046 0 68 -64 c150 -142 329 -233 536 -272 121 -23 344 -15 458 16 477
129 796 542 797 1030 0 180 -31 319 -108 475 -256 520 -886 739 -1410 491
-275 -131 -492 -377 -570 -649 l-18 -66 -86 -7 c-183 -15 -623 11 -932 56
-601 88 -1394 305 -2288 627 -129 47 -254 91 -277 100 l-41 14 26 57 c24 50
27 69 27 162 0 88 -4 113 -23 154 -45 98 -119 170 -219 213 -32 13 -46 22 -32
19 14 -3 239 -51 500 -106 261 -56 611 -130 779 -166 168 -35 343 -73 390 -84
47 -10 245 -53 440 -94 808 -171 1167 -247 1197 -256 l33 -8 145 198 145 198
0 688 c0 551 -3 699 -14 740 -34 130 -137 260 -252 321 -96 51 -164 63 -371
63 -101 0 -183 3 -183 8 0 4 -177 4 -392 1 -368 -5 -397 -7 -459 -27 -130 -43
-249 -144 -308 -261 -49 -96 -61 -165 -61 -353 l0 -168 -81 0 c-106 0 -1653
38 -1829 44 -74 3 -186 6 -247 6 l-113 0 -1 753 c-1 413 -4 889 -7 1057 l-7
305 -32 67 c-36 77 -94 144 -162 188 l-48 30 -6 70 c-7 83 -32 143 -83 200
-174 192 -508 85 -531 -171 l-6 -59 -36 0 c-54 0 -150 -27 -201 -57 -126 -74
-209 -203 -218 -338 -2 -41 -7 -75 -9 -75 -3 0 -86 60 -186 133 -781 572
-2266 1574 -4112 2774 -770 500 -1912 1231 -2303 1473 -77 48 -387 301 -1195
977 -601 503 -1096 920 -1101 927 -6 9 213 290 775 990 431 538 790 989 797
1003 38 71 22 186 -35 254 -54 63 -168 94 -245 65z m-1066 -3167 c-8 -144 -65
-675 -118 -1089 -112 -877 -250 -1569 -357 -1785 -29 -61 -66 -105 -86 -105
-78 0 -184 315 -246 734 -99 664 -100 1591 -5 2646 11 118 22 236 26 262 l6
47 391 -328 392 -328 -3 -54z m2997 -1764 c1990 -1277 4783 -3150 5585 -3745
l96 -71 0 -511 c0 -480 -1 -510 -17 -497 -32 26 -875 731 -5394 4514 -673 563
-684 573 -646 550 16 -9 185 -117 376 -240z m-1158 -2632 c13 -16 12 -17 -3
-4 -10 7 -18 15 -18 17 0 8 8 3 21 -13z m119 -90 c0 -7 -58 36 -66 49 -4 7 9
-1 29 -16 20 -16 37 -30 37 -33z m31 -20 c13 -16 12 -17 -3 -4 -17 13 -22 21
-14 21 2 0 10 -8 17 -17z m70 -50 c13 -17 13 -17 -6 -3 -11 8 -22 16 -24 17
-2 2 0 3 6 3 6 0 17 -8 24 -17z m40 -30 c13 -16 12 -17 -3 -4 -10 7 -18 15
-18 17 0 8 8 3 21 -13z m114 -86 c26 -25 -34 16 -65 43 l-35 32 45 -33 c25
-18 50 -37 55 -42z m96 -74 c13 -16 12 -17 -3 -4 -10 7 -18 15 -18 17 0 8 8 3
21 -13z m80 -60 c13 -16 12 -17 -3 -4 -17 13 -22 21 -14 21 2 0 10 -8 17 -17z
m40 -30 c13 -16 12 -17 -3 -4 -10 7 -18 15 -18 17 0 8 8 3 21 -13z m80 -60
c13 -16 12 -17 -3 -4 -17 13 -22 21 -14 21 2 0 10 -8 17 -17z m60 -50 c13 -16
12 -17 -3 -4 -17 13 -22 21 -14 21 2 0 10 -8 17 -17z m40 -30 c13 -16 12 -17
-3 -4 -10 7 -18 15 -18 17 0 8 8 3 21 -13z m132 -102 c37 -29 67 -55 67 -58 0
-2 -36 24 -80 58 -44 34 -80 64 -80 66 0 3 6 1 13 -4 6 -6 42 -34 80 -62z
m107 -86 c13 -14 21 -25 18 -25 -2 0 -15 11 -28 25 -13 14 -21 25 -18 25 2 0
15 -11 28 -25z m51 -42 c13 -16 12 -17 -3 -4 -17 13 -22 21 -14 21 2 0 10 -8
17 -17z m44 -33 c3 -6 -1 -7 -9 -4 -18 7 -21 14 -7 14 6 0 13 -4 16 -10z m66
-57 l24 -28 -30 25 c-16 14 -32 26 -34 28 -2 1 0 2 6 2 5 0 20 -12 34 -27z
m59 -48 c13 -14 21 -25 18 -25 -2 0 -15 11 -28 25 -13 14 -21 25 -18 25 2 0
15 -11 28 -25z m110 -90 c13 -14 21 -25 18 -25 -2 0 -15 11 -28 25 -13 14 -21
25 -18 25 2 0 15 -11 28 -25z m65 -55 c10 -11 16 -20 13 -20 -3 0 -13 9 -23
20 -10 11 -16 20 -13 20 3 0 13 -9 23 -20z m56 -47 c13 -16 12 -17 -3 -4 -10
7 -18 15 -18 17 0 8 8 3 21 -13z m95 -85 l29 -33 -32 29 c-18 17 -33 31 -33
33 0 8 8 1 36 -29z m59 -48 c10 -11 16 -20 13 -20 -3 0 -13 9 -23 20 -10 11
-16 20 -13 20 3 0 13 -9 23 -20z m105 -95 c19 -19 32 -35 29 -35 -3 0 -20 16
-39 35 -19 19 -32 35 -29 35 3 0 20 -16 39 -35z m100 -90 c30 -30 52 -55 49
-55 -2 0 -29 25 -59 55 -30 30 -52 55 -49 55 2 0 29 -25 59 -55z m91 -82 c13
-17 13 -17 -6 -3 -11 8 -22 16 -24 17 -2 2 0 3 6 3 6 0 17 -8 24 -17z m40 -40
c13 -16 12 -17 -3 -4 -10 7 -18 15 -18 17 0 8 8 3 21 -13z m44 -43 c10 -11 16
-20 13 -20 -3 0 -13 9 -23 20 -10 11 -16 20 -13 20 3 0 13 -9 23 -20z m225
-217 c96 -98 172 -175 168 -173 -24 16 -355 350 -347 350 2 0 83 -80 179 -177z
m220 -228 l35 -40 -37 34 c-21 19 -38 39 -38 45 0 5 1 7 3 5 1 -2 18 -22 37
-44z m76 -76 c16 -16 22 -28 14 -24 -13 5 -56 55 -47 55 2 0 16 -14 33 -31z
m64 -74 c19 -19 32 -35 29 -35 -3 0 -20 16 -39 35 -19 19 -32 35 -29 35 3 0
20 -16 39 -35z m75 -85 c10 -11 16 -20 13 -20 -3 0 -13 9 -23 20 -10 11 -16
20 -13 20 3 0 13 -9 23 -20z m96 -117 c13 -16 12 -17 -3 -4 -17 13 -22 21 -14
21 2 0 10 -8 17 -17z m34 -43 c10 -11 16 -20 13 -20 -3 0 -13 9 -23 20 -10 11
-16 20 -13 20 3 0 13 -9 23 -20z m85 -111 c15 -28 5 -23 -15 7 -9 15 -12 23
-6 20 6 -4 16 -16 21 -27z m60 -79 c12 -16 19 -30 16 -30 -2 0 -14 14 -26 30
-12 17 -19 30 -16 30 2 0 14 -13 26 -30z m61 -87 c13 -16 12 -17 -3 -4 -17 13
-22 21 -14 21 2 0 10 -8 17 -17z m39 -63 c6 -11 8 -20 6 -20 -3 0 -10 9 -16
20 -6 11 -8 20 -6 20 3 0 10 -9 16 -20z m70 -110 c6 -11 8 -20 6 -20 -3 0 -10
9 -16 20 -6 11 -8 20 -6 20 3 0 10 -9 16 -20z m70 -134 c0 -12 -5 -7 -19 24
-11 24 -11 24 3 6 9 -11 16 -24 16 -30z m60 -131 c0 -5 -5 -3 -10 5 -5 8 -10
20 -10 25 0 6 5 3 10 -5 5 -8 10 -19 10 -25z m2875 7 c256 -56 466 -167 655
-348 418 -402 529 -1025 276 -1549 -63 -130 -150 -257 -170 -249 -8 3 -17 1
-21 -5 -3 -7 0 -8 9 -5 25 10 19 -7 -16 -43 -30 -31 -89 -49 -72 -22 4 7 -2 6
-17 -1 -35 -19 -299 -7 -427 19 -187 39 -355 103 -503 192 l-56 34 81 1 c101
0 170 17 266 62 41 20 80 36 87 35 7 0 11 3 10 7 -1 4 24 28 55 54 31 25 66
60 78 76 12 17 25 28 30 25 5 -3 12 0 15 6 4 5 12 8 19 6 6 -3 12 4 12 14 0
17 -2 17 -23 -3 -27 -25 -30 -18 -7 17 9 14 21 22 27 18 6 -3 7 -1 3 5 -4 6 2
28 13 49 71 141 87 338 38 488 -28 85 -77 175 -127 232 -30 34 -31 36 -14 60
9 15 11 22 3 18 -9 -6 -11 -3 -6 8 3 10 5 17 3 17 -3 0 -13 3 -23 6 -15 5 -15
4 -3 -5 13 -9 13 -11 0 -11 -9 0 -21 5 -28 12 -6 6 -15 9 -18 5 -4 -3 9 -14
29 -23 22 -10 33 -22 30 -30 -3 -8 -10 -14 -15 -14 -6 0 -7 7 -4 16 3 8 2 13
-2 10 -5 -3 -35 15 -68 39 -76 58 -187 104 -294 122 -104 19 -211 8 -322 -33
-40 -14 -81 -27 -90 -27 -9 -1 -15 -5 -12 -9 2 -4 -15 -18 -39 -32 -24 -14
-54 -37 -67 -51 -28 -29 -45 -33 -31 -6 11 19 5 31 -13 31 -6 0 -4 -5 4 -10 9
-6 10 -10 3 -10 -6 0 -10 -9 -8 -20 5 -24 -42 -83 -57 -73 -6 3 -8 1 -5 -5 4
-5 -9 -34 -28 -63 -19 -29 -42 -74 -52 -101 -9 -26 -20 -48 -23 -48 -4 0 -13
48 -21 108 -19 145 -17 427 4 577 22 152 52 305 63 315 16 15 152 68 228 90
192 53 452 62 641 22z m-2845 -87 c0 -5 -5 -3 -10 5 -5 8 -10 20 -10 25 0 6 5
3 10 -5 5 -8 10 -19 10 -25z m27 -107 c-3 -8 -6 -5 -6 6 -1 11 2 17 5 13 3 -3
4 -12 1 -19z m10 -40 c-3 -8 -6 -5 -6 6 -1 11 2 17 5 13 3 -3 4 -12 1 -19z
m10 -60 c-3 -7 -5 -2 -5 12 0 14 2 19 5 13 2 -7 2 -19 0 -25z m10 -55 c-3 -10
-5 -4 -5 12 0 17 2 24 5 18 2 -7 2 -21 0 -30z m10 -65 c-3 -8 -6 -5 -6 6 -1
11 2 17 5 13 3 -3 4 -12 1 -19z m10 -60 c-3 -8 -6 -5 -6 6 -1 11 2 17 5 13 3
-3 4 -12 1 -19z m10 -70 c-3 -8 -6 -5 -6 6 -1 11 2 17 5 13 3 -3 4 -12 1 -19z
m5399 -7 l89 -18 -85 3 c-69 3 -88 8 -105 24 -15 16 -16 19 -4 15 9 -3 56 -14
105 -24z m-5389 -58 c-3 -10 -5 -4 -5 12 0 17 2 24 5 18 2 -7 2 -21 0 -30z
m10 -65 c-3 -7 -5 -2 -5 12 0 14 2 19 5 13 2 -7 2 -19 0 -25z m5477 -43 c49
-21 113 -80 138 -128 62 -123 12 -282 -112 -351 -47 -26 -64 -30 -125 -30
-191 1 -312 174 -249 357 19 56 80 122 137 147 53 23 161 26 211 5z m-5467
-27 c-3 -7 -5 -2 -5 12 0 14 2 19 5 13 2 -7 2 -19 0 -25z m10 -65 c-3 -10 -5
-4 -5 12 0 17 2 24 5 18 2 -7 2 -21 0 -30z m10 -70 c-3 -10 -5 -4 -5 12 0 17
2 24 5 18 2 -7 2 -21 0 -30z m10 -75 c-3 -8 -6 -5 -6 6 -1 11 2 17 5 13 3 -3
4 -12 1 -19z m10 -90 c-3 -8 -6 -5 -6 6 -1 11 2 17 5 13 3 -3 4 -12 1 -19z
m10 -65 c-3 -10 -5 -4 -5 12 0 17 2 24 5 18 2 -7 2 -21 0 -30z m10 -75 c-3 -8
-6 -5 -6 6 -1 11 2 17 5 13 3 -3 4 -12 1 -19z m10 -100 c-3 -7 -5 -2 -5 12 0
14 2 19 5 13 2 -7 2 -19 0 -25z m10 -75 c-3 -10 -5 -2 -5 17 0 19 2 27 5 18 2
-10 2 -26 0 -35z m10 -90 c-3 -10 -5 -4 -5 12 0 17 2 24 5 18 2 -7 2 -21 0
-30z m10468 -53 c72 -18 219 -82 230 -100 2 -3 -9 -7 -25 -7 -16 0 -27 4 -24
8 2 4 0 10 -5 13 -5 4 -9 -7 -9 -23 1 -25 3 -28 15 -15 20 20 39 18 22 -3 -12
-14 -10 -14 14 2 26 17 29 17 47 0 10 -9 16 -24 13 -33 -4 -15 -3 -15 6 -2 9
13 19 7 62 -37 28 -29 47 -57 44 -63 -4 -6 -1 -9 5 -8 15 4 84 -109 110 -180
31 -82 50 -184 50 -264 0 -81 -18 -200 -30 -193 -4 2 -5 -6 -4 -18 5 -27 -47
-152 -63 -152 -6 0 -15 -4 -20 -9 -5 -5 -3 -6 5 -2 21 12 13 -9 -19 -55 -68
-96 -206 -218 -230 -203 -7 4 -9 3 -5 -4 16 -26 -220 -108 -282 -98 -26 4 -32
2 -22 -4 25 -16 -132 -12 -218 6 -145 30 -270 95 -374 198 -224 218 -283 565
-148 855 17 35 33 61 37 58 3 -4 1 -13 -6 -21 -9 -11 -7 -15 8 -19 17 -4 18
-1 10 26 -10 35 -5 46 19 42 29 -4 43 14 30 38 -10 19 -4 28 61 89 69 65 98
83 88 56 -2 -7 -11 -11 -18 -10 -8 2 -10 0 -6 -4 18 -18 34 -11 33 15 -1 23 8
31 80 67 111 55 186 72 325 73 85 1 136 -4 194 -19z m-10458 -52 c-3 -7 -5 -2
-5 12 0 14 2 19 5 13 2 -7 2 -19 0 -25z m10 -70 c-3 -8 -6 -5 -6 6 -1 11 2 17
5 13 3 -3 4 -12 1 -19z m10 -140 c-2 -13 -4 -5 -4 17 -1 22 1 32 4 23 2 -10 2
-28 0 -40z m9676 -24 c1 -4 -6 -8 -15 -10 -21 -3 -23 7 -6 24 12 12 15 9 21
-14z"/>
<path d="M13117 10049 c7 -7 15 -10 18 -7 3 3 -2 9 -12 12 -14 6 -15 5 -6 -5z"/>
<path d="M13158 10053 c7 -3 16 -2 19 1 4 3 -2 6 -13 5 -11 0 -14 -3 -6 -6z"/>
<path d="M13200 10050 c0 -6 33 -10 79 -10 44 0 83 5 86 10 4 6 -25 10 -79 10
-51 0 -86 -4 -86 -10z"/>
<path d="M13440 10032 c0 -7 -9 -12 -20 -12 -11 0 -20 -4 -20 -9 0 -11 38 -2
46 11 3 5 3 12 0 15 -3 4 -6 1 -6 -5z"/>
<path d="M13530 10031 c35 -27 50 -32 44 -16 -4 8 -10 15 -14 15 -5 0 -17 3
-27 6 -15 5 -16 4 -3 -5z"/>
<path d="M12917 10019 c7 -7 15 -10 18 -7 3 3 -2 9 -12 12 -14 6 -15 5 -6 -5z"/>
<path d="M13018 10023 c7 -3 16 -2 19 1 4 3 -2 6 -13 5 -11 0 -14 -3 -6 -6z"/>
<path d="M13590 10021 c0 -10 30 -24 37 -17 3 2 -5 9 -16 16 -12 6 -21 7 -21
1z"/>
<path d="M12876 10012 c-2 -4 4 -8 14 -8 10 0 16 4 14 8 -3 4 -9 8 -14 8 -5 0
-11 -4 -14 -8z"/>
<path d="M13685 9980 c3 -5 13 -10 22 -10 12 0 13 -3 4 -14 -16 -19 3 -31 26
-16 15 9 14 10 -7 5 -22 -5 -23 -5 -8 8 15 12 15 14 -3 25 -23 15 -42 16 -34
2z"/>
<path d="M12755 9970 c-3 -5 -2 -10 4 -10 5 0 13 5 16 10 3 6 2 10 -4 10 -5 0
-13 -4 -16 -10z"/>
<path d="M13759 9957 c6 -8 7 -18 3 -23 -4 -4 1 -2 11 5 18 14 24 26 7 16 -5
-3 -10 -1 -10 4 0 6 -5 11 -11 11 -8 0 -9 -4 0 -13z"/>
<path d="M12720 9950 c-13 -8 -12 -10 3 -10 9 0 17 5 17 10 0 12 -1 12 -20 0z"/>
<path d="M13795 9940 c-3 -6 1 -7 9 -4 18 7 21 14 7 14 -6 0 -13 -4 -16 -10z"/>
<path d="M12665 9930 c-3 -5 -1 -10 4 -10 6 0 11 5 11 10 0 6 -2 10 -4 10 -3
0 -8 -4 -11 -10z"/>
<path d="M13864 9905 c11 -8 25 -15 30 -15 6 0 2 7 -8 15 -11 8 -25 15 -30 15
-6 0 -2 -7 8 -15z"/>
<path d="M13908 9883 c-10 -3 -18 -9 -18 -14 0 -6 7 -6 19 1 14 7 21 6 24 -3
4 -9 6 -9 6 0 1 15 -10 21 -31 16z"/>
<path d="M13962 9854 c10 -10 20 -15 24 -12 3 4 -5 12 -18 18 -22 12 -22 12
-6 -6z"/>
<path d="M14009 9828 c-6 -26 -6 -37 2 -32 5 3 9 0 9 -6 0 -13 40 -29 58 -23
9 4 8 9 -5 19 -21 16 -37 18 -28 4 3 -5 1 -10 -4 -10 -6 0 -11 9 -11 19 0 16
-18 41 -21 29z"/>
<path d="M12625 9760 c-4 -17 -5 -34 -2 -36 2 -3 7 10 11 27 8 42 0 50 -9 9z"/>
<path d="M14083 9743 c0 -9 4 -10 14 -2 7 6 13 12 13 14 0 1 -6 2 -13 2 -8 0
-14 -6 -14 -14z"/>
<path d="M14110 9730 c-9 -6 -10 -10 -3 -10 6 0 15 5 18 10 8 12 4 12 -15 0z"/>
<path d="M14126 9714 c-11 -8 -16 -14 -10 -14 13 0 39 18 34 24 -3 2 -14 -2
-24 -10z"/>
<path d="M14086 9695 c4 -8 11 -15 16 -15 6 0 5 6 -2 15 -7 8 -14 15 -16 15
-2 0 -1 -7 2 -15z"/>
<path d="M14160 9689 c-13 -9 -13 -10 0 -6 8 2 25 -7 38 -20 26 -29 29 -41 5
-22 -10 7 -15 9 -11 5 4 -5 3 -15 -4 -23 -9 -11 -7 -12 7 -7 14 6 16 4 10 -7
-8 -12 -6 -12 8 0 14 11 18 11 22 -1 3 -8 13 -15 22 -15 13 0 12 3 -3 14 -11
8 -18 18 -17 22 1 5 -12 22 -30 39 -25 24 -36 29 -47 21z"/>
<path d="M12623 9595 c-3 -9 -3 -18 -1 -21 3 -3 8 4 11 16 6 23 -1 27 -10 5z"/>
<path d="M12602 9540 c0 -14 2 -19 5 -12 2 6 2 18 0 25 -3 6 -5 1 -5 -13z"/>
<path d="M14262 9541 c-11 -7 -11 -9 0 -14 9 -3 15 1 15 9 0 8 -1 14 -1 14 -1
0 -7 -4 -14 -9z"/>
<path d="M14320 9498 c0 -7 10 -14 21 -15 12 -1 20 -1 18 0 -2 2 -12 9 -21 16
-15 11 -18 11 -18 -1z"/>
<path d="M14350 9455 c0 -8 8 -15 18 -14 10 0 12 3 4 6 -6 2 -10 9 -6 14 3 5
0 9 -5 9 -6 0 -11 -7 -11 -15z"/>
<path d="M13145 9424 c-22 -9 -24 -13 -10 -13 36 1 72 14 55 20 -8 3 -28 0
-45 -7z"/>
<path d="M12990 9420 c-8 -5 -10 -10 -5 -10 6 0 17 5 25 10 8 5 11 10 5 10 -5
0 -17 -5 -25 -10z"/>
<path d="M13258 9423 c7 -3 16 -2 19 1 4 3 -2 6 -13 5 -11 0 -14 -3 -6 -6z"/>
<path d="M13380 9421 c0 -6 5 -13 10 -16 6 -3 10 1 10 9 0 9 -4 16 -10 16 -5
0 -10 -4 -10 -9z"/>
<path d="M13470 9420 c-9 -6 -10 -10 -3 -10 6 0 15 5 18 10 8 12 4 12 -15 0z"/>
<path d="M13080 9410 c-8 -5 -10 -10 -5 -10 6 0 17 5 25 10 8 5 11 10 5 10 -5
0 -17 -5 -25 -10z"/>
<path d="M12960 9400 c0 -8 5 -22 10 -30 9 -13 10 -13 10 0 0 8 -5 22 -10 30
-9 13 -10 13 -10 0z"/>
<path d="M12997 9384 c2 -7 13 -9 24 -7 30 8 30 18 -1 18 -16 0 -26 -5 -23
-11z"/>
<path d="M13496 9381 c-3 -5 0 -11 7 -14 8 -3 14 1 14 9 0 16 -13 19 -21 5z"/>
<path d="M14406 9362 c-2 -4 -1 -14 3 -21 6 -10 10 -9 14 3 6 16 -8 32 -17 18z"/>
<path d="M12593 9320 c0 -25 2 -35 4 -22 2 12 2 32 0 45 -2 12 -4 2 -4 -23z"/>
<path d="M12613 9320 c0 -25 2 -35 4 -22 2 12 2 32 0 45 -2 12 -4 2 -4 -23z"/>
<path d="M13623 9346 c1 -6 -4 -10 -11 -8 -10 2 -10 -2 -2 -18 11 -21 30 -27
30 -9 0 5 -6 7 -12 3 -8 -4 -10 -3 -5 2 5 5 13 9 18 9 5 0 9 3 9 8 0 4 0 11 0
15 0 5 -6 9 -14 9 -8 0 -14 -5 -13 -11z"/>
<path d="M12807 9335 c3 -8 9 -12 14 -9 12 7 11 11 -5 17 -10 4 -13 1 -9 -8z"/>
<path d="M12851 9301 c-18 -18 -20 -18 -24 -3 -3 12 -5 10 -6 -6 -1 -15 -5
-21 -13 -16 -7 4 -8 3 -4 -4 9 -16 8 -16 51 18 21 17 33 30 26 30 -6 0 -20 -9
-30 -19z"/>
<path d="M13654 9306 c-8 -22 3 -33 18 -18 9 9 9 15 0 24 -9 9 -13 7 -18 -6z"/>
<path d="M12734 9254 c0 -13 6 -26 13 -28 15 -6 18 10 3 19 -8 5 -8 11 -1 19
8 9 7 13 -2 13 -7 0 -13 -11 -13 -23z"/>
<path d="M12612 9215 c0 -16 4 -43 8 -60 l8 -30 0 35 c0 19 -4 46 -8 60 -8 24
-8 24 -8 -5z"/>
<path d="M12735 9211 c3 -5 -3 -12 -12 -14 -14 -4 -13 -5 4 -6 27 -1 39 15 17
23 -8 3 -12 2 -9 -3z"/>
<path d="M13765 9184 c15 -16 29 -19 21 -5 -4 5 0 11 6 14 7 2 1 4 -14 4 -23
0 -25 -2 -13 -13z"/>
<path d="M12655 9165 c0 -14 3 -25 7 -25 4 0 5 -7 2 -15 -4 -8 -11 -12 -18 -8
-6 4 -5 -1 3 -10 14 -18 26 -24 17 -8 -3 5 3 11 14 14 11 3 20 11 19 19 0 10
-2 10 -6 1 -2 -7 -9 -13 -14 -13 -6 0 -5 9 1 21 7 11 9 23 6 27 -3 3 -6 1 -6
-3 0 -5 -6 -1 -12 8 -12 16 -13 15 -13 -8z"/>
<path d="M14490 9170 c7 -12 7 -27 2 -37 -6 -12 -5 -31 4 -53 7 -19 13 -30 13
-23 1 6 -3 23 -9 37 -6 16 -6 27 0 31 6 4 10 -4 10 -17 0 -16 3 -19 9 -10 8
13 -22 92 -35 92 -2 0 0 -9 6 -20z"/>
<path d="M12708 9173 c7 -3 16 -2 19 1 4 3 -2 6 -13 5 -11 0 -14 -3 -6 -6z"/>
<path d="M13800 9141 c5 -9 14 -24 22 -34 12 -15 13 -13 14 20 1 21 -1 30 -3
21 -3 -10 -9 -18 -15 -18 -5 0 -8 6 -5 13 3 8 -1 14 -8 14 -10 0 -11 -5 -5
-16z"/>
<path d="M12602 9095 c0 -16 2 -22 5 -12 2 9 2 23 0 30 -3 6 -5 -1 -5 -18z"/>
<path d="M12645 9069 c-4 -6 -5 -12 -2 -15 2 -3 7 2 10 11 7 17 1 20 -8 4z"/>
<path d="M12620 9040 c0 -5 5 -10 11 -10 5 0 7 5 4 10 -3 6 -8 10 -11 10 -2 0
-4 -4 -4 -10z"/>
<path d="M13869 9028 c10 -14 18 -15 32 -7 10 5 19 12 19 15 0 2 -8 0 -18 -5
-13 -7 -23 -6 -32 2 -12 10 -12 9 -1 -5z"/>
<path d="M13903 8949 c-2 -23 3 -25 10 -4 4 8 3 16 -1 19 -4 3 -9 -4 -9 -15z"/>
<path d="M13906 8555 c-9 -26 -7 -32 5 -12 6 10 9 21 6 23 -2 3 -7 -2 -11 -11z"/>
<path d="M13910 8482 c0 -6 -6 -9 -14 -6 -9 4 -20 -6 -30 -25 -20 -37 -20 -48
-1 -48 8 0 14 7 13 16 -2 32 2 51 12 51 6 0 8 -16 5 -37 -4 -33 -3 -34 10 -17
7 10 9 20 4 22 -5 2 -4 12 2 24 6 11 8 22 5 26 -3 3 -6 0 -6 -6z"/>
<path d="M14531 8473 c0 -4 4 -17 9 -28 8 -19 9 -19 9 2 1 12 -3 25 -9 28 -5
3 -10 3 -9 -2z"/>
<path d="M14507 8435 c-4 -8 -2 -17 3 -20 6 -4 10 3 10 14 0 25 -6 27 -13 6z"/>
<path d="M14486 8397 c3 -10 9 -15 12 -12 3 3 0 11 -7 18 -10 9 -11 8 -5 -6z"/>
<path d="M14487 8313 c3 -7 9 -13 13 -13 4 0 10 6 13 13 3 7 -3 13 -13 13 -10
0 -16 -6 -13 -13z"/>
<path d="M14485 8280 c-3 -5 -1 -10 4 -10 6 0 11 5 11 10 0 6 -2 10 -4 10 -3
0 -8 -4 -11 -10z"/>
<path d="M13745 8271 c-3 -5 -2 -12 3 -15 5 -3 9 1 9 9 0 17 -3 19 -12 6z"/>
<path d="M13715 8249 c-4 -6 -4 -13 -1 -16 3 -4 6 -1 6 6 0 7 5 9 12 5 7 -4 8
-3 4 4 -9 15 -13 15 -21 1z"/>
<path d="M14475 8240 c-4 -6 -11 -7 -17 -4 -8 5 -9 1 -4 -11 4 -10 2 -21 -5
-25 -6 -4 -7 -10 -2 -13 5 -3 16 10 25 29 15 32 16 46 3 24z"/>
<path d="M13643 8176 c0 -18 30 -14 35 5 3 11 1 11 -7 -1 -7 -10 -11 -11 -11
-2 0 6 -4 12 -8 12 -5 0 -9 -6 -9 -14z"/>
<path d="M14413 8164 c4 -4 1 -14 -6 -23 -10 -14 -10 -14 5 -3 13 10 17 10 21
0 4 -9 6 -8 6 3 1 9 -7 20 -16 23 -10 4 -14 4 -10 0z"/>
<path d="M13554 8131 c4 -5 0 -12 -6 -15 -7 -3 -2 -3 12 1 21 5 23 4 13 -8
-10 -12 -8 -15 6 -15 26 0 20 38 -8 43 -12 2 -20 -1 -17 -6z"/>
<path d="M13516 8105 c-4 -11 -13 -14 -28 -10 -21 5 -21 5 -4 -6 14 -9 21 -8
34 5 9 8 13 18 10 21 -3 3 -8 -1 -12 -10z"/>
<path d="M14405 8109 c-11 -16 -1 -19 13 -3 7 8 8 14 3 14 -5 0 -13 -5 -16
-11z"/>
<path d="M14325 8071 c-3 -5 -2 -12 3 -15 5 -3 9 1 9 9 0 17 -3 19 -12 6z"/>
<path d="M14370 8065 c7 -9 10 -19 6 -22 -4 -4 -11 -2 -15 6 -6 10 -10 9 -14
-4 -4 -9 -3 -13 3 -10 6 3 10 1 10 -5 0 -16 18 -3 31 22 8 15 8 19 0 14 -6 -4
-11 -2 -11 3 0 6 -5 11 -11 11 -8 0 -7 -5 1 -15z"/>
<path d="M13322 8014 c10 -10 20 -15 24 -12 3 4 -5 12 -18 18 -22 12 -22 12
-6 -6z"/>
<path d="M13505 7990 c3 -5 8 -10 11 -10 2 0 4 5 4 10 0 6 -5 10 -11 10 -5 0
-7 -4 -4 -10z"/>
<path d="M14330 7970 c-6 -11 -8 -20 -6 -20 3 0 10 9 16 20 6 11 8 20 6 20 -3
0 -10 -9 -16 -20z"/>
<path d="M13413 7969 c10 -6 23 -6 33 -1 12 7 8 9 -18 10 -26 1 -30 -1 -15 -9z"/>
<path d="M13540 7916 c0 -2 9 -6 20 -9 11 -3 20 -1 20 4 0 5 -9 9 -20 9 -11 0
-20 -2 -20 -4z"/>
<path d="M13600 7900 c0 -5 7 -10 16 -10 8 0 12 5 9 10 -3 6 -10 10 -16 10 -5
0 -9 -4 -9 -10z"/>
<path d="M13670 7900 c19 -13 30 -13 30 0 0 6 -10 10 -22 10 -19 0 -20 -2 -8
-10z"/>
<path d="M14243 7874 c0 -17 2 -22 7 -13 5 6 6 18 3 26 -8 19 -10 16 -10 -13z"/>
<path d="M13723 7873 c9 -2 23 -2 30 0 6 3 -1 5 -18 5 -16 0 -22 -2 -12 -5z"/>
<path d="M21310 8539 c0 -5 -5 -7 -12 -3 -7 4 -8 3 -4 -4 4 -6 13 -9 21 -5 17
6 20 23 5 23 -5 0 -10 -5 -10 -11z"/>
<path d="M20913 8515 c-13 -5 -25 -16 -28 -24 -5 -12 -3 -12 11 -1 13 12 17
11 26 -1 8 -11 9 -10 4 5 -4 12 -2 17 6 13 7 -2 22 0 33 5 19 8 19 8 -2 4 -12
-2 -23 -1 -25 3 -2 3 -13 2 -25 -4z"/>
<path d="M21348 8523 c7 -3 16 -2 19 1 4 3 -2 6 -13 5 -11 0 -14 -3 -6 -6z"/>
<path d="M21385 8500 c-13 -6 -15 -9 -5 -9 8 0 22 4 30 9 18 12 2 12 -25 0z"/>
<path d="M21448 8498 c14 -14 54 -19 46 -6 -4 5 -12 7 -20 4 -8 -3 -14 -1 -14
4 0 6 -5 10 -12 10 -9 0 -9 -3 0 -12z"/>
<path d="M20777 8433 c3 -7 9 -10 14 -7 14 8 11 21 -5 21 -8 0 -12 -6 -9 -14z"/>
<path d="M21596 8399 c21 -23 23 -23 20 -2 -2 9 -11 17 -20 19 -17 2 -17 2 0
-17z"/>
<path d="M20687 8380 c-8 -11 -16 -18 -19 -15 -3 3 -13 -5 -24 -17 -18 -21
-18 -22 0 -8 24 19 47 21 66 7 12 -9 13 -9 3 3 -15 17 -17 34 -3 25 6 -3 7 1
4 9 -8 20 -10 20 -27 -4z"/>
<path d="M21645 8371 c-3 -6 -10 -9 -15 -6 -10 6 -21 -21 -12 -29 3 -4 14 3
24 16 14 18 18 19 18 7 0 -9 7 -19 15 -23 20 -7 19 1 -4 25 -12 13 -21 17 -26
10z"/>
<path d="M20655 8329 c-3 -4 2 -6 10 -5 21 3 28 13 10 13 -9 0 -18 -4 -20 -8z"/>
<path d="M21695 8308 c-9 -30 -13 -59 -7 -53 3 3 11 0 17 -5 9 -7 17 -5 26 7
9 11 10 14 2 9 -8 -4 -13 -2 -13 6 0 11 -2 10 -9 0 -7 -11 -9 -11 -14 1 -7 18
16 40 29 29 4 -4 2 1 -5 11 -17 22 -17 22 -26 -5z"/>
<path d="M21750 8256 c0 -8 5 -18 11 -21 6 -4 8 -12 6 -19 -3 -6 4 -12 14 -12
16 0 17 2 4 16 -8 9 -15 22 -15 28 0 6 -4 14 -10 17 -5 3 -10 -1 -10 -9z"/>
<path d="M21000 8230 c8 -5 20 -10 25 -10 6 0 3 5 -5 10 -8 5 -19 10 -25 10
-5 0 -3 -5 5 -10z"/>
<path d="M21115 8230 c-3 -6 1 -7 9 -4 18 7 21 14 7 14 -6 0 -13 -4 -16 -10z"/>
<path d="M21210 8226 c7 -7 13 -7 20 0 6 6 3 10 -10 10 -13 0 -16 -4 -10 -10z"/>
<path d="M21286 8217 c11 -14 28 -25 39 -24 13 1 19 -3 17 -13 -3 -12 -1 -12
9 -3 9 9 8 15 -3 27 -9 8 -18 12 -21 9 -4 -3 -18 2 -33 12 l-27 17 19 -25z"/>
<path d="M20996 8195 c5 -11 10 -13 19 -5 6 5 16 6 20 2 5 -4 5 -1 1 6 -11 18
-47 16 -40 -3z"/>
<path d="M21085 8196 c-27 -7 -60 -18 -73 -25 -24 -13 -46 -6 -36 11 4 7 2 8
-5 4 -9 -6 -9 -11 0 -22 6 -8 7 -14 2 -14 -5 0 -32 -21 -59 -47 -27 -26 -52
-47 -55 -46 -4 1 -6 -3 -6 -10 1 -7 -10 -34 -24 -62 -21 -44 -24 -64 -25 -167
0 -64 3 -115 7 -112 11 6 22 -33 13 -47 -4 -7 -3 -9 4 -5 17 10 25 -13 10 -32
-12 -15 -11 -16 4 -4 14 11 18 10 29 -10 7 -13 12 -27 10 -33 -1 -5 1 -7 4 -3
4 4 26 -8 49 -27 23 -19 61 -43 84 -53 23 -10 40 -21 38 -23 -2 -2 32 -5 77
-7 60 -2 99 2 144 16 215 68 324 309 228 507 -16 33 -31 64 -33 69 -3 5 1 5 9
0 12 -7 12 -5 0 9 -7 9 -17 15 -21 12 -4 -2 -18 7 -31 22 -13 14 -43 38 -66
53 -23 15 -39 31 -35 35 4 5 2 5 -5 2 -6 -4 -37 0 -69 8 -68 18 -101 18 -169
1z"/>
<path d="M21790 8179 c0 -5 -5 -7 -12 -3 -7 4 -8 3 -4 -5 6 -9 11 -9 22 0 17
14 18 19 4 19 -5 0 -10 -5 -10 -11z"/>
<path d="M20520 8160 c-9 -6 -11 -10 -3 -10 7 0 10 -7 6 -17 -3 -10 -3 -15 1
-12 6 6 18 49 13 49 -1 0 -9 -5 -17 -10z"/>
<path d="M20900 8151 c0 -6 6 -11 13 -12 6 -1 1 -5 -13 -9 -22 -7 -23 -8 -4
-9 23 -1 51 25 40 36 -3 3 -6 1 -6 -7 0 -10 -3 -10 -15 0 -10 9 -15 9 -15 1z"/>
<path d="M21397 8140 c21 -24 32 -26 29 -3 -2 9 -12 18 -24 20 -21 3 -21 2 -5
-17z"/>
<path d="M20493 8109 c2 -18 8 -25 23 -25 14 0 20 5 17 13 -3 7 -9 11 -13 8
-5 -3 -13 2 -18 12 -9 14 -10 13 -9 -8z"/>
<path d="M21844 8063 c2 -33 13 -53 29 -53 7 0 4 5 -5 11 -13 7 -16 17 -11 39
3 18 1 30 -5 30 -5 0 -9 -12 -8 -27z"/>
<path d="M21496 8067 c3 -10 9 -15 12 -12 3 3 0 11 -7 18 -10 9 -11 8 -5 -6z"/>
<path d="M20815 8027 c4 -19 2 -26 -5 -22 -5 3 -10 -2 -10 -12 0 -15 2 -16 15
-2 12 12 13 21 5 40 -10 23 -10 23 -5 -4z"/>
<path d="M21501 8024 c0 -11 3 -14 6 -6 3 7 2 16 -1 19 -3 4 -6 -2 -5 -13z"/>
<path d="M21544 7981 c2 -23 33 -38 48 -23 7 8 9 13 3 12 -23 -5 -44 1 -48 13
-3 8 -4 7 -3 -2z"/>
<path d="M20451 7964 c0 -11 3 -14 6 -6 3 7 2 16 -1 19 -3 4 -6 -2 -5 -13z"/>
<path d="M21876 7967 c3 -10 9 -15 12 -12 3 3 0 11 -7 18 -10 9 -11 8 -5 -6z"/>
<path d="M21537 7939 c4 -13 8 -18 11 -10 2 7 -1 18 -6 23 -8 8 -9 4 -5 -13z"/>
<path d="M21891 7884 c0 -11 3 -14 6 -6 3 7 2 16 -1 19 -3 4 -6 -2 -5 -13z"/>
<path d="M21578 7863 c7 -3 16 -2 19 1 4 3 -2 6 -13 5 -11 0 -14 -3 -6 -6z"/>
<path d="M21880 7825 c0 -8 2 -15 4 -15 2 0 6 7 10 15 3 8 1 15 -4 15 -6 0
-10 -7 -10 -15z"/>
<path d="M21886 7785 c4 -8 8 -15 10 -15 2 0 4 7 4 15 0 8 -4 15 -10 15 -5 0
-7 -7 -4 -15z"/>
<path d="M21846 7737 c3 -10 9 -15 12 -12 3 3 0 11 -7 18 -10 9 -11 8 -5 -6z"/>
<path d="M21536 7715 c-3 -8 -1 -15 4 -15 6 0 10 7 10 15 0 8 -2 15 -4 15 -2
0 -6 -7 -10 -15z"/>
<path d="M20452 7690 c0 -14 2 -19 5 -12 2 6 2 18 0 25 -3 6 -5 1 -5 -13z"/>
<path d="M21506 7653 c-6 -14 -5 -15 5 -6 7 7 10 15 7 18 -3 3 -9 -2 -12 -12z"/>
<path d="M21842 7620 c0 -16 3 -32 8 -35 5 -3 7 8 5 26 -5 42 -12 46 -13 9z"/>
<path d="M21489 7628 c-4 -15 -7 -59 -2 -48 3 8 11 18 17 22 7 5 6 8 -4 9 -10
0 -8 3 5 9 17 7 17 9 3 9 -10 1 -18 0 -19 -1z"/>
<path d="M20527 7583 c3 -7 6 -13 8 -13 2 0 5 6 8 13 3 8 -1 14 -8 14 -7 0
-11 -6 -8 -14z"/>
<path d="M20516 7556 c4 -11 1 -22 -7 -27 -10 -6 -10 -9 -1 -9 6 0 12 -7 12
-16 0 -8 5 -12 10 -9 8 5 8 11 0 20 -8 9 -8 14 0 17 7 2 5 10 -5 23 -13 18
-14 18 -9 1z"/>
<path d="M21446 7555 c4 -8 8 -15 10 -15 2 0 4 7 4 15 0 8 -4 15 -10 15 -5 0
-7 -7 -4 -15z"/>
<path d="M21480 7546 c0 -2 7 -6 15 -10 8 -3 15 -1 15 4 0 6 -7 10 -15 10 -8
0 -15 -2 -15 -4z"/>
<path d="M20906 7532 c-3 -5 1 -9 9 -9 8 0 12 4 9 9 -3 4 -7 8 -9 8 -2 0 -6
-4 -9 -8z"/>
<path d="M21770 7506 c-9 -11 -9 -19 0 -33 11 -17 11 -17 6 1 -4 10 -1 25 5
32 6 8 9 14 6 14 -2 0 -10 -7 -17 -14z"/>
<path d="M21796 7502 c-3 -5 1 -9 9 -9 8 0 15 4 15 9 0 4 -4 8 -9 8 -6 0 -12
-4 -15 -8z"/>
<path d="M21000 7486 c0 -2 7 -9 15 -16 9 -7 15 -8 15 -2 0 5 -7 12 -15 16 -8
3 -15 4 -15 2z"/>
<path d="M21325 7477 c-12 -10 -14 -16 -7 -21 7 -4 12 -3 12 3 0 6 8 8 18 5
13 -5 14 -4 3 4 -11 8 -11 10 0 15 8 3 9 6 3 6 -5 1 -18 -5 -29 -12z"/>
<path d="M20537 7463 c3 -7 8 -13 12 -13 4 0 8 6 8 13 0 8 -6 14 -13 14 -7 0
-10 -6 -7 -14z"/>
<path d="M20555 7430 c4 -6 11 -8 16 -5 14 9 11 15 -7 15 -8 0 -12 -5 -9 -10z"/>
<path d="M20585 7420 c-17 -19 -17 -20 9 -30 35 -13 39 -13 33 4 -3 7 -1 19 4
25 5 6 6 9 3 6 -4 -3 -13 0 -19 5 -8 7 -17 4 -30 -10z m31 -14 c1 -9 -5 -12
-17 -9 -14 4 -15 8 -6 18 13 14 20 12 23 -9z"/>
<path d="M21699 7432 c-1 -4 -1 -11 0 -15 1 -4 -4 -18 -9 -30 -11 -21 -11 -21
5 -2 8 11 13 26 10 33 -3 10 0 12 10 9 8 -4 16 -3 19 1 3 4 -4 9 -15 9 -10 1
-20 -1 -20 -5z"/>
<path d="M21713 7385 c-17 -19 -26 -36 -19 -38 6 -2 16 9 23 25 7 15 17 28 24
28 8 0 7 -5 -2 -17 -13 -16 -12 -17 3 -5 9 8 14 20 11 28 -7 18 -5 19 -40 -21z"/>
<path d="M20616 7361 c-3 -4 15 -27 39 -51 25 -24 45 -39 45 -33 0 6 -7 14
-16 17 -8 3 -12 11 -9 16 5 8 11 8 20 0 9 -8 15 -8 20 0 4 6 1 9 -6 8 -6 -2
-14 3 -17 11 -3 10 0 11 9 5 12 -7 12 -5 0 9 -15 18 -26 23 -16 7 3 -5 1 -10
-4 -10 -6 0 -10 -3 -10 -7 3 -20 -2 -22 -19 -5 -10 9 -14 20 -9 23 5 3 2 9 -7
12 -8 3 -18 3 -20 -2z"/>
<path d="M21662 7310 c-12 -12 -22 -24 -22 -27 0 -4 11 4 25 17 23 22 29 30
22 30 -2 0 -13 -9 -25 -20z"/>
<path d="M20710 7271 c0 -5 6 -14 13 -20 11 -8 18 -6 33 12 10 12 12 16 4 10
-17 -15 -44 -17 -35 -3 3 6 1 10 -4 10 -6 0 -11 -4 -11 -9z"/>
<path d="M21568 7258 c14 -17 44 -18 49 -1 2 5 -3 10 -12 10 -8 0 -15 -5 -15
-10 0 -5 -8 -3 -17 4 -16 13 -17 12 -5 -3z"/>
<path d="M21551 7243 c7 -12 15 -20 18 -17 3 2 -3 12 -13 22 -17 16 -18 16 -5
-5z"/>
<path d="M20750 7236 c0 -3 9 -10 20 -16 11 -6 20 -8 20 -6 0 3 -9 10 -20 16
-11 6 -20 8 -20 6z"/>
<path d="M21513 7200 c-11 -16 -10 -18 2 -14 8 4 15 12 15 20 0 19 -3 18 -17
-6z"/>
<path d="M20837 7183 c9 -8 23 -11 30 -9 7 3 15 1 18 -4 4 -6 12 -10 18 -10 7
0 4 7 -6 15 -11 7 -26 11 -35 8 -8 -4 -13 -2 -9 3 3 5 -3 10 -14 10 -19 0 -19
-1 -2 -13z"/>
<path d="M21422 7184 c-8 -9 -9 -14 -2 -14 6 0 8 -5 5 -11 -4 -6 -14 -8 -24
-4 -12 5 -13 3 -5 -5 8 -8 21 -4 50 15 21 14 39 27 40 28 1 1 -10 3 -24 4 -15
1 -33 -5 -40 -13z m38 2 c0 -2 -7 -7 -16 -10 -8 -3 -12 -2 -9 4 6 10 25 14 25
6z"/>
<path d="M21363 7175 c0 -7 8 -10 19 -7 10 2 18 6 18 7 0 1 -8 5 -18 7 -11 3
-19 0 -19 -7z"/>
<path d="M20927 7173 c-12 -12 -7 -22 16 -33 19 -9 20 -9 6 2 -9 7 -14 19 -12
26 5 13 0 16 -10 5z"/>
<path d="M36598 20048 c-522 -52 -1013 -576 -1223 -1307 -41 -142 -81 -351
-91 -470 -4 -44 -12 -85 -18 -90 -6 -4 -36 -16 -66 -26 -141 -45 -276 -124
-316 -184 -26 -41 -23 -17 -190 -1243 -54 -395 -101 -718 -104 -717 -3 0 -81
94 -175 207 -148 181 -845 1022 -1829 2210 -254 305 -301 367 -298 390 4 29
38 291 102 776 22 170 40 312 38 316 -2 4 -133 -94 -293 -217 -159 -124 -414
-320 -565 -437 -716 -552 -980 -758 -980 -763 0 -3 64 -3 143 1 78 3 385 9
682 12 l540 6 67 -143 c160 -342 366 -771 1911 -3994 l340 -710 -48 -345 c-72
-512 -72 -515 -49 -541 101 -112 654 -218 1424 -274 672 -48 1577 -54 2255
-15 856 49 1427 165 1506 305 16 29 15 43 -32 370 -39 275 -46 343 -36 356 6
10 87 116 178 236 673 885 1141 1674 1332 2243 88 261 145 590 154 891 19 604
-158 973 -577 1206 -133 74 -356 142 -585 179 -153 25 -400 25 -515 0 -186
-40 -392 -133 -555 -251 -87 -63 -90 -64 -104 -45 -7 11 -35 36 -62 56 l-49
36 0 68 c0 38 -7 122 -15 187 -92 725 -441 1319 -915 1558 -155 78 -291 109
-655 149 -176 20 -245 23 -327 14z m545 -159 c100 -51 148 -83 251 -168 295
-244 539 -696 636 -1179 27 -136 51 -308 43 -316 -2 -2 -38 5 -81 15 -111 26
-379 65 -582 86 -141 14 -268 18 -655 18 -486 0 -648 -9 -920 -49 -47 -7 -87
-10 -89 -7 -8 12 62 268 98 360 122 314 288 565 545 822 141 140 277 249 425
338 80 48 221 120 239 121 4 0 44 -19 90 -41z m-485 -1656 c-32 -2 -84 -2
-115 0 -32 2 -6 3 57 3 63 0 89 -1 58 -3z m335 0 c-51 -2 -135 -2 -185 0 -51
1 -10 3 92 3 102 0 143 -2 93 -3z m-565 -10 c-21 -2 -57 -2 -80 0 -24 2 -7 4
37 4 44 0 63 -2 43 -4z m790 0 c-21 -2 -55 -2 -75 0 -21 2 -4 4 37 4 41 0 58
-2 38 -4z m-950 -10 c-16 -2 -40 -2 -55 0 -16 2 -3 4 27 4 30 0 43 -2 28 -4z
m1080 0 c-16 -2 -40 -2 -55 0 -16 2 -3 4 27 4 30 0 43 -2 28 -4z m-1190 -10
c-10 -2 -26 -2 -35 0 -10 3 -2 5 17 5 19 0 27 -2 18 -5z m1290 0 c-10 -2 -26
-2 -35 0 -10 3 -2 5 17 5 19 0 27 -2 18 -5z m689 1 c-3 -3 -12 -4 -19 -1 -8 3
-5 6 6 6 11 1 17 -2 13 -5z m-2059 -11 c-10 -2 -28 -2 -40 0 -13 2 -5 4 17 4
22 1 32 -1 23 -4z m1460 0 c-10 -2 -28 -2 -40 0 -13 2 -5 4 17 4 22 1 32 -1
23 -4z m639 1 c-3 -3 -12 -4 -19 -1 -8 3 -5 6 6 6 11 1 17 -2 13 -5z m-2179
-11 c-10 -2 -26 -2 -35 0 -10 3 -2 5 17 5 19 0 27 -2 18 -5z m1610 0 c-10 -2
-26 -2 -35 0 -10 3 -2 5 17 5 19 0 27 -2 18 -5z m-1675 -10 c-7 -2 -21 -2 -30
0 -10 3 -4 5 12 5 17 0 24 -2 18 -5z m1740 0 c-7 -2 -21 -2 -30 0 -10 3 -4 5
12 5 17 0 24 -2 18 -5z m574 1 c-3 -3 -12 -4 -19 -1 -8 3 -5 6 6 6 11 1 17 -2
13 -5z m-2384 -11 c-7 -2 -19 -2 -25 0 -7 3 -2 5 12 5 14 0 19 -2 13 -5z
m1902 -3 c27 -7 27 -8 5 -8 -14 0 -36 4 -50 8 -20 6 -21 8 -5 8 11 0 34 -4 50
-8z m-1970 -10 c-16 -4 -39 -8 -50 -8 -16 0 -15 2 5 8 14 4 36 8 50 8 22 0 22
-1 -5 -8z m2032 -6 c-3 -3 -12 -4 -19 -1 -8 3 -5 6 6 6 11 1 17 -2 13 -5z
m523 -4 c8 -5 11 -10 5 -10 -5 0 -17 5 -25 10 -8 5 -10 10 -5 10 6 0 17 -5 25
-10z m-477 -7 c-7 -2 -19 -2 -25 0 -7 3 -2 5 12 5 14 0 19 -2 13 -5z m62 -13
c13 -5 14 -9 5 -9 -8 0 -24 4 -35 9 -13 5 -14 9 -5 9 8 0 24 -4 35 -9z m465 0
c8 -5 11 -10 5 -10 -5 0 -17 5 -25 10 -8 5 -10 10 -5 10 6 0 17 -5 25 -10z
m-3143 -47 c-3 -10 -5 -4 -5 12 0 17 2 24 5 18 2 -7 2 -21 0 -30z m2784 16
c35 -11 90 -35 122 -51 57 -31 127 -97 127 -121 0 -6 -6 -3 -12 8 -33 60 -114
112 -242 156 -45 15 -76 28 -70 28 6 1 40 -8 75 -20z m429 1 c19 -11 31 -19
25 -19 -5 0 -26 8 -45 19 -19 11 -30 19 -25 19 6 0 26 -8 45 -19z m1390 -50
c284 -60 480 -159 628 -315 126 -132 193 -281 223 -493 15 -110 6 -446 -15
-572 -127 -736 -582 -1571 -1355 -2483 -68 -81 -128 -144 -131 -140 -4 5 -14
64 -24 133 -39 290 -289 2040 -331 2325 -145 980 -165 1129 -151 1150 30 45
125 141 194 197 183 145 360 214 587 227 132 7 247 -1 375 -29z m-1213 -172
c-2 -13 -4 -3 -4 22 0 25 2 35 4 23 2 -13 2 -33 0 -45z m-3390 10 c-3 -8 -6
-5 -6 6 -1 11 2 17 5 13 3 -3 4 -12 1 -19z m3016 -51 c-18 -25 -85 -77 -99
-77 -4 0 12 14 35 31 24 17 50 43 59 59 10 16 18 25 20 20 2 -5 -5 -20 -15
-33z m322 -45 l-49 -47 44 51 c25 27 47 49 50 47 2 -2 -18 -25 -45 -51z
m-3644 -29 c13 -16 12 -17 -3 -4 -17 13 -22 21 -14 21 2 0 10 -8 17 -17z
m3204 -12 c-13 -12 -116 -53 -121 -48 -2 2 24 15 58 29 74 30 75 31 63 19z
m385 -6 c0 -2 -13 -11 -30 -20 -38 -19 -40 -11 -2 9 31 17 32 18 32 11z m-75
-45 c-3 -5 -12 -10 -18 -10 -7 0 -6 4 3 10 19 12 23 12 15 0z m-475 -15 c-19
-7 -42 -13 -50 -13 -8 0 1 6 20 13 19 7 42 13 50 13 8 0 -1 -6 -20 -13z m-90
-25 c-14 -4 -34 -8 -45 -8 -16 0 -15 2 5 8 14 4 34 8 45 8 16 0 15 -2 -5 -8z
m-77 -17 c-7 -2 -19 -2 -25 0 -7 3 -2 5 12 5 14 0 19 -2 13 -5z m-2536 -25
c-3 -8 -6 -5 -6 6 -1 11 2 17 5 13 3 -3 4 -12 1 -19z m526 15 c-7 -2 -19 -2
-25 0 -7 3 -2 5 12 5 14 0 19 -2 13 -5z m1952 -3 c-11 -5 -33 -8 -50 -8 -29 1
-29 1 5 8 49 10 69 10 45 0z m525 0 c-8 -5 -22 -9 -30 -9 -10 0 -8 3 5 9 27
12 43 12 25 0z m-2417 -7 c-7 -2 -21 -2 -30 0 -10 3 -4 5 12 5 17 0 24 -2 18
-5z m60 -10 c-7 -2 -21 -2 -30 0 -10 3 -4 5 12 5 17 0 24 -2 18 -5z m1735 0
c-10 -2 -26 -2 -35 0 -10 3 -2 5 17 5 19 0 27 -2 18 -5z m-1675 -10 c-7 -2
-21 -2 -30 0 -10 3 -4 5 12 5 17 0 24 -2 18 -5z m1610 0 c-7 -2 -21 -2 -30 0
-10 3 -4 5 12 5 17 0 24 -2 18 -5z m592 -3 c-11 -5 -27 -9 -35 -9 -9 0 -8 4 5
9 11 5 27 9 35 9 9 0 8 -4 -5 -9z m-2117 -7 c-10 -2 -28 -2 -40 0 -13 2 -5 4
17 4 22 1 32 -1 23 -4z m1460 0 c-10 -2 -28 -2 -40 0 -13 2 -5 4 17 4 22 1 32
-1 23 -4z m-1375 -10 c-13 -2 -33 -2 -45 0 -13 2 -3 4 22 4 25 0 35 -2 23 -4z
m1290 0 c-13 -2 -35 -2 -50 0 -16 2 -5 4 22 4 28 0 40 -2 28 -4z m-1190 -10
c-13 -2 -35 -2 -50 0 -16 2 -5 4 22 4 28 0 40 -2 28 -4z m1090 0 c-13 -2 -33
-2 -45 0 -13 2 -3 4 22 4 25 0 35 -2 23 -4z m-936 -10 c-20 -2 -52 -2 -70 0
-17 2 0 4 38 4 39 0 53 -2 32 -4z m796 0 c-18 -2 -48 -2 -65 0 -18 2 -4 4 32
4 36 0 50 -2 33 -4z m844 1 c-3 -3 -12 -4 -19 -1 -8 3 -5 6 6 6 11 1 17 -2 13
-5z m-1114 -11 c-83 -2 -223 -2 -310 0 -87 1 -18 3 152 3 171 0 242 -2 158 -3z
m1064 1 c-3 -3 -12 -4 -19 -1 -8 3 -5 6 6 6 11 1 17 -2 13 -5z m-94 -21 c-7
-2 -19 -2 -25 0 -7 3 -2 5 12 5 14 0 19 -2 13 -5z m-60 -10 c-7 -2 -19 -2 -25
0 -7 3 -2 5 12 5 14 0 19 -2 13 -5z m-66 -9 c-3 -3 -12 -4 -19 -1 -8 3 -5 6 6
6 11 1 17 -2 13 -5z m-74 -11 c-7 -2 -19 -2 -25 0 -7 3 -2 5 12 5 14 0 19 -2
13 -5z m-1836 -9 c-3 -3 -12 -4 -19 -1 -8 3 -5 6 6 6 11 1 17 -2 13 -5z m1786
-1 c-7 -2 -21 -2 -30 0 -10 3 -4 5 12 5 17 0 24 -2 18 -5z m-90 -10 c-7 -2
-21 -2 -30 0 -10 3 -4 5 12 5 17 0 24 -2 18 -5z m-106 -9 c-3 -3 -12 -4 -19
-1 -8 3 -5 6 6 6 11 1 17 -2 13 -5z m-89 -11 c-16 -2 -40 -2 -55 0 -16 2 -3 4
27 4 30 0 43 -2 28 -4z m-1081 -9 c-3 -3 -12 -4 -19 -1 -8 3 -5 6 6 6 11 1 17
-2 13 -5z m941 -1 c-15 -2 -42 -2 -60 0 -18 2 -6 4 27 4 33 0 48 -2 33 -4z
m-685 -10 c-7 -2 -21 -2 -30 0 -10 3 -4 5 12 5 17 0 24 -2 18 -5z m264 1 c-3
-3 -12 -4 -19 -1 -8 3 -5 6 6 6 11 1 17 -2 13 -5z m181 -1 c-26 -2 -71 -2
-100 0 -29 2 -8 3 47 3 55 0 79 -1 53 -3z"/>
<path d="M43546 19898 c-59 -195 -60 -204 -35 -265 l22 -55 48 193 c27 107 49
197 49 202 0 4 -13 7 -30 7 -28 0 -30 -3 -54 -82z"/>
<path d="M43439 19251 c-37 -26 -37 -27 -48 -131 -24 -218 -29 -333 -26 -590
5 -441 57 -809 172 -1218 53 -191 55 -174 -14 -141 -77 39 -239 79 -338 84
l-80 5 80 -14 c150 -25 293 -79 381 -143 34 -26 45 -44 68 -109 15 -44 83
-234 151 -424 198 -559 248 -752 276 -1075 12 -136 7 -395 -11 -545 -6 -47
-13 -111 -17 -143 -3 -32 -9 -60 -13 -62 -4 -3 -20 13 -35 36 -30 42 -124 118
-187 150 -45 23 -48 23 -48 5 0 -8 20 -26 44 -40 77 -45 153 -123 185 -189
l30 -62 -25 -135 c-65 -351 -159 -725 -270 -1078 -56 -178 -147 -434 -181
-512 -11 -25 -30 -70 -42 -100 l-21 -55 -50 3 c-42 3 -56 0 -85 -22 -19 -15
-38 -38 -41 -51 -8 -32 -40 -35 -89 -8 -55 31 -88 29 -117 -6 -23 -26 -31 -29
-119 -35 -251 -19 -742 -98 -722 -116 9 -8 180 -35 318 -50 614 -65 1417 -59
2000 16 165 21 445 78 433 89 -7 7 -313 45 -475 60 -94 8 -254 18 -354 22
-174 6 -185 8 -201 29 -24 30 -93 56 -151 56 -45 0 -48 2 -43 22 145 530 241
940 310 1313 130 704 137 1047 35 1738 -62 420 -40 559 116 724 36 37 65 71
65 75 0 4 -17 -6 -37 -21 -82 -63 -200 -236 -218 -321 -9 -42 -17 -33 -40 38
-10 30 -67 183 -128 340 -200 520 -269 726 -332 995 -31 130 -71 361 -81 462
-6 66 -4 76 24 136 42 91 115 196 211 305 45 50 78 92 73 92 -19 0 -214 -214
-265 -291 l-52 -79 -7 32 c-4 18 -8 146 -8 283 -1 240 7 384 31 583 6 51 10
94 8 96 -2 2 -20 -9 -40 -23z"/>
<path d="M24136 16479 c3 -5 13 -9 22 -9 33 -1 102 -40 151 -85 118 -111 132
-286 32 -413 -46 -57 -90 -87 -169 -114 l-57 -18 48 6 c106 13 206 83 254 179
76 149 10 346 -140 419 -54 27 -151 50 -141 35z"/>
<path d="M30787 14736 c-61 -22 -97 -56 -122 -115 -13 -29 -15 -329 -15 -2327
l0 -2294 -35 0 -35 0 0 -199 0 -200 -212 -3 c-198 -3 -216 -5 -255 -25 -55
-30 -107 -84 -135 -142 l-23 -46 0 -1170 0 -1170 22 -55 c60 -147 176 -236
346 -266 l37 -6 0 1196 0 1196 170 0 170 0 0 -1108 0 -1107 25 -37 c24 -36 94
-92 151 -121 29 -15 33 -14 73 9 65 36 117 81 140 118 21 33 21 40 21 1140 l0
1106 170 0 170 0 0 -1192 c0 -655 2 -1193 4 -1196 3 -2 39 3 81 13 134 29 244
124 298 255 l22 55 0 1170 0 1170 -23 46 c-27 55 -83 113 -137 142 -36 20 -58
22 -232 25 l-193 4 -1 121 c-1 67 -4 156 -8 197 l-6 75 -47 3 -48 3 -2 2308
-3 2307 -28 42 c-41 63 -93 85 -207 89 -64 2 -107 -1 -133 -11z"/>
<path d="M26055 13635 c-51 -18 -110 -81 -124 -131 -8 -27 -11 -723 -11 -2321
l0 -2283 -35 0 -36 0 1 -257 1 -258 -703 -5 -703 -5 -56 -26 c-69 -32 -132
-88 -165 -146 -54 -91 -54 -84 -54 -954 l0 -806 23 -33 c36 -54 72 -75 127
-75 52 0 87 19 124 69 20 27 21 43 26 479 l5 452 120 0 120 0 5 -452 c5 -436
6 -452 26 -479 37 -50 72 -69 124 -69 52 0 87 19 124 69 20 27 21 43 26 479
l5 452 122 3 122 3 3 -455 c3 -441 4 -455 24 -482 37 -50 72 -69 124 -69 52 0
87 19 124 69 20 27 21 43 26 479 l5 452 122 3 122 3 3 -455 c3 -441 4 -455 24
-482 37 -50 72 -69 124 -69 52 0 87 19 124 69 20 27 21 43 26 479 l5 452 120
0 120 0 5 -452 c5 -436 6 -452 26 -479 37 -50 72 -69 124 -69 52 0 87 19 124
69 20 27 21 43 26 479 l5 452 122 3 122 3 3 -455 c3 -441 4 -455 24 -482 52
-70 117 -89 186 -55 85 41 82 26 88 536 l5 450 122 3 122 3 3 -455 c3 -441 4
-455 24 -482 52 -70 117 -89 186 -55 85 41 82 26 88 536 l5 450 122 3 122 3 3
-455 c3 -441 4 -455 24 -482 52 -71 117 -89 189 -54 32 16 52 34 66 61 19 38
19 58 17 867 l-3 827 -27 57 c-35 76 -104 148 -175 184 l-58 29 -757 3 -758 2
0 199 c0 109 -3 226 -6 260 l-7 61 -42 0 -42 0 -6 1028 c-4 565 -7 1600 -7
2300 0 1244 0 1274 -20 1311 -24 48 -70 87 -118 101 -53 14 -190 12 -237 -5z"/>
<path d="M42908 12883 c7 -3 16 -2 19 1 4 3 -2 6 -13 5 -11 0 -14 -3 -6 -6z"/>
<path d="M44428 12853 c7 -3 16 -2 19 1 4 3 -2 6 -13 5 -11 0 -14 -3 -6 -6z"/>
<path d="M45193 12594 c-90 -69 -415 -147 -743 -179 -36 -3 -76 -8 -90 -11
l-25 -5 -2 -221 c-9 -899 -204 -1630 -577 -2157 -76 -108 -153 -197 -260 -302
-47 -45 -82 -87 -79 -92 3 -6 1 -7 -6 -3 -7 4 -31 -9 -59 -32 -205 -171 -561
-336 -862 -401 -113 -24 -305 -51 -360 -51 -22 0 -40 -2 -40 -5 0 -19 35 -67
78 -107 147 -137 493 -240 982 -290 188 -19 688 -16 880 5 477 54 798 176 896
343 25 43 27 57 170 1771 79 950 143 1737 142 1749 -3 19 -6 18 -45 -12z m24
-116 c-3 -7 -5 -2 -5 12 0 14 2 19 5 13 2 -7 2 -19 0 -25z m-30 -325 c-3 -10
-5 -2 -5 17 0 19 2 27 5 18 2 -10 2 -26 0 -35z m-10 -85 c-3 -8 -6 -5 -6 6 -1
11 2 17 5 13 3 -3 4 -12 1 -19z m-10 -115 c-3 -10 -5 -2 -5 17 0 19 2 27 5 18
2 -10 2 -26 0 -35z m-10 -95 c-2 -13 -4 -3 -4 22 0 25 2 35 4 23 2 -13 2 -33
0 -45z m-10 -85 c-3 -10 -5 -4 -5 12 0 17 2 24 5 18 2 -7 2 -21 0 -30z m-10
-105 c-2 -13 -4 -5 -4 17 -1 22 1 32 4 23 2 -10 2 -28 0 -40z m-10 -70 c-3 -8
-6 -5 -6 6 -1 11 2 17 5 13 3 -3 4 -12 1 -19z m0 -40 c-3 -8 -6 -5 -6 6 -1 11
2 17 5 13 3 -3 4 -12 1 -19z m-20 -185 c-3 -10 -5 -4 -5 12 0 17 2 24 5 18 2
-7 2 -21 0 -30z m-10 -100 c-3 -10 -5 -2 -5 17 0 19 2 27 5 18 2 -10 2 -26 0
-35z m-10 -120 c-3 -10 -5 -4 -5 12 0 17 2 24 5 18 2 -7 2 -21 0 -30z m-10
-80 c-3 -10 -5 -2 -5 17 0 19 2 27 5 18 2 -10 2 -26 0 -35z m-10 -105 c-2 -13
-4 -5 -4 17 -1 22 1 32 4 23 2 -10 2 -28 0 -40z m-10 -70 c-3 -7 -5 -2 -5 12
0 14 2 19 5 13 2 -7 2 -19 0 -25z m-10 -125 c-3 -10 -5 -2 -5 17 0 19 2 27 5
18 2 -10 2 -26 0 -35z m-10 -105 c-3 -7 -5 -2 -5 12 0 14 2 19 5 13 2 -7 2
-19 0 -25z m-10 -90 c-2 -13 -4 -3 -4 22 0 25 2 35 4 23 2 -13 2 -33 0 -45z
m-10 -85 c-3 -10 -5 -4 -5 12 0 17 2 24 5 18 2 -7 2 -21 0 -30z m-10 -125 c-3
-7 -5 -2 -5 12 0 14 2 19 5 13 2 -7 2 -19 0 -25z m-10 -100 c-2 -13 -4 -5 -4
17 -1 22 1 32 4 23 2 -10 2 -28 0 -40z m-10 -65 c-3 -10 -5 -4 -5 12 0 17 2
24 5 18 2 -7 2 -21 0 -30z m-10 -120 c-3 -10 -5 -4 -5 12 0 17 2 24 5 18 2 -7
2 -21 0 -30z m-10 -115 c-2 -13 -4 -3 -4 22 0 25 2 35 4 23 2 -13 2 -33 0 -45z
m-20 -195 c-3 -10 -5 -4 -5 12 0 17 2 24 5 18 2 -7 2 -21 0 -30z m-10 -105
c-2 -13 -4 -5 -4 17 -1 22 1 32 4 23 2 -10 2 -28 0 -40z m-10 -100 c-2 -13 -4
-3 -4 22 0 25 2 35 4 23 2 -13 2 -33 0 -45z m-10 -95 c-3 -10 -5 -2 -5 17 0
19 2 27 5 18 2 -10 2 -26 0 -35z m-10 -105 c-2 -13 -4 -5 -4 17 -1 22 1 32 4
23 2 -10 2 -28 0 -40z m-10 -110 c-2 -13 -4 -3 -4 22 0 25 2 35 4 23 2 -13 2
-33 0 -45z m-10 -90 c-2 -13 -4 -5 -4 17 -1 22 1 32 4 23 2 -10 2 -28 0 -40z
m-17 -51 c0 -2 -17 -19 -37 -38 -20 -18 -32 -27 -25 -18 6 9 8 20 4 24 -4 5
-2 5 4 2 6 -4 19 2 29 13 17 19 25 24 25 17z m-2716 -29 c4 4 6 2 4 -4 -1 -6
13 -26 32 -44 32 -29 32 -30 5 -12 -16 11 -41 33 -55 48 -14 16 -18 23 -9 16
9 -6 19 -8 23 -4z m2586 -72 c0 -2 -7 -7 -16 -10 -8 -3 -12 -2 -9 4 6 10 25
14 25 6z m-2445 -36 c3 -6 -1 -7 -9 -4 -18 7 -21 14 -7 14 6 0 13 -4 16 -10z
m2375 0 c-8 -5 -19 -10 -25 -10 -5 0 -3 5 5 10 8 5 20 10 25 10 6 0 3 -5 -5
-10z m-2250 -45 c19 -7 28 -14 20 -14 -8 0 -28 6 -45 14 -39 17 -21 18 25 0z
m1977 -41 c-3 -3 -12 -4 -19 -1 -8 3 -5 6 6 6 11 1 17 -2 13 -5z m-40 -10 c-3
-3 -12 -4 -19 -1 -8 3 -5 6 6 6 11 1 17 -2 13 -5z m-1704 -11 c-7 -2 -19 -2
-25 0 -7 3 -2 5 12 5 14 0 19 -2 13 -5z m1644 1 c-3 -3 -12 -4 -19 -1 -8 3 -5
6 6 6 11 1 17 -2 13 -5z m-97 -20 c0 -2 -9 -4 -20 -4 -11 0 -20 4 -20 9 0 5 9
7 20 4 11 -3 20 -7 20 -9z m53 9 c-7 -2 -19 -2 -25 0 -7 3 -2 5 12 5 14 0 19
-2 13 -5z m-1496 -9 c-3 -3 -12 -4 -19 -1 -8 3 -5 6 6 6 11 1 17 -2 13 -5z
m76 -11 c-7 -2 -19 -2 -25 0 -7 3 -2 5 12 5 14 0 19 -2 13 -5z m1290 0 c-7 -2
-21 -2 -30 0 -10 3 -4 5 12 5 17 0 24 -2 18 -5z m-1210 -10 c-7 -2 -19 -2 -25
0 -7 3 -2 5 12 5 14 0 19 -2 13 -5z m1130 0 c-7 -2 -21 -2 -30 0 -10 3 -4 5
12 5 17 0 24 -2 18 -5z m-1035 -10 c-10 -2 -28 -2 -40 0 -13 2 -5 4 17 4 22 1
32 -1 23 -4z m945 0 c-13 -2 -35 -2 -50 0 -16 2 -5 4 22 4 28 0 40 -2 28 -4z
m-810 -10 c-13 -2 -33 -2 -45 0 -13 2 -3 4 22 4 25 0 35 -2 23 -4z m685 0
c-10 -2 -28 -2 -40 0 -13 2 -5 4 17 4 22 1 32 -1 23 -4z m-305 -10 c-46 -2
-120 -2 -165 0 -46 1 -9 3 82 3 91 0 128 -2 83 -3z"/>
<path d="M16192 12376 c-93 -23 -197 -82 -265 -150 -99 -99 -167 -249 -167
-368 l0 -48 1060 0 c1037 0 1060 0 1060 19 0 11 -6 52 -14 93 -41 211 -171
360 -386 442 -53 20 -72 21 -645 23 -457 1 -602 -1 -643 -11z"/>
<path d="M18053 11793 c9 -2 23 -2 30 0 6 3 -1 5 -18 5 -16 0 -22 -2 -12 -5z"/>
<path d="M18138 11783 c7 -3 16 -2 19 1 4 3 -2 6 -13 5 -11 0 -14 -3 -6 -6z"/>
<path d="M18188 11773 c7 -3 16 -2 19 1 4 3 -2 6 -13 5 -11 0 -14 -3 -6 -6z"/>
<path d="M18400 11710 c8 -5 20 -10 25 -10 6 0 3 5 -5 10 -8 5 -19 10 -25 10
-5 0 -3 -5 5 -10z"/>
<path d="M18520 11656 c0 -3 9 -10 20 -16 11 -6 20 -8 20 -6 0 3 -9 10 -20 16
-11 6 -20 8 -20 6z"/>
<path d="M18570 11626 c0 -3 9 -10 20 -16 11 -6 20 -8 20 -6 0 3 -9 10 -20 16
-11 6 -20 8 -20 6z"/>
<path d="M18620 11596 c0 -2 8 -10 18 -17 15 -13 16 -12 3 4 -13 16 -21 21
-21 13z"/>
<path d="M18660 11567 c0 -2 19 -19 43 -37 23 -19 36 -26 28 -17 -15 19 -71
61 -71 54z"/>
<path d="M18751 11493 c0 -5 19 -24 42 -43 l42 -34 -40 42 c-40 43 -46 47 -44
35z"/>
<path d="M18869 11363 c24 -29 46 -53 48 -53 7 0 -54 75 -74 91 -10 8 2 -10
26 -38z"/>
<path d="M18935 11276 c10 -14 19 -26 22 -26 7 0 -17 39 -28 46 -6 3 -3 -5 6
-20z"/>
<path d="M18970 11220 c6 -11 13 -20 16 -20 2 0 0 9 -6 20 -6 11 -13 20 -16
20 -2 0 0 -9 6 -20z"/>
<path d="M19001 11170 c14 -31 19 -36 19 -24 0 6 -7 19 -16 30 -14 18 -14 18
-3 -6z"/>
<path d="M19026 11117 c3 -10 9 -15 12 -12 3 3 0 11 -7 18 -10 9 -11 8 -5 -6z"/>
<path d="M19050 11065 c0 -5 5 -17 10 -25 5 -8 10 -10 10 -5 0 6 -5 17 -10 25
-5 8 -10 11 -10 5z"/>
<path d="M35180 10529 c-799 -37 -1542 -339 -2077 -844 -164 -154 -328 -366
-340 -439 -12 -73 97 -228 311 -442 508 -506 1178 -797 1991 -865 263 -22 935
9 935 43 0 5 -16 67 -36 136 -34 121 -115 413 -174 627 l-27 100 161 -3 c89
-2 207 -1 264 3 l102 7 0 44 0 44 483 1 c265 1 1306 5 2313 8 l1830 6 42 28
c59 39 84 93 90 195 3 49 0 100 -8 126 -14 52 -59 109 -103 134 -30 16 -177
17 -2337 22 l-2305 5 -3 33 -3 32 -249 0 c-146 0 -260 -4 -276 -10 -15 -6 -28
-9 -30 -8 -1 2 58 221 132 487 74 266 132 486 130 488 -7 7 -234 32 -346 38
-232 11 -308 12 -470 4z m2497 -1266 c-2 -37 -3 -9 -3 62 0 72 1 102 3 68 2
-34 2 -93 0 -130z"/>
<path d="M14928 9753 c7 -3 16 -2 19 1 4 3 -2 6 -13 5 -11 0 -14 -3 -6 -6z"/>
<path d="M14968 9743 c6 -2 18 -2 25 0 6 3 1 5 -13 5 -14 0 -19 -2 -12 -5z"/>
<path d="M19678 8743 c7 -3 16 -2 19 1 4 3 -2 6 -13 5 -11 0 -14 -3 -6 -6z"/>
<path d="M19718 8733 c7 -3 16 -2 19 1 4 3 -2 6 -13 5 -11 0 -14 -3 -6 -6z"/>
<path d="M19818 8713 c7 -3 16 -2 19 1 4 3 -2 6 -13 5 -11 0 -14 -3 -6 -6z"/>
<path d="M19858 8703 c7 -3 16 -2 19 1 4 3 -2 6 -13 5 -11 0 -14 -3 -6 -6z"/>
<path d="M19908 8693 c7 -3 16 -2 19 1 4 3 -2 6 -13 5 -11 0 -14 -3 -6 -6z"/>
<path d="M19958 8683 c7 -3 16 -2 19 1 4 3 -2 6 -13 5 -11 0 -14 -3 -6 -6z"/>
<path d="M20008 8673 c7 -3 16 -2 19 1 4 3 -2 6 -13 5 -11 0 -14 -3 -6 -6z"/>
<path d="M20048 8663 c7 -3 16 -2 19 1 4 3 -2 6 -13 5 -11 0 -14 -3 -6 -6z"/>
<path d="M20098 8653 c7 -3 16 -2 19 1 4 3 -2 6 -13 5 -11 0 -14 -3 -6 -6z"/>
<path d="M20148 8643 c7 -3 16 -2 19 1 4 3 -2 6 -13 5 -11 0 -14 -3 -6 -6z"/>
<path d="M20188 8633 c7 -3 16 -2 19 1 4 3 -2 6 -13 5 -11 0 -14 -3 -6 -6z"/>
<path d="M20288 8613 c7 -3 16 -2 19 1 4 3 -2 6 -13 5 -11 0 -14 -3 -6 -6z"/>
<path d="M20328 8603 c7 -3 16 -2 19 1 4 3 -2 6 -13 5 -11 0 -14 -3 -6 -6z"/>
</g>
</svg>
