<?xml version="1.0" standalone="no"?>
<!DOCTYPE svg PUBLIC "-//W3C//DTD SVG 20010904//EN"
 "http://www.w3.org/TR/2001/REC-SVG-20010904/DTD/svg10.dtd">
<svg version="1.0" xmlns="http://www.w3.org/2000/svg"
 width="4500.000000pt" height="4500.000000pt" viewBox="0 0 4500.000000 4500.000000"
 preserveAspectRatio="xMidYMid meet">

<g transform="translate(0.000000,4500.000000) scale(0.100000,-0.100000)"
fill="#000000" stroke="none">
<path d="M5170 41875 l0 -525 675 0 675 0 0 525 0 525 -675 0 -675 0 0 -525z"/>
<path d="M17015 42324 c-573 -46 -950 -303 -1089 -744 -45 -142 -59 -261 -52
-460 7 -214 10 -230 43 -230 14 0 40 -9 58 -20 32 -20 32 -21 39 -123 10 -148
42 -363 77 -510 130 -557 421 -923 826 -1039 66 -19 102 -23 228 -22 134 0
160 3 238 27 334 103 585 369 741 790 66 178 129 498 143 727 7 126 20 152 80
165 15 4 33 8 40 10 30 9 37 379 10 530 -86 481 -414 785 -941 875 -110 18
-345 31 -441 24z m815 -764 c179 -182 279 -503 282 -910 1 -142 1 -147 -36
-255 -48 -144 -114 -277 -198 -400 -84 -124 -126 -172 -143 -159 -350 267
-537 337 -728 273 -100 -33 -248 -116 -363 -202 l-107 -81 -34 39 c-110 127
-226 337 -290 521 l-38 109 0 225 c0 124 4 241 8 260 l7 35 217 0 c188 0 231
3 316 22 150 34 270 77 412 148 221 110 420 272 515 419 l42 64 36 -21 c21
-11 66 -51 102 -87z m-539 -1740 c68 -13 138 -48 162 -81 15 -21 16 -30 6 -51
-15 -34 -89 -73 -166 -88 -95 -19 -304 -9 -372 18 -148 58 -130 150 38 194 76
19 248 24 332 8z"/>
<path d="M28048 41914 c-49 -26 -58 -59 -58 -208 l0 -135 -52 -15 c-81 -24
-175 -85 -237 -153 l-56 -63 -107 0 -108 0 0 -25 c0 -24 -3 -25 -60 -25 -47 0
-60 -3 -60 -15 0 -13 -63 -15 -502 -15 -589 -1 -714 -7 -810 -43 -179 -68
-318 -212 -381 -397 -22 -65 -22 -67 -27 -980 l-5 -915 -42 -3 -43 -3 0 -140
0 -139 45 0 44 0 3 -917 c3 -918 3 -918 25 -976 79 -207 225 -349 422 -411 66
-21 74 -21 2011 -21 1595 0 1955 2 2000 13 171 42 328 165 408 320 74 141 72
110 72 1105 l0 887 45 0 45 0 0 139 0 140 -42 3 -43 3 0 875 c-1 638 -4 894
-13 945 -30 175 -160 350 -320 434 -146 75 -131 74 -749 79 -468 3 -553 6
-553 18 0 10 -15 14 -60 14 -57 0 -60 1 -60 25 l0 25 -108 0 c-63 0 -112 4
-119 11 -7 7 -12 4 -16 -11 -4 -17 -3 -19 9 -9 11 9 14 8 14 -3 0 -8 8 -23 18
-34 22 -24 54 -113 45 -127 -3 -5 -1 -7 4 -4 14 9 24 -79 18 -168 -5 -88 -23
-153 -46 -168 -9 -6 -15 -16 -13 -22 7 -16 -22 -69 -31 -56 -9 15 -28 14 -51
-4 -16 -13 -16 -14 -1 -9 13 5 16 2 14 -12 -1 -11 -6 -25 -10 -31 -5 -7 -5
-13 0 -13 4 0 1 -5 -7 -11 -13 -9 -13 -10 0 -6 8 2 15 9 15 16 0 6 7 16 15 21
8 5 10 10 3 10 -6 0 -9 9 -6 20 6 22 18 26 28 10 4 -6 53 -10 115 -10 l109 0
3 28 c3 26 6 27 61 30 42 2 57 7 57 18 0 13 67 14 528 12 l527 -3 41 -23 c22
-13 52 -41 66 -62 l25 -39 7 -876 c4 -482 4 -880 1 -885 -3 -6 -24 -10 -46
-10 l-39 0 0 -140 0 -140 40 0 40 0 0 -875 c0 -859 0 -877 -20 -915 -11 -22
-39 -52 -62 -67 l-42 -28 -788 -3 -788 -2 0 245 0 245 513 2 512 3 3 73 3 72
-751 0 -750 0 0 640 0 640 -345 0 -345 0 0 -640 0 -640 -220 0 -221 0 3 -72 3
-73 513 -3 512 -2 0 -245 0 -245 -822 0 c-820 0 -822 0 -866 21 -29 15 -54 37
-73 67 l-29 46 0 878 0 878 40 0 40 0 0 140 0 140 -40 0 -40 0 2 888 3 888 25
37 c13 20 41 45 61 56 36 21 50 21 613 21 357 0 576 -4 576 -10 0 -5 26 -10
58 -12 54 -3 57 -4 60 -30 l3 -28 107 0 106 0 57 -59 c104 -110 226 -168 372
-178 62 -5 77 -3 77 8 0 12 2 12 9 1 7 -11 9 -11 14 1 6 16 -9 17 -30 4 -7 -5
-17 -5 -23 -2 -6 4 -10 193 -10 535 0 520 3 573 31 529 6 -10 9 -11 9 -1 0 6
9 12 20 12 11 0 20 -4 20 -8 0 -4 8 -8 18 -9 16 -1 17 10 12 145 -6 161 -12
181 -66 207 -40 19 -71 18 -106 -1z m152 -4919 l0 -245 -95 0 -95 0 0 245 0
245 95 0 95 0 0 -245z"/>
<path d="M37588 41740 c-916 -5 -927 -5 -954 -26 -15 -11 -37 -33 -48 -48 -20
-26 -21 -42 -24 -367 l-3 -339 1951 0 1950 0 0 325 c0 354 -2 366 -56 417 -16
14 -47 31 -69 37 -41 11 -851 12 -2747 1z"/>
<path d="M28125 41040 c0 -289 1 -407 2 -262 2 144 2 380 0 525 -1 144 -2 26
-2 -263z"/>
<path d="M28255 41549 c-4 -6 -5 -12 -2 -15 2 -3 7 2 10 11 7 17 1 20 -8 4z"/>
<path d="M28295 41539 c-4 -6 -5 -12 -2 -15 2 -3 7 2 10 11 7 17 1 20 -8 4z"/>
<path d="M28270 41530 c0 -5 -7 -10 -16 -10 -13 0 -14 -3 -5 -13 6 -8 10 -16
8 -18 -1 -2 2 -1 7 3 10 8 19 48 11 48 -3 0 -5 -4 -5 -10z"/>
<path d="M28376 41502 c-3 -5 1 -9 9 -9 8 0 12 4 9 9 -3 4 -7 8 -9 8 -2 0 -6
-4 -9 -8z"/>
<path d="M28411 41461 c-8 -6 -9 -11 -3 -15 6 -3 14 -1 17 5 9 14 2 20 -14 10z"/>
<path d="M28447 41460 c10 -11 10 -17 0 -29 -8 -10 -9 -13 0 -8 7 4 13 0 16
-10 3 -10 4 -5 4 10 -1 16 -8 33 -17 40 -12 9 -13 9 -3 -3z"/>
<path d="M28503 41399 c9 -6 14 -15 11 -21 -4 -7 -2 -8 5 -4 14 9 -3 36 -23
36 -6 0 -3 -5 7 -11z"/>
<path d="M28491 41375 c0 -5 6 -18 13 -28 12 -16 14 -16 20 -2 3 9 2 13 -3 10
-6 -3 -14 3 -20 12 -6 10 -10 14 -10 8z"/>
<path d="M28566 41247 c3 -10 9 -15 12 -12 3 3 0 11 -7 18 -10 9 -11 8 -5 -6z"/>
<path d="M28586 41223 c-8 -20 9 -40 19 -22 6 8 4 10 -5 4 -9 -5 -10 -2 -5 14
8 25 0 29 -9 4z"/>
<path d="M28575 40850 c12 -5 14 -9 6 -9 -8 -1 -12 -3 -9 -6 7 -7 38 5 38 14
0 4 -12 7 -27 8 -24 1 -25 1 -8 -7z"/>
<path d="M28480 40699 c0 -5 5 -7 10 -4 6 3 10 8 10 11 0 2 -4 4 -10 4 -5 0
-10 -5 -10 -11z"/>
<path d="M28415 40650 c-3 -5 -3 -10 2 -10 4 0 2 -4 -5 -9 -11 -7 -11 -9 0
-14 10 -3 14 3 14 19 0 26 -2 29 -11 14z"/>
<path d="M28465 40640 c3 -5 8 -10 11 -10 2 0 4 5 4 10 0 6 -5 10 -11 10 -5 0
-7 -4 -4 -10z"/>
<path d="M28254 40589 c-4 -7 -8 -28 -9 -48 -1 -20 0 -28 2 -18 5 18 22 22 39
10 5 -5 2 -1 -8 8 -9 9 -14 19 -11 23 4 3 0 6 -8 6 -12 0 -12 2 1 10 8 5 12
12 8 15 -3 4 -9 1 -14 -6z"/>
<path d="M28356 40585 c4 -8 11 -15 16 -15 6 0 5 6 -2 15 -7 8 -14 15 -16 15
-2 0 -1 -7 2 -15z"/>
<path d="M28318 40563 c6 -2 18 -2 25 0 6 3 1 5 -13 5 -14 0 -19 -2 -12 -5z"/>
<path d="M5104 40439 c-99 -51 -190 -153 -231 -259 -14 -36 -18 -90 -23 -275
l-5 -230 -597 -5 c-393 -3 -601 -9 -607 -15 -6 -6 -71 -150 -145 -320 l-135
-310 -89 -5 c-54 -3 -96 -10 -106 -19 -13 -11 -16 -35 -16 -151 0 -165 1 -168
105 -172 l70 -3 262 -1155 c223 -979 266 -1158 284 -1172 20 -17 129 -18 1969
-18 1899 0 1947 0 1964 19 12 13 101 387 280 1172 l262 1154 69 3 c104 5 105
7 105 173 0 168 0 169 -126 169 l-81 0 -26 58 c-14 31 -73 167 -131 301 -59
135 -113 255 -121 268 l-15 23 -598 2 -597 3 -5 230 c-5 208 -8 235 -28 284
-47 111 -137 208 -239 256 -30 15 -56 25 -58 23 -1 -2 -12 -84 -25 -183 -12
-99 -24 -183 -25 -186 -2 -3 3 -25 11 -48 11 -32 14 -83 12 -209 l-3 -167
-630 0 -630 0 -3 175 c-1 96 2 186 7 201 6 16 6 54 1 96 -5 37 -12 125 -16
196 -5 91 -11 127 -19 127 -7 0 -39 -14 -71 -31z m-206 -1591 l-3 -303 -407
-3 -408 -2 0 305 0 305 410 0 410 0 -2 -302z m2690 0 l-3 -303 -407 -3 -408
-2 0 305 0 305 410 0 410 0 -2 -302z"/>
<path d="M27754 39964 l-349 -275 -3 131 -3 130 -119 0 -120 0 0 -222 c0 -123
-4 -228 -8 -233 -4 -6 -104 -87 -222 -179 -118 -93 -219 -173 -224 -177 -6 -5
40 -9 105 -9 l114 1 589 464 c324 255 594 461 600 458 6 -4 273 -213 593 -465
l582 -459 109 3 110 3 -686 540 c-377 297 -693 545 -702 552 -15 11 -65 -25
-366 -263z"/>
<path d="M38435 39990 c-283 -32 -515 -232 -591 -510 -27 -98 -25 -263 5 -360
70 -227 231 -395 447 -466 79 -26 103 -29 214 -29 111 0 135 3 214 29 204 67
366 227 436 432 11 32 20 59 20 61 0 1 -22 3 -50 3 l-50 0 0 160 0 160 49 0
49 0 -10 38 c-30 110 -122 248 -221 330 -138 113 -336 172 -512 152z"/>
<path d="M18880 39337 c-36 -35 -184 -175 -330 -312 -449 -421 -752 -707 -825
-777 l-70 -68 63 0 62 0 0 -925 0 -925 230 0 230 0 0 553 c0 441 3 566 15 620
40 192 191 359 376 419 l69 22 0 73 0 73 80 0 80 0 0 110 c0 109 0 110 -22
105 -35 -7 -251 -45 -260 -45 -4 0 -8 45 -8 100 0 73 3 100 13 100 6 0 74 -11
151 -25 124 -22 140 -23 159 -10 12 8 29 15 39 15 17 0 18 29 20 459 2 253 1
469 -2 480 -4 18 -13 13 -70 -42z"/>
<path d="M19130 39210 c6 -11 13 -20 16 -20 2 0 0 9 -6 20 -6 11 -13 20 -16
20 -2 0 0 -9 6 -20z"/>
<path d="M19120 39175 c0 -7 30 -13 34 -7 3 4 -4 9 -15 9 -10 1 -19 0 -19 -2z"/>
<path d="M19175 39169 c-5 -7 -4 -10 3 -5 11 7 36 -27 26 -37 -3 -3 -1 -8 5
-11 15 -9 4 35 -13 52 -11 11 -15 11 -21 1z"/>
<path d="M19360 39005 c0 -3 12 -18 26 -33 l27 -27 -22 33 c-21 30 -31 39 -31
27z"/>
<path d="M19409 38933 c-13 -16 -12 -17 4 -4 9 7 17 15 17 17 0 8 -8 3 -21
-13z"/>
<path d="M19443 38884 c0 -16 25 -27 39 -18 6 4 15 0 20 -7 8 -12 9 -11 5 1
-2 8 -14 14 -25 13 -14 -2 -20 2 -16 11 3 7 -1 13 -9 13 -7 0 -14 -6 -14 -13z"/>
<path d="M28280 38370 l0 -530 350 0 350 0 0 530 0 530 -350 0 -350 0 0 -530z"/>
<path d="M19447 38849 c7 -7 15 -10 18 -7 3 3 -2 9 -12 12 -14 6 -15 5 -6 -5z"/>
<path d="M19527 38825 c-4 -8 -3 -16 1 -19 4 -3 9 4 9 15 2 23 -3 25 -10 4z"/>
<path d="M19565 38810 c10 -11 20 -20 23 -20 3 0 -3 9 -13 20 -10 11 -20 20
-23 20 -3 0 3 -9 13 -20z"/>
<path d="M19547 38773 c3 -7 6 -13 8 -13 2 0 5 6 8 13 3 8 -1 14 -8 14 -7 0
-11 -6 -8 -14z"/>
<path d="M19618 38723 c10 -4 10 -8 0 -21 -11 -15 -11 -15 2 -6 18 12 30 12
50 -1 13 -8 13 -7 1 8 -7 9 -17 15 -21 12 -5 -3 -11 -1 -15 5 -3 5 -12 10 -18
9 -8 0 -8 -2 1 -6z"/>
<path d="M19697 38646 c-3 -8 4 -21 17 -29 18 -13 23 -13 23 -2 0 8 -3 14 -6
13 -26 -3 -33 3 -21 17 7 9 8 15 2 15 -5 0 -12 -6 -15 -14z"/>
<path d="M19742 38640 c7 -11 17 -20 22 -20 5 0 1 9 -9 20 -10 11 -20 20 -22
20 -2 0 2 -9 9 -20z"/>
<path d="M19783 38545 c0 -8 4 -12 9 -9 4 3 8 9 8 15 0 5 -4 9 -8 9 -5 0 -9
-7 -9 -15z"/>
<path d="M19203 38503 c1 -12 5 -19 9 -17 4 3 8 -2 8 -10 0 -8 4 -17 8 -20 4
-2 8 11 8 29 0 25 -3 31 -12 24 -8 -7 -14 -6 -17 3 -3 7 -4 3 -4 -9z"/>
<path d="M19349 38518 c-5 -18 -6 -38 -1 -34 7 8 12 36 6 36 -2 0 -4 -1 -5 -2z"/>
<path d="M19306 38501 c-3 -4 4 -17 17 -27 22 -19 22 -19 4 2 -9 11 -14 24
-10 27 3 4 4 7 0 7 -3 0 -8 -4 -11 -9z"/>
<path d="M19865 38500 c-8 -12 25 -61 36 -54 5 3 9 7 9 10 0 3 -4 3 -9 -1 -9
-5 -27 32 -23 48 3 10 -6 9 -13 -3z"/>
<path d="M19890 38485 c0 -3 12 -10 26 -15 15 -6 22 -14 18 -22 -5 -7 -3 -8 6
-3 10 6 8 12 -9 27 -23 17 -41 23 -41 13z"/>
<path d="M19840 38461 c0 -5 7 -11 15 -15 8 -3 15 -1 15 3 0 5 -7 11 -15 15
-8 3 -15 1 -15 -3z"/>
<path d="M19016 38427 c3 -10 9 -15 12 -12 3 3 0 11 -7 18 -10 9 -11 8 -5 -6z"/>
<path d="M19920 38386 c0 -2 8 -10 18 -17 15 -13 16 -12 3 4 -13 16 -21 21
-21 13z"/>
<path d="M20017 38366 c-3 -8 2 -20 11 -28 15 -11 16 -11 4 4 -10 13 -10 17 0
20 8 3 9 6 1 11 -6 4 -13 0 -16 -7z"/>
<path d="M20053 38313 c4 -7 22 -22 40 -34 27 -19 30 -20 16 -3 -9 10 -14 26
-12 34 4 13 3 13 -5 1 -9 -13 -13 -13 -28 0 -10 8 -15 9 -11 2z"/>
<path d="M19058 38283 c7 -3 16 -2 19 1 4 3 -2 6 -13 5 -11 0 -14 -3 -6 -6z"/>
<path d="M19216 38258 c3 -4 9 -8 15 -8 5 0 9 4 9 8 0 5 -7 9 -15 9 -8 0 -12
-4 -9 -9z"/>
<path d="M19326 38259 c2 -4 -2 -10 -8 -12 -8 -3 -6 -6 5 -6 10 -1 15 -6 12
-11 -4 -6 -10 -8 -15 -5 -4 3 -11 -2 -14 -10 -5 -13 -2 -14 17 -3 12 7 26 11
31 10 5 -2 4 4 -3 12 -7 8 -10 19 -7 24 3 5 -1 9 -9 9 -8 0 -12 -4 -9 -8z"/>
<path d="M20103 38234 c0 -7 4 -11 8 -8 15 9 20 -17 5 -31 -13 -14 -16 -13
-25 2 -6 10 -11 13 -11 6 0 -6 5 -15 10 -18 7 -5 8 -11 1 -19 -5 -6 -6 -18 -2
-25 6 -9 11 -10 15 -2 4 6 2 11 -5 11 -8 0 -5 7 6 20 10 11 22 17 26 14 5 -3
9 4 9 15 0 11 -5 23 -10 26 -6 4 -8 10 -6 14 3 4 -1 8 -8 8 -7 0 -13 -6 -13
-13z"/>
<path d="M20166 38196 c3 -7 11 -13 19 -13 22 0 18 14 -4 20 -13 3 -18 0 -15
-7z"/>
<path d="M19130 38110 c0 -5 7 -7 15 -4 8 4 15 8 15 10 0 2 -7 4 -15 4 -8 0
-15 -4 -15 -10z"/>
<path d="M20105 37240 c0 -487 1 -686 2 -442 2 243 2 641 0 885 -1 243 -2 44
-2 -443z"/>
<path d="M19270 37949 c0 -5 5 -7 10 -4 6 3 10 8 10 11 0 2 -4 4 -10 4 -5 0
-10 -5 -10 -11z"/>
<path d="M19324 37951 c4 -5 1 -11 -6 -13 -7 -3 -3 -7 10 -10 19 -5 20 -4 11
13 -5 10 -12 19 -15 19 -3 0 -3 -4 0 -9z"/>
<path d="M19365 37950 c-16 -7 -17 -9 -3 -9 9 -1 20 4 23 9 7 11 7 11 -20 0z"/>
<path d="M19486 37872 c-3 -5 1 -9 9 -9 8 0 12 4 9 9 -3 4 -7 8 -9 8 -2 0 -6
-4 -9 -8z"/>
<path d="M19524 37869 c-3 -6 -2 -15 3 -20 5 -5 9 -1 10 11 2 22 -2 25 -13 9z"/>
<path d="M19554 37842 c4 -7 2 -20 -6 -29 -9 -12 -9 -15 0 -9 7 4 12 2 12 -7
0 -8 8 -21 18 -28 15 -13 16 -12 4 3 -8 9 -11 22 -7 28 3 5 0 10 -7 10 -10 0
-9 3 2 9 8 6 18 7 22 5 4 -3 8 0 8 6 0 7 -6 10 -14 7 -7 -3 -19 0 -26 6 -10 9
-11 9 -6 -1z"/>
<path d="M19646 37792 c-2 -4 4 -8 14 -8 10 0 16 4 14 8 -3 4 -9 8 -14 8 -5 0
-11 -4 -14 -8z"/>
<path d="M19627 37753 c3 -7 -1 -13 -8 -13 -7 0 -9 -3 -6 -6 4 -4 13 -1 21 5
12 10 17 8 27 -11 11 -20 10 -22 -3 -10 -13 10 -16 9 -21 -7 -3 -13 -1 -18 8
-14 9 3 13 -2 11 -14 -2 -10 -1 -12 1 -5 3 6 8 12 13 12 9 0 5 38 -5 48 -2 3
1 12 8 21 11 14 10 14 -5 2 -10 -7 -18 -9 -18 -4 0 5 -6 10 -14 10 -8 0 -12
-6 -9 -14z"/>
<path d="M19723 37627 c0 -8 6 -14 14 -14 9 0 10 4 2 14 -6 7 -12 13 -14 13
-1 0 -2 -6 -2 -13z"/>
<path d="M18760 37611 c-44 -14 -84 -38 -117 -73 -65 -67 -63 -51 -63 -658 l0
-550 185 2 186 3 -1 625 0 625 91 -3 c63 -2 89 0 84 7 -3 7 -41 11 -91 11 -54
0 -83 4 -79 10 7 12 -157 12 -195 1z"/>
<path d="M19703 37602 c0 -12 5 -22 9 -22 11 0 10 12 -2 30 -7 12 -9 10 -7 -8z"/>
<path d="M19175 37600 c-3 -5 -1 -10 4 -10 6 0 11 5 11 10 0 6 -2 10 -4 10 -3
0 -8 -4 -11 -10z"/>
<path d="M19145 37591 c-6 -11 13 -26 22 -17 4 3 1 6 -6 6 -7 0 -9 5 -6 10 3
6 4 10 1 10 -3 0 -7 -4 -11 -9z"/>
<path d="M19735 37590 c-3 -6 1 -7 9 -4 18 7 21 14 7 14 -6 0 -13 -4 -16 -10z"/>
<path d="M40150 37563 c0 -16 9 -140 20 -278 11 -137 20 -256 20 -262 0 -7 11
-13 24 -13 29 0 27 -11 56 307 28 306 34 273 -50 273 -70 0 -70 0 -70 -27z"/>
<path d="M19280 37560 c6 -11 13 -20 16 -20 2 0 0 9 -6 20 -6 11 -13 20 -16
20 -2 0 0 -9 6 -20z"/>
<path d="M19720 37536 c0 -2 8 -10 18 -17 15 -13 16 -12 3 4 -13 16 -21 21
-21 13z"/>
<path d="M19287 37515 c3 -8 9 -12 14 -9 12 7 11 11 -5 17 -10 4 -13 1 -9 -8z"/>
<path d="M19725 37471 c-3 -5 -2 -12 3 -15 5 -3 9 1 9 9 0 17 -3 19 -12 6z"/>
<path d="M19747 37444 c-3 -3 -3 -13 0 -22 4 -8 2 -13 -3 -9 -6 3 -10 -5 -10
-18 0 -17 3 -21 11 -15 7 6 16 6 21 2 4 -4 4 0 -2 8 -6 8 -9 25 -8 38 1 24 1
25 -9 16z"/>
<path d="M40741 37343 c24 -43 73 -132 110 -198 l67 -120 159 -3 c183 -3 221
6 277 68 87 97 62 241 -52 303 l-50 27 -277 0 -276 0 42 -77z"/>
<path d="M19330 37398 c0 -3 6 -11 14 -17 10 -9 17 -7 27 6 12 16 12 17 -2 6
-12 -10 -18 -10 -27 -1 -7 7 -12 9 -12 6z"/>
<path d="M19793 37385 c0 -6 6 -12 12 -12 6 0 12 6 12 12 0 6 -6 12 -12 12 -6
0 -12 -6 -12 -12z"/>
<path d="M19289 37378 c-6 -21 -5 -38 1 -38 5 0 8 9 7 20 -1 17 -5 26 -8 18z"/>
<path d="M37630 37198 c0 -47 38 -107 88 -143 l44 -30 446 -5 447 -5 33 -23
c88 -63 88 -200 -1 -266 -26 -19 -46 -21 -210 -26 -193 -6 -219 -12 -268 -63
-32 -33 -59 -97 -59 -142 0 -53 35 -121 83 -159 l39 -31 1662 -3 1662 -2 47
30 c36 23 54 43 72 83 41 86 28 158 -40 223 -59 58 -95 64 -355 64 l-221 0 16
-30 c24 -47 19 -85 -16 -114 l-31 -26 -859 2 c-844 3 -859 3 -878 23 -48 47
-44 58 133 378 l164 297 -999 0 -999 0 0 -32z"/>
<path d="M19825 37190 c-4 -6 -10 -8 -15 -5 -5 3 -11 1 -14 -4 -12 -19 12 -20
29 -1 10 11 15 20 12 20 -3 0 -9 -5 -12 -10z"/>
<path d="M19343 37175 c0 -8 4 -12 9 -9 5 3 6 10 3 15 -9 13 -12 11 -12 -6z"/>
<path d="M19586 37063 c-6 -14 -5 -15 5 -6 7 7 10 15 7 18 -3 3 -9 -2 -12 -12z"/>
<path d="M19525 37039 c-4 -6 -5 -12 -2 -15 2 -3 7 2 10 11 7 17 1 20 -8 4z"/>
<path d="M19496 36985 c-9 -26 -7 -32 5 -12 6 10 9 21 6 23 -2 3 -7 -2 -11
-11z"/>
<path d="M19646 36975 c-11 -8 -14 -15 -7 -15 7 0 10 -4 7 -8 -2 -4 4 -8 15
-8 10 0 19 4 19 8 0 4 -7 8 -16 8 -8 0 -12 5 -9 10 4 6 11 7 17 4 7 -4 8 -2 4
4 -9 14 -7 15 -30 -3z"/>
<path d="M19456 36952 c-3 -5 1 -9 9 -9 8 0 12 4 9 9 -3 4 -7 8 -9 8 -2 0 -6
-4 -9 -8z"/>
<path d="M40150 36880 l0 -70 70 0 70 0 0 70 0 70 -70 0 -70 0 0 -70z"/>
<path d="M19366 36824 c-4 -10 -1 -21 6 -25 10 -7 10 -11 0 -21 -6 -6 -12 -17
-12 -22 0 -6 5 -4 10 4 7 11 10 11 10 2 0 -10 3 -10 14 0 8 7 10 16 5 19 -5 3
-11 16 -14 29 -6 30 -11 34 -19 14z"/>
<path d="M19740 36820 c0 -5 5 -10 11 -10 5 0 7 5 4 10 -3 6 -8 10 -11 10 -2
0 -4 -4 -4 -10z"/>
<path d="M19400 36800 c0 -5 5 -10 11 -10 5 0 7 5 4 10 -3 6 -8 10 -11 10 -2
0 -4 -4 -4 -10z"/>
<path d="M19715 36770 c-3 -5 -1 -10 4 -10 6 0 11 5 11 10 0 6 -2 10 -4 10 -3
0 -8 -4 -11 -10z"/>
<path d="M19725 36741 c-3 -5 0 -13 6 -17 7 -4 9 -3 5 4 -3 5 0 13 6 15 9 4
10 6 1 6 -6 1 -14 -3 -18 -8z"/>
<path d="M19373 36725 c0 -8 4 -12 9 -9 5 3 6 10 3 15 -9 13 -12 11 -12 -6z"/>
<path d="M19726 36673 c-6 -14 -5 -15 5 -6 7 7 10 15 7 18 -3 3 -9 -2 -12 -12z"/>
<path d="M19383 36665 c0 -8 4 -12 9 -9 5 3 6 10 3 15 -9 13 -12 11 -12 -6z"/>
<path d="M19716 36635 c-3 -9 -2 -13 4 -10 18 11 10 -6 -13 -28 -13 -12 -15
-16 -6 -9 14 11 18 11 22 0 4 -8 6 -6 6 5 1 10 5 16 10 12 5 -3 13 0 17 6 5 8
3 9 -5 5 -8 -5 -11 -2 -9 9 4 23 -18 31 -26 10z"/>
<path d="M19618 36546 c-15 -8 -29 -12 -31 -9 -3 2 -8 0 -11 -5 -7 -12 8 -10
44 6 20 8 28 7 38 -6 6 -9 12 -11 12 -5 0 23 -25 33 -52 19z"/>
<path d="M19443 36535 c0 -8 4 -12 9 -9 5 3 6 10 3 15 -9 13 -12 11 -12 -6z"/>
<path d="M19489 36533 c-13 -16 -12 -17 4 -4 9 7 17 15 17 17 0 8 -8 3 -21
-13z"/>
<path d="M19745 36530 c-3 -5 -1 -10 4 -10 6 0 11 5 11 10 0 6 -2 10 -4 10 -3
0 -8 -4 -11 -10z"/>
<path d="M19600 36349 c0 -5 5 -7 10 -4 6 3 10 8 10 11 0 2 -4 4 -10 4 -5 0
-10 -5 -10 -11z"/>
<path d="M19642 36339 c-9 -4 87 -6 213 -6 244 0 225 5 -38 9 -87 2 -166 0
-175 -3z"/>
<path d="M4573 30882 c2 -9 72 -196 156 -414 83 -218 151 -405 151 -415 -1
-73 -96 -169 -235 -238 -209 -103 -425 -123 -498 -47 -15 16 -48 87 -80 172
-30 80 -98 258 -150 395 -53 138 -101 263 -107 279 l-11 29 -30 -29 c-73 -68
-164 -233 -201 -361 -31 -106 -33 -351 -4 -458 75 -283 296 -523 566 -617 145
-50 332 -63 478 -32 42 10 84 17 94 18 10 1 103 -99 233 -249 119 -137 223
-256 230 -264 11 -11 22 -6 67 30 29 24 86 69 126 99 39 30 72 58 72 63 0 4
-20 29 -43 55 -41 44 -125 139 -257 292 -60 69 -63 73 -99 112 l-23 26 52 54
c124 126 192 252 237 440 26 110 24 309 -5 411 -60 211 -167 373 -325 493 -79
60 -243 138 -330 157 -64 14 -69 14 -64 -1z"/>
<path d="M40760 30319 c-30 -4 -95 -20 -144 -34 -412 -120 -719 -450 -819
-880 -21 -88 -21 -116 -27 -1415 -5 -1255 -6 -1328 -23 -1375 -60 -160 -195
-270 -362 -295 -229 -32 -404 10 -519 124 -53 54 -101 133 -119 195 -6 21 -13
304 -17 696 l-6 660 -26 95 c-61 222 -170 411 -325 561 -289 281 -589 356
-1324 334 l-246 -7 -6 -271 c-4 -149 -7 -312 -7 -364 l0 -93 358 0 c455 -1
530 -7 614 -51 123 -65 206 -180 228 -315 8 -44 13 -286 14 -674 3 -656 2
-641 62 -825 121 -368 437 -666 807 -760 72 -18 266 -45 330 -45 4 0 -13 -41
-39 -92 -66 -131 -117 -251 -149 -346 -22 -67 -26 -96 -24 -155 9 -167 140
-303 304 -313 33 -2 54 -1 48 2 -18 8 -19 1094 -2 1094 6 0 8 -7 5 -16 -3 -8
-2 -13 3 -10 15 9 50 -59 40 -76 -6 -12 -4 -15 9 -14 12 1 17 -6 16 -21 -1
-13 2 -20 7 -18 4 3 10 1 14 -5 3 -5 1 -10 -5 -10 -6 0 -8 -5 -5 -10 4 -6 11
-7 17 -4 6 4 46 13 88 20 170 30 356 105 471 191 211 158 360 358 433 578 64
195 59 92 65 1550 l6 1330 22 55 c54 131 159 232 280 270 59 18 93 20 378 20
216 0 316 3 321 11 3 6 3 170 -1 365 l-7 354 -342 -1 c-187 -1 -366 -5 -396
-10z"/>
<path d="M16420 30178 c0 -7 27 -170 60 -363 33 -192 60 -360 60 -372 0 -32
-65 -100 -123 -129 -80 -41 -191 -65 -302 -67 -115 -1 -173 13 -216 51 -30 27
-31 32 -94 402 -36 206 -65 381 -65 388 0 27 -27 8 -115 -81 -77 -78 -100
-108 -139 -187 -65 -134 -81 -200 -80 -345 0 -141 17 -213 75 -330 114 -230
320 -378 580 -416 45 -6 107 -9 138 -6 l57 5 40 -72 c22 -39 154 -268 292
-509 139 -241 252 -441 252 -444 0 -3 -48 -89 -106 -190 -59 -101 -105 -186
-102 -188 6 -7 230 -135 235 -135 3 0 30 23 60 50 31 28 72 60 93 70 l37 19
109 -190 c60 -104 111 -189 114 -189 3 0 41 61 84 136 l78 136 -26 46 c-15 26
-36 65 -47 87 l-21 40 84 145 c46 80 88 154 92 165 14 38 178 315 186 315 5 0
39 -18 77 -40 58 -33 70 -37 79 -25 6 8 91 154 190 325 169 295 180 311 204
306 218 -49 394 28 570 249 48 61 140 202 140 216 0 4 -95 62 -212 129 l-211
122 -396 -17 c-260 -11 -400 -21 -407 -29 -6 -6 -137 -229 -291 -496 -402
-697 -446 -771 -454 -762 -6 6 -66 107 -169 288 -24 41 -153 263 -234 403 -36
62 -66 116 -66 120 0 3 23 19 50 35 138 82 271 283 315 476 19 85 19 233 -1
323 -34 154 -132 314 -252 413 -74 61 -222 142 -222 122z m2070 -1133 c33 -17
60 -61 60 -97 0 -41 -36 -86 -78 -99 -117 -35 -193 128 -89 191 39 24 68 25
107 5z"/>
<path d="M27700 28526 c0 -2 56 -104 124 -227 l124 -224 61 -3 61 -3 2 -217 3
-217 58 77 c98 133 184 175 291 144 30 -9 58 -21 61 -26 18 -30 25 1 25 115
l0 125 63 0 62 0 126 230 127 230 -594 0 c-327 0 -594 -2 -594 -4z"/>
<path d="M29940 27671 l0 -48 -112 -6 c-194 -10 -328 -65 -444 -181 -180 -181
-255 -447 -274 -971 -9 -256 -18 -307 -64 -374 -53 -77 -128 -111 -240 -111
-120 0 -217 63 -268 175 -23 49 -23 57 -26 438 -2 213 -4 387 -6 387 -2 0 -28
-11 -58 -25 -29 -14 -68 -25 -86 -25 l-33 0 40 48 c23 27 41 53 41 59 0 6 -53
49 -117 95 l-118 85 -239 12 c-131 7 -242 9 -246 4 -5 -4 -113 -154 -242 -333
-129 -179 -305 -423 -391 -542 l-156 -217 56 -38 c30 -21 61 -42 68 -47 9 -7
24 -1 49 18 72 54 139 69 201 42 l30 -12 119 165 c65 91 129 181 143 199 l24
32 45 -32 c38 -27 47 -30 55 -18 4 8 64 92 132 185 97 134 128 169 143 166 10
-2 58 -5 106 -5 56 -1 84 -5 80 -11 -4 -6 -25 -36 -46 -68 l-39 -57 6 -237 c7
-314 30 -409 133 -564 186 -281 567 -394 888 -263 155 63 289 188 361 339 66
137 75 188 85 456 13 331 37 511 85 631 49 120 97 154 236 165 l79 6 0 -82 0
-81 105 0 105 0 0 345 0 345 -105 0 -105 0 0 -49z m-1802 -607 c26 -18 30 -74
6 -98 -53 -54 -125 -13 -114 64 6 46 65 64 108 34z"/>
<path d="M28308 27426 c-21 -30 -38 -56 -38 -59 0 -3 39 -33 88 -68 48 -34
102 -73 120 -87 l32 -24 0 89 0 89 -79 57 c-44 31 -81 57 -83 57 -2 0 -20 -25
-40 -54z"/>
<path d="M6900 26944 c-52 -47 -105 -95 -118 -107 l-22 -23 117 -135 c65 -74
156 -179 203 -234 47 -54 90 -103 95 -109 6 -6 26 -30 46 -54 l36 -42 -15 -53
c-18 -66 -20 -235 -3 -307 7 -30 33 -97 58 -149 76 -158 218 -283 390 -340
110 -37 109 -41 46 122 -162 420 -184 482 -178 509 11 47 88 115 178 158 140
67 266 87 343 55 41 -17 34 -1 180 -387 60 -158 112 -288 116 -288 13 0 102
127 128 185 87 191 80 411 -18 600 -53 101 -182 229 -282 277 -116 57 -187 72
-325 72 -98 -1 -133 -5 -190 -24 -80 -26 -142 -59 -199 -103 l-39 -31 -21 26
c-92 113 -411 468 -420 467 -6 0 -54 -38 -106 -85z"/>
<path d="M17535 26788 c-43 -73 -78 -138 -78 -144 0 -6 98 -182 218 -392 l218
-382 -26 -58 c-73 -163 -58 -371 37 -521 49 -79 140 -166 211 -203 35 -18 66
-30 69 -28 3 3 -16 130 -42 283 -54 318 -55 309 33 358 70 39 155 59 252 59
93 0 143 -16 166 -52 8 -12 36 -149 62 -303 26 -154 49 -282 51 -284 9 -11
109 89 150 150 117 176 129 398 31 583 -46 89 -155 194 -247 240 -145 71 -326
83 -452 31 -35 -15 -70 -28 -78 -31 -11 -3 -57 70 -165 258 -205 358 -321 558
-327 564 -3 3 -40 -55 -83 -128z"/>
<path d="M39364 25696 c1 -8 5 -18 8 -22 4 -3 5 1 4 10 -1 8 -5 18 -8 22 -4 3
-5 -1 -4 -10z"/>
<path d="M39372 25600 c-18 -29 -15 -33 8 -10 21 21 25 30 12 30 -4 0 -13 -9
-20 -20z"/>
<path d="M39396 25573 c-6 -14 -5 -15 5 -6 7 7 10 15 7 18 -3 3 -9 -2 -12 -12z"/>
<path d="M39457 25527 c-7 -19 5 -34 26 -34 18 0 13 12 -6 12 -7 0 -11 8 -9
18 3 20 -4 23 -11 4z"/>
<path d="M39440 25451 c0 -6 4 -13 10 -16 6 -3 7 1 4 9 -7 18 -14 21 -14 7z"/>
<path d="M39476 25432 c-2 -4 4 -8 14 -8 10 0 16 4 14 8 -3 4 -9 8 -14 8 -5 0
-11 -4 -14 -8z"/>
<path d="M39523 25347 c-4 -6 -1 -7 7 -2 10 6 12 4 7 -8 -9 -23 0 -22 12 1 8
14 6 19 -5 19 -8 0 -18 -5 -21 -10z"/>
<path d="M39546 25294 c-5 -14 -4 -15 8 -5 8 7 21 9 27 5 8 -4 9 -3 5 4 -10
17 -33 15 -40 -4z"/>
<path d="M39545 25260 c-3 -5 -5 -10 -3 -11 33 -8 38 -7 27 7 -14 17 -16 17
-24 4z"/>
<path d="M39605 25210 c-3 -5 1 -10 10 -10 9 0 13 5 10 10 -3 6 -8 10 -10 10
-2 0 -7 -4 -10 -10z"/>
<path d="M39611 25177 c2 -1 13 -9 24 -17 19 -14 19 -14 6 3 -7 9 -18 17 -24
17 -6 0 -8 -1 -6 -3z"/>
<path d="M39635 25123 c3 -3 1 -11 -4 -17 -6 -7 -4 -18 4 -29 12 -17 13 -16
11 12 -1 17 -5 33 -9 36 -4 3 -5 2 -2 -2z"/>
<path d="M39601 25063 c-1 -6 4 -15 10 -18 6 -4 8 -14 5 -22 -3 -8 -2 -12 3
-9 5 3 9 17 9 32 0 16 -3 21 -8 14 -6 -9 -9 -9 -13 1 -3 9 -6 10 -6 2z"/>
<path d="M39629 25003 l-24 -28 30 25 c17 14 32 26 34 28 2 1 0 2 -6 2 -5 0
-20 -12 -34 -27z"/>
<path d="M39641 24987 c-9 -11 -8 -17 3 -26 11 -9 15 -8 20 5 9 23 -8 38 -23
21z m19 -7 c0 -5 -5 -10 -11 -10 -5 0 -7 5 -4 10 3 6 8 10 11 10 2 0 4 -4 4
-10z"/>
<path d="M39634 24929 c-3 -6 -2 -15 3 -20 5 -5 9 -1 9 11 0 23 -2 24 -12 9z"/>
<path d="M39614 24877 c20 -15 12 -45 -12 -46 -61 -3 -64 -5 -46 -18 10 -7 23
-13 28 -13 6 0 4 5 -4 10 -10 6 -11 10 -2 10 22 0 27 -2 25 -11 -7 -23 9 -5
28 32 11 23 16 38 10 35 -5 -4 -12 -2 -16 4 -3 5 -11 10 -18 10 -6 0 -3 -6 7
-13z"/>
<path d="M39553 24767 c-1 -11 -1 -18 0 -16 2 2 8 11 15 20 9 12 9 16 -1 16
-7 0 -14 -9 -14 -20z"/>
<path d="M39525 24761 c-3 -5 -2 -12 3 -15 5 -3 9 1 9 9 0 17 -3 19 -12 6z"/>
<path d="M39445 24729 c-5 -8 -5 -11 0 -7 4 4 13 1 20 -8 10 -14 12 -14 25 3
11 14 11 16 0 6 -10 -10 -16 -9 -25 4 -10 13 -13 14 -20 2z"/>
<path d="M38070 22033 c-8 -3 -25 -15 -37 -26 l-23 -20 0 -1184 0 -1183 105 0
105 0 0 1158 c0 786 -4 1169 -11 1195 -8 30 -18 42 -44 53 -35 14 -68 17 -95
7z"/>
<path d="M27650 19735 l0 -135 42 21 c203 104 443 -79 554 -423 l19 -58 43 0
42 0 0 90 0 90 -55 0 -55 0 0 275 0 275 -295 0 -295 0 0 -135z"/>
<path d="M29860 19595 l0 -275 -55 0 -55 0 0 -90 0 -90 55 0 55 0 -2 -667 -3
-668 -52 -3 -53 -3 0 -188 0 -187 -47 -23 c-219 -105 -417 -320 -504 -546
-110 -282 -89 -609 56 -872 98 -179 252 -328 428 -414 l67 -33 0 -178 0 -178
55 0 55 0 0 -540 0 -540 -55 0 -55 0 0 -90 0 -90 55 0 55 0 0 -155 0 -155 290
0 290 0 0 155 0 155 55 0 55 0 0 90 0 90 -55 0 -55 0 0 540 0 540 55 0 55 0 2
176 3 177 62 33 c264 140 441 358 525 650 20 70 23 100 22 269 0 177 -2 196
-27 278 -53 171 -147 328 -268 448 -72 70 -123 108 -233 169 l-81 46 -3 186
-2 187 -53 3 -52 3 -3 668 -2 667 55 0 55 0 0 90 0 90 -55 0 -55 0 0 275 0
275 -290 0 -290 0 0 -275z m415 -2206 c28 -5 60 -10 73 -9 13 0 21 -4 18 -8
-3 -4 10 -8 27 -8 18 0 48 -8 67 -16 176 -82 224 -110 227 -134 3 -17 2 -17
-7 1 -9 20 -10 20 -7 -1 1 -11 -4 -28 -12 -37 -7 -10 -10 -17 -5 -17 5 0 18
13 29 30 l20 29 22 -21 c12 -11 20 -25 17 -29 -3 -5 2 -9 11 -9 18 0 133 -115
145 -145 5 -13 3 -26 -7 -37 -10 -11 -11 -18 -3 -23 8 -5 6 -14 -7 -28 -14
-18 -12 -17 12 3 17 14 32 27 35 29 3 2 -3 1 -12 -2 -20 -7 -34 8 -18 18 17
11 52 -25 40 -40 -8 -10 -6 -13 7 -11 10 0 18 -3 19 -9 0 -5 4 -18 8 -28 5 -9
5 -28 2 -42 -4 -15 -2 -25 4 -25 6 0 9 4 5 9 -3 5 -1 12 5 16 6 4 10 -6 10
-25 0 -17 4 -29 8 -26 4 3 7 -8 6 -24 -1 -16 3 -28 8 -27 6 1 12 -5 14 -13 36
-142 48 -320 22 -320 -10 0 -9 -3 1 -9 10 -7 12 -19 6 -47 -5 -22 -8 -42 -7
-46 1 -5 -3 -8 -9 -8 -6 0 -8 -8 -4 -20 4 -13 -1 -25 -14 -37 -12 -10 -21 -22
-21 -28 0 -5 4 -3 10 5 15 25 20 6 5 -23 -8 -15 -12 -27 -9 -27 3 0 -1 -10 -8
-22 -6 -13 -13 -31 -15 -41 -5 -28 -49 -88 -58 -79 -4 4 -6 0 -2 -9 6 -18 -37
-89 -54 -89 -6 0 -7 5 -3 12 4 7 3 8 -5 4 -8 -5 -9 -12 -2 -20 11 -13 -55
-100 -69 -91 -5 3 -12 0 -16 -6 -5 -8 -2 -10 7 -5 31 16 -80 -77 -136 -114
-39 -26 -66 -38 -79 -34 -13 4 -16 3 -11 -7 6 -9 3 -11 -9 -6 -10 4 -15 3 -11
-3 3 -5 -4 -14 -15 -20 -11 -6 -20 -8 -20 -5 0 4 -7 -1 -16 -9 -20 -20 -38
-21 -30 0 4 10 2 13 -7 7 -6 -4 -15 -8 -19 -8 -3 0 -10 -4 -15 -9 -5 -5 -2 -6
6 -1 9 5 12 4 7 -3 -4 -6 -14 -8 -23 -5 -11 4 -14 3 -9 -5 4 -7 2 -12 -3 -12
-6 0 -11 4 -11 10 0 5 -7 7 -15 4 -8 -4 -12 -11 -8 -18 3 -6 3 -8 -2 -4 -4 4
-14 3 -20 -2 -7 -6 -53 -13 -104 -17 l-91 -6 0 164 0 165 -42 14 c-134 47
-106 250 34 250 21 0 28 3 20 9 -9 5 -12 28 -10 77 l3 69 333 3 c223 1 331 -1
327 -8 -11 -18 1 -10 26 17 13 14 18 23 11 19 -10 -6 -12 43 -10 253 2 169 -1
261 -7 262 -5 1 -13 1 -17 0 -5 0 -8 5 -8 12 0 9 -2 9 -8 -1 -7 -9 -79 -12
-328 -10 l-319 3 -3 273 -3 272 38 -1 c21 0 61 -5 88 -10z"/>
<path d="M30288 17373 c7 -3 16 -2 19 1 4 3 -2 6 -13 5 -11 0 -14 -3 -6 -6z"/>
<path d="M30240 17356 c0 -8 4 -17 9 -20 5 -4 7 3 4 14 -6 23 -13 26 -13 6z"/>
<path d="M30350 17340 c8 -5 20 -10 25 -10 6 0 3 5 -5 10 -8 5 -19 10 -25 10
-5 0 -3 -5 5 -10z"/>
<path d="M30436 17332 c-2 -4 4 -8 14 -8 10 0 16 4 14 8 -3 4 -9 8 -14 8 -5 0
-11 -4 -14 -8z"/>
<path d="M30496 17268 c3 -4 9 -8 15 -8 5 0 9 4 9 8 0 5 -7 9 -15 9 -8 0 -12
-4 -9 -9z"/>
<path d="M30530 17256 c0 -2 7 -7 16 -10 8 -3 12 -2 9 4 -6 10 -25 14 -25 6z"/>
<path d="M30690 17170 c-9 -6 -10 -10 -3 -10 6 0 15 5 18 10 8 12 4 12 -15 0z"/>
<path d="M30764 17135 c11 -8 23 -15 27 -15 4 0 5 -8 2 -19 -3 -10 -1 -21 4
-24 5 -3 8 6 8 19 -2 23 -29 53 -50 53 -5 0 -1 -6 9 -14z"/>
<path d="M30812 17061 c-11 -7 -11 -9 0 -14 9 -3 15 1 15 9 0 8 -1 14 -1 14
-1 0 -7 -4 -14 -9z"/>
<path d="M30859 17048 c13 -18 8 -23 -20 -20 -3 1 -6 -6 -6 -14 0 -17 13 -19
21 -1 3 8 8 7 16 -5 6 -10 16 -18 23 -18 8 0 7 3 -2 9 -7 5 -11 13 -8 19 4 5
-3 18 -16 28 -18 16 -19 16 -8 2z"/>
<path d="M30826 16896 c3 -9 10 -16 16 -16 5 0 7 -4 4 -9 -3 -5 1 -12 9 -15
12 -4 13 -2 6 13 -6 10 -17 24 -26 31 -13 11 -15 10 -9 -4z"/>
<path d="M30960 16783 c0 -6 5 -15 10 -18 6 -3 10 -13 10 -21 0 -9 7 -22 15
-31 8 -8 13 -19 10 -24 -4 -5 -1 -9 4 -9 15 0 14 12 -5 38 -9 13 -13 31 -9 45
4 15 4 18 -3 8 -8 -11 -12 -10 -21 5 -6 11 -11 14 -11 7z"/>
<path d="M30856 16311 c-14 -15 -15 -21 -4 -27 7 -4 10 -3 5 1 -4 5 0 17 10
27 9 10 14 18 11 18 -3 0 -13 -9 -22 -19z"/>
<path d="M31025 16270 c-3 -5 -1 -10 4 -10 6 0 11 5 11 10 0 6 -2 10 -4 10 -3
0 -8 -4 -11 -10z"/>
<path d="M30995 16250 c-3 -5 -1 -10 4 -10 6 0 11 5 11 10 0 6 -2 10 -4 10 -3
0 -8 -4 -11 -10z"/>
<path d="M30970 16176 c7 -7 13 -7 20 0 6 6 3 10 -10 10 -13 0 -16 -4 -10 -10z"/>
<path d="M30195 16170 c-3 -6 1 -7 9 -4 18 7 21 14 7 14 -6 0 -13 -4 -16 -10z"/>
<path d="M30969 16133 c-13 -16 -12 -17 4 -4 9 7 17 15 17 17 0 8 -8 3 -21
-13z"/>
<path d="M30290 16106 c0 -9 5 -16 10 -16 6 0 10 4 10 9 0 6 -4 13 -10 16 -5
3 -10 -1 -10 -9z"/>
<path d="M30300 16001 c0 -7 -5 -9 -12 -5 -7 5 -8 3 -3 -5 5 -9 10 -10 18 -2
6 6 8 14 4 18 -4 3 -7 1 -7 -6z"/>
<path d="M30270 15955 c0 -8 29 -12 39 -5 9 5 4 8 -13 8 -14 0 -26 -2 -26 -3z"/>
<path d="M30800 15951 c0 -5 9 -13 20 -16 11 -4 17 -11 14 -17 -4 -7 -2 -8 4
-4 16 10 16 11 -13 30 -14 9 -25 12 -25 7z"/>
<path d="M30807 15913 c-3 -5 4 -15 16 -23 21 -12 21 -12 7 6 -8 10 -15 20
-16 22 -1 2 -4 -1 -7 -5z"/>
<path d="M30737 15847 c-3 -8 1 -14 8 -14 7 0 11 6 8 14 -3 7 -6 13 -8 13 -2
0 -5 -6 -8 -13z"/>
<path d="M30655 15790 c3 -5 8 -10 11 -10 2 0 4 5 4 10 0 6 -5 10 -11 10 -5 0
-7 -4 -4 -10z"/>
<path d="M30690 15776 c0 -2 7 -7 16 -10 8 -3 12 -2 9 4 -6 10 -25 14 -25 6z"/>
<path d="M30670 15749 c0 -11 4 -18 10 -14 5 3 7 12 3 20 -7 21 -13 19 -13 -6z"/>
<path d="M30635 15720 c-3 -6 1 -7 9 -4 18 7 21 14 7 14 -6 0 -13 -4 -16 -10z"/>
<path d="M30570 15716 c0 -2 8 -10 18 -17 15 -13 16 -12 3 4 -13 16 -21 21
-21 13z"/>
<path d="M30508 15680 c-10 -11 -13 -22 -9 -25 5 -2 12 2 15 10 3 9 16 20 28
25 21 8 21 9 3 9 -11 -1 -28 -9 -37 -19z"/>
<path d="M30247 15623 c4 -11 9 -11 22 -1 9 7 18 14 20 15 3 2 -7 2 -21 1 -17
-1 -24 -7 -21 -15z"/>
<path d="M30316 15621 c-19 -7 -19 -8 2 -13 12 -4 20 -2 17 2 -3 5 1 11 7 13
7 3 9 5 3 6 -5 0 -19 -4 -29 -8z"/>
<path d="M30253 15583 c-16 -12 -16 -13 0 -13 9 0 17 4 17 9 0 5 8 7 19 4 10
-3 21 0 25 5 8 14 -40 10 -61 -5z"/>
<path d="M17235 19590 c-203 -23 -370 -71 -525 -151 -306 -156 -490 -429 -540
-797 -9 -62 -11 -147 -7 -260 8 -208 11 -222 46 -222 14 0 40 -9 57 -19 31
-19 31 -20 38 -123 10 -139 39 -340 71 -484 125 -564 413 -937 820 -1060 80
-24 106 -27 235 -27 117 0 160 4 224 21 221 61 440 224 578 433 69 102 155
280 197 404 60 178 116 480 128 690 6 103 8 112 34 137 18 18 38 28 58 28 16
0 32 3 35 8 2 4 10 71 17 150 21 253 -15 480 -109 675 -59 122 -118 203 -214
292 -159 147 -370 243 -638 289 -113 20 -393 28 -505 16z m886 -761 c65 -65
85 -93 133 -190 88 -179 130 -356 146 -618 10 -168 1 -260 -40 -376 -62 -176
-211 -435 -299 -519 l-28 -27 -54 44 c-221 179 -457 281 -597 258 -129 -21
-290 -102 -470 -238 l-86 -65 -33 39 c-107 123 -229 341 -291 522 l-37 106 0
220 c0 121 4 241 8 266 l8 45 67 -9 c100 -14 350 -2 464 22 202 44 424 137
598 253 118 79 266 219 326 309 l46 69 31 -17 c18 -10 66 -52 108 -94z m-602
-1729 c166 -18 268 -83 226 -146 -38 -59 -154 -94 -308 -94 -115 0 -197 14
-259 46 -75 38 -89 85 -38 127 47 40 106 56 275 76 6 0 52 -4 104 -9z"/>
<path d="M27741 19098 c-42 -58 -49 -74 -39 -84 7 -7 108 -81 223 -164 116
-83 212 -156 214 -162 2 -6 -28 -41 -67 -79 -81 -77 -174 -127 -254 -136 l-53
-6 31 34 c54 59 87 110 78 118 -5 4 -73 54 -152 110 l-142 103 -306 16 -305
17 -500 -693 c-275 -382 -499 -695 -497 -696 2 -1 36 -26 76 -55 40 -29 80
-55 87 -58 8 -3 32 10 54 29 71 61 192 87 251 53 14 -8 28 -14 32 -15 3 0 64
80 134 178 70 97 152 210 181 249 l54 73 55 -42 c30 -22 56 -39 57 -37 2 2 79
109 171 237 122 169 172 232 183 227 95 -36 194 -31 282 14 l61 31 0 -280 0
-280 -55 0 -55 0 0 -186 c0 -173 1 -186 18 -179 64 25 194 55 280 66 152 18
280 1 495 -68 16 -5 17 8 17 181 l0 186 -55 0 -55 0 0 524 0 524 -212 153
c-117 84 -218 156 -224 161 -7 5 -30 -18 -63 -64z m-207 -469 c14 -17 26 -41
26 -54 0 -13 -12 -37 -26 -54 -51 -61 -144 -26 -144 54 0 80 93 115 144 54z"/>
<path d="M5210 18680 l0 -260 420 0 420 0 0 260 0 260 -420 0 -420 0 0 -260z"/>
<path d="M37450 18165 l0 -155 80 0 80 0 0 -104 0 -105 48 -3 47 -3 5 -1470
c6 -1464 6 -1470 27 -1562 68 -286 173 -483 353 -663 179 -179 387 -291 650
-347 131 -28 412 -25 540 6 448 109 767 395 918 823 59 167 72 261 82 613 10
348 22 528 46 675 51 330 158 476 366 503 l47 6 3 -62 3 -62 155 0 155 0 0
555 0 555 -155 0 -155 0 -5 -90 -5 -90 -85 -8 c-276 -25 -541 -131 -709 -284
-314 -286 -447 -751 -467 -1628 -4 -164 -11 -297 -20 -339 -19 -96 -64 -186
-123 -249 -95 -101 -207 -142 -362 -135 -85 4 -106 9 -172 40 -123 59 -191
136 -246 276 l-26 67 -3 1438 -2 1437 45 0 45 0 0 105 0 105 80 0 80 0 0 155
0 155 -660 0 -660 0 0 -155z"/>
<path d="M5130 18085 l0 -185 500 0 500 0 0 185 0 185 -500 0 -500 0 0 -185z"/>
<path d="M27340 16580 l0 -180 605 0 605 0 0 180 0 180 -605 0 -605 0 0 -180z"/>
<path d="M18871 16644 c-20 -26 -21 -37 -21 -415 0 -337 -2 -389 -15 -389 -8
0 -17 -10 -20 -22 -3 -13 -52 -338 -110 -723 -58 -385 -107 -706 -110 -712 -3
-10 -245 -13 -1164 -13 l-1159 0 -5 23 c-3 12 -54 344 -113 737 l-107 715 -82
-16 c-45 -9 -122 -20 -172 -24 -49 -4 -95 -10 -101 -14 -9 -5 21 -230 113
-836 l125 -829 -121 -250 c-66 -138 -123 -257 -126 -263 -4 -10 247 -13 1236
-13 l1241 0 0 45 c0 58 22 100 58 113 24 8 30 18 41 66 17 75 79 199 133 262
81 96 208 182 314 214 l41 12 5 70 c4 54 10 74 28 93 22 24 29 25 142 25 l118
0 0 158 c0 144 5 196 72 640 79 531 78 501 8 502 -19 0 -45 3 -57 6 l-23 6 0
403 c0 392 -1 403 -21 429 -18 22 -28 26 -74 26 -46 0 -56 -4 -74 -26z m-2714
-2360 c43 -27 34 -120 -12 -138 -83 -32 -158 52 -109 122 29 42 71 48 121 16z"/>
<path d="M5073 15653 l-231 -568 -366 -3 -366 -2 0 -53 c0 -64 31 -123 80
-151 34 -20 52 -21 443 -24 l407 -3 0 -64 0 -65 30 0 30 0 0 -490 0 -490 180
0 180 0 0 490 0 490 30 0 30 0 0 65 0 65 70 0 70 0 0 -65 0 -65 30 0 30 0 0
-490 0 -490 180 0 180 0 0 28 c1 21 10 33 45 54 53 32 94 92 109 159 l12 51
159 70 c205 89 332 145 579 253 l199 88 46 -17 c57 -20 82 -20 129 0 36 14 92
60 92 75 0 3 -40 4 -89 1 -84 -4 -89 -4 -105 19 -19 28 -21 98 -3 123 10 14
34 19 107 25 l95 7 -38 37 c-97 94 -240 56 -292 -78 -14 -38 -16 -57 -8 -85
l9 -36 -449 -199 c-419 -184 -450 -197 -460 -179 -16 29 -76 81 -108 94 l-29
12 0 239 0 239 30 0 30 0 0 65 0 64 453 3 454 3 37 29 c46 35 66 79 66 146 l0
50 -366 2 -366 3 -231 568 -231 567 -326 0 -326 0 -231 -567z m797 212 l0 -95
-240 0 -240 0 0 95 0 95 240 0 240 0 0 -95z"/>
<path d="M27540 15356 l0 -176 55 0 55 0 0 -540 0 -540 -55 0 -55 0 0 -90 0
-90 55 0 55 0 0 -155 0 -155 295 0 295 0 0 155 0 155 55 0 55 0 0 90 0 90 -55
0 -55 0 0 540 0 540 55 0 55 0 0 176 c0 142 -3 175 -13 171 -262 -100 -522
-100 -784 0 -10 4 -13 -29 -13 -171z"/>
<path d="M29149 9051 l-29 -29 0 -1056 0 -1056 95 0 95 0 0 1054 c0 580 -3
1062 -6 1071 -9 22 -57 45 -94 45 -21 0 -41 -9 -61 -29z"/>
<path d="M36524 7426 l-34 -34 0 -210 0 -210 -113 -3 c-103 -4 -118 -7 -179
-37 -81 -40 -148 -110 -180 -190 -22 -55 -23 -70 -26 -399 l-3 -343 120 0 120
0 3 323 c4 440 -26 407 368 407 300 0 314 -2 350 -63 13 -21 20 -50 20 -84 0
-52 0 -53 -30 -53 l-30 0 0 -75 0 -75 185 0 185 0 0 75 0 75 -35 0 -35 0 0 68
c0 163 -95 300 -244 352 -41 15 -82 20 -157 20 l-101 0 3 208 c4 226 0 245
-57 270 -48 23 -93 15 -130 -22z"/>
<path d="M13660 5505 l0 -515 155 0 155 0 0 85 0 85 339 0 339 0 278 161 c154
89 369 213 479 277 110 63 238 137 283 164 78 45 84 47 89 28 3 -11 7 -20 8
-20 2 0 34 18 72 40 l68 40 -977 0 -978 0 0 85 0 85 -155 0 -155 0 0 -515z"/>
<path d="M20890 5935 l0 -85 -859 0 -859 0 -11 -31 c-10 -28 -13 -30 -43 -24
-18 4 -37 8 -42 9 -5 0 -15 -17 -22 -39 -7 -25 -17 -39 -25 -37 -8 2 -28 6
-45 9 -31 5 -32 4 -39 -37 -6 -37 -10 -41 -29 -36 -73 21 -73 21 -81 -24 l-7
-42 -37 7 c-20 4 -40 7 -45 8 -5 1 -14 -15 -19 -36 -9 -38 -9 -38 -55 -35 -46
3 -47 3 -56 -34 -9 -34 -12 -37 -35 -31 -55 14 -64 10 -74 -30 -9 -36 -11 -38
-41 -31 -55 12 -59 10 -69 -28 -10 -41 -15 -43 -65 -29 -32 10 -32 9 -43 -35
-11 -41 -13 -43 -38 -37 -55 14 -64 10 -74 -30 -10 -41 -11 -41 -79 -21 -16 5
-18 1 -34 -58 -5 -17 67 -18 1410 -18 l1416 0 0 -85 0 -85 155 0 155 0 0 515
0 515 -155 0 -155 0 0 -85z"/>
<path d="M16110 5700 c-140 -82 -256 -155 -258 -163 -2 -9 3 -40 12 -71 l14
-56 -26 -14 c-34 -18 -85 -72 -105 -111 -8 -17 -18 -52 -22 -78 l-7 -47 910 0
911 0 308 178 c169 98 432 249 583 337 151 87 279 162 284 166 6 5 -518 9
-1170 8 l-1179 -1 -255 -148z"/>
<path d="M7054 5821 c-90 -22 -181 -98 -226 -190 -21 -41 -23 -63 -26 -218
l-3 -173 -429 0 c-356 0 -431 -2 -443 -14 -7 -8 -58 -116 -112 -240 l-99 -226
-61 0 c-34 0 -66 -5 -73 -12 -17 -17 -16 -214 1 -225 6 -4 34 -10 62 -13 l50
-5 102 -450 c57 -247 123 -535 147 -640 24 -104 64 -275 87 -380 28 -123 50
-196 61 -207 17 -17 89 -18 1421 -18 1141 0 1407 2 1421 13 14 10 58 190 191
773 95 417 180 794 190 837 l17 77 42 0 c23 0 52 7 64 16 20 14 22 23 22 113
0 68 -4 102 -13 109 -7 6 -41 12 -76 14 l-64 3 -92 215 c-51 118 -100 225
-109 238 l-17 22 -429 0 -430 0 0 144 c0 198 -18 255 -104 342 -53 52 -73 65
-130 83 -65 20 -88 21 -490 20 -231 -1 -435 -4 -452 -8z m890 -277 c26 -26 26
-29 26 -165 l0 -139 -455 0 -455 0 0 136 c0 142 6 169 43 184 12 5 200 9 418
9 l396 1 27 -26z m-1104 -904 l0 -220 -300 0 -300 0 0 220 0 220 300 0 300 0
0 -220z m1950 0 l0 -220 -300 0 -300 0 0 220 0 220 300 0 300 0 0 -220z"/>
<path d="M40507 5370 c-103 -18 -187 -83 -230 -179 -17 -38 -22 -71 -25 -188
l-4 -143 -368 0 c-282 0 -370 -3 -378 -12 -5 -7 -46 -96 -90 -198 l-80 -185
-54 -5 c-29 -3 -59 -9 -65 -13 -17 -11 -18 -178 -1 -195 7 -7 30 -12 53 -12
l41 0 122 -532 c188 -825 209 -910 223 -919 8 -5 559 -9 1225 -9 957 0 1214 3
1222 13 10 13 30 96 218 925 l118 522 34 0 c65 0 72 10 72 110 0 60 -4 91 -12
97 -7 4 -37 10 -66 13 l-53 5 -80 185 c-44 102 -86 191 -94 199 -10 10 -85 13
-378 15 l-365 1 -4 145 c-4 133 -6 149 -30 195 -34 64 -90 118 -153 147 -49
22 -59 23 -400 25 -192 1 -371 -2 -398 -7z m728 -245 c24 -23 25 -30 25 -142
l0 -118 -390 -3 -390 -3 0 116 c0 122 7 151 43 165 12 5 172 9 355 9 l333 1
24 -25z m-945 -775 l0 -190 -255 0 -255 0 0 190 0 190 255 0 255 0 0 -190z
m1674 129 c3 -34 6 -92 6 -129 0 -37 -3 -95 -6 -129 l-7 -61 -253 0 -254 0 0
190 0 190 254 0 253 0 7 -61z"/>
<path d="M17970 5169 c0 -5 11 -9 25 -9 14 0 25 2 25 4 0 2 -11 6 -25 8 -14 3
-25 1 -25 -3z"/>
<path d="M26060 3810 l0 -660 265 0 265 0 0 660 0 660 -265 0 -265 0 0 -660z"/>
<path d="M37305 3671 c-54 -14 -95 -41 -123 -83 l-27 -42 -2 -285 -3 -285 -27
-12 c-56 -23 -93 -84 -93 -150 l0 -34 311 0 311 0 -4 53 c-5 64 -29 100 -80
124 l-38 18 1 275 c0 158 -4 287 -10 302 -19 50 -70 97 -124 113 -28 8 -53 15
-56 14 -3 -1 -19 -4 -36 -8z"/>
</g>
</svg>
