<?xml version="1.0" standalone="no"?>
<!DOCTYPE svg PUBLIC "-//W3C//DTD SVG 20010904//EN"
 "http://www.w3.org/TR/2001/REC-SVG-20010904/DTD/svg10.dtd">
<svg version="1.0" xmlns="http://www.w3.org/2000/svg"
 width="2484.000000pt" height="2484.000000pt" viewBox="0 0 2484.000000 2484.000000"
 preserveAspectRatio="xMidYMid meet">

<g transform="translate(0.000000,2484.000000) scale(0.100000,-0.100000)"
fill="#000000" stroke="none">
<path d="M0 12420 l0 -12420 12420 0 12420 0 0 12420 0 12420 -12420 0 -12420
0 0 -12420z m24810 0 l0 -12390 -12390 0 -12390 0 0 12390 0 12390 12390 0
12390 0 0 -12390z"/>
<path d="M9735 19184 c-16 -2 -86 -9 -155 -15 -69 -6 -213 -22 -320 -35 -1901
-237 -3278 -1014 -4272 -2412 -408 -573 -782 -1305 -1012 -1981 -302 -887
-412 -1831 -321 -2761 195 -1985 1277 -3790 2927 -4883 911 -602 1951 -975
3023 -1081 144 -14 467 -30 415 -20 -14 2 -74 11 -135 20 -1386 189 -2714
1016 -3719 2314 -922 1190 -1521 2697 -1675 4211 -92 895 -23 1774 200 2559
245 861 683 1640 1254 2229 161 166 252 253 365 351 430 372 935 684 1500 925
302 129 519 202 940 315 167 45 307 83 311 85 6 4 794 145 810 145 5 0 9 9 9
20 0 18 -6 20 -57 19 -32 -1 -71 -4 -88 -5z"/>
<path d="M4775 18299 c-4 -6 -5 -12 -2 -15 2 -3 7 2 10 11 7 17 1 20 -8 4z"/>
<path d="M4896 17828 c3 -5 10 -6 15 -3 13 9 11 12 -6 12 -8 0 -12 -4 -9 -9z"/>
<path d="M4109 17603 c-13 -16 -12 -17 4 -4 9 7 17 15 17 17 0 8 -8 3 -21 -13z"/>
<path d="M3455 16710 c3 -5 8 -10 11 -10 2 0 4 5 4 10 0 6 -5 10 -11 10 -5 0
-7 -4 -4 -10z"/>
<path d="M18000 14032 c0 -5 -6 -9 -12 -9 -7 0 -130 -76 -273 -168 -1125 -728
-2005 -1135 -2745 -1269 -227 -41 -343 -51 -595 -51 -243 0 -355 9 -564 46
-62 11 -115 18 -118 16 -5 -6 271 -64 387 -82 504 -78 1160 -70 1760 20 511
76 1133 228 1850 450 235 73 613 195 618 200 2 2 11 71 21 154 l16 150 -42 73
c-23 40 -42 78 -42 85 -1 6 -5 13 -9 15 -7 3 -41 57 -170 266 -12 20 -31 54
-42 75 -19 34 -40 49 -40 29z"/>
<path d="M7205 13530 c17 -5 118 -33 225 -61 107 -28 254 -74 325 -101 72 -27
172 -65 223 -84 195 -72 660 -293 922 -439 755 -421 1561 -982 2655 -1849 362
-286 745 -598 1550 -1261 1569 -1291 2187 -1778 2956 -2328 1979 -1413 3515
-2051 4854 -2014 492 14 902 102 1360 292 186 77 514 257 672 368 29 20 57 37
63 37 5 0 10 3 10 8 0 4 45 40 100 81 56 40 98 76 96 78 -3 3 -37 -7 -75 -22
-39 -16 -74 -25 -78 -22 -3 4 -13 1 -22 -7 -9 -8 -61 -28 -116 -45 -201 -62
-435 -108 -675 -132 -219 -23 -711 -14 -900 16 -14 2 -50 7 -80 10 -112 12
-443 72 -535 98 -51 14 -42 12 -98 21 -26 4 -45 11 -42 17 3 5 -1 6 -9 3 -9
-3 -24 -3 -33 1 -10 5 -29 10 -42 12 -63 11 -534 157 -611 190 -8 3 -17 7 -20
8 -3 1 -12 4 -20 8 -8 3 -39 13 -67 22 -29 9 -53 21 -53 26 0 6 -4 8 -9 5 -4
-3 -75 21 -157 53 -903 352 -1896 895 -2974 1625 -1319 894 -2698 2010 -4520
3656 -600 542 -1168 934 -1710 1178 -658 297 -1257 414 -2655 522 -532 41
-546 42 -510 30z"/>
<path d="M10000 13291 c0 -6 4 -13 10 -16 6 -3 7 1 4 9 -7 18 -14 21 -14 7z"/>
<path d="M13658 12603 c7 -3 16 -2 19 1 4 3 -2 6 -13 5 -11 0 -14 -3 -6 -6z"/>
<path d="M18151 10604 c0 -11 3 -14 6 -6 3 7 2 16 -1 19 -3 4 -6 -2 -5 -13z"/>
<path d="M20270 6976 c0 -2 8 -10 18 -17 15 -13 16 -12 3 4 -13 16 -21 21 -21
13z"/>
<path d="M23126 6148 c3 -5 10 -6 15 -3 13 9 11 12 -6 12 -8 0 -12 -4 -9 -9z"/>
<path d="M15023 5383 l-63 -4 0 -261 c0 -235 -2 -263 -17 -281 -11 -13 -12
-17 -4 -12 8 4 43 7 77 6 l63 -2 3 280 c2 155 3 280 3 279 0 -1 -28 -3 -62 -5z"/>
<path d="M15918 5378 c-97 -13 -174 -77 -199 -164 -7 -24 -16 -44 -19 -44 -3
0 -3 -37 1 -83 9 -120 66 -219 139 -242 11 -3 20 -10 20 -14 0 -8 11 -9 110
-11 92 -1 106 2 178 37 l57 29 3 117 3 117 -121 0 -120 0 0 -50 0 -50 60 0
c60 0 60 0 60 -30 0 -60 -127 -92 -195 -50 -48 29 -70 81 -70 165 0 111 53
175 145 175 42 0 100 -33 107 -61 6 -20 23 -23 86 -13 42 7 47 25 22 73 -8 16
-12 31 -10 35 3 3 2 4 -1 1 -4 -2 -20 7 -36 20 -16 14 -40 28 -54 31 -13 3
-24 9 -24 13 0 8 -84 8 -142 -1z"/>
<path d="M14430 5107 l0 -277 55 0 55 0 0 110 0 110 31 0 c17 0 39 -5 49 -10
20 -11 110 -131 110 -146 0 -5 11 -22 24 -37 23 -26 28 -28 95 -25 l70 3 -58
90 c-32 50 -65 96 -74 104 -9 7 -14 17 -11 22 3 5 2 9 -3 8 -28 -5 -22 4 14
21 57 25 83 69 83 140 0 68 -26 115 -77 136 -24 11 -88 17 -199 21 l-164 6 0
-276z m302 146 c23 -20 23 -57 1 -83 -15 -17 -30 -20 -105 -20 l-88 0 0 60 0
60 87 0 c66 0 91 -4 105 -17z"/>
<path d="M15180 5105 l0 -275 55 0 55 0 0 163 0 162 30 -45 c16 -25 30 -49 30
-54 0 -6 8 -19 18 -30 26 -29 115 -178 115 -193 0 -7 9 -11 21 -8 12 2 40 4
64 4 l42 1 0 275 0 276 -56 -3 -56 -3 1 -170 c1 -121 -2 -165 -9 -153 -6 10
-10 21 -10 24 1 4 -3 10 -8 13 -9 6 -82 116 -82 125 0 2 -16 28 -35 57 -19 30
-35 57 -35 61 0 4 -8 17 -17 28 -13 15 -30 20 -70 20 l-53 0 0 -275z"/>
<path d="M16651 5365 c-18 -8 -38 -12 -44 -8 -5 3 -7 2 -4 -4 3 -5 -7 -19 -22
-31 -32 -24 -81 -114 -81 -150 0 -13 -4 -21 -8 -18 -4 3 -4 -28 0 -67 10 -92
12 -99 22 -115 4 -7 6 -16 3 -18 -11 -11 84 -96 128 -115 87 -39 230 -24 321
32 l34 21 0 114 0 114 -122 0 -123 0 0 -50 0 -50 63 0 63 0 -3 -32 c-4 -46
-53 -71 -126 -65 -88 6 -135 67 -136 177 -1 113 55 180 149 180 44 0 90 -25
79 -42 -4 -7 -2 -8 4 -4 6 3 16 -3 22 -15 11 -19 17 -21 63 -15 28 4 54 9 59
12 11 7 -18 74 -45 103 -39 42 -94 61 -182 60 -48 0 -94 -6 -114 -14z"/>
<path d="M17097 5344 c-4 -21 -7 -146 -7 -276 l0 -238 60 0 60 0 0 110 0 110
34 0 c39 0 90 -35 82 -57 -3 -8 -2 -12 3 -8 5 3 19 -8 31 -25 12 -16 19 -30
16 -30 -3 0 3 -9 14 -20 12 -12 18 -26 14 -32 -4 -6 -3 -8 3 -5 5 4 16 -5 23
-18 12 -23 19 -25 87 -25 57 0 72 3 67 13 -58 95 -118 179 -144 200 -21 19
-26 27 -15 27 29 0 76 30 95 63 27 44 27 131 0 175 -32 52 -72 63 -255 69
l-162 6 -6 -39z m307 -90 c21 -20 20 -63 -1 -86 -13 -15 -32 -18 -105 -18
l-88 0 0 60 0 60 89 0 c68 0 93 -4 105 -16z"/>
<path d="M17752 5354 c-95 -47 -131 -118 -131 -259 -1 -74 3 -99 23 -141 27
-58 80 -106 135 -123 49 -14 153 -14 202 1 99 29 162 129 162 258 0 137 -41
217 -134 264 -75 37 -183 37 -257 0z m204 -93 c44 -27 64 -76 64 -161 0 -80
-13 -114 -62 -155 -28 -24 -39 -27 -85 -23 -89 8 -133 66 -133 177 0 88 30
149 85 171 35 15 99 11 131 -9z"/>
<path d="M18220 5188 c1 -249 10 -287 84 -342 42 -32 199 -36 258 -7 85 42 98
89 98 352 l0 179 -59 0 -60 0 -3 -206 c-3 -202 -3 -206 -27 -225 -15 -12 -39
-19 -68 -19 -36 0 -50 6 -74 29 l-29 29 0 196 0 196 -60 0 -60 0 0 -182z"/>
<path d="M18760 5100 l0 -270 60 0 60 0 0 99 0 99 100 4 c110 4 135 15 178 78
30 44 31 140 2 188 -39 64 -66 72 -242 72 l-158 0 0 -270z m282 153 c18 -16
24 -68 10 -89 -15 -23 -52 -34 -111 -34 l-61 0 0 70 0 70 72 0 c52 0 76 -4 90
-17z"/>
<path d="M7348 5233 c7 -3 16 -2 19 1 4 3 -2 6 -13 5 -11 0 -14 -3 -6 -6z"/>
</g>
</svg>
