<?xml version="1.0" standalone="no"?>
<!DOCTYPE svg PUBLIC "-//W3C//DTD SVG 20010904//EN"
 "http://www.w3.org/TR/2001/REC-SVG-20010904/DTD/svg10.dtd">
<svg version="1.0" xmlns="http://www.w3.org/2000/svg"
 width="4166.000000pt" height="4167.000000pt" viewBox="0 0 4166.000000 4167.000000"
 preserveAspectRatio="xMidYMid meet">

<g transform="translate(0.000000,4167.000000) scale(0.100000,-0.100000)"
fill="#000000" stroke="none">
<path d="M7995 30500 c-280 -37 -517 -244 -602 -525 -17 -58 -18 -401 -20
-8787 l-3 -8727 -58 -3 c-50 -3 -57 -6 -60 -25 l-3 -23 13715 0 13716 0 0 25
c0 24 -3 25 -60 25 l-60 0 -2 8733 -3 8732 -27 80 c-79 233 -255 401 -500 477
l-73 23 -12950 1 c-7122 1 -12977 -2 -13010 -6z m25995 -9090 l0 -8060 -13025
0 -13025 0 0 8060 0 8060 13025 0 13025 0 0 -8060z"/>
<path d="M34270 30422 c0 -6 -10 -8 -22 -5 -13 3 5 -14 40 -37 205 -137 339
-338 382 -572 8 -48 9 -45 5 33 -10 189 -84 363 -211 499 -73 77 -75 78 -124
78 -28 1 -55 4 -60 7 -6 3 -10 2 -10 -3z"/>
<path d="M7482 30356 c-140 -144 -215 -317 -226 -522 l-5 -99 13 65 c29 145
66 237 137 341 54 80 159 183 233 229 31 19 56 38 56 42 0 5 -34 7 -75 6 l-74
-2 -59 -60z"/>
<path d="M3910 12140 l0 -240 30 0 30 0 0 240 0 240 -30 0 -30 0 0 -240z"/>
<path d="M4620 12140 l0 -240 175 0 175 0 0 240 -1 240 -175 0 -174 0 0 -240z"/>
<path d="M36700 12140 l0 -240 170 0 170 0 0 240 0 240 -170 0 -170 0 0 -240z"/>
<path d="M37700 12140 l0 -240 25 0 25 0 0 240 0 240 -25 0 -25 0 0 -240z"/>
<path d="M5654 11549 c-6 -10 478 -61 786 -83 118 -9 241 -18 273 -21 313 -25
1199 -26 14317 -23 10460 3 13723 7 13845 16 609 45 1214 107 1095 111 -132 4
-30313 5 -30316 0z"/>
</g>
</svg>
